<svg width="145" height="145" viewBox="0 0 145 145" fill="none" xmlns="http://www.w3.org/2000/svg">
<circle cx="72.5" cy="72.5" r="72.5" fill="#F3EEF8" fill-opacity="0.4"/>
<path d="M109.482 55.8906C108.438 56.1613 109.482 55.8906 106.922 56.804C103.117 58.1571 101.164 56.8378 98.9074 56.4995C93.3508 55.7215 88.1983 59.3749 86.8175 65.464C86.2113 68.1364 79.6781 70.2676 79.6107 70.3014C61.9979 75.5786 47.2812 80.0101 29.702 85.3212C29.1295 85.4903 28.2876 85.9301 28.1866 86.3699C27.6814 88.4334 27.3447 90.5646 27.0416 92.6619C26.8732 93.8797 27.6478 94.2857 28.7254 94.0489C29.1969 93.9474 29.6684 93.7106 30.1398 93.5076C37.2456 90.6322 44.385 87.7906 51.4571 84.7799C53.0736 84.1034 54.2859 84.374 55.7004 85.152C60.1457 87.5538 64.6246 89.8203 69.1036 92.1545C69.4067 92.3236 70.2823 93.1017 70.4507 93.3385C72.707 96.7213 74.4919 99.4275 76.9166 103.149C75.0981 103.149 73.6836 103.115 72.2355 103.182C72.2019 103.182 72.1345 103.182 72.1008 103.216C72.0672 103.216 71.7304 103.352 71.8651 103.791C71.9325 104.062 72.2356 104.164 72.4713 104.197C72.5386 104.197 72.6397 104.197 72.7407 104.197L73.751 104.13C76.3104 103.994 79.0382 104.299 81.1598 105.077L86.5481 107.14H86.5818H86.6155C86.6491 107.14 86.7165 107.174 86.7838 107.174C87.0532 107.174 87.289 106.971 87.289 106.701C87.289 106.498 87.1543 106.329 86.9859 106.261C85.3357 105.686 83.3488 104.772 81.6987 104.197H81.766H94.5294C94.8325 104.197 95.0683 103.961 95.0683 103.69C95.0683 103.419 94.8325 103.182 94.5294 103.182C92.7109 103.182 92.7109 103.182 89.6463 103.182C89.1749 103.182 87.9288 103.216 87.39 102.574C85.2684 100.07 83.3825 97.8376 81.1262 95.1314C81.9681 95.0975 82.4396 95.0637 82.9447 95.0299C86.9185 94.7931 90.7577 93.8797 93.9906 91.4779C103.016 84.7799 106.788 75.5448 106.417 64.483C106.35 62.9607 107.091 60.7957 108 58.7998C108.472 57.6497 109.044 56.7025 109.482 55.8906ZM28.1529 93.034C28.5234 90.869 28.7928 89.0423 29.1969 87.2832C29.2979 86.8773 29.9041 86.4713 30.3756 86.3022C35.7301 84.6784 41.0847 83.0547 46.4393 81.4986C46.8771 81.3633 47.4159 81.3971 47.82 81.6001C48.9987 82.1413 50.11 82.7841 51.5245 83.5283C43.7115 86.7081 36.0669 89.8203 28.1529 93.034ZM49.2345 80.6191C61.3917 76.9656 73.5153 73.346 85.6388 69.6925C86.043 69.6249 86.6491 69.5234 87.1543 70.3014C87.2553 70.5044 87.3563 70.7074 87.4574 70.9104C87.4574 70.9104 87.4574 70.9442 87.491 70.9442C88.9728 74.4623 89.579 78.5217 84.4265 81.4648C73.65 87.6892 60.2467 86.3022 49.2345 80.6191ZM86.1777 103.115C83.4498 103.115 81.7323 103.115 79.3413 103.115C78.2637 103.115 77.7922 102.303 77.6575 102.1C75.7042 99.1231 74.0878 96.6536 72.0672 93.5414C74.4919 94.015 76.6135 94.3871 78.7351 94.8269C79.1056 94.8946 79.5097 95.0637 79.7118 95.3343C81.7997 97.8038 83.854 100.307 86.1777 103.115ZM94.8325 89.3129C88.636 94.5225 81.3282 94.9284 73.9867 92.5604C69.2383 91.0381 64.2879 88.2642 59.7079 86.1669C59.7079 86.1669 72.3366 89.1438 82.2038 84.2048C83.7529 83.4945 85.0663 82.6488 86.0766 81.7016L86.1103 81.6677C89.6463 78.4202 90.0841 74.124 88.4003 70.4029C86.5818 66.3774 88.333 63.5358 90.6566 60.7957C93.115 57.9203 96.348 56.8716 100.086 57.9203C103.386 58.8675 105.407 61.6752 105.34 66.0729C105.205 75.308 101.972 83.3253 94.8325 89.3129ZM105.575 60.9987C105.171 60.0515 104.7 59.4088 103.892 58.766C105.037 58.4277 106.013 58.0895 107.495 57.6497C106.72 59.0366 106.215 59.9162 105.575 60.9987Z" fill="#47276A"/>
<path d="M96.4489 37.8262C98.7389 39.6529 100.355 40.4309 101.265 41.8179C102.612 43.8814 102.376 45.9788 100.861 46.7907C99.3451 47.6025 97.4929 46.6553 96.651 44.355C96.0111 42.6974 96.4826 40.8369 96.4489 37.8262Z" fill="#47276A"/>
<path d="M117.026 73.5486L101.198 46.3169L99.6821 46.4522L106.518 57.9538L107.529 57.6493L106.956 58.6642L116.15 74.0899C116.15 74.0899 116.419 74.4281 116.857 74.1913C117.228 73.9545 117.026 73.5486 117.026 73.5486Z" fill="#47276A"/>
</svg>
