<svg width="281" height="58" viewBox="0 0 281 58" fill="none" xmlns="http://www.w3.org/2000/svg">
<path d="M39.0394 7.06799C39.0394 7.19066 39.024 7.32866 38.9934 7.48199C38.9934 7.60466 38.978 7.74266 38.9474 7.89599C38.6714 7.58932 38.38 7.43599 38.0734 7.43599C37.1534 7.43599 36.5094 7.69666 36.1414 8.21799C35.7734 8.70866 35.4054 9.50599 35.0374 10.61C34.424 12.358 33.872 14.1367 33.3814 15.946C32.8907 17.7247 32.4767 19.4267 32.1394 21.052C31.802 22.6467 31.5414 24.1033 31.3574 25.422C31.1734 26.7407 31.0814 27.814 31.0814 28.642C31.0814 30.1447 31.4187 30.896 32.0934 30.896C32.2774 30.896 32.5074 30.85 32.7834 30.758C33.09 30.6353 33.3967 30.4973 33.7034 30.344C34.0407 30.1907 34.3474 30.022 34.6234 29.838C34.93 29.654 35.1754 29.4853 35.3594 29.332C35.4207 29.3013 35.4667 29.332 35.4974 29.424C35.528 29.516 35.5127 29.5927 35.4514 29.654C35.1754 29.8993 34.8074 30.1753 34.3474 30.482C33.8874 30.758 33.3814 31.034 32.8294 31.31C32.308 31.5553 31.7867 31.77 31.2654 31.954C30.744 32.138 30.2994 32.23 29.9314 32.23C29.4407 32.23 29.088 32.046 28.8734 31.678C28.6894 31.31 28.5974 30.804 28.5974 30.16C28.5974 29.516 28.6894 28.6727 28.8734 27.63C29.088 26.5567 29.318 25.376 29.5634 24.088C29.6247 23.8427 29.5634 23.5973 29.3794 23.352C29.1954 23.076 28.9347 22.938 28.5974 22.938C28.4134 22.938 28.122 22.9533 27.7234 22.984C27.3247 22.984 26.8647 22.9993 26.3434 23.03C25.822 23.03 25.2547 23.0453 24.6414 23.076C24.0587 23.076 23.4607 23.076 22.8474 23.076C21.13 24.548 19.5354 25.882 18.0634 27.078C16.622 28.2433 15.2267 29.2247 13.8774 30.022C12.5587 30.8193 11.2707 31.4327 10.0134 31.862C8.78671 32.2913 7.56004 32.506 6.33337 32.506C4.30937 32.506 2.85271 31.9693 1.96337 30.896C1.04337 29.792 0.583374 28.366 0.583374 26.618C0.583374 26.0353 0.675374 25.422 0.859374 24.778C1.01271 24.1033 1.24271 23.4593 1.54937 22.846C1.85604 22.2327 2.22404 21.65 2.65337 21.098C3.08271 20.546 3.55804 20.0707 4.07937 19.672C4.23271 19.58 4.29404 19.5493 4.26337 19.58C4.23271 19.6107 4.26337 19.6413 4.35537 19.672C3.61937 20.4387 3.03671 21.2513 2.60737 22.11C2.14737 22.9687 1.91737 23.9807 1.91737 25.146C1.91737 27.078 2.45404 28.4733 3.52737 29.332C4.63137 30.16 6.14937 30.574 8.08137 30.574C8.69471 30.574 9.43071 30.5127 10.2894 30.39C11.148 30.2673 12.1447 29.9607 13.2794 29.47C14.4447 28.9487 15.7634 28.1973 17.2354 27.216C18.7074 26.204 20.3634 24.824 22.2034 23.076C21.5594 23.076 21.1147 23.0453 20.8694 22.984C20.624 22.9227 20.5014 22.8307 20.5014 22.708C20.532 22.5853 20.6394 22.4473 20.8234 22.294C21.038 22.11 21.1914 22.0027 21.2834 21.972C21.498 22.0947 21.7127 22.1867 21.9274 22.248C22.1727 22.3093 22.4947 22.3553 22.8934 22.386C25.1934 20.27 27.4014 18.016 29.5174 15.624C31.6334 13.232 33.6267 10.84 35.4974 8.44799C34.976 8.78532 34.378 9.06132 33.7034 9.27599C33.0287 9.45999 32.354 9.55199 31.6794 9.55199C30.8514 9.55199 29.9927 9.49066 29.1034 9.36799C28.2447 9.21466 27.3707 9.06133 26.4814 8.90799C25.592 8.75466 24.7334 8.61666 23.9054 8.49399C23.0774 8.34066 22.2954 8.26399 21.5594 8.26399C19.9034 8.26399 18.5387 8.73933 17.4654 9.68999C16.4227 10.61 15.748 12.2813 15.4414 14.704C15.4107 14.8267 15.3494 14.888 15.2574 14.888C15.196 14.8573 15.1654 14.8113 15.1654 14.75C15.1654 13.646 15.334 12.588 15.6714 11.576C16.0087 10.564 16.4994 9.67466 17.1434 8.90799C17.818 8.11066 18.646 7.48199 19.6274 7.02199C20.6087 6.56199 21.7434 6.33199 23.0314 6.33199C24.0127 6.33199 24.9634 6.45466 25.8834 6.69999C26.834 6.91466 27.754 7.14466 28.6434 7.38999C29.5327 7.66599 30.4067 7.92666 31.2654 8.17199C32.1547 8.38666 33.0287 8.49399 33.8874 8.49399C34.2247 8.49399 34.608 8.44799 35.0374 8.35599C35.4667 8.26399 35.804 8.07999 36.0494 7.80399C36.5707 7.19066 37 6.77666 37.3374 6.56199C37.6747 6.34733 38.012 6.23999 38.3494 6.23999C38.8094 6.23999 39.0394 6.51599 39.0394 7.06799ZM33.3814 11.99C33.412 11.898 33.3967 11.8367 33.3354 11.806C33.3047 11.7447 33.228 11.7753 33.1054 11.898C32.4 12.7873 31.6334 13.7073 30.8054 14.658C29.9774 15.6087 29.134 16.544 28.2754 17.464C27.4474 18.384 26.6194 19.2887 25.7914 20.178C24.9634 21.0367 24.1814 21.8033 23.4454 22.478C23.752 22.5087 24.074 22.5393 24.4114 22.57C24.7794 22.57 25.04 22.57 25.1934 22.57C25.8067 22.57 26.512 22.57 27.3094 22.57C28.1067 22.57 28.9654 22.5393 29.8854 22.478C30.2227 21.006 30.6827 19.35 31.2654 17.51C31.8787 15.67 32.584 13.83 33.3814 11.99Z" fill="#00073D"/>
<path d="M39.5084 28.412C39.3857 28.2893 39.2937 28.1667 39.2324 28.044C39.2017 27.8907 39.1097 27.9367 38.9564 28.182C38.5884 28.7647 38.251 29.3167 37.9444 29.838C37.6377 30.3287 37.3464 30.7887 37.0704 31.218C36.917 31.4633 36.6717 31.6933 36.3344 31.908C36.0277 32.092 35.721 32.2453 35.4144 32.368C35.2304 32.368 35.1384 32.3067 35.1384 32.184C35.1384 32.0613 35.1844 31.9233 35.2764 31.77C35.951 30.666 36.779 29.3167 37.7604 27.722C38.7417 26.0967 39.7384 24.4407 40.7504 22.754C41.7624 21.0673 42.7284 19.488 43.6484 18.016C44.599 16.544 45.3657 15.394 45.9484 14.566C46.7764 13.4007 47.635 12.2353 48.5244 11.07C49.4444 9.87399 50.3797 8.73932 51.3304 7.66599C52.281 6.56199 53.2624 5.53466 54.2744 4.58399C55.2864 3.60266 56.3137 2.75933 57.3564 2.05399C58.031 1.59399 58.767 1.22599 59.5644 0.949993C60.3924 0.643324 61.159 0.48999 61.8644 0.48999C62.5084 0.48999 63.045 0.597324 63.4744 0.811992C63.9037 1.02666 64.241 1.28733 64.4864 1.59399C64.7624 1.86999 64.9464 2.16133 65.0384 2.46799C65.161 2.74399 65.2224 2.94333 65.2224 3.06599C65.2224 3.24999 65.161 3.35733 65.0384 3.38799C64.9157 3.41866 64.8544 3.37266 64.8544 3.24999C64.8544 3.09666 64.839 2.98932 64.8084 2.92799C64.8084 2.86666 64.7164 2.75933 64.5324 2.60599C63.7044 2.08466 62.585 1.82399 61.1744 1.82399C59.6717 1.82399 58.2457 2.25333 56.8964 3.11199C55.547 3.93999 54.2744 4.99799 53.0784 6.28599C51.8824 7.54333 50.763 8.93866 49.7204 10.472C48.7084 11.9747 47.7884 13.3853 46.9604 14.704C46.4697 15.5013 45.9024 16.4367 45.2584 17.51C44.645 18.5833 44.047 19.6107 43.4644 20.592C42.9124 21.5733 42.437 22.4167 42.0384 23.122C41.6704 23.8273 41.471 24.226 41.4404 24.318C41.2257 24.7473 41.287 24.7933 41.6244 24.456C41.9004 24.18 42.2224 23.904 42.5904 23.628C42.9584 23.3213 43.3264 23.0607 43.6944 22.846C44.0624 22.6007 44.4304 22.4013 44.7984 22.248C45.1664 22.0947 45.5037 22.018 45.8104 22.018C46.3317 22.018 46.5924 22.2327 46.5924 22.662C46.5924 22.9687 46.485 23.3213 46.2704 23.72C46.0557 24.088 45.841 24.41 45.6264 24.686C45.0437 25.422 44.3537 26.02 43.5564 26.48C42.7897 26.9093 41.9617 27.262 41.0724 27.538C40.919 27.5993 40.8577 27.6607 40.8884 27.722C40.919 27.7527 40.965 27.8293 41.0264 27.952C42.1304 29.792 43.3264 31.6933 44.6144 33.656C45.933 35.6493 47.359 37.4587 48.8924 39.084C50.4257 40.7093 52.0817 42.0433 53.8604 43.086C55.639 44.1593 57.571 44.696 59.6564 44.696C60.7604 44.696 61.9257 44.512 63.1524 44.144C64.4097 43.776 65.5137 43.1627 66.4644 42.304C66.587 42.1813 66.679 42.1507 66.7404 42.212C66.8324 42.304 66.817 42.4113 66.6944 42.534C65.5597 43.5153 64.287 44.1747 62.8764 44.512C61.4657 44.88 60.1164 45.064 58.8284 45.064C57.0497 45.064 55.3477 44.6807 53.7224 43.914C52.097 43.178 50.5177 42.1353 48.9844 40.786C47.4817 39.4367 46.0097 37.8267 44.5684 35.956C43.127 34.0853 41.7164 32.046 40.3364 29.838L39.5084 28.412ZM44.9824 23.536C44.9824 23.3827 44.921 23.26 44.7984 23.168C44.7064 23.0453 44.599 22.984 44.4764 22.984C44.2004 22.984 43.7864 23.1833 43.2344 23.582C42.713 23.95 42.1764 24.3793 41.6244 24.87C41.103 25.3607 40.643 25.8513 40.2444 26.342C39.8457 26.802 39.6464 27.1393 39.6464 27.354C39.6464 27.446 39.6924 27.492 39.7844 27.492C40.183 27.492 40.6737 27.3693 41.2564 27.124C41.8697 26.848 42.4524 26.526 43.0044 26.158C43.5564 25.7593 44.0164 25.33 44.3844 24.87C44.783 24.41 44.9824 23.9653 44.9824 23.536Z" fill="#00073D"/>
<path d="M60.6109 26.71C59.0469 28.5807 57.6515 29.9607 56.4249 30.85C55.2289 31.7393 54.1555 32.184 53.2049 32.184C52.7755 32.184 52.3922 32.0767 52.0549 31.862C51.7482 31.6167 51.5949 31.0953 51.5949 30.298C51.5949 30.114 51.6255 29.7613 51.6869 29.24C51.7789 28.688 51.9322 28.1667 52.1469 27.676C51.7482 28.2587 51.3035 28.826 50.8129 29.378C50.3529 29.93 49.8775 30.4207 49.3869 30.85C48.9269 31.2793 48.4822 31.632 48.0529 31.908C47.6235 32.1533 47.2709 32.276 46.9949 32.276C46.4122 32.276 46.1209 31.9387 46.1209 31.264C46.1209 30.6813 46.4275 29.8073 47.0409 28.642C47.4702 27.7833 48.0529 26.8787 48.7889 25.928C49.5555 24.9467 50.3682 24.088 51.2269 23.352C51.7482 22.9227 52.2389 22.57 52.6989 22.294C53.1895 22.018 53.6495 21.88 54.0789 21.88C54.6002 21.88 55.0755 22.0487 55.5049 22.386C55.6582 22.2633 55.8269 22.1407 56.0109 22.018C56.1949 21.8647 56.3482 21.742 56.4709 21.65C56.5322 21.65 56.5629 21.6807 56.5629 21.742C56.5629 21.8033 56.5015 21.9413 56.3789 22.156C55.4895 23.628 54.7075 24.9927 54.0329 26.25C53.3889 27.5073 53.0669 28.78 53.0669 30.068C53.0669 31.0187 53.4042 31.494 54.0789 31.494C54.7229 31.494 55.5969 31.0953 56.7009 30.298C57.8355 29.47 59.0622 28.182 60.3809 26.434C60.4115 26.3727 60.4729 26.342 60.5649 26.342C60.6875 26.342 60.7029 26.4647 60.6109 26.71ZM54.4469 23.444C54.2629 23.2293 54.0482 23.076 53.8029 22.984C53.5575 22.892 53.3275 22.846 53.1129 22.846C52.5915 22.846 52.0242 23.1373 51.4109 23.72C50.7975 24.3027 50.2302 25.0233 49.7089 25.882C49.1875 26.71 48.7582 27.584 48.4209 28.504C48.0835 29.3933 47.9149 30.16 47.9149 30.804C47.9149 31.0493 48.0222 31.172 48.2369 31.172C48.4822 31.172 48.9882 30.804 49.7549 30.068C50.5215 29.332 51.3495 28.3507 52.2389 27.124C52.6682 26.5107 53.0669 25.9127 53.4349 25.33C53.8029 24.7473 54.1402 24.1187 54.4469 23.444Z" fill="#00073D"/>
<path d="M72.4415 27.354C71.7975 28.274 70.6781 29.24 69.0835 30.252C67.5195 31.2333 65.4342 32.1687 62.8275 33.058C60.8035 36.6767 58.9175 39.6053 57.1695 41.844C55.4521 44.0827 53.8268 45.8153 52.2935 47.042C50.7602 48.2993 49.3188 49.1427 47.9695 49.572C46.6201 50.032 45.3015 50.262 44.0135 50.262C43.2775 50.262 42.5261 50.1393 41.7595 49.894C40.9621 49.6793 40.2568 49.342 39.6435 48.882C38.9995 48.422 38.4782 47.8393 38.0795 47.134C37.6808 46.4593 37.4815 45.662 37.4815 44.742C37.4815 43.5153 37.8495 42.442 38.5855 41.522C39.3215 40.6327 40.3641 39.8353 41.7135 39.13C43.0321 38.4247 44.6115 37.7807 46.4515 37.198C48.2608 36.646 50.2542 36.094 52.4315 35.542C54.0262 35.1127 55.6668 34.668 57.3535 34.208C59.0402 33.7787 60.6195 33.334 62.0915 32.874C62.5515 32.0153 63.0115 31.1567 63.4715 30.298C63.9315 29.4087 64.3608 28.5193 64.7595 27.63C64.3302 28.1513 63.8548 28.688 63.3335 29.24C62.8428 29.7613 62.3062 30.252 61.7235 30.712C61.1408 31.172 60.5581 31.5553 59.9755 31.862C59.3928 32.138 58.8255 32.276 58.2735 32.276C57.8441 32.276 57.5375 32.184 57.3535 32C57.2002 31.7853 57.1235 31.5093 57.1235 31.172C57.1235 30.4973 57.3841 29.7153 57.9055 28.826C58.4268 27.9367 59.0555 27.078 59.7915 26.25C60.5582 25.422 61.3402 24.6707 62.1375 23.996C62.9655 23.2907 63.6708 22.7847 64.2535 22.478C64.6828 22.2327 65.0968 22.0793 65.4955 22.018C65.9248 21.9567 66.3082 21.926 66.6455 21.926C67.1362 21.926 67.4888 21.9873 67.7035 22.11C68.0408 21.4047 68.3168 20.8833 68.5315 20.546C68.7462 20.2087 68.9608 20.04 69.1755 20.04C69.3288 20.04 69.4821 20.086 69.6355 20.178C69.7888 20.27 69.8655 20.3927 69.8655 20.546C69.8655 20.6993 69.7428 21.006 69.4975 21.466C69.2521 21.926 69.0068 22.386 68.7615 22.846C68.0561 24.0727 67.1975 25.56 66.1855 27.308C65.1735 29.056 64.1308 30.8193 63.0575 32.598C65.5415 31.8007 67.5195 30.9113 68.9915 29.93C70.4635 28.918 71.4908 27.998 72.0735 27.17C72.1655 27.0473 72.2421 27.0167 72.3035 27.078C72.3955 27.1087 72.4415 27.2007 72.4415 27.354ZM67.3815 22.708C67.0442 22.5853 66.6301 22.524 66.1395 22.524C65.3728 22.524 64.7441 22.708 64.2535 23.076C63.5481 23.5973 62.8735 24.226 62.2295 24.962C61.6162 25.6673 61.0641 26.4033 60.5735 27.17C60.0828 27.906 59.6995 28.6113 59.4235 29.286C59.1475 29.9607 59.0095 30.4973 59.0095 30.896C59.0095 31.172 59.1475 31.31 59.4235 31.31C60.0062 31.31 60.6502 31.0493 61.3555 30.528C62.0608 30.0067 62.7662 29.332 63.4715 28.504C64.2075 27.676 64.9128 26.756 65.5875 25.744C66.2622 24.732 66.8602 23.72 67.3815 22.708ZM61.8155 33.288C60.3128 33.7787 58.6721 34.254 56.8935 34.714C55.1148 35.174 53.3055 35.6647 51.4655 36.186C48.3068 37.0447 45.7768 37.9033 43.8755 38.762C41.9435 39.6513 40.5328 40.74 39.6435 42.028C39.2141 42.6413 38.9075 43.2393 38.7235 43.822C38.5395 44.4353 38.4475 44.9567 38.4475 45.386C38.4475 46.214 38.6008 46.904 38.9075 47.456C39.1835 48.008 39.5668 48.4527 40.0575 48.79C40.5175 49.1273 41.0388 49.3573 41.6215 49.48C42.2042 49.6333 42.7715 49.71 43.3235 49.71C45.0101 49.71 46.6815 49.2347 48.3375 48.284C49.9935 47.3333 51.6035 46.0913 53.1675 44.558C54.7315 43.0247 56.2342 41.2613 57.6755 39.268C59.1475 37.3053 60.5275 35.312 61.8155 33.288Z" fill="#00073D"/>
<path d="M82.2114 27.078C82.2728 27.0167 82.3341 27.032 82.3955 27.124C82.4568 27.1853 82.4568 27.2467 82.3955 27.308C81.5675 28.1053 80.7088 28.8107 79.8195 29.424C78.9608 30.0373 78.1175 30.5587 77.2895 30.988C76.4921 31.4173 75.7255 31.7393 74.9895 31.954C74.2841 32.1687 73.6861 32.276 73.1954 32.276C72.2754 32.3067 71.5394 32.1687 70.9874 31.862C70.4354 31.5247 70.1595 31.0033 70.1595 30.298C70.1595 30.114 70.1901 29.8687 70.2514 29.562C70.3128 29.2553 70.3895 28.9793 70.4815 28.734C70.7575 27.998 71.1714 27.2313 71.7234 26.434C72.2754 25.606 72.8735 24.8547 73.5175 24.18C74.1921 23.5053 74.8975 22.9533 75.6335 22.524C76.3695 22.0947 77.0595 21.88 77.7035 21.88C78.0715 21.88 78.3934 21.9413 78.6694 22.064C78.9761 22.156 79.1295 22.4167 79.1295 22.846C79.1295 23.306 78.8995 23.7813 78.4395 24.272C78.0101 24.732 77.4581 25.192 76.7835 25.652C76.1088 26.0813 75.3728 26.4953 74.5755 26.894C73.7781 27.262 73.0421 27.5993 72.3675 27.906C72.0608 28.55 71.9075 29.194 71.9075 29.838C71.9075 30.39 72.1528 30.804 72.6435 31.08C73.1341 31.3253 73.6861 31.448 74.2995 31.448C74.8821 31.448 75.5261 31.31 76.2315 31.034C76.9368 30.758 77.6268 30.4053 78.3015 29.976C79.0068 29.5467 79.6968 29.0867 80.3715 28.596C81.0461 28.0747 81.6594 27.5687 82.2114 27.078ZM77.6575 23.26C77.6575 23.0453 77.5961 22.8613 77.4734 22.708C77.3508 22.524 77.1668 22.432 76.9215 22.432C76.5841 22.432 76.2008 22.6007 75.7715 22.938C75.3421 23.2447 74.9128 23.6433 74.4835 24.134C74.0848 24.6247 73.7015 25.1767 73.3335 25.79C72.9961 26.3727 72.7355 26.9247 72.5515 27.446C73.0728 27.2313 73.6248 27.0013 74.2075 26.756C74.7901 26.48 75.2961 26.1733 75.7255 25.836C76.3081 25.4067 76.7681 25.008 77.1055 24.64C77.4735 24.2413 77.6575 23.7813 77.6575 23.26Z" fill="#00073D"/>
<path d="M88.6935 26.48C88.4482 26.9093 88.2028 27.3387 87.9575 27.768C87.7122 28.1667 87.4975 28.5653 87.3135 28.964C87.1908 29.24 87.1295 29.516 87.1295 29.792C87.1295 30.0373 87.2215 30.16 87.4055 30.16C87.5895 30.16 87.8502 30.0373 88.1875 29.792C88.8008 29.3627 89.3528 28.8873 89.8435 28.366C90.3648 27.8447 90.8862 27.308 91.4075 26.756C91.8062 26.296 92.1435 25.8667 92.4195 25.468C92.6955 25.0387 93.0022 24.594 93.3395 24.134C93.5542 23.8273 93.7688 23.5207 93.9835 23.214C94.1982 22.8767 94.4128 22.6007 94.6275 22.386C94.7195 22.294 94.7962 22.202 94.8575 22.11C94.9495 22.018 95.0722 21.972 95.2255 21.972H95.5935C95.8082 21.972 95.9462 22.0487 96.0075 22.202C96.0075 22.3247 95.9308 22.4627 95.7775 22.616C95.1642 23.536 94.5508 24.4407 93.9375 25.33C93.3548 26.2193 92.8795 27.0167 92.5115 27.722C91.9595 28.8567 91.5148 30.0067 91.1775 31.172C91.1468 31.3253 91.1162 31.4633 91.0855 31.586C91.0855 31.678 91.0855 31.7547 91.0855 31.816C91.0855 32.3373 91.3462 32.598 91.8675 32.598C91.9288 32.598 92.1128 32.5673 92.4195 32.506C93.5235 32.1993 94.5202 31.724 95.4095 31.08C96.2988 30.436 97.2495 29.654 98.2615 28.734C98.3228 28.6727 98.3995 28.642 98.4915 28.642C98.6142 28.642 98.6755 28.688 98.6755 28.78C98.6755 28.872 98.6295 28.964 98.5375 29.056C97.4642 30.0067 96.4828 30.804 95.5935 31.448C94.7042 32.092 93.8148 32.5673 92.9255 32.874C92.0975 33.15 91.4075 33.288 90.8555 33.288C89.9048 33.288 89.4295 32.8893 89.4295 32.092C89.4295 31.7547 89.5062 31.4173 89.6595 31.08C89.8128 30.712 89.9662 30.39 90.1195 30.114C90.3648 29.6847 90.5795 29.2707 90.7635 28.872C90.9782 28.4733 91.1468 28.1513 91.2695 27.906C91.2695 27.8447 91.2695 27.814 91.2695 27.814C91.3002 27.7833 91.3155 27.7527 91.3155 27.722C91.3155 27.6607 91.2848 27.63 91.2235 27.63C91.1315 27.63 91.0395 27.6913 90.9475 27.814C90.1502 28.642 89.3375 29.378 88.5095 30.022C88.2028 30.2673 87.9115 30.436 87.6355 30.528C87.3595 30.62 87.0988 30.666 86.8535 30.666H86.7615C86.4548 30.6353 86.1942 30.5433 85.9795 30.39C85.7955 30.206 85.7035 29.9453 85.7035 29.608V29.562C85.7342 29.3167 85.7495 29.194 85.7495 29.194C85.7802 29.1633 85.8875 29.01 86.0715 28.734C86.4702 28.0287 86.8382 27.354 87.1755 26.71C87.5435 26.066 87.8195 25.5447 88.0035 25.146C88.1875 24.7167 88.2642 24.4407 88.2335 24.318C88.2335 24.1953 88.0802 24.2873 87.7735 24.594C87.4668 24.9007 86.9915 25.468 86.3475 26.296C85.7342 27.124 84.9062 28.274 83.8635 29.746C83.4648 30.2367 83.0968 30.6507 82.7595 30.988C82.4222 31.3253 82.1308 31.6013 81.8855 31.816C80.9042 32.6133 80.1222 33.012 79.5395 33.012C79.0488 33.012 78.8035 32.736 78.8035 32.184C78.8035 32.0307 78.8188 31.8467 78.8495 31.632C78.8802 31.3867 78.9722 31.1413 79.1255 30.896C79.3402 30.5893 79.5395 30.4207 79.7235 30.39C79.9075 30.3593 80.0608 30.39 80.1835 30.482C80.3368 30.574 80.4595 30.712 80.5515 30.896C80.6435 31.08 80.6895 31.2333 80.6895 31.356C80.6895 31.632 80.7815 31.77 80.9655 31.77C81.4255 31.77 82.2228 31.0187 83.3575 29.516C83.5722 29.24 83.8635 28.8413 84.2315 28.32C84.6302 27.7987 85.0288 27.262 85.4275 26.71C85.8568 26.158 86.2402 25.652 86.5775 25.192C86.9148 24.7013 87.1448 24.3487 87.2675 24.134C87.5742 23.766 87.8042 23.4287 87.9575 23.122C88.1415 22.7847 88.3255 22.5087 88.5095 22.294C88.6935 22.0487 88.9388 21.8647 89.2455 21.742C89.5522 21.5887 89.9815 21.512 90.5335 21.512H90.9015C91.1162 21.512 91.2542 21.5887 91.3155 21.742C91.3155 21.8647 91.2388 22.0027 91.0855 22.156C90.4722 23.076 90.0122 23.858 89.7055 24.502C89.3988 25.1153 89.0615 25.7747 88.6935 26.48Z" fill="#00073D"/>
<path d="M100.123 26.894C100.552 26.1273 100.997 25.3607 101.457 24.594C101.947 23.7967 102.407 23.0607 102.837 22.386C102.99 22.2633 103.235 22.156 103.573 22.064C103.941 21.972 104.186 21.926 104.309 21.926C104.462 21.926 104.539 21.9873 104.539 22.11C103.956 22.9993 103.389 23.904 102.837 24.824C102.285 25.7133 101.794 26.5413 101.365 27.308C100.966 28.044 100.644 28.7033 100.399 29.286C100.153 29.838 100.031 30.2367 100.031 30.482C100.031 30.7887 100.123 30.942 100.307 30.942C100.491 30.942 100.751 30.8193 101.089 30.574C101.457 30.298 101.855 29.9453 102.285 29.516C102.745 29.0867 103.205 28.6113 103.665 28.09C104.125 27.538 104.569 26.986 104.999 26.434C105.152 26.2193 105.336 25.9433 105.551 25.606C105.765 25.238 105.965 24.9007 106.149 24.594C106.363 24.2567 106.547 23.9807 106.701 23.766C106.885 23.5207 107.023 23.398 107.115 23.398C107.268 23.398 107.437 23.4593 107.621 23.582C107.805 23.674 107.897 23.7813 107.897 23.904C107.897 24.0267 107.835 24.18 107.713 24.364C107.59 24.548 107.437 24.7473 107.253 24.962C107.069 25.1767 106.869 25.4067 106.655 25.652C106.471 25.8667 106.317 26.0813 106.195 26.296C106.072 26.5107 105.888 26.8633 105.643 27.354C105.428 27.8447 105.213 28.3813 104.999 28.964C104.784 29.5467 104.6 30.114 104.447 30.666C104.293 31.218 104.217 31.678 104.217 32.046C104.217 32.4447 104.293 32.736 104.447 32.92C104.631 33.1347 104.968 33.242 105.459 33.242C106.072 33.242 106.701 33.0733 107.345 32.736C108.019 32.4293 108.663 32.1073 109.277 31.77C109.369 31.8007 109.43 31.862 109.461 31.954C109.491 32.0153 109.43 32.0767 109.277 32.138C108.357 32.6593 107.406 33.0887 106.425 33.426C105.474 33.794 104.615 33.978 103.849 33.978C102.898 33.978 102.423 33.6253 102.423 32.92C102.423 32.46 102.622 31.724 103.021 30.712C103.419 29.7 103.895 28.6573 104.447 27.584C104.293 27.7987 103.987 28.1513 103.527 28.642C103.097 29.1327 102.607 29.6387 102.055 30.16C101.503 30.6507 100.951 31.0953 100.399 31.494C99.8467 31.8927 99.3867 32.092 99.0187 32.092C98.712 32.092 98.5127 32.0153 98.4207 31.862C98.3287 31.678 98.2827 31.4633 98.2827 31.218C98.2827 31.034 98.344 30.758 98.4667 30.39C98.62 30.022 98.7887 29.6233 98.9727 29.194C99.1567 28.7647 99.356 28.3507 99.5707 27.952C99.7854 27.5227 99.9694 27.17 100.123 26.894Z" fill="#00073D"/>
<path d="M110.384 25.836C111.396 23.904 112.27 22.4013 113.006 21.328C113.742 20.2547 114.187 19.6873 114.34 19.626C114.371 19.5033 114.509 19.488 114.754 19.58C114.325 20.2853 114.049 20.9447 113.926 21.558C113.834 22.1407 113.926 22.6313 114.202 23.03C114.539 23.5207 114.938 23.72 115.398 23.628C115.889 23.5053 116.303 23.3367 116.64 23.122C116.855 22.9993 117.054 22.8767 117.238 22.754C117.453 22.6007 117.637 22.4473 117.79 22.294L117.928 22.018C117.959 22.018 117.974 22.018 117.974 22.018C118.005 21.9873 118.035 21.972 118.066 21.972C118.066 21.9413 118.097 21.8953 118.158 21.834C118.189 21.8033 118.25 21.8187 118.342 21.88C118.649 21.7573 118.925 21.788 119.17 21.972C119.293 22.2173 119.247 22.4933 119.032 22.8C118.265 23.996 117.514 25.238 116.778 26.526C116.073 27.7833 115.551 28.8873 115.214 29.838C114.969 30.6967 115.076 31.2333 115.536 31.448C116.027 31.632 116.717 31.4173 117.606 30.804C118.495 30.1907 119.369 29.4393 120.228 28.55C121.117 27.6607 121.869 26.7713 122.482 25.882C122.574 25.7593 122.666 25.7287 122.758 25.79C122.85 25.8513 122.819 25.974 122.666 26.158C121.991 27.0473 121.209 27.9367 120.32 28.826C119.461 29.7153 118.603 30.4513 117.744 31.034C116.855 31.678 116.103 32.0613 115.49 32.184C114.907 32.3373 114.447 32.2913 114.11 32.046C113.803 31.8313 113.65 31.448 113.65 30.896C113.65 30.3133 113.819 29.6233 114.156 28.826L117.468 22.846C117.223 23.03 116.947 23.2293 116.64 23.444C116.333 23.6587 116.011 23.8733 115.674 24.088C114.907 24.548 114.309 24.824 113.88 24.916C113.481 24.9773 113.205 24.87 113.052 24.594C112.868 24.4407 112.776 24.1647 112.776 23.766C112.807 23.3673 112.868 23.03 112.96 22.754C113.021 22.5087 112.975 22.4167 112.822 22.478C112.699 22.5087 112.561 22.6313 112.408 22.846C112.193 23.1833 112.009 23.4747 111.856 23.72C111.733 23.9347 111.611 24.1493 111.488 24.364C111.365 24.5787 111.243 24.8087 111.12 25.054C110.997 25.2687 110.844 25.5447 110.66 25.882L110.384 25.836Z" fill="#00073D"/>
<path d="M134.95 27.078C135.011 27.0167 135.072 27.032 135.134 27.124C135.195 27.1853 135.195 27.2467 135.134 27.308C134.306 28.1053 133.447 28.8107 132.558 29.424C131.699 30.0373 130.856 30.5587 130.028 30.988C129.23 31.4173 128.464 31.7393 127.728 31.954C127.022 32.1687 126.424 32.276 125.934 32.276C125.014 32.3067 124.278 32.1687 123.726 31.862C123.174 31.5247 122.898 31.0033 122.898 30.298C122.898 30.114 122.928 29.8687 122.99 29.562C123.051 29.2553 123.128 28.9793 123.22 28.734C123.496 27.998 123.91 27.2313 124.462 26.434C125.014 25.606 125.612 24.8547 126.256 24.18C126.93 23.5053 127.636 22.9533 128.372 22.524C129.108 22.0947 129.798 21.88 130.442 21.88C130.81 21.88 131.132 21.9413 131.408 22.064C131.714 22.156 131.868 22.4167 131.868 22.846C131.868 23.306 131.638 23.7813 131.178 24.272C130.748 24.732 130.196 25.192 129.522 25.652C128.847 26.0813 128.111 26.4953 127.314 26.894C126.516 27.262 125.78 27.5993 125.106 27.906C124.799 28.55 124.646 29.194 124.646 29.838C124.646 30.39 124.891 30.804 125.382 31.08C125.872 31.3253 126.424 31.448 127.038 31.448C127.62 31.448 128.264 31.31 128.97 31.034C129.675 30.758 130.365 30.4053 131.04 29.976C131.745 29.5467 132.435 29.0867 133.11 28.596C133.784 28.0747 134.398 27.5687 134.95 27.078ZM130.396 23.26C130.396 23.0453 130.334 22.8613 130.212 22.708C130.089 22.524 129.905 22.432 129.66 22.432C129.322 22.432 128.939 22.6007 128.51 22.938C128.08 23.2447 127.651 23.6433 127.222 24.134C126.823 24.6247 126.44 25.1767 126.072 25.79C125.734 26.3727 125.474 26.9247 125.29 27.446C125.811 27.2313 126.363 27.0013 126.946 26.756C127.528 26.48 128.034 26.1733 128.464 25.836C129.046 25.4067 129.506 25.008 129.844 24.64C130.212 24.2413 130.396 23.7813 130.396 23.26Z" fill="#00073D"/>
<path d="M144.56 26.94C144.314 27.1547 143.962 27.446 143.502 27.814C143.072 28.182 142.582 28.5807 142.03 29.01C141.478 29.4393 140.91 29.8687 140.328 30.298C139.776 30.6967 139.254 31.034 138.764 31.31C138.181 31.6473 137.629 31.8927 137.108 32.046C136.617 32.1993 136.157 32.276 135.728 32.276C134.225 32.276 133.474 31.54 133.474 30.068C133.474 29.7307 133.55 29.3013 133.704 28.78C133.888 28.228 134.102 27.722 134.348 27.262C134.808 26.3727 135.268 25.652 135.728 25.1C136.188 24.5173 136.678 24.042 137.2 23.674C137.752 23.2753 138.35 22.9533 138.994 22.708C139.638 22.432 140.358 22.1713 141.156 21.926C141.34 21.8647 141.478 21.834 141.57 21.834C141.754 21.834 141.953 22.0027 142.168 22.34C142.413 22.6467 142.536 22.892 142.536 23.076C142.536 23.26 142.428 23.5053 142.214 23.812C142.03 24.1187 141.861 24.318 141.708 24.41C141.524 23.9193 141.294 23.5207 141.018 23.214C140.772 22.9073 140.435 22.754 140.006 22.754C139.576 22.754 139.086 22.9993 138.534 23.49C137.982 23.95 137.46 24.5327 136.97 25.238C136.479 25.9433 136.065 26.7253 135.728 27.584C135.39 28.412 135.222 29.2093 135.222 29.976C135.222 30.4667 135.314 30.8653 135.498 31.172C135.712 31.448 136.034 31.586 136.464 31.586C136.893 31.586 137.307 31.5093 137.706 31.356C138.135 31.2027 138.641 30.9573 139.224 30.62C139.53 30.436 139.914 30.1753 140.374 29.838C140.834 29.5007 141.309 29.148 141.8 28.78C142.321 28.3813 142.812 27.998 143.272 27.63C143.762 27.2313 144.146 26.9093 144.422 26.664C144.575 26.5107 144.667 26.4953 144.698 26.618C144.728 26.71 144.682 26.8173 144.56 26.94Z" fill="#00073D"/>
<path d="M145.928 28.412C145.806 28.2893 145.714 28.1667 145.652 28.044C145.622 27.8907 145.53 27.9367 145.376 28.182C145.008 28.7647 144.671 29.3167 144.364 29.838C144.058 30.3287 143.766 30.7887 143.49 31.218C143.337 31.4633 143.092 31.6933 142.754 31.908C142.448 32.092 142.141 32.2453 141.834 32.368C141.65 32.368 141.558 32.3067 141.558 32.184C141.558 32.0613 141.604 31.9233 141.696 31.77C142.371 30.666 143.199 29.3167 144.18 27.722C145.162 26.0967 146.158 24.4407 147.17 22.754C148.182 21.0673 149.148 19.488 150.068 18.016C151.019 16.544 151.786 15.394 152.368 14.566C153.196 13.4007 154.055 12.2353 154.944 11.07C155.864 9.87399 156.8 8.73932 157.75 7.66599C158.701 6.56199 159.682 5.53466 160.694 4.58399C161.706 3.60266 162.734 2.75933 163.776 2.05399C164.451 1.59399 165.187 1.22599 165.984 0.949993C166.812 0.643324 167.579 0.48999 168.284 0.48999C168.928 0.48999 169.465 0.597324 169.894 0.811992C170.324 1.02666 170.661 1.28733 170.906 1.59399C171.182 1.86999 171.366 2.16133 171.458 2.46799C171.581 2.74399 171.642 2.94333 171.642 3.06599C171.642 3.24999 171.581 3.35733 171.458 3.38799C171.336 3.41866 171.274 3.37266 171.274 3.24999C171.274 3.09666 171.259 2.98932 171.228 2.92799C171.228 2.86666 171.136 2.75933 170.952 2.60599C170.124 2.08466 169.005 1.82399 167.594 1.82399C166.092 1.82399 164.666 2.25333 163.316 3.11199C161.967 3.93999 160.694 4.99799 159.498 6.28599C158.302 7.54333 157.183 8.93866 156.14 10.472C155.128 11.9747 154.208 13.3853 153.38 14.704C152.89 15.5013 152.322 16.4367 151.678 17.51C151.065 18.5833 150.467 19.6107 149.884 20.592C149.332 21.5733 148.857 22.4167 148.458 23.122C148.09 23.8273 147.891 24.226 147.86 24.318C147.646 24.7473 147.707 24.7933 148.044 24.456C148.32 24.18 148.642 23.904 149.01 23.628C149.378 23.3213 149.746 23.0607 150.114 22.846C150.482 22.6007 150.85 22.4013 151.218 22.248C151.586 22.0947 151.924 22.018 152.23 22.018C152.752 22.018 153.012 22.2327 153.012 22.662C153.012 22.9687 152.905 23.3213 152.69 23.72C152.476 24.088 152.261 24.41 152.046 24.686C151.464 25.422 150.774 26.02 149.976 26.48C149.21 26.9093 148.382 27.262 147.492 27.538C147.339 27.5993 147.278 27.6607 147.308 27.722C147.339 27.7527 147.385 27.8293 147.446 27.952C148.55 29.792 149.746 31.6933 151.034 33.656C152.353 35.6493 153.779 37.4587 155.312 39.084C156.846 40.7093 158.502 42.0433 160.28 43.086C162.059 44.1593 163.991 44.696 166.076 44.696C167.18 44.696 168.346 44.512 169.572 44.144C170.83 43.776 171.934 43.1627 172.884 42.304C173.007 42.1813 173.099 42.1507 173.16 42.212C173.252 42.304 173.237 42.4113 173.114 42.534C171.98 43.5153 170.707 44.1747 169.296 44.512C167.886 44.88 166.536 45.064 165.248 45.064C163.47 45.064 161.768 44.6807 160.142 43.914C158.517 43.178 156.938 42.1353 155.404 40.786C153.902 39.4367 152.43 37.8267 150.988 35.956C149.547 34.0853 148.136 32.046 146.756 29.838L145.928 28.412ZM151.402 23.536C151.402 23.3827 151.341 23.26 151.218 23.168C151.126 23.0453 151.019 22.984 150.896 22.984C150.62 22.984 150.206 23.1833 149.654 23.582C149.133 23.95 148.596 24.3793 148.044 24.87C147.523 25.3607 147.063 25.8513 146.664 26.342C146.266 26.802 146.066 27.1393 146.066 27.354C146.066 27.446 146.112 27.492 146.204 27.492C146.603 27.492 147.094 27.3693 147.676 27.124C148.29 26.848 148.872 26.526 149.424 26.158C149.976 25.7593 150.436 25.33 150.804 24.87C151.203 24.41 151.402 23.9653 151.402 23.536Z" fill="#00073D"/>
<path d="M154.703 26.894C155.132 26.1273 155.577 25.3607 156.037 24.594C156.527 23.7967 156.987 23.0607 157.417 22.386C157.57 22.2633 157.815 22.156 158.153 22.064C158.521 21.972 158.766 21.926 158.889 21.926C159.042 21.926 159.119 21.9873 159.119 22.11C158.536 22.9993 157.969 23.904 157.417 24.824C156.865 25.7133 156.374 26.5413 155.945 27.308C155.546 28.044 155.224 28.7033 154.979 29.286C154.733 29.838 154.611 30.2367 154.611 30.482C154.611 30.7887 154.703 30.942 154.887 30.942C155.071 30.942 155.331 30.8193 155.669 30.574C156.037 30.298 156.435 29.9453 156.865 29.516C157.325 29.0867 157.785 28.6113 158.245 28.09C158.705 27.538 159.149 26.986 159.579 26.434C159.732 26.2193 159.916 25.9433 160.131 25.606C160.345 25.238 160.545 24.9007 160.729 24.594C160.943 24.2567 161.127 23.9807 161.281 23.766C161.465 23.5207 161.603 23.398 161.695 23.398C161.848 23.398 162.017 23.4593 162.201 23.582C162.385 23.674 162.477 23.7813 162.477 23.904C162.477 24.0267 162.415 24.18 162.293 24.364C162.17 24.548 162.017 24.7473 161.833 24.962C161.649 25.1767 161.449 25.4067 161.235 25.652C161.051 25.8667 160.897 26.0813 160.775 26.296C160.652 26.5107 160.468 26.8633 160.223 27.354C160.008 27.8447 159.793 28.3813 159.579 28.964C159.364 29.5467 159.18 30.114 159.027 30.666C158.873 31.218 158.797 31.678 158.797 32.046C158.797 32.4447 158.873 32.736 159.027 32.92C159.211 33.1347 159.548 33.242 160.039 33.242C160.652 33.242 161.281 33.0733 161.925 32.736C162.599 32.4293 163.243 32.1073 163.857 31.77C163.949 31.8007 164.01 31.862 164.041 31.954C164.071 32.0153 164.01 32.0767 163.857 32.138C162.937 32.6593 161.986 33.0887 161.005 33.426C160.054 33.794 159.195 33.978 158.429 33.978C157.478 33.978 157.003 33.6253 157.003 32.92C157.003 32.46 157.202 31.724 157.601 30.712C157.999 29.7 158.475 28.6573 159.027 27.584C158.873 27.7987 158.567 28.1513 158.107 28.642C157.677 29.1327 157.187 29.6387 156.635 30.16C156.083 30.6507 155.531 31.0953 154.979 31.494C154.427 31.8927 153.967 32.092 153.599 32.092C153.292 32.092 153.093 32.0153 153.001 31.862C152.909 31.678 152.863 31.4633 152.863 31.218C152.863 31.034 152.924 30.758 153.047 30.39C153.2 30.022 153.369 29.6233 153.553 29.194C153.737 28.7647 153.936 28.3507 154.151 27.952C154.365 27.5227 154.549 27.17 154.703 26.894Z" fill="#00073D"/>
<path d="M166.068 26.894C166.497 26.1273 166.942 25.3607 167.402 24.594C167.893 23.7967 168.353 23.0607 168.782 22.386C168.935 22.2633 169.181 22.156 169.518 22.064C169.886 21.972 170.131 21.926 170.254 21.926C170.407 21.926 170.484 21.9873 170.484 22.11C169.901 22.9993 169.334 23.904 168.782 24.824C168.23 25.7133 167.739 26.5413 167.31 27.308C166.911 28.044 166.589 28.7033 166.344 29.286C166.099 29.838 165.976 30.2367 165.976 30.482C165.976 30.7887 166.068 30.942 166.252 30.942C166.436 30.942 166.697 30.8193 167.034 30.574C167.402 30.298 167.801 29.9453 168.23 29.516C168.69 29.0867 169.15 28.6113 169.61 28.09C170.07 27.538 170.515 26.986 170.944 26.434C171.097 26.2193 171.281 25.9433 171.496 25.606C171.711 25.238 171.91 24.9007 172.094 24.594C172.309 24.2567 172.493 23.9807 172.646 23.766C172.83 23.5207 172.968 23.398 173.06 23.398C173.213 23.398 173.382 23.4593 173.566 23.582C173.75 23.674 173.842 23.7813 173.842 23.904C173.842 24.0267 173.781 24.18 173.658 24.364C173.535 24.548 173.382 24.7473 173.198 24.962C173.014 25.1767 172.815 25.4067 172.6 25.652C172.416 25.8667 172.263 26.0813 172.14 26.296C172.017 26.5107 171.833 26.8633 171.588 27.354C171.373 27.8447 171.159 28.3813 170.944 28.964C170.729 29.5467 170.545 30.114 170.392 30.666C170.239 31.218 170.162 31.678 170.162 32.046C170.162 32.4447 170.239 32.736 170.392 32.92C170.576 33.1347 170.913 33.242 171.404 33.242C172.017 33.242 172.646 33.0733 173.29 32.736C173.965 32.4293 174.609 32.1073 175.222 31.77C175.314 31.8007 175.375 31.862 175.406 31.954C175.437 32.0153 175.375 32.0767 175.222 32.138C174.302 32.6593 173.351 33.0887 172.37 33.426C171.419 33.794 170.561 33.978 169.794 33.978C168.843 33.978 168.368 33.6253 168.368 32.92C168.368 32.46 168.567 31.724 168.966 30.712C169.365 29.7 169.84 28.6573 170.392 27.584C170.239 27.7987 169.932 28.1513 169.472 28.642C169.043 29.1327 168.552 29.6387 168 30.16C167.448 30.6507 166.896 31.0953 166.344 31.494C165.792 31.8927 165.332 32.092 164.964 32.092C164.657 32.092 164.458 32.0153 164.366 31.862C164.274 31.678 164.228 31.4633 164.228 31.218C164.228 31.034 164.289 30.758 164.412 30.39C164.565 30.022 164.734 29.6233 164.918 29.194C165.102 28.7647 165.301 28.3507 165.516 27.952C165.731 27.5227 165.915 27.17 166.068 26.894ZM175.958 16.222C175.651 16.1913 175.375 16.176 175.13 16.176C174.885 16.176 174.67 16.176 174.486 16.176C174.241 16.2067 174.026 16.2527 173.842 16.314C173.658 16.3447 173.474 16.4673 173.29 16.682C173.106 16.866 172.937 17.096 172.784 17.372C172.661 17.648 172.569 17.924 172.508 18.2C172.447 18.476 172.385 18.7367 172.324 18.982V19.12C172.263 19.7027 172.263 20.2087 172.324 20.638C172.385 20.6993 172.416 20.776 172.416 20.868C172.447 20.96 172.554 21.0827 172.738 21.236C172.493 21.6653 172.309 21.8647 172.186 21.834C172.063 21.8033 171.971 21.65 171.91 21.374C171.757 20.914 171.711 20.408 171.772 19.856C171.956 18.9973 172.232 18.1693 172.6 17.372C172.937 16.912 173.275 16.498 173.612 16.13C173.98 15.7313 174.317 15.44 174.624 15.256C174.777 15.2253 174.992 15.21 175.268 15.21L175.406 15.256C175.774 15.2867 176.173 15.3633 176.602 15.486C177.062 15.578 177.522 15.6547 177.982 15.716C178.227 15.7467 178.488 15.7773 178.764 15.808C179.04 15.808 179.301 15.7927 179.546 15.762C179.761 15.7007 179.975 15.6087 180.19 15.486C180.435 15.3327 180.65 15.1487 180.834 14.934C180.987 14.8113 181.156 14.5967 181.34 14.29C181.555 13.9833 181.693 13.692 181.754 13.416C181.785 13.1093 181.739 12.8027 181.616 12.496C181.524 12.1587 181.386 11.944 181.202 11.852C181.141 11.852 181.095 11.8367 181.064 11.806H180.926C180.895 11.806 180.88 11.7907 180.88 11.76C180.88 11.6987 180.895 11.6527 180.926 11.622C181.171 11.3767 181.386 11.2387 181.57 11.208C181.601 11.1773 181.662 11.162 181.754 11.162H181.8C181.892 11.1927 181.969 11.2387 182.03 11.3C182.245 11.4227 182.398 11.6373 182.49 11.944C182.49 12.2507 182.475 12.4807 182.444 12.634V12.726C182.413 12.818 182.398 12.91 182.398 13.002C182.398 13.094 182.383 13.1707 182.352 13.232C182.291 13.3853 182.168 13.6 181.984 13.876C181.8 14.1213 181.631 14.3513 181.478 14.566C181.263 14.8113 181.003 15.072 180.696 15.348C180.42 15.5933 180.175 15.7927 179.96 15.946C179.531 16.1607 179.132 16.3293 178.764 16.452C178.427 16.544 178.074 16.5593 177.706 16.498C177.614 16.498 177.507 16.498 177.384 16.498C177.292 16.498 177.185 16.4827 177.062 16.452C176.878 16.4213 176.725 16.3907 176.602 16.36C176.479 16.3293 176.265 16.2987 175.958 16.268V16.222Z" fill="#00073D"/>
<path d="M199.062 26.572C198.234 27.2467 197.238 27.8753 196.072 28.458C194.938 29.0407 193.726 29.5773 192.438 30.068C191.181 30.5587 189.893 31.0187 188.574 31.448C187.256 31.8773 186.014 32.276 184.848 32.644C182.64 36.5387 180.831 39.728 179.42 42.212C178.01 44.696 176.906 46.7047 176.108 48.238C175.311 49.7713 174.759 50.9213 174.452 51.688C174.146 52.4853 173.992 53.1293 173.992 53.62C173.992 54.0493 174.115 54.3407 174.36 54.494C174.575 54.678 174.912 54.77 175.372 54.77C175.648 54.77 175.986 54.7393 176.384 54.678C176.752 54.6167 177.151 54.54 177.58 54.448C177.979 54.3867 178.362 54.2947 178.73 54.172C179.098 54.08 179.405 53.988 179.65 53.896C179.804 53.8347 179.896 53.8807 179.926 54.034C179.957 54.1873 179.896 54.2793 179.742 54.31C179.497 54.3713 179.083 54.4787 178.5 54.632C177.887 54.7853 177.243 54.9387 176.568 55.092C175.863 55.2453 175.188 55.3833 174.544 55.506C173.87 55.6287 173.348 55.69 172.98 55.69C172.643 55.69 172.367 55.6133 172.152 55.46C171.938 55.3373 171.83 55.0767 171.83 54.678C171.83 54.0647 172.091 53.2673 172.612 52.286C173.103 51.3353 173.854 50.032 174.866 48.376C175.848 46.7507 177.09 44.696 178.592 42.212C180.095 39.728 181.843 36.6613 183.836 33.012C183.284 33.1653 182.732 33.334 182.18 33.518C181.628 33.7327 181.245 33.84 181.03 33.84C180.785 33.84 180.662 33.7327 180.662 33.518C180.662 33.2113 180.77 32.9813 180.984 32.828C181.199 32.6747 181.444 32.5673 181.72 32.506C182.088 32.4447 182.518 32.368 183.008 32.276C183.499 32.184 183.959 32.092 184.388 32C185.523 29.976 186.566 27.9673 187.516 25.974C188.498 23.9807 189.571 22.064 190.736 20.224C190.859 20.0707 190.997 19.9787 191.15 19.948C191.304 19.8867 191.488 19.856 191.702 19.856C192.07 19.856 192.254 19.9633 192.254 20.178C192.254 20.3007 192.132 20.592 191.886 21.052C191.641 21.512 191.319 22.0793 190.92 22.754C190.522 23.398 190.062 24.134 189.54 24.962C189.05 25.7593 188.544 26.572 188.022 27.4C187.532 28.1973 187.056 28.9793 186.596 29.746C186.136 30.482 185.753 31.126 185.446 31.678L186.182 31.494C186.765 31.3407 187.455 31.034 188.252 30.574C189.08 30.114 189.847 29.5467 190.552 28.872C191.288 28.1667 191.902 27.3847 192.392 26.526C192.914 25.6673 193.174 24.778 193.174 23.858C193.174 23.3673 193.113 23.0453 192.99 22.892C192.868 22.708 192.806 22.5547 192.806 22.432C192.806 22.3093 192.898 22.248 193.082 22.248C193.113 22.248 193.236 22.3093 193.45 22.432C193.696 22.5547 193.941 22.708 194.186 22.892C194.432 23.0453 194.646 23.1987 194.83 23.352C195.045 23.4747 195.152 23.5513 195.152 23.582C195.152 24.3793 194.892 25.146 194.37 25.882C193.849 26.618 193.205 27.3233 192.438 27.998C191.672 28.642 190.859 29.24 190 29.792C189.172 30.3133 188.421 30.758 187.746 31.126C189.801 30.574 191.825 29.8993 193.818 29.102C195.812 28.3047 197.498 27.354 198.878 26.25C199.001 26.1273 199.093 26.112 199.154 26.204C199.246 26.296 199.216 26.4187 199.062 26.572Z" fill="#00073D"/>
<path d="M198.591 26.894C199.021 26.1273 199.465 25.3607 199.925 24.594C200.416 23.7967 200.876 23.0607 201.305 22.386C201.459 22.2633 201.704 22.156 202.041 22.064C202.409 21.972 202.655 21.926 202.777 21.926C202.931 21.926 203.007 21.9873 203.007 22.11C202.425 22.9993 201.857 23.904 201.305 24.824C200.753 25.7133 200.263 26.5413 199.833 27.308C199.435 28.044 199.113 28.7033 198.867 29.286C198.622 29.838 198.499 30.2367 198.499 30.482C198.499 30.7887 198.591 30.942 198.775 30.942C198.959 30.942 199.22 30.8193 199.557 30.574C199.925 30.298 200.324 29.9453 200.753 29.516C201.213 29.0867 201.673 28.6113 202.133 28.09C202.593 27.538 203.038 26.986 203.467 26.434C203.621 26.2193 203.805 25.9433 204.019 25.606C204.234 25.238 204.433 24.9007 204.617 24.594C204.832 24.2567 205.016 23.9807 205.169 23.766C205.353 23.5207 205.491 23.398 205.583 23.398C205.737 23.398 205.905 23.4593 206.089 23.582C206.273 23.674 206.365 23.7813 206.365 23.904C206.365 24.0267 206.304 24.18 206.181 24.364C206.059 24.548 205.905 24.7473 205.721 24.962C205.537 25.1767 205.338 25.4067 205.123 25.652C204.939 25.8667 204.786 26.0813 204.663 26.296C204.541 26.5107 204.357 26.8633 204.111 27.354C203.897 27.8447 203.682 28.3813 203.467 28.964C203.253 29.5467 203.069 30.114 202.915 30.666C202.762 31.218 202.685 31.678 202.685 32.046C202.685 32.4447 202.762 32.736 202.915 32.92C203.099 33.1347 203.437 33.242 203.927 33.242C204.541 33.242 205.169 33.0733 205.813 32.736C206.488 32.4293 207.132 32.1073 207.745 31.77C207.837 31.8007 207.899 31.862 207.929 31.954C207.96 32.0153 207.899 32.0767 207.745 32.138C206.825 32.6593 205.875 33.0887 204.893 33.426C203.943 33.794 203.084 33.978 202.317 33.978C201.367 33.978 200.891 33.6253 200.891 32.92C200.891 32.46 201.091 31.724 201.489 30.712C201.888 29.7 202.363 28.6573 202.915 27.584C202.762 27.7987 202.455 28.1513 201.995 28.642C201.566 29.1327 201.075 29.6387 200.523 30.16C199.971 30.6507 199.419 31.0953 198.867 31.494C198.315 31.8927 197.855 32.092 197.487 32.092C197.181 32.092 196.981 32.0153 196.889 31.862C196.797 31.678 196.751 31.4633 196.751 31.218C196.751 31.034 196.813 30.758 196.935 30.39C197.089 30.022 197.257 29.6233 197.441 29.194C197.625 28.7647 197.825 28.3507 198.039 27.952C198.254 27.5227 198.438 27.17 198.591 26.894Z" fill="#00073D"/>
<path d="M219.939 26.94C219.693 27.1547 219.341 27.446 218.881 27.814C218.451 28.182 217.961 28.5807 217.409 29.01C216.857 29.4393 216.289 29.8687 215.707 30.298C215.155 30.6967 214.633 31.034 214.143 31.31C213.56 31.6473 213.008 31.8927 212.487 32.046C211.996 32.1993 211.536 32.276 211.107 32.276C209.604 32.276 208.853 31.54 208.853 30.068C208.853 29.7307 208.929 29.3013 209.083 28.78C209.267 28.228 209.481 27.722 209.727 27.262C210.187 26.3727 210.647 25.652 211.107 25.1C211.567 24.5173 212.057 24.042 212.579 23.674C213.131 23.2753 213.729 22.9533 214.373 22.708C215.017 22.432 215.737 22.1713 216.535 21.926C216.719 21.8647 216.857 21.834 216.949 21.834C217.133 21.834 217.332 22.0027 217.547 22.34C217.792 22.6467 217.915 22.892 217.915 23.076C217.915 23.26 217.807 23.5053 217.593 23.812C217.409 24.1187 217.24 24.318 217.087 24.41C216.903 23.9193 216.673 23.5207 216.397 23.214C216.151 22.9073 215.814 22.754 215.385 22.754C214.955 22.754 214.465 22.9993 213.913 23.49C213.361 23.95 212.839 24.5327 212.349 25.238C211.858 25.9433 211.444 26.7253 211.107 27.584C210.769 28.412 210.601 29.2093 210.601 29.976C210.601 30.4667 210.693 30.8653 210.877 31.172C211.091 31.448 211.413 31.586 211.843 31.586C212.272 31.586 212.686 31.5093 213.085 31.356C213.514 31.2027 214.02 30.9573 214.603 30.62C214.909 30.436 215.293 30.1753 215.753 29.838C216.213 29.5007 216.688 29.148 217.179 28.78C217.7 28.3813 218.191 27.998 218.651 27.63C219.141 27.2313 219.525 26.9093 219.801 26.664C219.954 26.5107 220.046 26.4953 220.077 26.618C220.107 26.71 220.061 26.8173 219.939 26.94Z" fill="#00073D"/>
<path d="M229.587 20.822C229.587 21.1593 229.388 21.5427 228.989 21.972C227.855 23.352 226.705 24.686 225.539 25.974C224.405 27.2313 223.331 28.5193 222.319 29.838C219.774 33.15 217.673 36.0173 216.017 38.44C214.361 40.8933 213.058 43.0247 212.107 44.834C211.126 46.674 210.451 48.2533 210.083 49.572C209.685 50.9213 209.485 52.1633 209.485 53.298C209.485 54.034 209.562 54.678 209.715 55.23C209.869 55.8127 210.252 56.3033 210.865 56.702C210.957 56.7633 211.003 56.8707 211.003 57.024C211.003 57.1773 210.881 57.1773 210.635 57.024C210.482 56.8707 210.267 56.6713 209.991 56.426C209.685 56.2113 209.363 55.9813 209.025 55.736C208.688 55.5213 208.381 55.184 208.105 54.724C207.829 54.264 207.691 53.712 207.691 53.068C207.691 52.0867 207.906 51.0287 208.335 49.894C208.765 48.79 209.485 47.4253 210.497 45.8C211.509 44.1747 212.859 42.1813 214.545 39.82C216.201 37.4893 218.271 34.6067 220.755 31.172C219.467 31.724 218.731 32 218.547 32C218.394 32 218.317 31.9233 218.317 31.77C218.317 31.4327 218.394 31.034 218.547 30.574C218.701 30.0833 218.946 29.332 219.283 28.32C219.437 27.86 219.605 27.3387 219.789 26.756C220.004 26.1427 220.188 25.5447 220.341 24.962C220.525 24.3487 220.679 23.7813 220.801 23.26C220.924 22.7387 220.985 22.3247 220.985 22.018C221.139 21.9567 221.323 21.926 221.537 21.926C221.752 21.8953 221.936 21.88 222.089 21.88C222.549 21.88 222.779 21.9873 222.779 22.202C222.779 22.478 222.703 22.8153 222.549 23.214C222.335 23.7353 222.089 24.3487 221.813 25.054C221.537 25.7593 221.277 26.48 221.031 27.216C220.786 27.9213 220.571 28.5807 220.387 29.194C220.234 29.8073 220.157 30.298 220.157 30.666C220.157 30.8807 220.234 30.988 220.387 30.988C220.633 30.988 220.878 30.896 221.123 30.712C221.951 29.6387 222.779 28.5653 223.607 27.492C224.466 26.4187 225.233 25.4067 225.907 24.456C226.582 23.4747 227.134 22.6007 227.563 21.834C227.993 21.0367 228.207 20.3927 228.207 19.902C228.453 19.902 228.744 19.994 229.081 20.178C229.419 20.362 229.587 20.5767 229.587 20.822Z" fill="#00073D"/>
<path d="M233.563 27.814C232.704 27.7527 231.984 27.7067 231.401 27.676C230.849 27.6147 230.42 27.584 230.113 27.584C229.622 28.3813 229.147 29.194 228.687 30.022C228.227 30.85 227.706 31.6473 227.123 32.414C226.878 32.782 226.678 32.7513 226.525 32.322C226.402 32.0767 226.326 31.816 226.295 31.54C226.264 31.264 226.326 31.0033 226.479 30.758C226.786 30.1753 227.384 29.2093 228.273 27.86C228.672 27.2773 228.994 26.756 229.239 26.296C229.484 25.8053 229.699 25.3607 229.883 24.962C230.098 24.5327 230.312 24.1033 230.527 23.674C230.742 23.2447 231.018 22.7693 231.355 22.248C231.57 21.9413 231.846 21.926 232.183 22.202C232.367 22.3553 232.459 22.4933 232.459 22.616C232.459 22.7693 232.413 22.9073 232.321 23.03C232.076 23.4593 231.815 23.9653 231.539 24.548C231.263 25.1307 230.895 25.9433 230.435 26.986C230.68 27.1087 231.064 27.216 231.585 27.308C232.137 27.3693 232.842 27.4153 233.701 27.446C233.824 27.262 234.023 26.9093 234.299 26.388C234.575 25.836 234.866 25.2687 235.173 24.686C235.51 24.0727 235.848 23.5053 236.185 22.984C236.553 22.432 236.89 22.064 237.197 21.88C237.473 21.7573 237.718 21.8033 237.933 22.018C238.056 22.2633 238.01 22.5393 237.795 22.846C236.998 24.042 236.246 25.284 235.541 26.572C234.836 27.8293 234.314 28.9333 233.977 29.884C233.67 30.712 233.701 31.31 234.069 31.678C234.468 32.0153 235.158 31.9387 236.139 31.448C237.12 30.9267 238.132 30.2827 239.175 29.516C240.218 28.7187 241.107 27.9213 241.843 27.124C241.966 27.0013 242.073 26.986 242.165 27.078C242.257 27.1393 242.226 27.2467 242.073 27.4C241.276 28.1973 240.356 28.9947 239.313 29.792C238.301 30.5587 237.32 31.1873 236.369 31.678C234.345 32.7207 232.965 32.9967 232.229 32.506C231.524 32.046 231.754 30.8347 232.919 28.872C233.042 28.6573 233.149 28.4733 233.241 28.32C233.364 28.136 233.471 27.9673 233.563 27.814Z" fill="#00073D"/>
<path d="M253.972 23.904C253.481 24.0573 252.945 24.1953 252.362 24.318C251.779 24.41 251.258 24.456 250.798 24.456C250.307 24.456 249.771 24.4407 249.188 24.41C248.605 24.3487 248.038 24.2567 247.486 24.134C247.302 25.422 246.919 26.5873 246.336 27.63C245.784 28.642 245.017 29.6387 244.036 30.62C242.809 31.7547 241.705 32.322 240.724 32.322C240.111 32.322 239.681 32.138 239.436 31.77C239.191 31.3713 239.068 30.896 239.068 30.344C239.068 29.9147 239.145 29.4087 239.298 28.826C239.451 28.2127 239.651 27.7067 239.896 27.308C240.233 26.6947 240.785 26.0507 241.552 25.376C242.319 24.7013 243.392 23.9193 244.772 23.03C245.201 22.754 245.539 22.5393 245.784 22.386C246.029 22.2327 246.213 22.11 246.336 22.018C246.459 21.926 246.535 21.88 246.566 21.88C246.627 21.8493 246.673 21.834 246.704 21.834C246.765 21.834 246.827 21.88 246.888 21.972C246.949 22.0333 247.011 22.0947 247.072 22.156C247.164 22.5547 247.363 22.8767 247.67 23.122C247.977 23.3673 248.329 23.5667 248.728 23.72C249.127 23.8427 249.525 23.9347 249.924 23.996C250.353 24.0267 250.737 24.042 251.074 24.042C251.503 24.042 251.979 24.0113 252.5 23.95C253.052 23.8887 253.543 23.7967 253.972 23.674C254.095 23.674 254.156 23.7047 254.156 23.766C254.187 23.7967 254.125 23.8427 253.972 23.904ZM246.014 24.64C246.014 24.364 245.983 24.0573 245.922 23.72C245.891 23.3827 245.723 23.214 245.416 23.214C245.171 23.214 244.91 23.306 244.634 23.49C243.407 24.1953 242.472 25.1613 241.828 26.388C241.184 27.584 240.862 28.872 240.862 30.252C240.862 30.6507 240.923 30.988 241.046 31.264C241.199 31.5093 241.399 31.632 241.644 31.632C242.227 31.632 242.779 31.3867 243.3 30.896C243.821 30.3747 244.281 29.746 244.68 29.01C245.079 28.274 245.401 27.5073 245.646 26.71C245.891 25.9127 246.014 25.2227 246.014 24.64Z" fill="#00073D"/>
<path d="M253.022 28.412C252.899 28.2893 252.807 28.1667 252.746 28.044C252.715 27.8907 252.623 27.9367 252.47 28.182C252.102 28.7647 251.765 29.3167 251.458 29.838C251.151 30.3287 250.86 30.7887 250.584 31.218C250.431 31.4633 250.185 31.6933 249.848 31.908C249.541 32.092 249.235 32.2453 248.928 32.368C248.744 32.368 248.652 32.3067 248.652 32.184C248.652 32.0613 248.698 31.9233 248.79 31.77C249.465 30.666 250.293 29.3167 251.274 27.722C252.255 26.0967 253.252 24.4407 254.264 22.754C255.276 21.0673 256.242 19.488 257.162 18.016C258.113 16.544 258.879 15.394 259.462 14.566C260.29 13.4007 261.149 12.2353 262.038 11.07C262.958 9.87399 263.893 8.73932 264.844 7.66599C265.795 6.56199 266.776 5.53466 267.788 4.58399C268.8 3.60266 269.827 2.75933 270.87 2.05399C271.545 1.59399 272.281 1.22599 273.078 0.949993C273.906 0.643324 274.673 0.48999 275.378 0.48999C276.022 0.48999 276.559 0.597324 276.988 0.811992C277.417 1.02666 277.755 1.28733 278 1.59399C278.276 1.86999 278.46 2.16133 278.552 2.46799C278.675 2.74399 278.736 2.94333 278.736 3.06599C278.736 3.24999 278.675 3.35733 278.552 3.38799C278.429 3.41866 278.368 3.37266 278.368 3.24999C278.368 3.09666 278.353 2.98932 278.322 2.92799C278.322 2.86666 278.23 2.75933 278.046 2.60599C277.218 2.08466 276.099 1.82399 274.688 1.82399C273.185 1.82399 271.759 2.25333 270.41 3.11199C269.061 3.93999 267.788 4.99799 266.592 6.28599C265.396 7.54333 264.277 8.93866 263.234 10.472C262.222 11.9747 261.302 13.3853 260.474 14.704C259.983 15.5013 259.416 16.4367 258.772 17.51C258.159 18.5833 257.561 19.6107 256.978 20.592C256.426 21.5733 255.951 22.4167 255.552 23.122C255.184 23.8273 254.985 24.226 254.954 24.318C254.739 24.7473 254.801 24.7933 255.138 24.456C255.414 24.18 255.736 23.904 256.104 23.628C256.472 23.3213 256.84 23.0607 257.208 22.846C257.576 22.6007 257.944 22.4013 258.312 22.248C258.68 22.0947 259.017 22.018 259.324 22.018C259.845 22.018 260.106 22.2327 260.106 22.662C260.106 22.9687 259.999 23.3213 259.784 23.72C259.569 24.088 259.355 24.41 259.14 24.686C258.557 25.422 257.867 26.02 257.07 26.48C256.303 26.9093 255.475 27.262 254.586 27.538C254.433 27.5993 254.371 27.6607 254.402 27.722C254.433 27.7527 254.479 27.8293 254.54 27.952C255.644 29.792 256.84 31.6933 258.128 33.656C259.447 35.6493 260.873 37.4587 262.406 39.084C263.939 40.7093 265.595 42.0433 267.374 43.086C269.153 44.1593 271.085 44.696 273.17 44.696C274.274 44.696 275.439 44.512 276.666 44.144C277.923 43.776 279.027 43.1627 279.978 42.304C280.101 42.1813 280.193 42.1507 280.254 42.212C280.346 42.304 280.331 42.4113 280.208 42.534C279.073 43.5153 277.801 44.1747 276.39 44.512C274.979 44.88 273.63 45.064 272.342 45.064C270.563 45.064 268.861 44.6807 267.236 43.914C265.611 43.178 264.031 42.1353 262.498 40.786C260.995 39.4367 259.523 37.8267 258.082 35.956C256.641 34.0853 255.23 32.046 253.85 29.838L253.022 28.412ZM258.496 23.536C258.496 23.3827 258.435 23.26 258.312 23.168C258.22 23.0453 258.113 22.984 257.99 22.984C257.714 22.984 257.3 23.1833 256.748 23.582C256.227 23.95 255.69 24.3793 255.138 24.87C254.617 25.3607 254.157 25.8513 253.758 26.342C253.359 26.802 253.16 27.1393 253.16 27.354C253.16 27.446 253.206 27.492 253.298 27.492C253.697 27.492 254.187 27.3693 254.77 27.124C255.383 26.848 255.966 26.526 256.518 26.158C257.07 25.7593 257.53 25.33 257.898 24.87C258.297 24.41 258.496 23.9653 258.496 23.536Z" fill="#00073D"/>
</svg>
