<svg width="185" height="44" viewBox="0 0 185 44" fill="none" xmlns="http://www.w3.org/2000/svg">
<path d="M17.424 17.352C16.08 18.504 14.832 19.548 13.68 20.484C12.552 21.396 11.46 22.164 10.404 22.788C9.372 23.412 8.364 23.892 7.38 24.228C6.42 24.564 5.46 24.732 4.5 24.732C2.916 24.732 1.776 24.312 1.08 23.472C0.36 22.608 0 21.492 0 20.124C0 19.668 0.072 19.188 0.216 18.684C0.336 18.156 0.516 17.652 0.756 17.172C0.996 16.692 1.284 16.236 1.62 15.804C1.956 15.372 2.328 15 2.736 14.688C2.856 14.616 2.904 14.592 2.88 14.616C2.856 14.64 2.88 14.664 2.952 14.688C2.376 15.288 1.92 15.924 1.584 16.596C1.224 17.268 1.044 18.06 1.044 18.972C1.044 20.484 1.464 21.576 2.304 22.248C3.168 22.896 4.356 23.22 5.868 23.22C6.348 23.22 6.924 23.172 7.596 23.076C8.268 22.98 9.048 22.74 9.936 22.356C10.848 21.948 11.88 21.36 13.032 20.592C14.184 19.8 15.48 18.72 16.92 17.352L17.46 16.812C19.26 15.156 20.988 13.392 22.644 11.52C24.3 9.648 25.86 7.776 27.324 5.904C27.732 5.424 28.14 5.016 28.548 4.68C28.956 4.344 29.292 4.176 29.556 4.176C29.916 4.176 30.096 4.392 30.096 4.824C30.096 4.92 30.084 5.028 30.06 5.148C30.06 5.244 30.048 5.352 30.024 5.472C29.904 5.352 29.796 5.256 29.7 5.184C29.604 5.088 29.484 5.064 29.34 5.112C28.812 5.232 28.416 5.436 28.152 5.724C27.888 6.012 27.54 6.48 27.108 7.128C26.844 7.44 26.448 8.028 25.92 8.892C25.392 9.732 24.864 10.776 24.336 12.024C23.808 13.248 23.34 14.628 22.932 16.164C22.548 17.7 22.356 19.296 22.356 20.952C22.356 21.552 22.512 22.116 22.824 22.644C23.136 23.148 23.7 23.4 24.516 23.4C25.236 23.4 25.932 23.16 26.604 22.68C27.3 22.2 27.9 21.588 28.404 20.844C28.932 20.076 29.352 19.236 29.664 18.324C30 17.388 30.168 16.476 30.168 15.588C30.168 15.444 30.204 15.384 30.276 15.408C30.348 15.408 30.384 15.528 30.384 15.768C30.336 17.064 30.084 18.252 29.628 19.332C29.172 20.388 28.596 21.312 27.9 22.104C27.228 22.872 26.484 23.472 25.668 23.904C24.852 24.312 24.048 24.516 23.256 24.516C22.488 24.516 21.864 24.276 21.384 23.796C20.904 23.292 20.664 22.608 20.664 21.744C20.664 21.048 20.712 20.28 20.808 19.44C20.904 18.6 21.12 17.652 21.456 16.596C21.816 15.54 22.32 14.364 22.968 13.068C23.64 11.772 24.54 10.308 25.668 8.676C25.692 8.604 25.68 8.556 25.632 8.532C25.608 8.484 25.548 8.508 25.452 8.604C24.9 9.3 24.276 10.044 23.58 10.836C22.884 11.628 22.176 12.42 21.456 13.212C20.736 13.98 20.028 14.736 19.332 15.48C18.636 16.2 18 16.824 17.424 17.352ZM28.044 4.608C27.996 4.776 27.876 4.98 27.684 5.22C27.516 5.46 27.372 5.592 27.252 5.616C26.724 5.64 26.064 5.676 25.272 5.724C24.504 5.772 23.688 5.832 22.824 5.904C21.96 5.976 21.084 6.072 20.196 6.192C19.332 6.312 18.54 6.456 17.82 6.624C17.052 6.816 16.464 7.164 16.056 7.668C15.672 8.148 15.48 8.688 15.48 9.288C15.48 9.672 15.516 9.972 15.588 10.188C15.66 10.404 15.744 10.584 15.84 10.728C15.936 10.848 16.02 10.944 16.092 11.016C16.164 11.088 16.2 11.172 16.2 11.268C15.912 11.388 15.624 11.58 15.336 11.844C15.048 11.676 14.832 11.472 14.688 11.232C14.544 10.968 14.472 10.62 14.472 10.188C14.472 9.948 14.52 9.648 14.616 9.288C14.712 8.904 14.892 8.52 15.156 8.136C15.444 7.728 15.852 7.332 16.38 6.948C16.908 6.564 17.604 6.228 18.468 5.94C18.996 5.772 19.656 5.604 20.448 5.436C21.24 5.244 22.068 5.076 22.932 4.932C23.796 4.788 24.624 4.668 25.416 4.572C26.232 4.476 26.928 4.428 27.504 4.428C27.864 4.428 28.044 4.488 28.044 4.608Z" transform="translate(0.0664062 0.66394)" fill="white"/>
<path d="M34.9602 21.132C33.6162 21.06 32.7162 21.024 32.2602 21.024C31.9242 21.648 31.6002 22.296 31.2882 22.968C30.9762 23.616 30.6162 24.228 30.2082 24.804C30.0162 25.092 29.8602 25.08 29.7402 24.768C29.6922 24.672 29.6322 24.6 29.5602 24.552C29.5122 24.528 29.4642 24.504 29.4162 24.48C29.3682 24.48 29.3442 24.468 29.3442 24.444C29.3442 24.42 29.3682 24.36 29.4162 24.264C29.7282 23.592 30.0402 22.908 30.3522 22.212C30.6882 21.516 31.0002 20.844 31.2882 20.196C31.6002 19.524 31.8882 18.9 32.1522 18.324C32.4402 17.748 32.6922 17.244 32.9082 16.812C33.0762 16.572 33.2922 16.56 33.5562 16.776C33.7242 16.896 33.8082 17.004 33.8082 17.1C33.8082 17.22 33.7722 17.328 33.7002 17.424C33.5322 17.76 33.3642 18.156 33.1962 18.612C33.0282 19.068 32.7882 19.716 32.4762 20.556C32.6682 20.676 32.9802 20.76 33.4122 20.808C33.8682 20.832 34.4202 20.844 35.0682 20.844L34.9602 21.132ZM44.5722 19.08C44.1162 19.488 43.5162 19.932 42.7722 20.412C42.0522 20.868 41.3802 21.192 40.7562 21.384C39.9642 21.72 39.3282 21.756 38.8482 21.492C38.7282 21.756 38.5962 22.02 38.4522 22.284C38.3322 22.548 38.1762 22.8 37.9842 23.04C37.5042 23.736 36.9882 24.228 36.4362 24.516C35.9082 24.828 35.4402 24.936 35.0322 24.84C34.6242 24.744 34.3242 24.468 34.1322 24.012C33.9642 23.556 33.9762 22.932 34.1682 22.14C34.2882 21.708 34.4802 21.252 34.7442 20.772C35.0082 20.292 35.3202 19.836 35.6802 19.404C36.0402 18.972 36.4242 18.576 36.8322 18.216C37.2642 17.856 37.6842 17.58 38.0922 17.388C38.4042 17.244 38.7042 17.172 38.9922 17.172C39.0402 17.124 39.0762 17.088 39.1002 17.064C39.1482 17.04 39.1842 17.016 39.2082 16.992C39.4722 16.872 39.7362 16.8 40.0002 16.776C40.1202 16.776 40.1922 16.824 40.2162 16.92C40.2402 16.968 40.2282 17.1 40.1802 17.316C40.0602 17.7 39.9402 18.096 39.8202 18.504C39.7002 18.912 39.6042 19.284 39.5322 19.62C39.4602 20.172 39.5562 20.58 39.8202 20.844C40.1082 21.084 40.5162 21.12 41.0442 20.952C41.5962 20.76 42.1962 20.472 42.8442 20.088C43.4922 19.68 44.0202 19.272 44.4282 18.864C44.5482 18.744 44.6202 18.732 44.6442 18.828C44.6922 18.924 44.6682 19.008 44.5722 19.08ZM38.9202 17.64C38.7762 17.448 38.5362 17.46 38.2002 17.676C37.8882 17.868 37.5762 18.192 37.2642 18.648C37.0242 18.984 36.7962 19.344 36.5802 19.728C36.3882 20.112 36.2082 20.508 36.0402 20.916C35.8722 21.3 35.7282 21.672 35.6082 22.032C35.4882 22.392 35.4042 22.704 35.3562 22.968C35.2362 23.808 35.3802 24.288 35.7882 24.408C36.1962 24.528 36.6762 24.216 37.2282 23.472C37.7562 22.824 38.1882 22.08 38.5242 21.24C38.1882 20.856 38.1522 20.316 38.4162 19.62C38.5122 19.356 38.6082 19.044 38.7042 18.684C38.8002 18.324 38.8722 17.976 38.9202 17.64Z" transform="translate(0.0664062 0.66394)" fill="white"/>
<path d="M53.7758 20.7C53.2718 21.42 52.3958 22.176 51.1478 22.968C49.9238 23.736 48.2918 24.468 46.2518 25.164C44.6678 27.996 43.1918 30.288 41.8238 32.04C40.4798 33.792 39.2078 35.148 38.0078 36.108C36.8078 37.092 35.6798 37.752 34.6238 38.088C33.5678 38.448 32.5358 38.628 31.5278 38.628C30.9518 38.628 30.3638 38.532 29.7638 38.34C29.1398 38.172 28.5878 37.908 28.1078 37.548C27.6038 37.188 27.1958 36.732 26.8838 36.18C26.5718 35.652 26.4158 35.028 26.4158 34.308C26.4158 33.348 26.7038 32.508 27.2798 31.788C27.8558 31.092 28.6718 30.468 29.7278 29.916C30.7598 29.364 31.9958 28.86 33.4358 28.404C34.8518 27.972 36.4118 27.54 38.1158 27.108C39.3638 26.772 40.6478 26.424 41.9678 26.064C43.2878 25.728 44.5238 25.38 45.6758 25.02C46.0358 24.348 46.3958 23.676 46.7558 23.004C47.1158 22.308 47.4518 21.612 47.7638 20.916C47.4278 21.324 47.0558 21.744 46.6478 22.176C46.2638 22.584 45.8438 22.968 45.3878 23.328C44.9318 23.688 44.4758 23.988 44.0198 24.228C43.5638 24.444 43.1198 24.552 42.6878 24.552C42.3518 24.552 42.1118 24.48 41.9678 24.336C41.8478 24.168 41.7878 23.952 41.7878 23.688C41.7878 23.16 41.9918 22.548 42.3998 21.852C42.8078 21.156 43.2998 20.484 43.8758 19.836C44.4758 19.188 45.0878 18.6 45.7118 18.072C46.3598 17.52 46.9118 17.124 47.3678 16.884C47.7038 16.692 48.0278 16.572 48.3398 16.524C48.6758 16.476 48.9758 16.452 49.2398 16.452C49.6238 16.452 49.8998 16.5 50.0678 16.596C50.3318 16.044 50.5478 15.636 50.7158 15.372C50.8838 15.108 51.0518 14.976 51.2198 14.976C51.3398 14.976 51.4598 15.012 51.5798 15.084C51.6998 15.156 51.7598 15.252 51.7598 15.372C51.7598 15.492 51.6638 15.732 51.4718 16.092C51.2798 16.452 51.0878 16.812 50.8958 17.172C50.3438 18.132 49.6718 19.296 48.8798 20.664C48.0878 22.032 47.2718 23.412 46.4318 24.804C48.3758 24.18 49.9238 23.484 51.0758 22.716C52.2278 21.924 53.0318 21.204 53.4878 20.556C53.5598 20.46 53.6198 20.436 53.6678 20.484C53.7398 20.508 53.7758 20.58 53.7758 20.7ZM49.8158 17.064C49.5518 16.968 49.2278 16.92 48.8438 16.92C48.2438 16.92 47.7518 17.064 47.3678 17.352C46.8158 17.76 46.2878 18.252 45.7838 18.828C45.3038 19.38 44.8718 19.956 44.4878 20.556C44.1038 21.132 43.8038 21.684 43.5878 22.212C43.3718 22.74 43.2638 23.16 43.2638 23.472C43.2638 23.688 43.3718 23.796 43.5878 23.796C44.0438 23.796 44.5478 23.592 45.0998 23.184C45.6518 22.776 46.2038 22.248 46.7558 21.6C47.3318 20.952 47.8838 20.232 48.4118 19.44C48.9398 18.648 49.4078 17.856 49.8158 17.064ZM45.4598 25.344C44.2838 25.728 42.9998 26.1 41.6078 26.46C40.2158 26.82 38.7998 27.204 37.3598 27.612C34.8878 28.284 32.9078 28.956 31.4198 29.628C29.9078 30.324 28.8038 31.176 28.1078 32.184C27.7718 32.664 27.5318 33.132 27.3878 33.588C27.2438 34.068 27.1718 34.476 27.1718 34.812C27.1718 35.46 27.2918 36 27.5318 36.432C27.7478 36.864 28.0478 37.212 28.4318 37.476C28.7918 37.74 29.1998 37.92 29.6558 38.016C30.1118 38.136 30.5558 38.196 30.9878 38.196C32.3078 38.196 33.6158 37.824 34.9118 37.08C36.2078 36.336 37.4678 35.364 38.6918 34.164C39.9158 32.964 41.0918 31.584 42.2198 30.024C43.3718 28.488 44.4518 26.928 45.4598 25.344Z" transform="translate(0.0664062 0.66394)" fill="white"/>
<path d="M58.8659 20.016C58.6739 20.352 58.4819 20.688 58.2899 21.024C58.0979 21.336 57.9299 21.648 57.7859 21.96C57.6899 22.176 57.6419 22.392 57.6419 22.608C57.6419 22.8 57.7139 22.896 57.8579 22.896C58.0019 22.896 58.2059 22.8 58.4699 22.608C58.9499 22.272 59.3819 21.9 59.7659 21.492C60.1739 21.084 60.5819 20.664 60.9899 20.232C61.3019 19.872 61.5659 19.536 61.7819 19.224C61.9979 18.888 62.2379 18.54 62.5019 18.18C62.6699 17.94 62.8379 17.7 63.0059 17.46C63.1739 17.196 63.3419 16.98 63.5099 16.812C63.5819 16.74 63.6419 16.668 63.6899 16.596C63.7619 16.524 63.8579 16.488 63.9779 16.488H64.2659C64.4339 16.488 64.5419 16.548 64.5899 16.668C64.5899 16.764 64.5299 16.872 64.4099 16.992C63.9299 17.712 63.4499 18.42 62.9699 19.116C62.5139 19.812 62.1419 20.436 61.8539 20.988C61.4219 21.876 61.0739 22.776 60.8099 23.688C60.7859 23.808 60.7619 23.916 60.7379 24.012C60.7379 24.084 60.7379 24.144 60.7379 24.192C60.7379 24.6 60.9419 24.804 61.3499 24.804C61.3979 24.804 61.5419 24.78 61.7819 24.732C62.6459 24.492 63.4259 24.12 64.1219 23.616C64.8179 23.112 65.5619 22.5 66.3539 21.78C66.4019 21.732 66.4619 21.708 66.5339 21.708C66.6299 21.708 66.6779 21.744 66.6779 21.816C66.6779 21.888 66.6419 21.96 66.5699 22.032C65.7299 22.776 64.9619 23.4 64.2659 23.904C63.5699 24.408 62.8739 24.78 62.1779 25.02C61.5299 25.236 60.9899 25.344 60.5579 25.344C59.8139 25.344 59.4419 25.032 59.4419 24.408C59.4419 24.144 59.5019 23.88 59.6219 23.616C59.7419 23.328 59.8619 23.076 59.9819 22.86C60.1739 22.524 60.3419 22.2 60.4859 21.888C60.6539 21.576 60.7859 21.324 60.8819 21.132C60.8819 21.084 60.8819 21.06 60.8819 21.06C60.9059 21.036 60.9179 21.012 60.9179 20.988C60.9179 20.94 60.8939 20.916 60.8459 20.916C60.7739 20.916 60.7019 20.964 60.6299 21.06C60.0059 21.708 59.3699 22.284 58.7219 22.788C58.4819 22.98 58.2539 23.112 58.0379 23.184C57.8219 23.256 57.6179 23.292 57.4259 23.292H57.3539C57.1139 23.268 56.9099 23.196 56.7419 23.076C56.5979 22.932 56.5259 22.728 56.5259 22.464V22.428C56.5499 22.236 56.5619 22.14 56.5619 22.14C56.5859 22.116 56.6699 21.996 56.8139 21.78C57.1259 21.228 57.4139 20.7 57.6779 20.196C57.9659 19.692 58.1819 19.284 58.3259 18.972C58.4699 18.636 58.5299 18.42 58.5059 18.324C58.5059 18.228 58.3859 18.3 58.1459 18.54C57.9059 18.78 57.5339 19.224 57.0299 19.872C56.5499 20.52 55.9019 21.42 55.0859 22.572C54.7739 22.956 54.4859 23.28 54.2219 23.544C53.9579 23.808 53.7299 24.024 53.5379 24.192C52.7699 24.816 52.1579 25.128 51.7019 25.128C51.3179 25.128 51.1259 24.912 51.1259 24.48C51.1259 24.36 51.1379 24.216 51.1619 24.048C51.1859 23.856 51.2579 23.664 51.3779 23.472C51.5459 23.232 51.7019 23.1 51.8459 23.076C51.9899 23.052 52.1099 23.076 52.2059 23.148C52.3259 23.22 52.4219 23.328 52.4939 23.472C52.5659 23.616 52.6019 23.736 52.6019 23.832C52.6019 24.048 52.6739 24.156 52.8179 24.156C53.1779 24.156 53.8019 23.568 54.6899 22.392C54.8579 22.176 55.0859 21.864 55.3739 21.456C55.6859 21.048 55.9979 20.628 56.3099 20.196C56.6459 19.764 56.9459 19.368 57.2099 19.008C57.4739 18.624 57.6539 18.348 57.7499 18.18C57.9899 17.892 58.1699 17.628 58.2899 17.388C58.4339 17.124 58.5779 16.908 58.7219 16.74C58.8659 16.548 59.0579 16.404 59.2979 16.308C59.5379 16.188 59.8739 16.128 60.3059 16.128H60.5939C60.7619 16.128 60.8699 16.188 60.9179 16.308C60.9179 16.404 60.8579 16.512 60.7379 16.632C60.2579 17.352 59.8979 17.964 59.6579 18.468C59.4179 18.948 59.1539 19.464 58.8659 20.016Z" transform="translate(0.0664062 0.66394)" fill="white"/>
<path d="M67.8105 20.34C68.1465 19.74 68.4945 19.14 68.8545 18.54C69.2385 17.916 69.5985 17.34 69.9345 16.812C70.0545 16.716 70.2465 16.632 70.5105 16.56C70.7985 16.488 70.9905 16.452 71.0865 16.452C71.2065 16.452 71.2665 16.5 71.2665 16.596C70.8105 17.292 70.3665 18 69.9345 18.72C69.5025 19.416 69.1185 20.064 68.7825 20.664C68.4705 21.24 68.2185 21.756 68.0265 22.212C67.8345 22.644 67.7385 22.956 67.7385 23.148C67.7385 23.388 67.8105 23.508 67.9545 23.508C68.0985 23.508 68.3025 23.412 68.5665 23.22C68.8545 23.004 69.1665 22.728 69.5025 22.392C69.8625 22.056 70.2225 21.684 70.5825 21.276C70.9425 20.844 71.2905 20.412 71.6265 19.98C71.7465 19.812 71.8905 19.596 72.0585 19.332C72.2265 19.044 72.3825 18.78 72.5265 18.54C72.6945 18.276 72.8385 18.06 72.9585 17.892C73.1025 17.7 73.2105 17.604 73.2825 17.604C73.4025 17.604 73.5345 17.652 73.6785 17.748C73.8225 17.82 73.8945 17.904 73.8945 18C73.8945 18.096 73.8465 18.216 73.7505 18.36C73.6545 18.504 73.5345 18.66 73.3905 18.828C73.2465 18.996 73.0905 19.176 72.9225 19.368C72.7785 19.536 72.6585 19.704 72.5625 19.872C72.4665 20.04 72.3225 20.316 72.1305 20.7C71.9625 21.084 71.7945 21.504 71.6265 21.96C71.4585 22.416 71.3145 22.86 71.1945 23.292C71.0745 23.724 71.0145 24.084 71.0145 24.372C71.0145 24.684 71.0745 24.912 71.1945 25.056C71.3385 25.224 71.6025 25.308 71.9865 25.308C72.4665 25.308 72.9585 25.176 73.4625 24.912C73.9905 24.672 74.4945 24.42 74.9745 24.156C75.0465 24.18 75.0945 24.228 75.1185 24.3C75.1425 24.348 75.0945 24.396 74.9745 24.444C74.2545 24.852 73.5105 25.188 72.7425 25.452C71.9985 25.74 71.3265 25.884 70.7265 25.884C69.9825 25.884 69.6105 25.608 69.6105 25.056C69.6105 24.696 69.7665 24.12 70.0785 23.328C70.3905 22.536 70.7625 21.72 71.1945 20.88C71.0745 21.048 70.8345 21.324 70.4745 21.708C70.1385 22.092 69.7545 22.488 69.3225 22.896C68.8905 23.28 68.4585 23.628 68.0265 23.94C67.5945 24.252 67.2345 24.408 66.9465 24.408C66.7065 24.408 66.5505 24.348 66.4785 24.228C66.4065 24.084 66.3705 23.916 66.3705 23.724C66.3705 23.58 66.4185 23.364 66.5145 23.076C66.6345 22.788 66.7665 22.476 66.9105 22.14C67.0545 21.804 67.2105 21.48 67.3785 21.168C67.5465 20.832 67.6905 20.556 67.8105 20.34Z" transform="translate(0.0664062 0.66394)" fill="white"/>
<path d="M75.301 23.472C75.469 23.232 75.625 23.1 75.769 23.076C75.913 23.052 76.033 23.076 76.129 23.148C76.249 23.22 76.345 23.328 76.417 23.472C76.489 23.616 76.525 23.736 76.525 23.832C76.525 24.048 76.597 24.156 76.741 24.156C77.101 24.156 77.725 23.568 78.613 22.392C78.781 22.176 79.009 21.864 79.297 21.456C79.609 21.048 79.921 20.628 80.233 20.196C80.569 19.764 80.869 19.368 81.133 19.008C81.397 18.624 81.577 18.348 81.673 18.18C81.913 17.892 82.093 17.628 82.213 17.388C82.357 17.124 82.501 16.908 82.645 16.74C82.789 16.548 82.981 16.404 83.221 16.308C83.461 16.188 83.797 16.128 84.229 16.128H84.517C84.685 16.128 84.793 16.188 84.841 16.308C84.841 16.404 84.781 16.512 84.661 16.632C84.181 17.352 83.701 18.06 83.221 18.756C82.765 19.452 82.393 20.076 82.105 20.628C81.673 21.516 81.325 22.416 81.061 23.328C81.037 23.448 81.013 23.556 80.989 23.652C80.989 23.724 80.989 23.784 80.989 23.832C80.989 24.24 81.193 24.444 81.601 24.444C81.649 24.444 81.793 24.42 82.033 24.372C82.897 24.132 83.677 23.76 84.373 23.256C85.069 22.752 85.813 22.14 86.605 21.42C86.653 21.372 86.713 21.348 86.785 21.348C86.881 21.348 86.929 21.384 86.929 21.456C86.929 21.528 86.893 21.6 86.821 21.672C85.981 22.416 85.213 23.04 84.517 23.544C83.821 24.048 83.125 24.42 82.429 24.66C81.781 24.876 81.241 24.984 80.809 24.984C80.065 24.984 79.693 24.672 79.693 24.048C79.693 23.784 79.753 23.52 79.873 23.256C79.993 22.968 80.113 22.716 80.233 22.5C80.713 21.66 81.145 20.868 81.529 20.124C81.937 19.38 82.153 18.9 82.177 18.684C82.225 18.468 82.009 18.636 81.529 19.188C81.073 19.716 80.233 20.844 79.009 22.572C78.697 22.956 78.409 23.28 78.145 23.544C77.881 23.808 77.653 24.024 77.461 24.192C76.693 24.816 76.081 25.128 75.625 25.128C75.241 25.128 75.049 24.912 75.049 24.48C75.049 24.36 75.061 24.216 75.085 24.048C75.109 23.856 75.181 23.664 75.301 23.472Z" transform="translate(0.0664062 0.66394)" fill="white"/>
<path d="M96.8999 20.196C95.6759 21.66 94.5839 22.74 93.6239 23.436C92.6879 24.132 91.8479 24.48 91.1039 24.48C90.7679 24.48 90.4679 24.396 90.2039 24.228C89.9639 24.036 89.8439 23.628 89.8439 23.004C89.8439 22.86 89.8679 22.584 89.9159 22.176C89.9879 21.744 90.1079 21.336 90.2759 20.952C89.9639 21.408 89.6159 21.852 89.2319 22.284C88.8719 22.716 88.4999 23.1 88.1159 23.436C87.7559 23.772 87.4079 24.048 87.0719 24.264C86.7359 24.456 86.4599 24.552 86.2439 24.552C85.7879 24.552 85.5599 24.288 85.5599 23.76C85.5599 23.304 85.7999 22.62 86.2799 21.708C86.6159 21.036 87.0719 20.328 87.6479 19.584C88.2479 18.816 88.8839 18.144 89.5559 17.568C89.9639 17.232 90.3479 16.956 90.7079 16.74C91.0919 16.524 91.4519 16.416 91.7879 16.416C92.1959 16.416 92.5679 16.548 92.9039 16.812C93.0239 16.716 93.1559 16.62 93.2999 16.524C93.4439 16.404 93.5639 16.308 93.6599 16.236C93.7079 16.236 93.7319 16.26 93.7319 16.308C93.7319 16.356 93.6839 16.464 93.5879 16.632C92.8919 17.784 92.2799 18.852 91.7519 19.836C91.2479 20.82 90.9959 21.816 90.9959 22.824C90.9959 23.568 91.2599 23.94 91.7879 23.94C92.2919 23.94 92.9759 23.628 93.8399 23.004C94.7279 22.356 95.6879 21.348 96.7199 19.98C96.7439 19.932 96.7919 19.908 96.8639 19.908C96.9599 19.908 96.9719 20.004 96.8999 20.196ZM92.0759 17.64C91.9319 17.472 91.7639 17.352 91.5719 17.28C91.3799 17.208 91.1999 17.172 91.0319 17.172C90.6239 17.172 90.1799 17.4 89.6999 17.856C89.2199 18.312 88.7759 18.876 88.3679 19.548C87.9599 20.196 87.6239 20.88 87.3599 21.6C87.0959 22.296 86.9639 22.896 86.9639 23.4C86.9639 23.592 87.0479 23.688 87.2159 23.688C87.4079 23.688 87.8039 23.4 88.4039 22.824C89.0039 22.248 89.6519 21.48 90.3479 20.52C90.6839 20.04 90.9959 19.572 91.2839 19.116C91.5719 18.66 91.8359 18.168 92.0759 17.64Z" transform="translate(0.0664062 0.66394)" fill="white"/>
<path d="M117.686 16.848C118.502 15.192 119.258 13.572 119.954 11.988C120.65 10.404 121.346 8.736 122.042 6.984C121.202 6.504 120.302 6.108 119.342 5.796C118.406 5.46 117.47 5.292 116.534 5.292C115.742 5.292 114.998 5.388 114.302 5.58C113.63 5.772 113.042 6.096 112.538 6.552C112.034 6.984 111.638 7.56 111.35 8.28C111.062 8.976 110.918 9.828 110.918 10.836C110.918 11.628 111.05 12.192 111.314 12.528C111.602 12.864 111.878 13.116 112.142 13.284C112.142 13.428 112.022 13.5 111.782 13.5C111.614 13.5 111.386 13.548 111.098 13.644C110.81 13.74 110.57 13.788 110.378 13.788C110.162 13.788 109.922 13.62 109.658 13.284C109.394 12.948 109.262 12.42 109.262 11.7C109.262 11.316 109.454 10.704 109.838 9.864C110.246 9 110.81 8.124 111.53 7.236C112.25 6.348 113.114 5.568 114.122 4.896C115.154 4.224 116.282 3.888 117.506 3.888C118.634 3.888 119.726 4.128 120.782 4.608C121.862 5.088 122.894 5.616 123.878 6.192C124.862 6.768 125.798 7.296 126.686 7.776C127.598 8.256 128.462 8.496 129.278 8.496C129.902 8.496 130.418 8.34 130.826 8.028C131.234 7.692 131.438 7.236 131.438 6.66C131.438 6.3 131.366 6.024 131.222 5.832C131.102 5.616 130.958 5.436 130.79 5.292C130.622 5.148 130.466 5.028 130.322 4.932C130.202 4.812 130.142 4.68 130.142 4.536C130.142 4.416 130.262 4.308 130.502 4.212C130.742 4.116 130.994 4.068 131.258 4.068C131.594 4.068 131.834 4.212 131.978 4.5C132.122 4.788 132.194 5.088 132.194 5.4C132.194 6.096 132.038 6.72 131.726 7.272C131.438 7.8 131.078 8.256 130.646 8.64C130.238 9 129.806 9.276 129.35 9.468C128.894 9.66 128.51 9.756 128.198 9.756C127.502 9.756 126.65 9.504 125.642 9C124.634 8.496 123.554 7.908 122.402 7.236C121.706 8.844 120.986 10.464 120.242 12.096C119.522 13.728 118.778 15.3 118.01 16.812L117.758 17.46C117.038 18.828 116.294 20.076 115.526 21.204C114.782 22.308 113.954 23.244 113.042 24.012C112.154 24.78 111.158 25.368 110.054 25.776C108.974 26.208 107.738 26.424 106.346 26.424C104.666 26.424 103.346 26.004 102.386 25.164C101.426 24.324 100.946 23.148 100.946 21.636C100.946 20.772 101.054 20.016 101.27 19.368C101.486 18.696 101.798 18 102.206 17.28C102.254 17.232 102.314 17.232 102.386 17.28C102.458 17.304 102.482 17.376 102.458 17.496C102.194 17.952 101.978 18.456 101.81 19.008C101.642 19.536 101.558 20.076 101.558 20.628C101.558 21.228 101.714 21.792 102.026 22.32C102.362 22.848 102.806 23.316 103.358 23.724C103.934 24.108 104.582 24.408 105.302 24.624C106.046 24.864 106.814 24.984 107.606 24.984C108.758 24.984 109.826 24.78 110.81 24.372C111.794 23.964 112.694 23.412 113.51 22.716C114.326 22.02 115.046 21.228 115.67 20.34C116.318 19.428 116.882 18.48 117.362 17.496L117.686 16.848ZM119.27 15.408C119.054 15.504 118.898 15.576 118.802 15.624C118.706 15.648 118.622 15.672 118.55 15.696C118.502 15.72 118.442 15.756 118.37 15.804C118.298 15.828 118.178 15.888 118.01 15.984C117.77 16.104 117.518 16.272 117.254 16.488C117.014 16.704 116.834 16.92 116.714 17.136C116.69 17.16 116.69 17.136 116.714 17.064C116.762 16.992 116.81 16.908 116.858 16.812C116.906 16.692 116.942 16.584 116.966 16.488C117.014 16.392 117.026 16.332 117.002 16.308C117.002 16.26 116.954 16.212 116.858 16.164C116.786 16.092 116.81 15.996 116.93 15.876C116.906 15.924 116.978 15.9 117.146 15.804C117.338 15.708 117.554 15.6 117.794 15.48C118.034 15.36 118.25 15.252 118.442 15.156C118.658 15.036 118.79 14.964 118.838 14.94C118.91 14.892 119.126 14.796 119.486 14.652C119.846 14.484 120.158 14.376 120.422 14.328C120.47 14.328 120.578 14.304 120.746 14.256C120.938 14.208 121.13 14.16 121.322 14.112C121.514 14.04 121.694 13.98 121.862 13.932C122.054 13.884 122.174 13.86 122.222 13.86C123.614 13.572 124.814 13.62 125.822 14.004C126.854 14.364 127.49 15.18 127.73 16.452C127.874 17.292 127.754 18.156 127.37 19.044C127.01 19.932 126.518 20.772 125.894 21.564C125.27 22.356 124.574 23.076 123.806 23.724C123.038 24.372 122.318 24.876 121.646 25.236C121.094 25.548 120.566 25.8 120.062 25.992C119.558 26.184 119.03 26.328 118.478 26.424C117.974 26.544 117.47 26.592 116.966 26.568C116.462 26.544 116.006 26.484 115.598 26.388C115.214 26.316 114.89 26.208 114.626 26.064C114.386 25.92 114.254 25.788 114.23 25.668C114.182 25.356 114.11 25.092 114.014 24.876C113.942 24.66 113.87 24.48 113.798 24.336C113.822 24.168 113.882 24.144 113.978 24.264C114.506 24.816 115.286 25.188 116.318 25.38C117.35 25.596 118.406 25.596 119.486 25.38C120.182 25.212 120.866 24.996 121.538 24.732C122.21 24.468 122.786 24.168 123.266 23.832C123.938 23.328 124.478 22.788 124.886 22.212C125.318 21.636 125.642 21.06 125.858 20.484C126.074 19.908 126.194 19.356 126.218 18.828C126.266 18.276 126.254 17.796 126.182 17.388C126.062 16.716 125.786 16.14 125.354 15.66C124.946 15.18 124.394 14.88 123.698 14.76C122.954 14.64 122.186 14.652 121.394 14.796C120.986 14.868 120.638 14.94 120.35 15.012C120.086 15.084 119.726 15.216 119.27 15.408Z" transform="translate(0.0664062 0.66394)" fill="white"/>
<path d="M139.158 20.196C137.934 21.66 136.842 22.74 135.882 23.436C134.946 24.132 134.106 24.48 133.362 24.48C133.026 24.48 132.726 24.396 132.462 24.228C132.222 24.036 132.102 23.628 132.102 23.004C132.102 22.86 132.126 22.584 132.174 22.176C132.246 21.744 132.366 21.336 132.534 20.952C132.222 21.408 131.874 21.852 131.49 22.284C131.13 22.716 130.758 23.1 130.374 23.436C130.014 23.772 129.666 24.048 129.33 24.264C128.994 24.456 128.718 24.552 128.502 24.552C128.046 24.552 127.818 24.288 127.818 23.76C127.818 23.304 128.058 22.62 128.538 21.708C128.874 21.036 129.33 20.328 129.906 19.584C130.506 18.816 131.142 18.144 131.814 17.568C132.222 17.232 132.606 16.956 132.966 16.74C133.35 16.524 133.71 16.416 134.046 16.416C134.454 16.416 134.826 16.548 135.162 16.812C135.282 16.716 135.414 16.62 135.558 16.524C135.702 16.404 135.822 16.308 135.918 16.236C135.966 16.236 135.99 16.26 135.99 16.308C135.99 16.356 135.942 16.464 135.846 16.632C135.15 17.784 134.538 18.852 134.01 19.836C133.506 20.82 133.254 21.816 133.254 22.824C133.254 23.568 133.518 23.94 134.046 23.94C134.55 23.94 135.234 23.628 136.098 23.004C136.986 22.356 137.946 21.348 138.978 19.98C139.002 19.932 139.05 19.908 139.122 19.908C139.218 19.908 139.23 20.004 139.158 20.196ZM134.334 17.64C134.19 17.472 134.022 17.352 133.83 17.28C133.638 17.208 133.458 17.172 133.29 17.172C132.882 17.172 132.438 17.4 131.958 17.856C131.478 18.312 131.034 18.876 130.626 19.548C130.218 20.196 129.882 20.88 129.618 21.6C129.354 22.296 129.222 22.896 129.222 23.4C129.222 23.592 129.306 23.688 129.474 23.688C129.666 23.688 130.062 23.4 130.662 22.824C131.262 22.248 131.91 21.48 132.606 20.52C132.942 20.04 133.254 19.572 133.542 19.116C133.83 18.66 134.094 18.168 134.334 17.64Z" transform="translate(0.0664062 0.66394)" fill="white"/>
<path d="M138.228 20.34C138.564 19.74 138.912 19.14 139.272 18.54C139.656 17.916 140.016 17.34 140.352 16.812C140.472 16.716 140.664 16.632 140.928 16.56C141.216 16.488 141.408 16.452 141.504 16.452C141.624 16.452 141.684 16.5 141.684 16.596C141.228 17.292 140.784 18 140.352 18.72C139.92 19.416 139.536 20.064 139.2 20.664C138.888 21.24 138.636 21.756 138.444 22.212C138.252 22.644 138.156 22.956 138.156 23.148C138.156 23.388 138.228 23.508 138.372 23.508C138.516 23.508 138.72 23.412 138.984 23.22C139.272 23.004 139.584 22.728 139.92 22.392C140.28 22.056 140.64 21.684 141 21.276C141.36 20.844 141.708 20.412 142.044 19.98C142.164 19.812 142.308 19.596 142.476 19.332C142.644 19.044 142.8 18.78 142.944 18.54C143.112 18.276 143.256 18.06 143.376 17.892C143.52 17.7 143.628 17.604 143.7 17.604C143.82 17.604 143.952 17.652 144.096 17.748C144.24 17.82 144.312 17.904 144.312 18C144.312 18.096 144.264 18.216 144.168 18.36C144.072 18.504 143.952 18.66 143.808 18.828C143.664 18.996 143.508 19.176 143.34 19.368C143.196 19.536 143.076 19.704 142.98 19.872C142.884 20.04 142.74 20.316 142.548 20.7C142.38 21.084 142.212 21.504 142.044 21.96C141.876 22.416 141.732 22.86 141.612 23.292C141.492 23.724 141.432 24.084 141.432 24.372C141.432 24.684 141.492 24.912 141.612 25.056C141.756 25.224 142.02 25.308 142.404 25.308C142.884 25.308 143.376 25.176 143.88 24.912C144.408 24.672 144.912 24.42 145.392 24.156C145.464 24.18 145.512 24.228 145.536 24.3C145.56 24.348 145.512 24.396 145.392 24.444C144.672 24.852 143.928 25.188 143.16 25.452C142.416 25.74 141.744 25.884 141.144 25.884C140.4 25.884 140.028 25.608 140.028 25.056C140.028 24.696 140.184 24.12 140.496 23.328C140.808 22.536 141.18 21.72 141.612 20.88C141.492 21.048 141.252 21.324 140.892 21.708C140.556 22.092 140.172 22.488 139.74 22.896C139.308 23.28 138.876 23.628 138.444 23.94C138.012 24.252 137.652 24.408 137.364 24.408C137.124 24.408 136.968 24.348 136.896 24.228C136.824 24.084 136.788 23.916 136.788 23.724C136.788 23.58 136.836 23.364 136.932 23.076C137.052 22.788 137.184 22.476 137.328 22.14C137.472 21.804 137.628 21.48 137.796 21.168C137.964 20.832 138.108 20.556 138.228 20.34Z" transform="translate(0.0664062 0.66394)" fill="white"/>
<path d="M156.843 20.088C156.195 20.616 155.415 21.108 154.503 21.564C153.615 22.02 152.667 22.44 151.659 22.824C150.675 23.208 149.667 23.568 148.635 23.904C147.603 24.24 146.631 24.552 145.719 24.84C143.991 27.888 142.575 30.384 141.471 32.328C140.367 34.272 139.503 35.844 138.879 37.044C138.255 38.244 137.823 39.144 137.583 39.744C137.343 40.368 137.223 40.872 137.223 41.256C137.223 41.592 137.319 41.82 137.511 41.94C137.679 42.084 137.943 42.156 138.303 42.156C138.519 42.156 138.783 42.132 139.095 42.084C139.383 42.036 139.695 41.976 140.031 41.904C140.343 41.856 140.643 41.784 140.931 41.688C141.219 41.616 141.459 41.544 141.651 41.472C141.771 41.424 141.843 41.46 141.867 41.58C141.891 41.7 141.843 41.772 141.723 41.796C141.531 41.844 141.207 41.928 140.751 42.048C140.271 42.168 139.767 42.288 139.239 42.408C138.687 42.528 138.159 42.636 137.655 42.732C137.127 42.828 136.719 42.876 136.431 42.876C136.167 42.876 135.951 42.816 135.783 42.696C135.615 42.6 135.531 42.396 135.531 42.084C135.531 41.604 135.735 40.98 136.143 40.212C136.527 39.468 137.115 38.448 137.907 37.152C138.675 35.88 139.647 34.272 140.823 32.328C141.999 30.384 143.367 27.984 144.927 25.128C144.495 25.248 144.063 25.38 143.631 25.524C143.199 25.692 142.899 25.776 142.731 25.776C142.539 25.776 142.443 25.692 142.443 25.524C142.443 25.284 142.527 25.104 142.695 24.984C142.863 24.864 143.055 24.78 143.271 24.732C143.559 24.684 143.895 24.624 144.279 24.552C144.663 24.48 145.023 24.408 145.359 24.336C146.247 22.752 147.063 21.18 147.807 19.62C148.575 18.06 149.415 16.56 150.327 15.12C150.423 15 150.531 14.928 150.651 14.904C150.771 14.856 150.915 14.832 151.083 14.832C151.371 14.832 151.515 14.916 151.515 15.084C151.515 15.18 151.419 15.408 151.227 15.768C151.035 16.128 150.783 16.572 150.471 17.1C150.159 17.604 149.799 18.18 149.391 18.828C149.007 19.452 148.611 20.088 148.203 20.736C147.819 21.36 147.447 21.972 147.087 22.572C146.727 23.148 146.427 23.652 146.187 24.084L146.763 23.94C147.219 23.82 147.759 23.58 148.383 23.22C149.031 22.86 149.631 22.416 150.183 21.888C150.759 21.336 151.239 20.724 151.623 20.052C152.031 19.38 152.235 18.684 152.235 17.964C152.235 17.58 152.187 17.328 152.091 17.208C151.995 17.064 151.947 16.944 151.947 16.848C151.947 16.752 152.019 16.704 152.163 16.704C152.187 16.704 152.283 16.752 152.451 16.848C152.643 16.944 152.835 17.064 153.027 17.208C153.219 17.328 153.387 17.448 153.531 17.568C153.699 17.664 153.783 17.724 153.783 17.748C153.783 18.372 153.579 18.972 153.171 19.548C152.763 20.124 152.259 20.676 151.659 21.204C151.059 21.708 150.423 22.176 149.751 22.608C149.103 23.016 148.515 23.364 147.987 23.652C149.595 23.22 151.179 22.692 152.739 22.068C154.299 21.444 155.619 20.7 156.699 19.836C156.795 19.74 156.867 19.728 156.915 19.8C156.987 19.872 156.963 19.968 156.843 20.088Z" transform="translate(0.0664062 0.66394)" fill="white"/>
<path d="M166.699 18C166.315 18.12 165.895 18.228 165.439 18.324C164.983 18.396 164.575 18.432 164.215 18.432C163.831 18.432 163.411 18.42 162.955 18.396C162.499 18.348 162.055 18.276 161.623 18.18C161.479 19.188 161.179 20.1 160.723 20.916C160.291 21.708 159.691 22.488 158.923 23.256C157.963 24.144 157.099 24.588 156.331 24.588C155.851 24.588 155.515 24.444 155.323 24.156C155.131 23.844 155.035 23.472 155.035 23.04C155.035 22.704 155.095 22.308 155.215 21.852C155.335 21.372 155.491 20.976 155.683 20.664C155.947 20.184 156.379 19.68 156.979 19.152C157.579 18.624 158.419 18.012 159.499 17.316C159.835 17.1 160.099 16.932 160.291 16.812C160.483 16.692 160.627 16.596 160.723 16.524C160.819 16.452 160.879 16.416 160.903 16.416C160.951 16.392 160.987 16.38 161.011 16.38C161.059 16.38 161.107 16.416 161.155 16.488C161.203 16.536 161.251 16.584 161.299 16.632C161.371 16.944 161.527 17.196 161.767 17.388C162.007 17.58 162.283 17.736 162.595 17.856C162.907 17.952 163.219 18.024 163.531 18.072C163.867 18.096 164.167 18.108 164.431 18.108C164.767 18.108 165.139 18.084 165.547 18.036C165.979 17.988 166.363 17.916 166.699 17.82C166.795 17.82 166.843 17.844 166.843 17.892C166.867 17.916 166.819 17.952 166.699 18ZM160.471 18.576C160.471 18.36 160.447 18.12 160.399 17.856C160.375 17.592 160.243 17.46 160.003 17.46C159.811 17.46 159.607 17.532 159.391 17.676C158.431 18.228 157.699 18.984 157.195 19.944C156.691 20.88 156.439 21.888 156.439 22.968C156.439 23.28 156.487 23.544 156.583 23.76C156.703 23.952 156.859 24.048 157.051 24.048C157.507 24.048 157.939 23.856 158.347 23.472C158.755 23.064 159.115 22.572 159.427 21.996C159.739 21.42 159.991 20.82 160.183 20.196C160.375 19.572 160.471 19.032 160.471 18.576Z" transform="translate(0.0664062 0.66394)" fill="white"/>
<path d="M184.927 1.692C184.927 2.844 183.715 4.644 181.291 7.092C178.867 9.516 175.123 12.54 170.059 16.164C169.843 16.356 169.735 16.476 169.735 16.524C170.263 16.836 170.887 17.076 171.607 17.244C172.351 17.388 173.107 17.46 173.875 17.46C174.259 17.46 174.679 17.436 175.135 17.388C175.591 17.316 175.987 17.22 176.323 17.1C176.443 17.076 176.503 17.1 176.503 17.172C176.527 17.22 176.479 17.268 176.359 17.316C176.047 17.436 175.615 17.544 175.063 17.64C174.535 17.736 174.043 17.784 173.587 17.784C173.131 17.784 172.627 17.772 172.075 17.748C171.523 17.7 171.007 17.616 170.527 17.496C170.479 17.496 170.455 17.532 170.455 17.604C170.455 17.676 170.455 17.736 170.455 17.784C170.455 18.312 170.347 18.852 170.131 19.404C169.915 19.956 169.639 20.496 169.303 21.024C168.991 21.528 168.631 21.996 168.223 22.428C167.815 22.86 167.419 23.22 167.035 23.508C166.603 23.844 166.171 24.108 165.739 24.3C165.331 24.468 165.007 24.552 164.767 24.552C164.431 24.552 164.203 24.456 164.083 24.264C163.987 24.048 163.939 23.796 163.939 23.508C163.939 23.196 163.975 22.872 164.047 22.536C164.143 22.2 164.287 21.828 164.479 21.42C164.695 20.988 164.947 20.496 165.235 19.944C165.547 19.368 165.919 18.684 166.351 17.892C168.127 14.628 169.831 11.868 171.463 9.612C173.095 7.332 174.607 5.484 175.999 4.068C177.415 2.628 178.699 1.596 179.851 0.972C181.003 0.324 181.999 0 182.839 0C183.511 0 184.027 0.156 184.387 0.468C184.747 0.756 184.927 1.164 184.927 1.692ZM183.811 2.556C183.811 1.38 183.115 0.792001 181.723 0.792001C181.003 0.792001 180.151 1.092 179.167 1.692C178.183 2.292 177.103 3.252 175.927 4.572C174.751 5.868 173.491 7.548 172.147 9.612C170.803 11.652 169.411 14.112 167.971 16.992C167.899 17.136 167.899 17.196 167.971 17.172C168.067 17.124 168.139 17.076 168.187 17.028C169.099 16.404 170.119 15.696 171.247 14.904C172.399 14.112 173.551 13.272 174.703 12.384C175.855 11.496 176.971 10.596 178.051 9.684C179.155 8.772 180.127 7.884 180.967 7.02C181.831 6.132 182.515 5.316 183.019 4.572C183.547 3.804 183.811 3.132 183.811 2.556ZM169.735 18.072C169.735 17.664 169.603 17.424 169.339 17.352C169.075 17.256 168.835 17.208 168.619 17.208C168.475 17.208 168.295 17.268 168.079 17.388C167.887 17.508 167.719 17.652 167.575 17.82C167.383 18.108 167.155 18.48 166.891 18.936C166.651 19.392 166.411 19.872 166.171 20.376C165.955 20.856 165.763 21.324 165.595 21.78C165.451 22.236 165.379 22.584 165.379 22.824C165.379 23.208 165.463 23.448 165.631 23.544C165.799 23.616 165.931 23.652 166.027 23.652C166.219 23.652 166.519 23.52 166.927 23.256C167.287 22.968 167.635 22.62 167.971 22.212C168.331 21.804 168.631 21.372 168.871 20.916C169.135 20.46 169.339 19.992 169.483 19.512C169.651 19.032 169.735 18.552 169.735 18.072Z" transform="translate(0.0664062 0.66394)" fill="white"/>
<path d="M183.876 20.196C182.652 21.66 181.56 22.74 180.6 23.436C179.664 24.132 178.824 24.48 178.08 24.48C177.744 24.48 177.444 24.396 177.18 24.228C176.94 24.036 176.82 23.628 176.82 23.004C176.82 22.86 176.844 22.584 176.892 22.176C176.964 21.744 177.084 21.336 177.252 20.952C176.94 21.408 176.592 21.852 176.208 22.284C175.848 22.716 175.476 23.1 175.092 23.436C174.732 23.772 174.384 24.048 174.048 24.264C173.712 24.456 173.436 24.552 173.22 24.552C172.764 24.552 172.536 24.288 172.536 23.76C172.536 23.304 172.776 22.62 173.256 21.708C173.592 21.036 174.048 20.328 174.624 19.584C175.224 18.816 175.86 18.144 176.532 17.568C176.94 17.232 177.324 16.956 177.684 16.74C178.068 16.524 178.428 16.416 178.764 16.416C179.172 16.416 179.544 16.548 179.88 16.812C180 16.716 180.132 16.62 180.276 16.524C180.42 16.404 180.54 16.308 180.636 16.236C180.684 16.236 180.708 16.26 180.708 16.308C180.708 16.356 180.66 16.464 180.564 16.632C179.868 17.784 179.256 18.852 178.728 19.836C178.224 20.82 177.972 21.816 177.972 22.824C177.972 23.568 178.236 23.94 178.764 23.94C179.268 23.94 179.952 23.628 180.816 23.004C181.704 22.356 182.664 21.348 183.696 19.98C183.72 19.932 183.768 19.908 183.84 19.908C183.936 19.908 183.948 20.004 183.876 20.196ZM179.052 17.64C178.908 17.472 178.74 17.352 178.548 17.28C178.356 17.208 178.176 17.172 178.008 17.172C177.6 17.172 177.156 17.4 176.676 17.856C176.196 18.312 175.752 18.876 175.344 19.548C174.936 20.196 174.6 20.88 174.336 21.6C174.072 22.296 173.94 22.896 173.94 23.4C173.94 23.592 174.024 23.688 174.192 23.688C174.384 23.688 174.78 23.4 175.38 22.824C175.98 22.248 176.628 21.48 177.324 20.52C177.66 20.04 177.972 19.572 178.26 19.116C178.548 18.66 178.812 18.168 179.052 17.64Z" transform="translate(0.0664062 0.66394)" fill="white"/>
</svg>
