<svg width="372" height="87" viewBox="0 0 372 87" fill="none" xmlns="http://www.w3.org/2000/svg">
<path d="M23.232 23.136C21.44 24.672 19.776 26.064 18.24 27.312C16.736 28.528 15.28 29.552 13.872 30.384C12.496 31.216 11.152 31.856 9.84 32.304C8.56 32.752 7.28 32.976 6 32.976C3.888 32.976 2.368 32.416 1.44 31.296C0.48 30.144 0 28.656 0 26.832C0 26.224 0.096 25.584 0.288 24.912C0.448 24.208 0.688 23.536 1.008 22.896C1.328 22.256 1.712 21.648 2.16 21.072C2.608 20.496 3.104 20 3.648 19.584C3.808 19.488 3.872 19.456 3.84 19.488C3.808 19.52 3.84 19.552 3.936 19.584C3.168 20.384 2.56 21.232 2.112 22.128C1.632 23.024 1.392 24.08 1.392 25.296C1.392 27.312 1.952 28.768 3.072 29.664C4.224 30.528 5.808 30.96 7.824 30.96C8.464 30.96 9.232 30.896 10.128 30.768C11.024 30.64 12.064 30.32 13.248 29.808C14.464 29.264 15.84 28.48 17.376 27.456C18.912 26.4 20.64 24.96 22.56 23.136L23.28 22.416C25.68 20.208 27.984 17.856 30.192 15.36C32.4 12.864 34.48 10.368 36.432 7.872C36.976 7.232 37.52 6.688 38.064 6.24C38.608 5.792 39.056 5.568 39.408 5.568C39.888 5.568 40.128 5.856 40.128 6.432C40.128 6.56 40.112 6.704 40.08 6.864C40.08 6.992 40.064 7.136 40.032 7.296C39.872 7.136 39.728 7.008 39.6 6.912C39.472 6.784 39.312 6.752 39.12 6.816C38.416 6.976 37.888 7.248 37.536 7.632C37.184 8.016 36.72 8.64 36.144 9.504C35.792 9.92 35.264 10.704 34.56 11.856C33.856 12.976 33.152 14.368 32.448 16.032C31.744 17.664 31.12 19.504 30.576 21.552C30.064 23.6 29.808 25.728 29.808 27.936C29.808 28.736 30.016 29.488 30.432 30.192C30.848 30.864 31.6 31.2 32.688 31.2C33.648 31.2 34.576 30.88 35.472 30.24C36.4 29.6 37.2 28.784 37.872 27.792C38.576 26.768 39.136 25.648 39.552 24.432C40 23.184 40.224 21.968 40.224 20.784C40.224 20.592 40.272 20.512 40.368 20.544C40.464 20.544 40.512 20.704 40.512 21.024C40.448 22.752 40.112 24.336 39.504 25.776C38.896 27.184 38.128 28.416 37.2 29.472C36.304 30.496 35.312 31.296 34.224 31.872C33.136 32.416 32.064 32.688 31.008 32.688C29.984 32.688 29.152 32.368 28.512 31.728C27.872 31.056 27.552 30.144 27.552 28.992C27.552 28.064 27.616 27.04 27.744 25.92C27.872 24.8 28.16 23.536 28.608 22.128C29.088 20.72 29.76 19.152 30.624 17.424C31.52 15.696 32.72 13.744 34.224 11.568C34.256 11.472 34.24 11.408 34.176 11.376C34.144 11.312 34.064 11.344 33.936 11.472C33.2 12.4 32.368 13.392 31.44 14.448C30.512 15.504 29.568 16.56 28.608 17.616C27.648 18.64 26.704 19.648 25.776 20.64C24.848 21.6 24 22.432 23.232 23.136ZM37.392 6.144C37.328 6.368 37.168 6.64 36.912 6.96C36.688 7.28 36.496 7.456 36.336 7.488C35.632 7.52 34.752 7.568 33.696 7.632C32.672 7.696 31.584 7.776 30.432 7.872C29.28 7.968 28.112 8.096 26.928 8.256C25.776 8.416 24.72 8.608 23.76 8.832C22.736 9.088 21.952 9.552 21.408 10.224C20.896 10.864 20.64 11.584 20.64 12.384C20.64 12.896 20.688 13.296 20.784 13.584C20.88 13.872 20.992 14.112 21.12 14.304C21.248 14.464 21.36 14.592 21.456 14.688C21.552 14.784 21.6 14.896 21.6 15.024C21.216 15.184 20.832 15.44 20.448 15.792C20.064 15.568 19.776 15.296 19.584 14.976C19.392 14.624 19.296 14.16 19.296 13.584C19.296 13.264 19.36 12.864 19.488 12.384C19.616 11.872 19.856 11.36 20.208 10.848C20.592 10.304 21.136 9.776 21.84 9.264C22.544 8.752 23.472 8.304 24.624 7.92C25.328 7.696 26.208 7.472 27.264 7.248C28.32 6.992 29.424 6.768 30.576 6.576C31.728 6.384 32.832 6.224 33.888 6.096C34.976 5.968 35.904 5.904 36.672 5.904C37.152 5.904 37.392 5.984 37.392 6.144Z" transform="translate(1.13269 0.828003) scale(1.5)" fill="#47276A"/>
<path d="M46.6136 28.176C44.8216 28.08 43.6216 28.032 43.0136 28.032C42.5656 28.864 42.1336 29.728 41.7176 30.624C41.3016 31.488 40.8216 32.304 40.2776 33.072C40.0216 33.456 39.8136 33.44 39.6536 33.024C39.5896 32.896 39.5096 32.8 39.4136 32.736C39.3496 32.704 39.2856 32.672 39.2216 32.64C39.1576 32.64 39.1256 32.624 39.1256 32.592C39.1256 32.56 39.1576 32.48 39.2216 32.352C39.6376 31.456 40.0536 30.544 40.4696 29.616C40.9176 28.688 41.3336 27.792 41.7176 26.928C42.1336 26.032 42.5176 25.2 42.8696 24.432C43.2536 23.664 43.5896 22.992 43.8776 22.416C44.1016 22.096 44.3896 22.08 44.7416 22.368C44.9656 22.528 45.0776 22.672 45.0776 22.8C45.0776 22.96 45.0296 23.104 44.9336 23.232C44.7096 23.68 44.4856 24.208 44.2616 24.816C44.0376 25.424 43.7176 26.288 43.3016 27.408C43.5576 27.568 43.9736 27.68 44.5496 27.744C45.1576 27.776 45.8936 27.792 46.7576 27.792L46.6136 28.176ZM59.4296 25.44C58.8216 25.984 58.0216 26.576 57.0296 27.216C56.0696 27.824 55.1736 28.256 54.3416 28.512C53.2856 28.96 52.4376 29.008 51.7976 28.656C51.6376 29.008 51.4616 29.36 51.2696 29.712C51.1096 30.064 50.9016 30.4 50.6456 30.72C50.0056 31.648 49.3176 32.304 48.5816 32.688C47.8776 33.104 47.2536 33.248 46.7096 33.12C46.1656 32.992 45.7656 32.624 45.5096 32.016C45.2856 31.408 45.3016 30.576 45.5576 29.52C45.7176 28.944 45.9736 28.336 46.3256 27.696C46.6776 27.056 47.0936 26.448 47.5736 25.872C48.0536 25.296 48.5656 24.768 49.1096 24.288C49.6856 23.808 50.2456 23.44 50.7896 23.184C51.2056 22.992 51.6056 22.896 51.9896 22.896C52.0536 22.832 52.1016 22.784 52.1336 22.752C52.1976 22.72 52.2456 22.688 52.2776 22.656C52.6296 22.496 52.9816 22.4 53.3336 22.368C53.4936 22.368 53.5896 22.432 53.6216 22.56C53.6536 22.624 53.6376 22.8 53.5736 23.088C53.4136 23.6 53.2536 24.128 53.0936 24.672C52.9336 25.216 52.8056 25.712 52.7096 26.16C52.6136 26.896 52.7416 27.44 53.0936 27.792C53.4776 28.112 54.0216 28.16 54.7256 27.936C55.4616 27.68 56.2616 27.296 57.1256 26.784C57.9896 26.24 58.6936 25.696 59.2376 25.152C59.3976 24.992 59.4936 24.976 59.5256 25.104C59.5896 25.232 59.5576 25.344 59.4296 25.44ZM51.8936 23.52C51.7016 23.264 51.3816 23.28 50.9336 23.568C50.5176 23.824 50.1016 24.256 49.6856 24.864C49.3656 25.312 49.0616 25.792 48.7736 26.304C48.5176 26.816 48.2776 27.344 48.0536 27.888C47.8296 28.4 47.6376 28.896 47.4776 29.376C47.3176 29.856 47.2056 30.272 47.1416 30.624C46.9816 31.744 47.1736 32.384 47.7176 32.544C48.2616 32.704 48.9016 32.288 49.6376 31.296C50.3416 30.432 50.9176 29.44 51.3656 28.32C50.9176 27.808 50.8696 27.088 51.2216 26.16C51.3496 25.808 51.4776 25.392 51.6056 24.912C51.7336 24.432 51.8296 23.968 51.8936 23.52Z" transform="translate(1.13269 0.828003) scale(1.5)" fill="#47276A"/>
<path d="M71.7011 27.6C71.0291 28.56 69.8611 29.568 68.1971 30.624C66.5651 31.648 64.3891 32.624 61.6691 33.552C59.5571 37.328 57.5891 40.384 55.7651 42.72C53.9731 45.056 52.2771 46.864 50.6771 48.144C49.0771 49.456 47.5731 50.336 46.1651 50.784C44.7571 51.264 43.3811 51.504 42.0371 51.504C41.2691 51.504 40.4851 51.376 39.6851 51.12C38.8531 50.896 38.1171 50.544 37.4771 50.064C36.8051 49.584 36.2611 48.976 35.8451 48.24C35.4291 47.536 35.2211 46.704 35.2211 45.744C35.2211 44.464 35.6051 43.344 36.3731 42.384C37.1411 41.456 38.2291 40.624 39.6371 39.888C41.0131 39.152 42.6611 38.48 44.5811 37.872C46.4691 37.296 48.5491 36.72 50.8211 36.144C52.4851 35.696 54.1971 35.232 55.9571 34.752C57.7171 34.304 59.3651 33.84 60.9011 33.36C61.3811 32.464 61.8611 31.568 62.3411 30.672C62.8211 29.744 63.2691 28.816 63.6851 27.888C63.2371 28.432 62.7411 28.992 62.1971 29.568C61.6851 30.112 61.1251 30.624 60.5171 31.104C59.9091 31.584 59.3011 31.984 58.6931 32.304C58.0851 32.592 57.4931 32.736 56.9171 32.736C56.4691 32.736 56.1491 32.64 55.9571 32.448C55.7971 32.224 55.7171 31.936 55.7171 31.584C55.7171 30.88 55.9891 30.064 56.5331 29.136C57.0771 28.208 57.7331 27.312 58.5011 26.448C59.3011 25.584 60.1171 24.8 60.9491 24.096C61.8131 23.36 62.5491 22.832 63.1571 22.512C63.6051 22.256 64.0371 22.096 64.4531 22.032C64.9011 21.968 65.3011 21.936 65.6531 21.936C66.1651 21.936 66.5331 22 66.7571 22.128C67.1091 21.392 67.3971 20.848 67.6211 20.496C67.8451 20.144 68.0691 19.968 68.2931 19.968C68.4531 19.968 68.6131 20.016 68.7731 20.112C68.9331 20.208 69.0131 20.336 69.0131 20.496C69.0131 20.656 68.8851 20.976 68.6291 21.456C68.3731 21.936 68.1171 22.416 67.8611 22.896C67.1251 24.176 66.2291 25.728 65.1731 27.552C64.1171 29.376 63.0291 31.216 61.9091 33.072C64.5011 32.24 66.5651 31.312 68.1011 30.288C69.6371 29.232 70.7091 28.272 71.3171 27.408C71.4131 27.28 71.4931 27.248 71.5571 27.312C71.6531 27.344 71.7011 27.44 71.7011 27.6ZM66.4211 22.752C66.0691 22.624 65.6371 22.56 65.1251 22.56C64.3251 22.56 63.6691 22.752 63.1571 23.136C62.4211 23.68 61.7171 24.336 61.0451 25.104C60.4051 25.84 59.8291 26.608 59.3171 27.408C58.8051 28.176 58.4051 28.912 58.1171 29.616C57.8291 30.32 57.6851 30.88 57.6851 31.296C57.6851 31.584 57.8291 31.728 58.1171 31.728C58.7251 31.728 59.3971 31.456 60.1331 30.912C60.8691 30.368 61.6051 29.664 62.3411 28.8C63.1091 27.936 63.8451 26.976 64.5491 25.92C65.2531 24.864 65.8771 23.808 66.4211 22.752ZM60.6131 33.792C59.0451 34.304 57.3331 34.8 55.4771 35.28C53.6211 35.76 51.7331 36.272 49.8131 36.816C46.5171 37.712 43.8771 38.608 41.8931 39.504C39.8771 40.432 38.4051 41.568 37.4771 42.912C37.0291 43.552 36.7091 44.176 36.5171 44.784C36.3251 45.424 36.2291 45.968 36.2291 46.416C36.2291 47.28 36.3891 48 36.7091 48.576C36.9971 49.152 37.3971 49.616 37.9091 49.968C38.3891 50.32 38.9331 50.56 39.5411 50.688C40.1491 50.848 40.7411 50.928 41.3171 50.928C43.0771 50.928 44.8211 50.432 46.5491 49.44C48.2771 48.448 49.9571 47.152 51.5891 45.552C53.2211 43.952 54.7891 42.112 56.2931 40.032C57.8291 37.984 59.2691 35.904 60.6131 33.792Z" transform="translate(1.13269 0.828003) scale(1.5)" fill="#47276A"/>
<path d="M78.4879 26.688C78.2319 27.136 77.9759 27.584 77.7199 28.032C77.4639 28.448 77.2399 28.864 77.0479 29.28C76.9199 29.568 76.8559 29.856 76.8559 30.144C76.8559 30.4 76.9519 30.528 77.1439 30.528C77.3359 30.528 77.6079 30.4 77.9599 30.144C78.5999 29.696 79.1759 29.2 79.6879 28.656C80.2319 28.112 80.7759 27.552 81.3199 26.976C81.7359 26.496 82.0879 26.048 82.3759 25.632C82.6639 25.184 82.9839 24.72 83.3359 24.24C83.5599 23.92 83.7839 23.6 84.0079 23.28C84.2319 22.928 84.4559 22.64 84.6799 22.416C84.7759 22.32 84.8559 22.224 84.9199 22.128C85.0159 22.032 85.1439 21.984 85.3039 21.984H85.6879C85.9119 21.984 86.0559 22.064 86.1199 22.224C86.1199 22.352 86.0399 22.496 85.8799 22.656C85.2399 23.616 84.5999 24.56 83.9599 25.488C83.3519 26.416 82.8559 27.248 82.4719 27.984C81.8959 29.168 81.4319 30.368 81.0799 31.584C81.0479 31.744 81.0159 31.888 80.9839 32.016C80.9839 32.112 80.9839 32.192 80.9839 32.256C80.9839 32.8 81.2559 33.072 81.7999 33.072C81.8639 33.072 82.0559 33.04 82.3759 32.976C83.5279 32.656 84.5679 32.16 85.4959 31.488C86.4239 30.816 87.4159 30 88.4719 29.04C88.5359 28.976 88.6159 28.944 88.7119 28.944C88.8399 28.944 88.9039 28.992 88.9039 29.088C88.9039 29.184 88.8559 29.28 88.7599 29.376C87.6399 30.368 86.6159 31.2 85.6879 31.872C84.7599 32.544 83.8319 33.04 82.9039 33.36C82.0399 33.648 81.3199 33.792 80.7439 33.792C79.7519 33.792 79.2559 33.376 79.2559 32.544C79.2559 32.192 79.3359 31.84 79.4959 31.488C79.6559 31.104 79.8159 30.768 79.9759 30.48C80.2319 30.032 80.4559 29.6 80.6479 29.184C80.8719 28.768 81.0479 28.432 81.1759 28.176C81.1759 28.112 81.1759 28.08 81.1759 28.08C81.2079 28.048 81.2239 28.016 81.2239 27.984C81.2239 27.92 81.1919 27.888 81.1279 27.888C81.0319 27.888 80.9359 27.952 80.8399 28.08C80.0079 28.944 79.1599 29.712 78.2959 30.384C77.9759 30.64 77.6719 30.816 77.3839 30.912C77.0959 31.008 76.8239 31.056 76.5679 31.056H76.4719C76.1519 31.024 75.8799 30.928 75.6559 30.768C75.4639 30.576 75.3679 30.304 75.3679 29.952V29.904C75.3999 29.648 75.4159 29.52 75.4159 29.52C75.4479 29.488 75.5599 29.328 75.7519 29.04C76.1679 28.304 76.5519 27.6 76.9039 26.928C77.2879 26.256 77.5759 25.712 77.7679 25.296C77.9599 24.848 78.0399 24.56 78.0079 24.432C78.0079 24.304 77.8479 24.4 77.5279 24.72C77.2079 25.04 76.7119 25.632 76.0399 26.496C75.3999 27.36 74.5359 28.56 73.4479 30.096C73.0319 30.608 72.6479 31.04 72.2959 31.392C71.9439 31.744 71.6399 32.032 71.3839 32.256C70.3599 33.088 69.5439 33.504 68.9359 33.504C68.4239 33.504 68.1679 33.216 68.1679 32.64C68.1679 32.48 68.1839 32.288 68.2159 32.064C68.2479 31.808 68.3439 31.552 68.5039 31.296C68.7279 30.976 68.9359 30.8 69.1279 30.768C69.3199 30.736 69.4799 30.768 69.6079 30.864C69.7679 30.96 69.8959 31.104 69.9919 31.296C70.0879 31.488 70.1359 31.648 70.1359 31.776C70.1359 32.064 70.2319 32.208 70.4239 32.208C70.9039 32.208 71.7359 31.424 72.9199 29.856C73.1439 29.568 73.4479 29.152 73.8319 28.608C74.2479 28.064 74.6639 27.504 75.0799 26.928C75.5279 26.352 75.9279 25.824 76.2799 25.344C76.6319 24.832 76.8719 24.464 76.9999 24.24C77.3199 23.856 77.5599 23.504 77.7199 23.184C77.9119 22.832 78.1039 22.544 78.2959 22.32C78.4879 22.064 78.7439 21.872 79.0639 21.744C79.3839 21.584 79.8319 21.504 80.4079 21.504H80.7919C81.0159 21.504 81.1599 21.584 81.2239 21.744C81.2239 21.872 81.1439 22.016 80.9839 22.176C80.3439 23.136 79.8639 23.952 79.5439 24.624C79.2239 25.264 78.8719 25.952 78.4879 26.688Z" transform="translate(1.13269 0.828003) scale(1.5)" fill="#47276A"/>
<path d="M90.414 27.12C90.862 26.32 91.326 25.52 91.806 24.72C92.318 23.888 92.798 23.12 93.246 22.416C93.406 22.288 93.662 22.176 94.014 22.08C94.398 21.984 94.654 21.936 94.782 21.936C94.942 21.936 95.022 22 95.022 22.128C94.414 23.056 93.822 24 93.246 24.96C92.67 25.888 92.158 26.752 91.71 27.552C91.294 28.32 90.958 29.008 90.702 29.616C90.446 30.192 90.318 30.608 90.318 30.864C90.318 31.184 90.414 31.344 90.606 31.344C90.798 31.344 91.07 31.216 91.422 30.96C91.806 30.672 92.222 30.304 92.67 29.856C93.15 29.408 93.63 28.912 94.11 28.368C94.59 27.792 95.054 27.216 95.502 26.64C95.662 26.416 95.854 26.128 96.078 25.776C96.302 25.392 96.51 25.04 96.702 24.72C96.926 24.368 97.118 24.08 97.278 23.856C97.47 23.6 97.614 23.472 97.71 23.472C97.87 23.472 98.046 23.536 98.238 23.664C98.43 23.76 98.526 23.872 98.526 24C98.526 24.128 98.462 24.288 98.334 24.48C98.206 24.672 98.046 24.88 97.854 25.104C97.662 25.328 97.454 25.568 97.23 25.824C97.038 26.048 96.878 26.272 96.75 26.496C96.622 26.72 96.43 27.088 96.174 27.6C95.95 28.112 95.726 28.672 95.502 29.28C95.278 29.888 95.086 30.48 94.926 31.056C94.766 31.632 94.686 32.112 94.686 32.496C94.686 32.912 94.766 33.216 94.926 33.408C95.118 33.632 95.47 33.744 95.982 33.744C96.622 33.744 97.278 33.568 97.95 33.216C98.654 32.896 99.326 32.56 99.966 32.208C100.062 32.24 100.126 32.304 100.158 32.4C100.19 32.464 100.126 32.528 99.966 32.592C99.006 33.136 98.014 33.584 96.99 33.936C95.998 34.32 95.102 34.512 94.302 34.512C93.31 34.512 92.814 34.144 92.814 33.408C92.814 32.928 93.022 32.16 93.438 31.104C93.854 30.048 94.35 28.96 94.926 27.84C94.766 28.064 94.446 28.432 93.966 28.944C93.518 29.456 93.006 29.984 92.43 30.528C91.854 31.04 91.278 31.504 90.702 31.92C90.126 32.336 89.646 32.544 89.262 32.544C88.942 32.544 88.734 32.464 88.638 32.304C88.542 32.112 88.494 31.888 88.494 31.632C88.494 31.44 88.558 31.152 88.686 30.768C88.846 30.384 89.022 29.968 89.214 29.52C89.406 29.072 89.614 28.64 89.838 28.224C90.062 27.776 90.254 27.408 90.414 27.12Z" transform="translate(1.13269 0.828003) scale(1.5)" fill="#47276A"/>
<path d="M100.401 31.296C100.625 30.976 100.833 30.8 101.025 30.768C101.217 30.736 101.377 30.768 101.505 30.864C101.665 30.96 101.793 31.104 101.889 31.296C101.985 31.488 102.033 31.648 102.033 31.776C102.033 32.064 102.129 32.208 102.321 32.208C102.801 32.208 103.633 31.424 104.817 29.856C105.041 29.568 105.345 29.152 105.729 28.608C106.145 28.064 106.561 27.504 106.977 26.928C107.425 26.352 107.825 25.824 108.177 25.344C108.529 24.832 108.769 24.464 108.897 24.24C109.217 23.856 109.457 23.504 109.617 23.184C109.809 22.832 110.001 22.544 110.193 22.32C110.385 22.064 110.641 21.872 110.961 21.744C111.281 21.584 111.729 21.504 112.305 21.504H112.689C112.913 21.504 113.057 21.584 113.121 21.744C113.121 21.872 113.041 22.016 112.881 22.176C112.241 23.136 111.601 24.08 110.961 25.008C110.353 25.936 109.857 26.768 109.473 27.504C108.897 28.688 108.433 29.888 108.081 31.104C108.049 31.264 108.017 31.408 107.985 31.536C107.985 31.632 107.985 31.712 107.985 31.776C107.985 32.32 108.257 32.592 108.801 32.592C108.865 32.592 109.057 32.56 109.377 32.496C110.529 32.176 111.569 31.68 112.497 31.008C113.425 30.336 114.417 29.52 115.473 28.56C115.537 28.496 115.617 28.464 115.713 28.464C115.841 28.464 115.905 28.512 115.905 28.608C115.905 28.704 115.857 28.8 115.761 28.896C114.641 29.888 113.617 30.72 112.689 31.392C111.761 32.064 110.833 32.56 109.905 32.88C109.041 33.168 108.321 33.312 107.745 33.312C106.753 33.312 106.257 32.896 106.257 32.064C106.257 31.712 106.337 31.36 106.497 31.008C106.657 30.624 106.817 30.288 106.977 30C107.617 28.88 108.193 27.824 108.705 26.832C109.249 25.84 109.537 25.2 109.569 24.912C109.633 24.624 109.345 24.848 108.705 25.584C108.097 26.288 106.977 27.792 105.345 30.096C104.929 30.608 104.545 31.04 104.193 31.392C103.841 31.744 103.537 32.032 103.281 32.256C102.257 33.088 101.441 33.504 100.833 33.504C100.321 33.504 100.065 33.216 100.065 32.64C100.065 32.48 100.081 32.288 100.113 32.064C100.145 31.808 100.241 31.552 100.401 31.296Z" transform="translate(1.13269 0.828003) scale(1.5)" fill="#47276A"/>
<path d="M129.2 26.928C127.568 28.88 126.112 30.32 124.832 31.248C123.584 32.176 122.464 32.64 121.472 32.64C121.024 32.64 120.624 32.528 120.272 32.304C119.952 32.048 119.792 31.504 119.792 30.672C119.792 30.48 119.824 30.112 119.888 29.568C119.984 28.992 120.144 28.448 120.368 27.936C119.952 28.544 119.488 29.136 118.976 29.712C118.496 30.288 118 30.8 117.488 31.248C117.008 31.696 116.544 32.064 116.096 32.352C115.648 32.608 115.28 32.736 114.992 32.736C114.384 32.736 114.08 32.384 114.08 31.68C114.08 31.072 114.4 30.16 115.04 28.944C115.488 28.048 116.096 27.104 116.864 26.112C117.664 25.088 118.512 24.192 119.408 23.424C119.952 22.976 120.464 22.608 120.944 22.32C121.456 22.032 121.936 21.888 122.384 21.888C122.928 21.888 123.424 22.064 123.872 22.416C124.032 22.288 124.208 22.16 124.4 22.032C124.592 21.872 124.752 21.744 124.88 21.648C124.944 21.648 124.976 21.68 124.976 21.744C124.976 21.808 124.912 21.952 124.784 22.176C123.856 23.712 123.04 25.136 122.336 26.448C121.664 27.76 121.328 29.088 121.328 30.432C121.328 31.424 121.68 31.92 122.384 31.92C123.056 31.92 123.968 31.504 125.12 30.672C126.304 29.808 127.584 28.464 128.96 26.64C128.992 26.576 129.056 26.544 129.152 26.544C129.28 26.544 129.296 26.672 129.2 26.928ZM122.768 23.52C122.576 23.296 122.352 23.136 122.096 23.04C121.84 22.944 121.6 22.896 121.376 22.896C120.832 22.896 120.24 23.2 119.6 23.808C118.96 24.416 118.368 25.168 117.824 26.064C117.28 26.928 116.832 27.84 116.48 28.8C116.128 29.728 115.952 30.528 115.952 31.2C115.952 31.456 116.064 31.584 116.288 31.584C116.544 31.584 117.072 31.2 117.872 30.432C118.672 29.664 119.536 28.64 120.464 27.36C120.912 26.72 121.328 26.096 121.712 25.488C122.096 24.88 122.448 24.224 122.768 23.52Z" transform="translate(1.13269 0.828003) scale(1.5)" fill="#47276A"/>
<path d="M156.914 22.464C158.002 20.256 159.01 18.096 159.938 15.984C160.866 13.872 161.794 11.648 162.722 9.312C161.602 8.672 160.402 8.144 159.122 7.728C157.874 7.28 156.626 7.056 155.378 7.056C154.322 7.056 153.33 7.184 152.402 7.44C151.506 7.696 150.722 8.128 150.05 8.736C149.378 9.312 148.85 10.08 148.466 11.04C148.082 11.968 147.89 13.104 147.89 14.448C147.89 15.504 148.066 16.256 148.418 16.704C148.802 17.152 149.17 17.488 149.522 17.712C149.522 17.904 149.362 18 149.042 18C148.818 18 148.514 18.064 148.13 18.192C147.746 18.32 147.426 18.384 147.17 18.384C146.882 18.384 146.562 18.16 146.21 17.712C145.858 17.264 145.682 16.56 145.682 15.6C145.682 15.088 145.938 14.272 146.45 13.152C146.994 12 147.746 10.832 148.706 9.648C149.666 8.464 150.818 7.424 152.162 6.528C153.538 5.632 155.042 5.184 156.674 5.184C158.178 5.184 159.634 5.504 161.042 6.144C162.482 6.784 163.858 7.488 165.17 8.256C166.482 9.024 167.73 9.728 168.914 10.368C170.13 11.008 171.282 11.328 172.37 11.328C173.202 11.328 173.89 11.12 174.434 10.704C174.978 10.256 175.25 9.648 175.25 8.88C175.25 8.4 175.154 8.032 174.962 7.776C174.802 7.488 174.61 7.248 174.386 7.056C174.162 6.864 173.954 6.704 173.762 6.576C173.602 6.416 173.522 6.24 173.522 6.048C173.522 5.888 173.682 5.744 174.002 5.616C174.322 5.488 174.658 5.424 175.01 5.424C175.458 5.424 175.778 5.616 175.97 6C176.162 6.384 176.258 6.784 176.258 7.2C176.258 8.128 176.05 8.96 175.634 9.696C175.25 10.4 174.77 11.008 174.194 11.52C173.65 12 173.074 12.368 172.466 12.624C171.858 12.88 171.346 13.008 170.93 13.008C170.002 13.008 168.866 12.672 167.522 12C166.178 11.328 164.738 10.544 163.202 9.648C162.274 11.792 161.314 13.952 160.322 16.128C159.362 18.304 158.37 20.4 157.346 22.416L157.01 23.28C156.05 25.104 155.058 26.768 154.034 28.272C153.042 29.744 151.938 30.992 150.722 32.016C149.538 33.04 148.21 33.824 146.738 34.368C145.298 34.944 143.65 35.232 141.794 35.232C139.554 35.232 137.794 34.672 136.514 33.552C135.234 32.432 134.594 30.864 134.594 28.848C134.594 27.696 134.738 26.688 135.026 25.824C135.314 24.928 135.73 24 136.274 23.04C136.338 22.976 136.418 22.976 136.514 23.04C136.61 23.072 136.642 23.168 136.61 23.328C136.258 23.936 135.97 24.608 135.746 25.344C135.522 26.048 135.41 26.768 135.41 27.504C135.41 28.304 135.618 29.056 136.034 29.76C136.482 30.464 137.074 31.088 137.81 31.632C138.578 32.144 139.442 32.544 140.402 32.832C141.394 33.152 142.418 33.312 143.474 33.312C145.01 33.312 146.434 33.04 147.746 32.496C149.058 31.952 150.258 31.216 151.346 30.288C152.434 29.36 153.394 28.304 154.226 27.12C155.09 25.904 155.842 24.64 156.482 23.328L156.914 22.464ZM159.026 20.544C158.738 20.672 158.53 20.768 158.402 20.832C158.274 20.864 158.162 20.896 158.066 20.928C158.002 20.96 157.922 21.008 157.826 21.072C157.73 21.104 157.57 21.184 157.346 21.312C157.026 21.472 156.69 21.696 156.338 21.984C156.018 22.272 155.778 22.56 155.618 22.848C155.586 22.88 155.586 22.848 155.618 22.752C155.682 22.656 155.746 22.544 155.81 22.416C155.874 22.256 155.922 22.112 155.954 21.984C156.018 21.856 156.034 21.776 156.002 21.744C156.002 21.68 155.938 21.616 155.81 21.552C155.714 21.456 155.746 21.328 155.906 21.168C155.874 21.232 155.97 21.2 156.194 21.072C156.45 20.944 156.738 20.8 157.058 20.64C157.378 20.48 157.666 20.336 157.922 20.208C158.21 20.048 158.386 19.952 158.45 19.92C158.546 19.856 158.834 19.728 159.314 19.536C159.794 19.312 160.21 19.168 160.562 19.104C160.626 19.104 160.77 19.072 160.994 19.008C161.25 18.944 161.506 18.88 161.762 18.816C162.018 18.72 162.258 18.64 162.482 18.576C162.738 18.512 162.898 18.48 162.962 18.48C164.818 18.096 166.418 18.16 167.762 18.672C169.138 19.152 169.986 20.24 170.306 21.936C170.498 23.056 170.338 24.208 169.826 25.392C169.346 26.576 168.69 27.696 167.858 28.752C167.026 29.808 166.098 30.768 165.074 31.632C164.05 32.496 163.09 33.168 162.194 33.648C161.458 34.064 160.754 34.4 160.082 34.656C159.41 34.912 158.706 35.104 157.97 35.232C157.298 35.392 156.626 35.456 155.954 35.424C155.282 35.392 154.674 35.312 154.13 35.184C153.618 35.088 153.186 34.944 152.834 34.752C152.514 34.56 152.338 34.384 152.306 34.224C152.242 33.808 152.146 33.456 152.018 33.168C151.922 32.88 151.826 32.64 151.73 32.448C151.762 32.224 151.842 32.192 151.97 32.352C152.674 33.088 153.714 33.584 155.09 33.84C156.466 34.128 157.874 34.128 159.314 33.84C160.242 33.616 161.154 33.328 162.05 32.976C162.946 32.624 163.714 32.224 164.354 31.776C165.25 31.104 165.97 30.384 166.514 29.616C167.09 28.848 167.522 28.08 167.81 27.312C168.098 26.544 168.258 25.808 168.29 25.104C168.354 24.368 168.338 23.728 168.242 23.184C168.082 22.288 167.714 21.52 167.138 20.88C166.594 20.24 165.858 19.84 164.93 19.68C163.938 19.52 162.914 19.536 161.858 19.728C161.314 19.824 160.85 19.92 160.466 20.016C160.114 20.112 159.634 20.288 159.026 20.544Z" transform="translate(1.13269 0.828003) scale(1.5)" fill="#47276A"/>
<path d="M185.544 26.928C183.912 28.88 182.456 30.32 181.176 31.248C179.928 32.176 178.808 32.64 177.816 32.64C177.368 32.64 176.968 32.528 176.616 32.304C176.296 32.048 176.136 31.504 176.136 30.672C176.136 30.48 176.168 30.112 176.232 29.568C176.328 28.992 176.488 28.448 176.712 27.936C176.296 28.544 175.832 29.136 175.32 29.712C174.84 30.288 174.344 30.8 173.832 31.248C173.352 31.696 172.888 32.064 172.44 32.352C171.992 32.608 171.624 32.736 171.336 32.736C170.728 32.736 170.424 32.384 170.424 31.68C170.424 31.072 170.744 30.16 171.384 28.944C171.832 28.048 172.44 27.104 173.208 26.112C174.008 25.088 174.856 24.192 175.752 23.424C176.296 22.976 176.808 22.608 177.288 22.32C177.8 22.032 178.28 21.888 178.728 21.888C179.272 21.888 179.768 22.064 180.216 22.416C180.376 22.288 180.552 22.16 180.744 22.032C180.936 21.872 181.096 21.744 181.224 21.648C181.288 21.648 181.32 21.68 181.32 21.744C181.32 21.808 181.256 21.952 181.128 22.176C180.2 23.712 179.384 25.136 178.68 26.448C178.008 27.76 177.672 29.088 177.672 30.432C177.672 31.424 178.024 31.92 178.728 31.92C179.4 31.92 180.312 31.504 181.464 30.672C182.648 29.808 183.928 28.464 185.304 26.64C185.336 26.576 185.4 26.544 185.496 26.544C185.624 26.544 185.64 26.672 185.544 26.928ZM179.112 23.52C178.92 23.296 178.696 23.136 178.44 23.04C178.184 22.944 177.944 22.896 177.72 22.896C177.176 22.896 176.584 23.2 175.944 23.808C175.304 24.416 174.712 25.168 174.168 26.064C173.624 26.928 173.176 27.84 172.824 28.8C172.472 29.728 172.296 30.528 172.296 31.2C172.296 31.456 172.408 31.584 172.632 31.584C172.888 31.584 173.416 31.2 174.216 30.432C175.016 29.664 175.88 28.64 176.808 27.36C177.256 26.72 177.672 26.096 178.056 25.488C178.44 24.88 178.792 24.224 179.112 23.52Z" transform="translate(1.13269 0.828003) scale(1.5)" fill="#47276A"/>
<path d="M184.305 27.12C184.753 26.32 185.217 25.52 185.697 24.72C186.209 23.888 186.689 23.12 187.137 22.416C187.297 22.288 187.553 22.176 187.905 22.08C188.289 21.984 188.545 21.936 188.673 21.936C188.833 21.936 188.913 22 188.913 22.128C188.305 23.056 187.713 24 187.137 24.96C186.561 25.888 186.049 26.752 185.601 27.552C185.185 28.32 184.849 29.008 184.593 29.616C184.337 30.192 184.209 30.608 184.209 30.864C184.209 31.184 184.305 31.344 184.497 31.344C184.689 31.344 184.961 31.216 185.313 30.96C185.697 30.672 186.113 30.304 186.561 29.856C187.041 29.408 187.521 28.912 188.001 28.368C188.481 27.792 188.945 27.216 189.393 26.64C189.553 26.416 189.745 26.128 189.969 25.776C190.193 25.392 190.401 25.04 190.593 24.72C190.817 24.368 191.009 24.08 191.169 23.856C191.361 23.6 191.505 23.472 191.601 23.472C191.761 23.472 191.937 23.536 192.129 23.664C192.321 23.76 192.417 23.872 192.417 24C192.417 24.128 192.353 24.288 192.225 24.48C192.097 24.672 191.937 24.88 191.745 25.104C191.553 25.328 191.345 25.568 191.121 25.824C190.929 26.048 190.769 26.272 190.641 26.496C190.513 26.72 190.321 27.088 190.065 27.6C189.841 28.112 189.617 28.672 189.393 29.28C189.169 29.888 188.977 30.48 188.817 31.056C188.657 31.632 188.577 32.112 188.577 32.496C188.577 32.912 188.657 33.216 188.817 33.408C189.009 33.632 189.361 33.744 189.873 33.744C190.513 33.744 191.169 33.568 191.841 33.216C192.545 32.896 193.217 32.56 193.857 32.208C193.953 32.24 194.017 32.304 194.049 32.4C194.081 32.464 194.017 32.528 193.857 32.592C192.897 33.136 191.905 33.584 190.881 33.936C189.889 34.32 188.993 34.512 188.193 34.512C187.201 34.512 186.705 34.144 186.705 33.408C186.705 32.928 186.913 32.16 187.329 31.104C187.745 30.048 188.241 28.96 188.817 27.84C188.657 28.064 188.337 28.432 187.857 28.944C187.409 29.456 186.897 29.984 186.321 30.528C185.745 31.04 185.169 31.504 184.593 31.92C184.017 32.336 183.537 32.544 183.153 32.544C182.833 32.544 182.625 32.464 182.529 32.304C182.433 32.112 182.385 31.888 182.385 31.632C182.385 31.44 182.449 31.152 182.577 30.768C182.737 30.384 182.913 29.968 183.105 29.52C183.297 29.072 183.505 28.64 183.729 28.224C183.953 27.776 184.145 27.408 184.305 27.12Z" transform="translate(1.13269 0.828003) scale(1.5)" fill="#47276A"/>
<path d="M209.124 26.784C208.26 27.488 207.22 28.144 206.004 28.752C204.82 29.36 203.556 29.92 202.212 30.432C200.9 30.944 199.556 31.424 198.18 31.872C196.804 32.32 195.508 32.736 194.292 33.12C191.988 37.184 190.1 40.512 188.628 43.104C187.156 45.696 186.004 47.792 185.172 49.392C184.34 50.992 183.764 52.192 183.444 52.992C183.124 53.824 182.964 54.496 182.964 55.008C182.964 55.456 183.092 55.76 183.348 55.92C183.572 56.112 183.924 56.208 184.404 56.208C184.692 56.208 185.044 56.176 185.46 56.112C185.844 56.048 186.26 55.968 186.708 55.872C187.124 55.808 187.524 55.712 187.908 55.584C188.292 55.488 188.612 55.392 188.868 55.296C189.028 55.232 189.124 55.28 189.156 55.44C189.188 55.6 189.124 55.696 188.964 55.728C188.708 55.792 188.276 55.904 187.668 56.064C187.028 56.224 186.356 56.384 185.652 56.544C184.916 56.704 184.212 56.848 183.54 56.976C182.836 57.104 182.292 57.168 181.908 57.168C181.556 57.168 181.268 57.088 181.044 56.928C180.82 56.8 180.708 56.528 180.708 56.112C180.708 55.472 180.98 54.64 181.524 53.616C182.036 52.624 182.82 51.264 183.876 49.536C184.9 47.84 186.196 45.696 187.764 43.104C189.332 40.512 191.156 37.312 193.236 33.504C192.66 33.664 192.084 33.84 191.508 34.032C190.932 34.256 190.532 34.368 190.308 34.368C190.052 34.368 189.924 34.256 189.924 34.032C189.924 33.712 190.036 33.472 190.26 33.312C190.484 33.152 190.74 33.04 191.028 32.976C191.412 32.912 191.86 32.832 192.372 32.736C192.884 32.64 193.364 32.544 193.812 32.448C194.996 30.336 196.084 28.24 197.076 26.16C198.1 24.08 199.22 22.08 200.436 20.16C200.564 20 200.708 19.904 200.868 19.872C201.028 19.808 201.22 19.776 201.444 19.776C201.828 19.776 202.02 19.888 202.02 20.112C202.02 20.24 201.892 20.544 201.636 21.024C201.38 21.504 201.044 22.096 200.628 22.8C200.212 23.472 199.732 24.24 199.188 25.104C198.676 25.936 198.148 26.784 197.604 27.648C197.092 28.48 196.596 29.296 196.116 30.096C195.636 30.864 195.236 31.536 194.916 32.112L195.684 31.92C196.292 31.76 197.012 31.44 197.844 30.96C198.708 30.48 199.508 29.888 200.244 29.184C201.012 28.448 201.652 27.632 202.164 26.736C202.708 25.84 202.98 24.912 202.98 23.952C202.98 23.44 202.916 23.104 202.788 22.944C202.66 22.752 202.596 22.592 202.596 22.464C202.596 22.336 202.692 22.272 202.884 22.272C202.916 22.272 203.044 22.336 203.268 22.464C203.524 22.592 203.78 22.752 204.036 22.944C204.292 23.104 204.516 23.264 204.708 23.424C204.932 23.552 205.044 23.632 205.044 23.664C205.044 24.496 204.772 25.296 204.228 26.064C203.684 26.832 203.012 27.568 202.212 28.272C201.412 28.944 200.564 29.568 199.668 30.144C198.804 30.688 198.02 31.152 197.316 31.536C199.46 30.96 201.572 30.256 203.652 29.424C205.732 28.592 207.492 27.6 208.932 26.448C209.06 26.32 209.156 26.304 209.22 26.4C209.316 26.496 209.284 26.624 209.124 26.784Z" transform="translate(1.13269 0.828003) scale(1.5)" fill="#47276A"/>
<path d="M222.265 24C221.753 24.16 221.193 24.304 220.585 24.432C219.977 24.528 219.433 24.576 218.953 24.576C218.441 24.576 217.881 24.56 217.273 24.528C216.665 24.464 216.073 24.368 215.497 24.24C215.305 25.584 214.905 26.8 214.297 27.888C213.721 28.944 212.921 29.984 211.897 31.008C210.617 32.192 209.465 32.784 208.441 32.784C207.801 32.784 207.353 32.592 207.097 32.208C206.841 31.792 206.713 31.296 206.713 30.72C206.713 30.272 206.793 29.744 206.953 29.136C207.113 28.496 207.321 27.968 207.577 27.552C207.929 26.912 208.505 26.24 209.305 25.536C210.105 24.832 211.225 24.016 212.665 23.088C213.113 22.8 213.465 22.576 213.721 22.416C213.977 22.256 214.169 22.128 214.297 22.032C214.425 21.936 214.505 21.888 214.537 21.888C214.601 21.856 214.649 21.84 214.681 21.84C214.745 21.84 214.809 21.888 214.873 21.984C214.937 22.048 215.001 22.112 215.065 22.176C215.161 22.592 215.369 22.928 215.689 23.184C216.009 23.44 216.377 23.648 216.793 23.808C217.209 23.936 217.625 24.032 218.041 24.096C218.489 24.128 218.889 24.144 219.241 24.144C219.689 24.144 220.185 24.112 220.729 24.048C221.305 23.984 221.817 23.888 222.265 23.76C222.393 23.76 222.457 23.792 222.457 23.856C222.489 23.888 222.425 23.936 222.265 24ZM213.961 24.768C213.961 24.48 213.929 24.16 213.865 23.808C213.833 23.456 213.657 23.28 213.337 23.28C213.081 23.28 212.809 23.376 212.521 23.568C211.241 24.304 210.265 25.312 209.593 26.592C208.921 27.84 208.585 29.184 208.585 30.624C208.585 31.04 208.649 31.392 208.777 31.68C208.937 31.936 209.145 32.064 209.401 32.064C210.009 32.064 210.585 31.808 211.129 31.296C211.673 30.752 212.153 30.096 212.569 29.328C212.985 28.56 213.321 27.76 213.577 26.928C213.833 26.096 213.961 25.376 213.961 24.768Z" transform="translate(1.13269 0.828003) scale(1.5)" fill="#47276A"/>
<path d="M246.57 2.256C246.57 3.792 244.954 6.192 241.722 9.456C238.49 12.688 233.498 16.72 226.746 21.552C226.458 21.808 226.314 21.968 226.314 22.032C227.018 22.448 227.85 22.768 228.81 22.992C229.802 23.184 230.81 23.28 231.834 23.28C232.346 23.28 232.906 23.248 233.514 23.184C234.122 23.088 234.65 22.96 235.098 22.8C235.258 22.768 235.338 22.8 235.338 22.896C235.37 22.96 235.306 23.024 235.146 23.088C234.73 23.248 234.154 23.392 233.418 23.52C232.714 23.648 232.058 23.712 231.45 23.712C230.842 23.712 230.17 23.696 229.434 23.664C228.698 23.6 228.01 23.488 227.37 23.328C227.306 23.328 227.274 23.376 227.274 23.472C227.274 23.568 227.274 23.648 227.274 23.712C227.274 24.416 227.13 25.136 226.842 25.872C226.554 26.608 226.186 27.328 225.738 28.032C225.322 28.704 224.842 29.328 224.298 29.904C223.754 30.48 223.226 30.96 222.714 31.344C222.138 31.792 221.562 32.144 220.986 32.4C220.442 32.624 220.01 32.736 219.69 32.736C219.242 32.736 218.938 32.608 218.778 32.352C218.65 32.064 218.586 31.728 218.586 31.344C218.586 30.928 218.634 30.496 218.73 30.048C218.858 29.6 219.05 29.104 219.306 28.56C219.594 27.984 219.93 27.328 220.314 26.592C220.73 25.824 221.226 24.912 221.802 23.856C224.17 19.504 226.442 15.824 228.618 12.816C230.794 9.776 232.81 7.312 234.666 5.424C236.554 3.504 238.266 2.128 239.802 1.296C241.338 0.432 242.666 0 243.786 0C244.682 0 245.37 0.208 245.85 0.624001C246.33 1.008 246.57 1.552 246.57 2.256ZM245.082 3.408C245.082 1.84 244.154 1.056 242.298 1.056C241.338 1.056 240.202 1.456 238.89 2.256C237.578 3.056 236.138 4.336 234.57 6.096C233.002 7.824 231.322 10.064 229.53 12.816C227.738 15.536 225.882 18.816 223.962 22.656C223.866 22.848 223.866 22.928 223.962 22.896C224.09 22.832 224.186 22.768 224.25 22.704C225.466 21.872 226.826 20.928 228.33 19.872C229.866 18.816 231.402 17.696 232.938 16.512C234.474 15.328 235.962 14.128 237.402 12.912C238.874 11.696 240.17 10.512 241.29 9.36C242.442 8.176 243.354 7.088 244.026 6.096C244.73 5.072 245.082 4.176 245.082 3.408ZM226.314 24.096C226.314 23.552 226.138 23.232 225.786 23.136C225.434 23.008 225.114 22.944 224.826 22.944C224.634 22.944 224.394 23.024 224.106 23.184C223.85 23.344 223.626 23.536 223.434 23.76C223.178 24.144 222.874 24.64 222.522 25.248C222.202 25.856 221.882 26.496 221.562 27.168C221.274 27.808 221.018 28.432 220.794 29.04C220.602 29.648 220.506 30.112 220.506 30.432C220.506 30.944 220.618 31.264 220.842 31.392C221.066 31.488 221.242 31.536 221.37 31.536C221.626 31.536 222.026 31.36 222.57 31.008C223.05 30.624 223.514 30.16 223.962 29.616C224.442 29.072 224.842 28.496 225.162 27.888C225.514 27.28 225.786 26.656 225.978 26.016C226.202 25.376 226.314 24.736 226.314 24.096Z" transform="translate(1.13269 0.828003) scale(1.5)" fill="#47276A"/>
<path d="M245.169 26.928C243.537 28.88 242.081 30.32 240.801 31.248C239.553 32.176 238.433 32.64 237.441 32.64C236.993 32.64 236.593 32.528 236.241 32.304C235.921 32.048 235.761 31.504 235.761 30.672C235.761 30.48 235.793 30.112 235.857 29.568C235.953 28.992 236.113 28.448 236.337 27.936C235.921 28.544 235.457 29.136 234.945 29.712C234.465 30.288 233.969 30.8 233.457 31.248C232.977 31.696 232.513 32.064 232.065 32.352C231.617 32.608 231.249 32.736 230.961 32.736C230.353 32.736 230.049 32.384 230.049 31.68C230.049 31.072 230.369 30.16 231.009 28.944C231.457 28.048 232.065 27.104 232.833 26.112C233.633 25.088 234.481 24.192 235.377 23.424C235.921 22.976 236.433 22.608 236.913 22.32C237.425 22.032 237.905 21.888 238.353 21.888C238.897 21.888 239.393 22.064 239.841 22.416C240.001 22.288 240.177 22.16 240.369 22.032C240.561 21.872 240.721 21.744 240.849 21.648C240.913 21.648 240.945 21.68 240.945 21.744C240.945 21.808 240.881 21.952 240.753 22.176C239.825 23.712 239.009 25.136 238.305 26.448C237.633 27.76 237.297 29.088 237.297 30.432C237.297 31.424 237.649 31.92 238.353 31.92C239.025 31.92 239.937 31.504 241.089 30.672C242.273 29.808 243.553 28.464 244.929 26.64C244.961 26.576 245.025 26.544 245.121 26.544C245.249 26.544 245.265 26.672 245.169 26.928ZM238.737 23.52C238.545 23.296 238.321 23.136 238.065 23.04C237.809 22.944 237.569 22.896 237.345 22.896C236.801 22.896 236.209 23.2 235.569 23.808C234.929 24.416 234.337 25.168 233.793 26.064C233.249 26.928 232.801 27.84 232.449 28.8C232.097 29.728 231.921 30.528 231.921 31.2C231.921 31.456 232.033 31.584 232.257 31.584C232.513 31.584 233.041 31.2 233.841 30.432C234.641 29.664 235.505 28.64 236.433 27.36C236.881 26.72 237.297 26.096 237.681 25.488C238.065 24.88 238.417 24.224 238.737 23.52Z" transform="translate(1.13269 0.828003) scale(1.5)" fill="#47276A"/>
</svg>
