<svg width="105" height="46" viewBox="0 0 105 46" fill="none" xmlns="http://www.w3.org/2000/svg">
<path d="M21.39 21.942C22.4327 19.826 23.3987 17.756 24.288 15.732C25.1773 13.708 26.0667 11.5767 26.956 9.338C25.8827 8.72467 24.7327 8.21867 23.506 7.82C22.31 7.39067 21.114 7.176 19.918 7.176C18.906 7.176 17.9553 7.29867 17.066 7.544C16.2073 7.78933 15.456 8.20333 14.812 8.786C14.168 9.338 13.662 10.074 13.294 10.994C12.926 11.8833 12.742 12.972 12.742 14.26C12.742 15.272 12.9107 15.9927 13.248 16.422C13.616 16.8513 13.9687 17.1733 14.306 17.388C14.306 17.572 14.1527 17.664 13.846 17.664C13.6313 17.664 13.34 17.7253 12.972 17.848C12.604 17.9707 12.2973 18.032 12.052 18.032C11.776 18.032 11.4693 17.8173 11.132 17.388C10.7947 16.9587 10.626 16.284 10.626 15.364C10.626 14.8733 10.8713 14.0913 11.362 13.018C11.8833 11.914 12.604 10.7947 13.524 9.66C14.444 8.52533 15.548 7.52867 16.836 6.67C18.1547 5.81133 19.596 5.382 21.16 5.382C22.6013 5.382 23.9967 5.68867 25.346 6.302C26.726 6.91533 28.0447 7.59 29.302 8.326C30.5593 9.062 31.7553 9.73667 32.89 10.35C34.0553 10.9633 35.1593 11.27 36.202 11.27C36.9993 11.27 37.6587 11.0707 38.18 10.672C38.7013 10.2427 38.962 9.66 38.962 8.924C38.962 8.464 38.87 8.11133 38.686 7.866C38.5327 7.59 38.3487 7.36 38.134 7.176C37.9193 6.992 37.72 6.83867 37.536 6.716C37.3827 6.56267 37.306 6.394 37.306 6.21C37.306 6.05667 37.4593 5.91867 37.766 5.796C38.0727 5.67333 38.3947 5.612 38.732 5.612C39.1613 5.612 39.468 5.796 39.652 6.164C39.836 6.532 39.928 6.91533 39.928 7.314C39.928 8.20333 39.7287 9.00067 39.33 9.706C38.962 10.3807 38.502 10.9633 37.95 11.454C37.4287 11.914 36.8767 12.2667 36.294 12.512C35.7113 12.7573 35.2207 12.88 34.822 12.88C33.9327 12.88 32.844 12.558 31.556 11.914C30.268 11.27 28.888 10.5187 27.416 9.66C26.5267 11.7147 25.6067 13.7847 24.656 15.87C23.736 17.9553 22.7853 19.964 21.804 21.896L21.482 22.724C20.562 24.472 19.6113 26.0667 18.63 27.508C17.6793 28.9187 16.6213 30.1147 15.456 31.096C14.3213 32.0773 13.0487 32.8287 11.638 33.35C10.258 33.902 8.67867 34.178 6.9 34.178C4.75333 34.178 3.06667 33.6413 1.84 32.568C0.613333 31.4947 0 29.992 0 28.06C0 26.956 0.138 25.99 0.414 25.162C0.69 24.3033 1.08867 23.414 1.61 22.494C1.67133 22.4327 1.748 22.4327 1.84 22.494C1.932 22.5247 1.96267 22.6167 1.932 22.77C1.59467 23.3527 1.31867 23.9967 1.104 24.702C0.889333 25.3767 0.782 26.0667 0.782 26.772C0.782 27.5387 0.981333 28.2593 1.38 28.934C1.80933 29.6087 2.37667 30.2067 3.082 30.728C3.818 31.2187 4.646 31.602 5.566 31.878C6.51667 32.1847 7.498 32.338 8.51 32.338C9.982 32.338 11.3467 32.0773 12.604 31.556C13.8613 31.0347 15.0113 30.3293 16.054 29.44C17.0967 28.5507 18.0167 27.5387 18.814 26.404C19.642 25.2387 20.3627 24.0273 20.976 22.77L21.39 21.942ZM23.414 20.102C23.138 20.2247 22.9387 20.3167 22.816 20.378C22.6933 20.4087 22.586 20.4393 22.494 20.47C22.4327 20.5007 22.356 20.5467 22.264 20.608C22.172 20.6387 22.0187 20.7153 21.804 20.838C21.4973 20.9913 21.1753 21.206 20.838 21.482C20.5313 21.758 20.3013 22.034 20.148 22.31C20.1173 22.3407 20.1173 22.31 20.148 22.218C20.2093 22.126 20.2707 22.0187 20.332 21.896C20.3933 21.7427 20.4393 21.6047 20.47 21.482C20.5313 21.3593 20.5467 21.2827 20.516 21.252C20.516 21.1907 20.4547 21.1293 20.332 21.068C20.24 20.976 20.2707 20.8533 20.424 20.7C20.3933 20.7613 20.4853 20.7307 20.7 20.608C20.9453 20.4853 21.2213 20.3473 21.528 20.194C21.8347 20.0407 22.1107 19.9027 22.356 19.78C22.632 19.6267 22.8007 19.5347 22.862 19.504C22.954 19.4427 23.23 19.32 23.69 19.136C24.15 18.9213 24.5487 18.7833 24.886 18.722C24.9473 18.722 25.0853 18.6913 25.3 18.63C25.5453 18.5687 25.7907 18.5073 26.036 18.446C26.2813 18.354 26.5113 18.2773 26.726 18.216C26.9713 18.1547 27.1247 18.124 27.186 18.124C28.9647 17.756 30.498 17.8173 31.786 18.308C33.1047 18.768 33.9173 19.8107 34.224 21.436C34.408 22.5093 34.2547 23.6133 33.764 24.748C33.304 25.8827 32.6753 26.956 31.878 27.968C31.0807 28.98 30.1913 29.9 29.21 30.728C28.2287 31.556 27.3087 32.2 26.45 32.66C25.7447 33.0587 25.07 33.3807 24.426 33.626C23.782 33.8713 23.1073 34.0553 22.402 34.178C21.758 34.3313 21.114 34.3927 20.47 34.362C19.826 34.3313 19.2433 34.2547 18.722 34.132C18.2313 34.04 17.8173 33.902 17.48 33.718C17.1733 33.534 17.0047 33.3653 16.974 33.212C16.9127 32.8133 16.8207 32.476 16.698 32.2C16.606 31.924 16.514 31.694 16.422 31.51C16.4527 31.2953 16.5293 31.2647 16.652 31.418C17.3267 32.1233 18.3233 32.5987 19.642 32.844C20.9607 33.12 22.31 33.12 23.69 32.844C24.5793 32.6293 25.4533 32.3533 26.312 32.016C27.1707 31.6787 27.9067 31.2953 28.52 30.866C29.3787 30.222 30.0687 29.532 30.59 28.796C31.142 28.06 31.556 27.324 31.832 26.588C32.108 25.852 32.2613 25.1467 32.292 24.472C32.3533 23.7667 32.338 23.1533 32.246 22.632C32.0927 21.7733 31.74 21.0373 31.188 20.424C30.6667 19.8107 29.9613 19.4273 29.072 19.274C28.1213 19.1207 27.14 19.136 26.128 19.32C25.6067 19.412 25.162 19.504 24.794 19.596C24.4567 19.688 23.9967 19.8567 23.414 20.102Z" transform="translate(0.56665 0.490234)" fill="#00073D"/>
<path d="M48.8265 26.22C47.2625 28.0907 45.8672 29.4707 44.6405 30.36C43.4445 31.2493 42.3711 31.694 41.4205 31.694C40.9911 31.694 40.6078 31.5867 40.2705 31.372C39.9638 31.1267 39.8105 30.6053 39.8105 29.808C39.8105 29.624 39.8412 29.2713 39.9025 28.75C39.9945 28.198 40.1478 27.6767 40.3625 27.186C39.9638 27.7687 39.5192 28.336 39.0285 28.888C38.5685 29.44 38.0932 29.9307 37.6025 30.36C37.1425 30.7893 36.6978 31.142 36.2685 31.418C35.8392 31.6633 35.4865 31.786 35.2105 31.786C34.6278 31.786 34.3365 31.4487 34.3365 30.774C34.3365 30.1913 34.6432 29.3173 35.2565 28.152C35.6858 27.2933 36.2685 26.3887 37.0045 25.438C37.7712 24.4567 38.5838 23.598 39.4425 22.862C39.9638 22.4327 40.4545 22.08 40.9145 21.804C41.4052 21.528 41.8651 21.39 42.2945 21.39C42.8158 21.39 43.2912 21.5587 43.7205 21.896C43.8738 21.7733 44.0425 21.6507 44.2265 21.528C44.4105 21.3747 44.5638 21.252 44.6865 21.16C44.7478 21.16 44.7785 21.1907 44.7785 21.252C44.7785 21.3133 44.7172 21.4513 44.5945 21.666C43.7052 23.138 42.9232 24.5027 42.2485 25.76C41.6045 27.0173 41.2825 28.29 41.2825 29.578C41.2825 30.5287 41.6198 31.004 42.2945 31.004C42.9385 31.004 43.8125 30.6053 44.9165 29.808C46.0512 28.98 47.2778 27.692 48.5965 25.944C48.6272 25.8827 48.6885 25.852 48.7805 25.852C48.9032 25.852 48.9185 25.9747 48.8265 26.22ZM42.6625 22.954C42.4785 22.7393 42.2638 22.586 42.0185 22.494C41.7732 22.402 41.5432 22.356 41.3285 22.356C40.8072 22.356 40.2398 22.6473 39.6265 23.23C39.0132 23.8127 38.4458 24.5333 37.9245 25.392C37.4032 26.22 36.9738 27.094 36.6365 28.014C36.2992 28.9033 36.1305 29.67 36.1305 30.314C36.1305 30.5593 36.2378 30.682 36.4525 30.682C36.6978 30.682 37.2038 30.314 37.9705 29.578C38.7372 28.842 39.5651 27.8607 40.4545 26.634C40.8838 26.0207 41.2825 25.4227 41.6505 24.84C42.0185 24.2573 42.3558 23.6287 42.6625 22.954Z" transform="translate(0.56665 0.490234)" fill="#00073D"/>
<path d="M53.9411 25.898C53.9104 25.9287 53.9411 25.9133 54.0331 25.852C54.1558 25.76 54.2784 25.668 54.4011 25.576C54.5544 25.4533 54.6924 25.3307 54.8151 25.208C54.9684 25.0853 55.0758 24.9933 55.1371 24.932C55.4744 24.5333 55.8578 24.1347 56.2871 23.736C56.7471 23.3373 57.2071 22.9847 57.6671 22.678C58.1271 22.3713 58.5718 22.126 59.0011 21.942C59.4304 21.758 59.7984 21.666 60.1051 21.666C60.5651 21.666 60.7951 21.8653 60.7951 22.264C60.7951 22.632 60.6418 23.0307 60.3351 23.46C59.9058 24.1653 59.4918 24.886 59.0931 25.622C58.6944 26.3273 58.3418 27.002 58.0351 27.646C57.7591 28.2593 57.5291 28.8113 57.3451 29.302C57.1918 29.7927 57.1151 30.176 57.1151 30.452C57.1151 31.0653 57.4064 31.372 57.9891 31.372C58.4798 31.372 59.0931 31.1573 59.8291 30.728C60.5651 30.268 61.3164 29.716 62.0831 29.072C62.8498 28.428 63.5704 27.738 64.2451 27.002C64.9198 26.266 65.4411 25.5913 65.8091 24.978C65.9011 24.8247 65.9931 24.7787 66.0851 24.84C66.2078 24.8707 66.2078 24.978 66.0851 25.162C65.6251 25.8673 65.0271 26.634 64.2911 27.462C63.5551 28.2593 62.7424 29.026 61.8531 29.762C60.9944 30.4673 60.0898 31.05 59.1391 31.51C58.2191 32.0007 57.3298 32.246 56.4711 32.246C56.0418 32.246 55.7198 32.1233 55.5051 31.878C55.3211 31.6633 55.2291 31.3873 55.2291 31.05C55.2291 30.8353 55.2751 30.5747 55.3671 30.268C55.4591 29.9307 55.5818 29.624 55.7351 29.348C55.9804 28.9187 56.2718 28.3973 56.6091 27.784C56.9771 27.1707 57.3144 26.5573 57.6211 25.944C57.9584 25.3307 58.2344 24.7787 58.4491 24.288C58.6944 23.7667 58.8171 23.3987 58.8171 23.184C58.8171 22.9387 58.7098 22.816 58.4951 22.816C58.3111 22.816 58.0351 22.9387 57.6671 23.184C57.3298 23.4293 56.9464 23.736 56.5171 24.104C56.1184 24.4413 55.7044 24.8247 55.2751 25.254C54.8764 25.6527 54.5238 26.0207 54.2171 26.358C53.9411 26.5727 53.6498 26.864 53.3431 27.232C53.0364 27.5693 52.8371 27.8147 52.7451 27.968C52.2238 28.8573 51.7944 29.578 51.4571 30.13C51.1504 30.6513 50.8284 30.912 50.4911 30.912C50.0924 30.912 49.8931 30.7587 49.8931 30.452C49.8931 30.36 49.9851 30.1913 50.1691 29.946C50.5678 29.3633 50.9358 28.7807 51.2731 28.198C51.6411 27.5847 51.9631 27.0173 52.2391 26.496C52.5151 25.9747 52.7298 25.53 52.8831 25.162C53.0671 24.794 53.1591 24.564 53.1591 24.472C53.1591 24.288 53.0824 24.196 52.9291 24.196C52.7451 24.196 52.4691 24.3187 52.1011 24.564C51.7638 24.7787 51.3498 25.1007 50.8591 25.53C50.3991 25.9287 49.9084 26.404 49.3871 26.956C48.8658 27.508 48.3598 28.106 47.8691 28.75C47.2558 29.5473 46.8418 30.222 46.6271 30.774C46.4431 31.326 46.2284 31.602 45.9831 31.602C45.8298 31.602 45.7071 31.51 45.6151 31.326C45.5538 31.1113 45.5231 30.9427 45.5231 30.82C45.5231 30.7587 45.5538 30.6053 45.6151 30.36C45.6764 30.2373 45.9064 29.808 46.3051 29.072C46.7344 28.3053 47.2098 27.462 47.7311 26.542C48.2524 25.5913 48.7738 24.6713 49.2951 23.782C49.8164 22.8927 50.2151 22.264 50.4911 21.896C50.6138 21.712 50.7671 21.62 50.9511 21.62C51.1044 21.62 51.2424 21.7427 51.3651 21.988C51.5184 22.2027 51.5951 22.3713 51.5951 22.494C51.5951 22.5247 51.5644 22.632 51.5031 22.816C51.0738 23.3987 50.6598 24.012 50.2611 24.656C49.8931 25.3 49.5098 25.9747 49.1111 26.68C49.0498 26.772 49.0191 26.818 49.0191 26.818C49.0498 26.818 49.0958 26.7873 49.1571 26.726C49.6478 26.2047 50.1691 25.714 50.7211 25.254C51.2731 24.7633 51.8098 24.334 52.3311 23.966C52.8831 23.598 53.3738 23.3067 53.8031 23.092C54.2324 22.8467 54.5698 22.724 54.8151 22.724C55.0911 22.724 55.2291 22.862 55.2291 23.138C55.2291 23.2913 55.1678 23.4907 55.0451 23.736C54.9531 23.9507 54.8304 24.196 54.6771 24.472C54.5544 24.748 54.4164 25.0087 54.2631 25.254C54.1098 25.4993 54.0024 25.714 53.9411 25.898ZM55.3671 20.838C54.9378 20.7767 54.6004 20.6693 54.3551 20.516C54.1711 20.3627 53.9564 20.2093 53.7111 20.056C53.4964 19.872 53.2971 19.7033 53.1131 19.55C52.8984 19.3353 52.6684 19.1207 52.4231 18.906C52.1778 18.6913 51.9784 18.4307 51.8251 18.124C51.7331 18.0013 51.6871 17.802 51.6871 17.526C51.7484 17.3113 51.8404 17.1887 51.9631 17.158C52.0244 17.066 52.0704 17.02 52.1011 17.02C52.1624 16.9893 52.2238 16.9587 52.2851 16.928C52.3464 16.8973 52.3924 16.928 52.4231 17.02C52.6684 17.296 52.8678 17.5873 53.0211 17.894C53.1744 18.17 53.3278 18.4767 53.4811 18.814C53.6651 19.1207 53.8491 19.3813 54.0331 19.596C54.2478 19.8107 54.4471 19.9947 54.6311 20.148C54.7844 20.2707 54.9378 20.3627 55.0911 20.424C55.2751 20.4547 55.5051 20.4393 55.7811 20.378C55.9958 20.3473 56.1951 20.3013 56.3791 20.24C56.5631 20.1787 56.7778 20.0867 57.0231 19.964C57.3604 19.8413 57.6824 19.6727 57.9891 19.458C58.2958 19.2127 58.6024 18.9673 58.9091 18.722C59.2464 18.4153 59.5531 18.124 59.8291 17.848C60.1358 17.5413 60.4271 17.2807 60.7031 17.066C61.1938 16.5447 61.7304 16.0233 62.3131 15.502C62.8958 14.9807 63.4631 14.5973 64.0151 14.352C64.4751 14.1067 64.8278 13.9687 65.0731 13.938C65.8398 13.8767 66.4378 14.0913 66.8671 14.582C67.2964 15.042 67.7258 15.5327 68.1551 16.054C68.3084 16.1767 68.4311 16.3453 68.5231 16.56C68.6151 16.744 68.6764 16.928 68.7071 17.112L68.6611 17.25C68.5998 17.3727 68.5538 17.434 68.5231 17.434C68.4311 17.434 68.3851 17.388 68.3851 17.296C68.3544 17.112 68.3084 16.928 68.2471 16.744C68.1858 16.56 68.0784 16.3913 67.9251 16.238C67.3424 15.3793 66.5911 15.042 65.6711 15.226C65.3338 15.2873 64.9198 15.4407 64.4291 15.686C63.9384 15.9313 63.4171 16.3147 62.8651 16.836C62.2518 17.3573 61.6384 17.8633 61.0251 18.354C60.4118 18.8447 59.7831 19.2587 59.1391 19.596C58.7404 19.872 58.3264 20.102 57.8971 20.286C57.4678 20.4393 57.0538 20.5467 56.6551 20.608C56.1338 20.8227 55.7044 20.8993 55.3671 20.838Z" transform="translate(0.56665 0.490234)" fill="#00073D"/>
<path d="M64.395 26.404C64.8243 25.6373 65.269 24.8707 65.729 24.104C66.2196 23.3067 66.6796 22.5707 67.109 21.896C67.2623 21.7733 67.5076 21.666 67.845 21.574C68.213 21.482 68.4583 21.436 68.581 21.436C68.7343 21.436 68.811 21.4973 68.811 21.62C68.2283 22.5093 67.661 23.414 67.109 24.334C66.557 25.2233 66.0663 26.0513 65.637 26.818C65.2383 27.554 64.9163 28.2133 64.671 28.796C64.4256 29.348 64.303 29.7467 64.303 29.992C64.303 30.2987 64.395 30.452 64.579 30.452C64.763 30.452 65.0236 30.3293 65.361 30.084C65.729 29.808 66.1276 29.4553 66.557 29.026C67.017 28.5967 67.477 28.1213 67.937 27.6C68.397 27.048 68.8416 26.496 69.271 25.944C69.4243 25.7293 69.6083 25.4533 69.823 25.116C70.0376 24.748 70.237 24.4107 70.421 24.104C70.6356 23.7667 70.8196 23.4907 70.973 23.276C71.157 23.0307 71.295 22.908 71.387 22.908C71.5403 22.908 71.709 22.9693 71.893 23.092C72.077 23.184 72.169 23.2913 72.169 23.414C72.169 23.5367 72.1076 23.69 71.985 23.874C71.8623 24.058 71.709 24.2573 71.525 24.472C71.341 24.6867 71.1416 24.9167 70.927 25.162C70.743 25.3767 70.5896 25.5913 70.467 25.806C70.3443 26.0207 70.1603 26.3733 69.915 26.864C69.7003 27.3547 69.4856 27.8913 69.271 28.474C69.0563 29.0567 68.8723 29.624 68.719 30.176C68.5656 30.728 68.489 31.188 68.489 31.556C68.489 31.9547 68.5656 32.246 68.719 32.43C68.903 32.6447 69.2403 32.752 69.731 32.752C70.3443 32.752 70.973 32.5833 71.617 32.246C72.2916 31.9393 72.9356 31.6173 73.549 31.28C73.641 31.3107 73.7023 31.372 73.733 31.464C73.7636 31.5253 73.7023 31.5867 73.549 31.648C72.629 32.1693 71.6783 32.5987 70.697 32.936C69.7463 33.304 68.8876 33.488 68.121 33.488C67.1703 33.488 66.695 33.1353 66.695 32.43C66.695 31.97 66.8943 31.234 67.293 30.222C67.6916 29.21 68.167 28.1673 68.719 27.094C68.5656 27.3087 68.259 27.6613 67.799 28.152C67.3696 28.6427 66.879 29.1487 66.327 29.67C65.775 30.1607 65.223 30.6053 64.671 31.004C64.119 31.4027 63.659 31.602 63.291 31.602C62.9843 31.602 62.785 31.5253 62.693 31.372C62.601 31.188 62.555 30.9733 62.555 30.728C62.555 30.544 62.6163 30.268 62.739 29.9C62.8923 29.532 63.061 29.1333 63.245 28.704C63.429 28.2747 63.6283 27.8607 63.843 27.462C64.0576 27.0327 64.2416 26.68 64.395 26.404Z" transform="translate(0.56665 0.490234)" fill="#00073D"/>
<path d="M77.0482 27.922C76.9255 27.7993 76.8335 27.6767 76.7722 27.554C76.7415 27.4007 76.6495 27.4467 76.4962 27.692C76.1282 28.2747 75.7909 28.8267 75.4842 29.348C75.1775 29.8387 74.8862 30.2987 74.6102 30.728C74.4569 30.9733 74.2115 31.2033 73.8742 31.418C73.5675 31.602 73.2609 31.7553 72.9542 31.878C72.7702 31.878 72.6782 31.8167 72.6782 31.694C72.6782 31.5713 72.7242 31.4333 72.8162 31.28C73.4909 30.176 74.3189 28.8267 75.3002 27.232C76.2815 25.6067 77.2782 23.9507 78.2902 22.264C79.3022 20.5773 80.2682 18.998 81.1882 17.526C82.1389 16.054 82.9055 14.904 83.4882 14.076C84.3162 12.9107 85.1749 11.7453 86.0642 10.58C86.9842 9.384 87.9195 8.24933 88.8702 7.176C89.8209 6.072 90.8022 5.04467 91.8142 4.094C92.8262 3.11267 93.8535 2.26933 94.8962 1.564C95.5709 1.104 96.3069 0.736 97.1042 0.46C97.9322 0.153333 98.6989 0 99.4042 0C100.048 0 100.585 0.107334 101.014 0.322001C101.444 0.536667 101.781 0.797333 102.026 1.104C102.302 1.38 102.486 1.67133 102.578 1.978C102.701 2.254 102.762 2.45333 102.762 2.576C102.762 2.76 102.701 2.86733 102.578 2.898C102.456 2.92867 102.394 2.88267 102.394 2.76C102.394 2.60667 102.379 2.49933 102.348 2.438C102.348 2.37667 102.256 2.26933 102.072 2.116C101.244 1.59467 100.125 1.334 98.7142 1.334C97.2115 1.334 95.7855 1.76333 94.4362 2.622C93.0869 3.45 91.8142 4.508 90.6182 5.796C89.4222 7.05333 88.3029 8.44867 87.2602 9.982C86.2482 11.4847 85.3282 12.8953 84.5002 14.214C84.0095 15.0113 83.4422 15.9467 82.7982 17.02C82.1849 18.0933 81.5869 19.1207 81.0042 20.102C80.4522 21.0833 79.9769 21.9267 79.5782 22.632C79.2102 23.3373 79.0109 23.736 78.9802 23.828C78.7655 24.2573 78.8269 24.3033 79.1642 23.966C79.4402 23.69 79.7622 23.414 80.1302 23.138C80.4982 22.8313 80.8662 22.5707 81.2342 22.356C81.6022 22.1107 81.9702 21.9113 82.3382 21.758C82.7062 21.6047 83.0435 21.528 83.3502 21.528C83.8715 21.528 84.1322 21.7427 84.1322 22.172C84.1322 22.4787 84.0249 22.8313 83.8102 23.23C83.5955 23.598 83.3809 23.92 83.1662 24.196C82.5835 24.932 81.8935 25.53 81.0962 25.99C80.3295 26.4193 79.5015 26.772 78.6122 27.048C78.4589 27.1093 78.3975 27.1707 78.4282 27.232C78.4589 27.2627 78.5049 27.3393 78.5662 27.462C79.6702 29.302 80.8662 31.2033 82.1542 33.166C83.4729 35.1593 84.8989 36.9687 86.4322 38.594C87.9655 40.2193 89.6215 41.5533 91.4002 42.596C93.1789 43.6693 95.1109 44.206 97.1962 44.206C98.3002 44.206 99.4655 44.022 100.692 43.654C101.95 43.286 103.054 42.6727 104.004 41.814C104.127 41.6913 104.219 41.6607 104.28 41.722C104.372 41.814 104.357 41.9213 104.234 42.044C103.1 43.0253 101.827 43.6847 100.416 44.022C99.0055 44.39 97.6562 44.574 96.3682 44.574C94.5895 44.574 92.8875 44.1907 91.2622 43.424C89.6369 42.688 88.0575 41.6453 86.5242 40.296C85.0215 38.9467 83.5495 37.3367 82.1082 35.466C80.6669 33.5953 79.2562 31.556 77.8762 29.348L77.0482 27.922ZM82.5222 23.046C82.5222 22.8927 82.4609 22.77 82.3382 22.678C82.2462 22.5553 82.1389 22.494 82.0162 22.494C81.7402 22.494 81.3262 22.6933 80.7742 23.092C80.2529 23.46 79.7162 23.8893 79.1642 24.38C78.6429 24.8707 78.1829 25.3613 77.7842 25.852C77.3855 26.312 77.1862 26.6493 77.1862 26.864C77.1862 26.956 77.2322 27.002 77.3242 27.002C77.7229 27.002 78.2135 26.8793 78.7962 26.634C79.4095 26.358 79.9922 26.036 80.5442 25.668C81.0962 25.2693 81.5562 24.84 81.9242 24.38C82.3229 23.92 82.5222 23.4753 82.5222 23.046Z" transform="translate(0.56665 0.490234)" fill="#00073D"/>
</svg>
