<svg width="105" height="30" viewBox="0 0 105 30" fill="none" xmlns="http://www.w3.org/2000/svg">
<path fill-rule="evenodd" clip-rule="evenodd" d="M104.179 13.6451C103.633 12.7948 102.89 12.0987 101.953 11.5573C101.015 11.0163 99.9604 10.6104 98.7886 10.3397C97.6164 10.069 96.4052 9.9338 95.1559 9.9338C92.6556 9.9338 90.2147 10.2431 87.8317 10.8616C85.4492 11.4798 83.1051 12.311 80.8005 13.3549C78.4954 14.3984 76.2108 15.558 73.9447 16.8345C71.6794 18.1093 69.4137 19.3655 67.1485 20.603C64.6482 19.7523 62.1676 18.8829 59.7062 17.9933C57.2457 17.1048 54.8045 16.1961 52.3825 15.2682C54.5698 14.1086 56.7576 12.949 58.945 11.7895C61.1323 10.6299 63.3595 9.50885 65.6247 8.42638C65.8589 8.8903 66.0739 9.39277 66.2691 9.9338C66.4643 10.4748 66.5619 10.9777 66.5619 11.4412C66.5619 13.6833 65.5464 15.0361 63.5153 15.5C63.359 15.5775 63.3197 15.6737 63.3976 15.7902C63.4759 15.9058 63.5937 15.9639 63.7495 15.9639C64.7651 15.8092 65.7219 15.3072 66.6202 14.4565C67.5184 13.6062 67.968 12.5237 67.968 11.2095C67.968 9.89483 67.6554 8.6971 67.0303 7.61463C69.3744 6.53216 71.7381 5.48825 74.1203 4.4833C75.2515 4.0064 76.4057 3.55628 77.5812 3.13133C77.5799 3.13092 77.5783 3.13052 77.5771 3.1297C78.1714 2.88456 78.5897 2.30456 78.5897 1.62715C78.5897 0.728545 77.8535 6.19317e-07 76.945 6.19317e-07C76.0369 6.19317e-07 75.3007 0.728545 75.3007 1.62715C75.3007 1.92182 75.3807 2.19741 75.5193 2.43606C73.9956 2.97507 72.5112 3.54004 71.0732 4.13587C69.3932 4.83154 67.7333 5.56577 66.0931 6.33896C64.53 4.32907 62.2258 2.78268 59.1788 1.70062C56.1317 0.618147 53.0851 0.0771148 50.038 0.0771148C46.0538 0.0771148 42.1475 0.772787 38.3195 2.16453C34.4915 3.55628 31.4445 5.60473 29.1788 8.3107C26.4443 7.76927 23.515 7.49895 20.3896 7.49895C18.4365 7.49895 16.2688 7.67267 13.8858 8.02091C11.5028 8.36834 9.29574 8.94874 7.26466 9.76008C5.23316 10.5722 3.51461 11.6157 2.1086 12.891C0.703005 14.1671 0 15.6936 0 17.4717C0 18.9406 0.546736 20.2162 1.64062 21.2983C2.7345 22.3812 4.14051 23.2891 5.85947 24.0238C7.57802 24.7584 9.47252 25.3185 11.543 25.7053C13.613 26.0921 15.6642 26.2853 17.6953 26.2853C21.6012 26.2853 25.2733 25.8989 28.7108 25.1261C30.1952 26.6721 32.2263 27.8706 34.8045 28.721C37.3827 29.5709 40.5467 29.9958 44.2967 29.9958C48.0467 29.9958 51.9334 29.1845 55.957 27.5614C59.9806 25.9379 63.9837 24.0436 67.9684 21.8791C71.4838 22.9612 74.9603 23.8314 78.3982 24.4881C81.8361 25.1452 85.3122 25.4744 88.8276 25.4744C90.6253 25.4744 92.4804 25.2808 94.3938 24.894C96.3084 24.508 98.0462 23.9276 99.6093 23.1548C101.172 22.382 102.46 21.4538 103.476 20.3717C104.493 19.2896 105 18.0525 105 16.6608C105 15.5004 104.726 14.495 104.179 13.6451ZM34.8631 5.12174C36.3865 4.15535 38.0078 3.38216 39.7263 2.80257C41.4453 2.22257 43.1835 1.79762 44.9415 1.5269C46.6994 1.25619 48.3982 1.12103 50.0389 1.12103C53.008 1.12103 55.8204 1.66206 58.4766 2.74453C61.1327 3.827 63.2032 5.21834 64.6875 6.91936C62.1872 8.15606 59.7464 9.39317 57.3638 10.6303C54.9808 11.867 52.6175 13.1426 50.2739 14.4569C46.9926 13.2202 43.7701 12.0797 40.6057 11.0357C37.4418 9.99224 34.2192 9.16101 30.938 8.54246C32.031 7.22823 33.3398 6.08772 34.8631 5.12174ZM17.8122 25.3575C16.2499 25.3575 14.5502 25.2219 12.7144 24.9516C10.8785 24.6809 9.17926 24.2555 7.61698 23.6755C6.05429 23.0959 4.72621 22.3033 3.63274 21.2983C2.53886 20.2934 1.99212 19.0567 1.99212 17.5874C1.99212 16.2736 2.59751 15.0555 3.80829 13.9345C5.01947 12.8135 6.54279 11.8471 8.37864 11.0353C10.2149 10.2236 12.2464 9.58596 14.4723 9.12205C16.699 8.65813 18.8281 8.42638 20.8592 8.42638C22.1873 8.42638 23.4764 8.5035 24.7266 8.65813C25.9763 8.81237 27.2654 9.00597 28.5939 9.23813C26.6404 11.6344 25.6642 14.4565 25.6642 17.7035C25.6642 19.9455 26.3672 22.0719 27.7736 24.0814C24.492 24.9321 21.1714 25.3575 17.8122 25.3575ZM27.6563 17.82C27.6563 16.1965 27.8905 14.6886 28.3593 13.2973C28.8277 11.9055 29.4528 10.6303 30.2341 9.47029C33.2812 10.0888 36.3475 10.8811 39.4335 11.8475C42.5195 12.8139 45.7031 13.9154 48.9844 15.1521C45.7031 16.9303 42.4805 18.5733 39.3162 20.0807C36.1523 21.5885 32.9297 22.8061 29.6484 23.7336C28.3199 22.0333 27.6563 20.0616 27.6563 17.82ZM54.5506 26.8069C50.7616 28.3914 46.7966 29.1837 42.6561 29.1837C40.3908 29.1837 38.1444 28.8172 35.9181 28.0821C33.6913 27.3471 31.8358 26.2074 30.3514 24.661C33.9452 23.7332 37.4414 22.4774 40.8399 20.892C44.238 19.3075 47.6563 17.6259 51.0938 15.8478C53.5937 16.7752 56.0546 17.7225 58.4766 18.6889C60.8981 19.6553 63.3595 20.5247 65.8594 21.2979C62.1089 23.3865 58.3396 25.2219 54.5506 26.8069ZM100.957 20.1391C100.136 21.0666 99.0622 21.8596 97.7345 22.5163C96.406 23.173 94.941 23.6569 93.3397 23.9657C91.7385 24.2746 90.1171 24.4296 88.4765 24.4296C85.1953 24.4296 81.9727 24.1204 78.8088 23.5022C75.6448 22.8837 72.4608 22.1101 69.2583 21.1826C71.6019 19.9459 73.8672 18.6893 76.055 17.4141C78.2423 16.1384 80.3714 15.0174 82.4411 14.051C84.512 13.0842 86.4454 12.2923 88.2423 11.6734C90.0392 11.0552 91.6802 10.746 93.1642 10.746C95.8987 10.746 98.086 11.2679 99.7262 12.3114C101.367 13.3549 102.188 14.8433 102.188 16.776C102.187 18.0903 101.777 19.2109 100.957 20.1391Z" fill="#00073D" fill-opacity="0.3"/>
</svg>
