<svg width="238" height="46" viewBox="0 0 238 46" fill="none" xmlns="http://www.w3.org/2000/svg">
<path d="M40.5063 7.636C40.5063 7.78934 40.4296 7.83534 40.2763 7.774C40.123 7.682 39.893 7.62067 39.5863 7.59C39.2796 7.55933 38.9423 7.544 38.5743 7.544C37.0103 7.544 35.339 7.88134 33.5603 8.556C31.7816 9.23067 30.003 10.074 28.2243 11.086C26.4456 12.0673 24.7283 13.1407 23.0723 14.306C21.447 15.4407 20.021 16.468 18.7943 17.388C19.1316 19.3507 19.5456 21.3747 20.0363 23.46C20.5576 25.5147 21.2016 27.4007 21.9683 29.118C22.735 30.8353 23.6396 32.246 24.6823 33.35C25.725 34.454 26.9516 35.006 28.3623 35.006C29.3436 35.006 30.3096 34.8373 31.2603 34.5C32.211 34.1933 33.1463 33.764 34.0663 33.212C34.1583 33.12 34.2503 33.12 34.3423 33.212C34.4343 33.3347 34.4036 33.442 34.2503 33.534C33.177 34.2087 31.9963 34.7453 30.7083 35.144C29.451 35.5427 28.2396 35.742 27.0743 35.742C25.4796 35.742 24.115 35.328 22.9803 34.5C21.8763 33.7027 20.941 32.5527 20.1743 31.05C19.4076 29.5473 18.7636 27.738 18.2423 25.622C17.7516 23.506 17.3223 21.1293 16.9543 18.492C15.3903 21.5587 13.903 24.0427 12.4923 25.944C11.0816 27.8453 9.73229 29.1333 8.44429 29.808C8.16829 30.0533 8.18362 30.1913 8.49029 30.222C8.70495 30.222 9.05762 30.222 9.54829 30.222C10.0696 30.222 10.6063 30.2373 11.1583 30.268C11.741 30.268 12.3083 30.268 12.8603 30.268C13.4123 30.268 13.8723 30.268 14.2403 30.268C14.5163 30.268 14.823 30.2527 15.1603 30.222C15.5283 30.1913 15.8196 30.1453 16.0343 30.084C16.249 30.084 16.2643 30.176 16.0803 30.36C15.8656 30.5133 15.5283 30.636 15.0683 30.728C14.6083 30.82 14.2096 30.8813 13.8723 30.912C12.8296 30.9733 11.6643 31.05 10.3763 31.142C9.11895 31.2033 7.84629 31.28 6.55829 31.372C5.30095 31.464 4.10495 31.5407 2.97029 31.602C1.83562 31.694 0.900286 31.7707 0.164286 31.832C0.0109524 31.832 -0.0350476 31.7553 0.0262857 31.602C0.271619 31.4487 0.532286 31.2647 0.808286 31.05C1.08429 30.8047 1.28362 30.6053 1.40629 30.452C1.49829 30.3293 1.66695 30.268 1.91229 30.268C2.00429 30.2987 2.20362 30.314 2.51029 30.314C3.61429 30.314 4.54962 30.268 5.31629 30.176C6.08295 30.084 6.72695 29.9767 7.24829 29.854C7.76962 29.7007 8.19895 29.532 8.53629 29.348C8.87362 29.164 9.16495 28.98 9.41029 28.796C10.0236 28.336 10.7903 27.4313 11.7103 26.082C12.6303 24.702 13.6423 23.046 14.7463 21.114C15.8503 19.182 17.0463 17.0507 18.3343 14.72C19.6223 12.3587 20.941 9.95133 22.2903 7.498C20.2663 7.59 18.3803 7.71267 16.6323 7.866C14.8843 8.01934 13.3816 8.24934 12.1243 8.556C10.867 8.86267 9.87029 9.292 9.13429 9.844C8.42895 10.3653 8.07629 11.0553 8.07629 11.914C8.07629 12.8033 8.16829 13.4013 8.35229 13.708C8.53629 13.984 8.62829 14.214 8.62829 14.398C8.50562 14.5207 8.32162 14.6433 8.07629 14.766C7.83095 14.8887 7.63162 14.9807 7.47829 15.042C7.32495 15.042 7.17162 14.8733 7.01829 14.536C6.86495 14.1987 6.78829 13.7693 6.78829 13.248C6.78829 12.328 7.14095 11.4387 7.84629 10.58C8.55162 9.69067 9.62495 8.90867 11.0663 8.234C12.5076 7.52867 14.3016 6.96133 16.4483 6.532C18.6256 6.10267 21.171 5.888 24.0843 5.888C24.5136 5.888 24.7283 5.934 24.7283 6.026C24.7283 6.08733 24.621 6.27133 24.4063 6.578C24.2223 6.854 24.0076 7.084 23.7623 7.268C23.5476 7.42134 23.3483 7.51334 23.1643 7.544C22.9803 7.544 22.781 7.71267 22.5663 8.05C21.9836 9.062 21.447 10.0127 20.9563 10.902C20.4656 11.7607 19.9903 12.604 19.5303 13.432C19.101 14.26 18.687 15.0727 18.2883 15.87C17.8896 16.6367 17.4756 17.434 17.0463 18.262C17.5063 17.894 18.2423 17.3267 19.2543 16.56C20.297 15.7933 21.493 14.95 22.8423 14.03C24.1916 13.11 25.6176 12.1747 27.1203 11.224C28.6536 10.2427 30.141 9.35334 31.5823 8.556C33.0236 7.75867 34.373 7.11467 35.6303 6.624C36.8876 6.10267 37.915 5.842 38.7123 5.842C38.8043 5.87267 38.927 5.94933 39.0803 6.072C39.2336 6.19467 39.4023 6.348 39.5863 6.532C39.7703 6.68533 39.939 6.86933 40.0923 7.084C40.2763 7.268 40.4143 7.452 40.5063 7.636Z" transform="translate(0.500732 0.490234)" fill="#00073D"/>
<path d="M29.7498 26.404C30.1792 25.6373 30.6238 24.8707 31.0838 24.104C31.5745 23.3067 32.0345 22.5707 32.4638 21.896C32.6172 21.7733 32.8625 21.666 33.1998 21.574C33.5678 21.482 33.8132 21.436 33.9358 21.436C34.0892 21.436 34.1658 21.4973 34.1658 21.62C33.5832 22.5093 33.0158 23.414 32.4638 24.334C31.9118 25.2233 31.4212 26.0513 30.9918 26.818C30.5932 27.554 30.2712 28.2133 30.0258 28.796C29.7805 29.348 29.6578 29.7467 29.6578 29.992C29.6578 30.2987 29.7498 30.452 29.9338 30.452C30.1178 30.452 30.3785 30.3293 30.7158 30.084C31.0838 29.808 31.4825 29.4553 31.9118 29.026C32.3718 28.5967 32.8318 28.1213 33.2918 27.6C33.7518 27.048 34.1965 26.496 34.6258 25.944C34.7792 25.7293 34.9632 25.4533 35.1778 25.116C35.3925 24.748 35.5918 24.4107 35.7758 24.104C35.9905 23.7667 36.1745 23.4907 36.3278 23.276C36.5118 23.0307 36.6498 22.908 36.7418 22.908C36.8952 22.908 37.0638 22.9693 37.2478 23.092C37.4318 23.184 37.5238 23.2913 37.5238 23.414C37.5238 23.5367 37.4625 23.69 37.3398 23.874C37.2172 24.058 37.0638 24.2573 36.8798 24.472C36.6958 24.6867 36.4965 24.9167 36.2818 25.162C36.0978 25.3767 35.9445 25.5913 35.8218 25.806C35.6992 26.0207 35.5152 26.3733 35.2698 26.864C35.0552 27.3547 34.8405 27.8913 34.6258 28.474C34.4112 29.0567 34.2272 29.624 34.0738 30.176C33.9205 30.728 33.8438 31.188 33.8438 31.556C33.8438 31.9547 33.9205 32.246 34.0738 32.43C34.2578 32.6447 34.5952 32.752 35.0858 32.752C35.6992 32.752 36.3278 32.5833 36.9718 32.246C37.6465 31.9393 38.2905 31.6173 38.9038 31.28C38.9958 31.3107 39.0572 31.372 39.0878 31.464C39.1185 31.5253 39.0572 31.5867 38.9038 31.648C37.9838 32.1693 37.0332 32.5987 36.0518 32.936C35.1012 33.304 34.2425 33.488 33.4758 33.488C32.5252 33.488 32.0498 33.1353 32.0498 32.43C32.0498 31.97 32.2492 31.234 32.6478 30.222C33.0465 29.21 33.5218 28.1673 34.0738 27.094C33.9205 27.3087 33.6138 27.6613 33.1538 28.152C32.7245 28.6427 32.2338 29.1487 31.6818 29.67C31.1298 30.1607 30.5778 30.6053 30.0258 31.004C29.4738 31.4027 29.0138 31.602 28.6458 31.602C28.3392 31.602 28.1398 31.5253 28.0478 31.372C27.9558 31.188 27.9098 30.9733 27.9098 30.728C27.9098 30.544 27.9712 30.268 28.0938 29.9C28.2472 29.532 28.4158 29.1333 28.5998 28.704C28.7838 28.2747 28.9832 27.8607 29.1978 27.462C29.4125 27.0327 29.5965 26.68 29.7498 26.404Z" transform="translate(0.500732 0.490234)" fill="#00073D"/>
<path d="M47.4171 25.898C47.3864 25.9287 47.4171 25.9133 47.5091 25.852C47.6317 25.76 47.7544 25.668 47.8771 25.576C48.0304 25.4533 48.1684 25.3307 48.2911 25.208C48.4444 25.0853 48.5517 24.9933 48.6131 24.932C48.9504 24.5333 49.3337 24.1347 49.7631 23.736C50.2231 23.3373 50.6831 22.9847 51.1431 22.678C51.6031 22.3713 52.0477 22.126 52.4771 21.942C52.9064 21.758 53.2744 21.666 53.5811 21.666C54.0411 21.666 54.2711 21.8653 54.2711 22.264C54.2711 22.632 54.1177 23.0307 53.8111 23.46C53.3817 24.1653 52.9677 24.886 52.5691 25.622C52.1704 26.3273 51.8177 27.002 51.5111 27.646C51.2351 28.2593 51.0051 28.8113 50.8211 29.302C50.6677 29.7927 50.5911 30.176 50.5911 30.452C50.5911 31.0653 50.8824 31.372 51.4651 31.372C51.9557 31.372 52.5691 31.1573 53.3051 30.728C54.0411 30.268 54.7924 29.716 55.5591 29.072C56.3257 28.428 57.0464 27.738 57.7211 27.002C58.3957 26.266 58.9171 25.5913 59.2851 24.978C59.3771 24.8247 59.4691 24.7787 59.5611 24.84C59.6837 24.8707 59.6837 24.978 59.5611 25.162C59.1011 25.8673 58.5031 26.634 57.7671 27.462C57.0311 28.2593 56.2184 29.026 55.3291 29.762C54.4704 30.4673 53.5657 31.05 52.6151 31.51C51.6951 32.0007 50.8057 32.246 49.9471 32.246C49.5177 32.246 49.1957 32.1233 48.9811 31.878C48.7971 31.6633 48.7051 31.3873 48.7051 31.05C48.7051 30.8353 48.7511 30.5747 48.8431 30.268C48.9351 29.9307 49.0577 29.624 49.2111 29.348C49.4564 28.9187 49.7477 28.3973 50.0851 27.784C50.4531 27.1707 50.7904 26.5573 51.0971 25.944C51.4344 25.3307 51.7104 24.7787 51.9251 24.288C52.1704 23.7667 52.2931 23.3987 52.2931 23.184C52.2931 22.9387 52.1857 22.816 51.9711 22.816C51.7871 22.816 51.5111 22.9387 51.1431 23.184C50.8057 23.4293 50.4224 23.736 49.9931 24.104C49.5944 24.4413 49.1804 24.8247 48.7511 25.254C48.3524 25.6527 47.9997 26.0207 47.6931 26.358C47.4171 26.5727 47.1257 26.864 46.8191 27.232C46.5124 27.5693 46.3131 27.8147 46.2211 27.968C45.6997 28.8573 45.2704 29.578 44.9331 30.13C44.6264 30.6513 44.3044 30.912 43.9671 30.912C43.5684 30.912 43.3691 30.7587 43.3691 30.452C43.3691 30.36 43.4611 30.1913 43.6451 29.946C44.0437 29.3633 44.4117 28.7807 44.7491 28.198C45.1171 27.5847 45.4391 27.0173 45.7151 26.496C45.9911 25.9747 46.2057 25.53 46.3591 25.162C46.5431 24.794 46.6351 24.564 46.6351 24.472C46.6351 24.288 46.5584 24.196 46.4051 24.196C46.2211 24.196 45.9451 24.3187 45.5771 24.564C45.2397 24.7787 44.8257 25.1007 44.3351 25.53C43.8751 25.9287 43.3844 26.404 42.8631 26.956C42.3417 27.508 41.8357 28.106 41.3451 28.75C40.7317 29.5473 40.3177 30.222 40.1031 30.774C39.9191 31.326 39.7044 31.602 39.4591 31.602C39.3057 31.602 39.1831 31.51 39.0911 31.326C39.0297 31.1113 38.9991 30.9427 38.9991 30.82C38.9991 30.7587 39.0297 30.6053 39.0911 30.36C39.1524 30.2373 39.3824 29.808 39.7811 29.072C40.2104 28.3053 40.6857 27.462 41.2071 26.542C41.7284 25.5913 42.2497 24.6713 42.7711 23.782C43.2924 22.8927 43.6911 22.264 43.9671 21.896C44.0897 21.712 44.2431 21.62 44.4271 21.62C44.5804 21.62 44.7184 21.7427 44.8411 21.988C44.9944 22.2027 45.0711 22.3713 45.0711 22.494C45.0711 22.5247 45.0404 22.632 44.9791 22.816C44.5497 23.3987 44.1357 24.012 43.7371 24.656C43.3691 25.3 42.9857 25.9747 42.5871 26.68C42.5257 26.772 42.4951 26.818 42.4951 26.818C42.5257 26.818 42.5717 26.7873 42.6331 26.726C43.1237 26.2047 43.6451 25.714 44.1971 25.254C44.7491 24.7633 45.2857 24.334 45.8071 23.966C46.3591 23.598 46.8497 23.3067 47.2791 23.092C47.7084 22.8467 48.0457 22.724 48.2911 22.724C48.5671 22.724 48.7051 22.862 48.7051 23.138C48.7051 23.2913 48.6437 23.4907 48.5211 23.736C48.4291 23.9507 48.3064 24.196 48.1531 24.472C48.0304 24.748 47.8924 25.0087 47.7391 25.254C47.5857 25.4993 47.4784 25.714 47.4171 25.898ZM48.8431 20.838C48.4137 20.7767 48.0764 20.6693 47.8311 20.516C47.6471 20.3627 47.4324 20.2093 47.1871 20.056C46.9724 19.872 46.7731 19.7033 46.5891 19.55C46.3744 19.3353 46.1444 19.1207 45.8991 18.906C45.6537 18.6913 45.4544 18.4307 45.3011 18.124C45.2091 18.0013 45.1631 17.802 45.1631 17.526C45.2244 17.3113 45.3164 17.1887 45.4391 17.158C45.5004 17.066 45.5464 17.02 45.5771 17.02C45.6384 16.9893 45.6997 16.9587 45.7611 16.928C45.8224 16.8973 45.8684 16.928 45.8991 17.02C46.1444 17.296 46.3437 17.5873 46.4971 17.894C46.6504 18.17 46.8037 18.4767 46.9571 18.814C47.1411 19.1207 47.3251 19.3813 47.5091 19.596C47.7237 19.8107 47.9231 19.9947 48.1071 20.148C48.2604 20.2707 48.4137 20.3627 48.5671 20.424C48.7511 20.4547 48.9811 20.4393 49.2571 20.378C49.4717 20.3473 49.6711 20.3013 49.8551 20.24C50.0391 20.1787 50.2537 20.0867 50.4991 19.964C50.8364 19.8413 51.1584 19.6727 51.4651 19.458C51.7717 19.2127 52.0784 18.9673 52.3851 18.722C52.7224 18.4153 53.0291 18.124 53.3051 17.848C53.6117 17.5413 53.9031 17.2807 54.1791 17.066C54.6697 16.5447 55.2064 16.0233 55.7891 15.502C56.3717 14.9807 56.9391 14.5973 57.4911 14.352C57.9511 14.1067 58.3037 13.9687 58.5491 13.938C59.3157 13.8767 59.9137 14.0913 60.3431 14.582C60.7724 15.042 61.2017 15.5327 61.6311 16.054C61.7844 16.1767 61.9071 16.3453 61.9991 16.56C62.0911 16.744 62.1524 16.928 62.1831 17.112L62.1371 17.25C62.0757 17.3727 62.0297 17.434 61.9991 17.434C61.9071 17.434 61.8611 17.388 61.8611 17.296C61.8304 17.112 61.7844 16.928 61.7231 16.744C61.6617 16.56 61.5544 16.3913 61.4011 16.238C60.8184 15.3793 60.0671 15.042 59.1471 15.226C58.8097 15.2873 58.3957 15.4407 57.9051 15.686C57.4144 15.9313 56.8931 16.3147 56.3411 16.836C55.7277 17.3573 55.1144 17.8633 54.5011 18.354C53.8877 18.8447 53.2591 19.2587 52.6151 19.596C52.2164 19.872 51.8024 20.102 51.3731 20.286C50.9437 20.4393 50.5297 20.5467 50.1311 20.608C49.6097 20.8227 49.1804 20.8993 48.8431 20.838Z" transform="translate(0.500732 0.490234)" fill="#00073D"/>
<path d="M70.1989 26.22C68.6349 28.0907 67.2396 29.4707 66.0129 30.36C64.8169 31.2493 63.7436 31.694 62.7929 31.694C62.3636 31.694 61.9803 31.5867 61.6429 31.372C61.3363 31.1267 61.1829 30.6053 61.1829 29.808C61.1829 29.624 61.2136 29.2713 61.2749 28.75C61.3669 28.198 61.5203 27.6767 61.7349 27.186C61.3363 27.7687 60.8916 28.336 60.4009 28.888C59.9409 29.44 59.4656 29.9307 58.9749 30.36C58.5149 30.7893 58.0703 31.142 57.6409 31.418C57.2116 31.6633 56.8589 31.786 56.5829 31.786C56.0003 31.786 55.7089 31.4487 55.7089 30.774C55.7089 30.1913 56.0156 29.3173 56.6289 28.152C57.0583 27.2933 57.6409 26.3887 58.3769 25.438C59.1436 24.4567 59.9563 23.598 60.8149 22.862C61.3363 22.4327 61.8269 22.08 62.2869 21.804C62.7776 21.528 63.2376 21.39 63.6669 21.39C64.1883 21.39 64.6636 21.5587 65.0929 21.896C65.2463 21.7733 65.4149 21.6507 65.5989 21.528C65.7829 21.3747 65.9363 21.252 66.0589 21.16C66.1203 21.16 66.1509 21.1907 66.1509 21.252C66.1509 21.3133 66.0896 21.4513 65.9669 21.666C65.0776 23.138 64.2956 24.5027 63.6209 25.76C62.9769 27.0173 62.6549 28.29 62.6549 29.578C62.6549 30.5287 62.9923 31.004 63.6669 31.004C64.3109 31.004 65.1849 30.6053 66.2889 29.808C67.4236 28.98 68.6503 27.692 69.9689 25.944C69.9996 25.8827 70.0609 25.852 70.1529 25.852C70.2756 25.852 70.2909 25.9747 70.1989 26.22ZM64.0349 22.954C63.8509 22.7393 63.6363 22.586 63.3909 22.494C63.1456 22.402 62.9156 22.356 62.7009 22.356C62.1796 22.356 61.6123 22.6473 60.9989 23.23C60.3856 23.8127 59.8183 24.5333 59.2969 25.392C58.7756 26.22 58.3463 27.094 58.0089 28.014C57.6716 28.9033 57.5029 29.67 57.5029 30.314C57.5029 30.5593 57.6103 30.682 57.8249 30.682C58.0703 30.682 58.5763 30.314 59.3429 29.578C60.1096 28.842 60.9376 27.8607 61.8269 26.634C62.2563 26.0207 62.6549 25.4227 63.0229 24.84C63.3909 24.2573 63.7283 23.6287 64.0349 22.954Z" transform="translate(0.500732 0.490234)" fill="#00073D"/>
<path d="M69.0116 26.404C69.4409 25.6373 69.8856 24.8707 70.3456 24.104C70.8362 23.3067 71.2962 22.5707 71.7255 21.896C71.8789 21.7733 72.1242 21.666 72.4615 21.574C72.8295 21.482 73.0749 21.436 73.1975 21.436C73.3509 21.436 73.4276 21.4973 73.4276 21.62C72.8449 22.5093 72.2775 23.414 71.7255 24.334C71.1735 25.2233 70.6829 26.0513 70.2535 26.818C69.8549 27.554 69.5329 28.2133 69.2876 28.796C69.0422 29.348 68.9195 29.7467 68.9195 29.992C68.9195 30.2987 69.0115 30.452 69.1955 30.452C69.3795 30.452 69.6402 30.3293 69.9776 30.084C70.3456 29.808 70.7442 29.4553 71.1736 29.026C71.6336 28.5967 72.0936 28.1213 72.5536 27.6C73.0136 27.048 73.4582 26.496 73.8876 25.944C74.0409 25.7293 74.2249 25.4533 74.4396 25.116C74.6542 24.748 74.8536 24.4107 75.0376 24.104C75.2522 23.7667 75.4362 23.4907 75.5896 23.276C75.7736 23.0307 75.9116 22.908 76.0036 22.908C76.1569 22.908 76.3256 22.9693 76.5096 23.092C76.6936 23.184 76.7856 23.2913 76.7856 23.414C76.7856 23.5367 76.7242 23.69 76.6016 23.874C76.4789 24.058 76.3255 24.2573 76.1415 24.472C75.9575 24.6867 75.7582 24.9167 75.5435 25.162C75.3595 25.3767 75.2062 25.5913 75.0835 25.806C74.9609 26.0207 74.7769 26.3733 74.5316 26.864C74.3169 27.3547 74.1022 27.8913 73.8876 28.474C73.6729 29.0567 73.4889 29.624 73.3355 30.176C73.1822 30.728 73.1056 31.188 73.1056 31.556C73.1056 31.9547 73.1822 32.246 73.3355 32.43C73.5195 32.6447 73.8569 32.752 74.3475 32.752C74.9609 32.752 75.5896 32.5833 76.2336 32.246C76.9082 31.9393 77.5522 31.6173 78.1656 31.28C78.2576 31.3107 78.3189 31.372 78.3495 31.464C78.3802 31.5253 78.3189 31.5867 78.1656 31.648C77.2456 32.1693 76.2949 32.5987 75.3136 32.936C74.3629 33.304 73.5042 33.488 72.7375 33.488C71.7869 33.488 71.3116 33.1353 71.3116 32.43C71.3116 31.97 71.5109 31.234 71.9096 30.222C72.3082 29.21 72.7835 28.1673 73.3355 27.094C73.1822 27.3087 72.8756 27.6613 72.4156 28.152C71.9862 28.6427 71.4956 29.1487 70.9436 29.67C70.3916 30.1607 69.8396 30.6053 69.2876 31.004C68.7356 31.4027 68.2756 31.602 67.9076 31.602C67.6009 31.602 67.4015 31.5253 67.3095 31.372C67.2175 31.188 67.1716 30.9733 67.1716 30.728C67.1716 30.544 67.2329 30.268 67.3556 29.9C67.5089 29.532 67.6775 29.1333 67.8615 28.704C68.0455 28.2747 68.2449 27.8607 68.4595 27.462C68.6742 27.0327 68.8582 26.68 69.0116 26.404ZM78.9016 15.732C78.5949 15.7013 78.3189 15.686 78.0736 15.686C77.8282 15.686 77.6136 15.686 77.4296 15.686C77.1842 15.7167 76.9696 15.7627 76.7856 15.824C76.6016 15.8547 76.4176 15.9773 76.2336 16.192C76.0496 16.376 75.8809 16.606 75.7276 16.882C75.6049 17.158 75.5129 17.434 75.4516 17.71C75.3902 17.986 75.3289 18.2467 75.2676 18.492V18.63C75.2062 19.2127 75.2062 19.7187 75.2676 20.148C75.3289 20.2093 75.3596 20.286 75.3596 20.378C75.3902 20.47 75.4975 20.5927 75.6815 20.746C75.4362 21.1753 75.2522 21.3747 75.1296 21.344C75.0069 21.3133 74.9149 21.16 74.8536 20.884C74.7002 20.424 74.6542 19.918 74.7156 19.366C74.8996 18.5073 75.1755 17.6793 75.5435 16.882C75.8809 16.422 76.2182 16.008 76.5555 15.64C76.9235 15.2413 77.2609 14.95 77.5676 14.766C77.7209 14.7353 77.9356 14.72 78.2116 14.72L78.3495 14.766C78.7175 14.7967 79.1162 14.8733 79.5456 14.996C80.0056 15.088 80.4656 15.1647 80.9256 15.226C81.1709 15.2567 81.4315 15.2873 81.7076 15.318C81.9836 15.318 82.2442 15.3027 82.4896 15.272C82.7042 15.2107 82.9189 15.1187 83.1336 14.996C83.3789 14.8427 83.5936 14.6587 83.7775 14.444C83.9309 14.3213 84.0996 14.1067 84.2836 13.8C84.4982 13.4933 84.6362 13.202 84.6976 12.926C84.7282 12.6193 84.6822 12.3127 84.5596 12.006C84.4676 11.6687 84.3296 11.454 84.1456 11.362C84.0842 11.362 84.0382 11.3467 84.0076 11.316H83.8696C83.8389 11.316 83.8236 11.3007 83.8236 11.27C83.8236 11.2087 83.8389 11.1627 83.8696 11.132C84.1149 10.8867 84.3296 10.7487 84.5135 10.718C84.5442 10.6873 84.6056 10.672 84.6976 10.672H84.7436C84.8356 10.7027 84.9122 10.7487 84.9736 10.81C85.1882 10.9327 85.3416 11.1473 85.4336 11.454C85.4336 11.7607 85.4182 11.9907 85.3876 12.144V12.236C85.3569 12.328 85.3416 12.42 85.3416 12.512C85.3416 12.604 85.3262 12.6807 85.2956 12.742C85.2342 12.8953 85.1116 13.11 84.9276 13.386C84.7436 13.6313 84.5749 13.8613 84.4216 14.076C84.2069 14.3213 83.9462 14.582 83.6395 14.858C83.3635 15.1033 83.1182 15.3027 82.9035 15.456C82.4742 15.6707 82.0755 15.8393 81.7076 15.962C81.3702 16.054 81.0176 16.0693 80.6496 16.008C80.5576 16.008 80.4502 16.008 80.3276 16.008C80.2356 16.008 80.1282 15.9927 80.0056 15.962C79.8216 15.9313 79.6682 15.9007 79.5456 15.87C79.4229 15.8393 79.2082 15.8087 78.9016 15.778V15.732Z" transform="translate(0.500732 0.490234)" fill="#00073D"/>
<path d="M90.3588 26.45C90.1135 26.6647 89.7608 26.956 89.3008 27.324C88.8715 27.692 88.3808 28.0907 87.8288 28.52C87.2768 28.9493 86.7095 29.3787 86.1268 29.808C85.5748 30.2067 85.0534 30.544 84.5628 30.82C83.9801 31.1573 83.4281 31.4027 82.9068 31.556C82.4161 31.7093 81.9561 31.786 81.5268 31.786C80.0241 31.786 79.2728 31.05 79.2728 29.578C79.2728 29.2407 79.3495 28.8113 79.5028 28.29C79.6868 27.738 79.9015 27.232 80.1468 26.772C80.6068 25.8827 81.0668 25.162 81.5268 24.61C81.9868 24.0273 82.4775 23.552 82.9988 23.184C83.5508 22.7853 84.1488 22.4633 84.7928 22.218C85.4368 21.942 86.1575 21.6813 86.9548 21.436C87.1388 21.3747 87.2768 21.344 87.3688 21.344C87.5528 21.344 87.7521 21.5127 87.9668 21.85C88.2121 22.1567 88.3348 22.402 88.3348 22.586C88.3348 22.77 88.2275 23.0153 88.0128 23.322C87.8288 23.6287 87.6601 23.828 87.5068 23.92C87.3228 23.4293 87.0928 23.0307 86.8168 22.724C86.5715 22.4173 86.2341 22.264 85.8048 22.264C85.3755 22.264 84.8848 22.5093 84.3328 23C83.7808 23.46 83.2595 24.0427 82.7688 24.748C82.2781 25.4533 81.8641 26.2353 81.5268 27.094C81.1895 27.922 81.0208 28.7193 81.0208 29.486C81.0208 29.9767 81.1128 30.3753 81.2968 30.682C81.5115 30.958 81.8335 31.096 82.2628 31.096C82.6921 31.096 83.1061 31.0193 83.5048 30.866C83.9341 30.7127 84.4401 30.4673 85.0228 30.13C85.3295 29.946 85.7128 29.6853 86.1728 29.348C86.6328 29.0107 87.1081 28.658 87.5988 28.29C88.1201 27.8913 88.6108 27.508 89.0708 27.14C89.5615 26.7413 89.9448 26.4193 90.2208 26.174C90.3741 26.0207 90.4661 26.0053 90.4968 26.128C90.5275 26.22 90.4815 26.3273 90.3588 26.45Z" transform="translate(0.500732 0.490234)" fill="#00073D"/>
<path d="M91.7273 27.922C91.6046 27.7993 91.5126 27.6767 91.4513 27.554C91.4206 27.4007 91.3286 27.4467 91.1753 27.692C90.8073 28.2747 90.47 28.8267 90.1633 29.348C89.8566 29.8387 89.5653 30.2987 89.2893 30.728C89.136 30.9733 88.8906 31.2033 88.5533 31.418C88.2466 31.602 87.94 31.7553 87.6333 31.878C87.4493 31.878 87.3573 31.8167 87.3573 31.694C87.3573 31.5713 87.4033 31.4333 87.4953 31.28C88.17 30.176 88.998 28.8267 89.9793 27.232C90.9606 25.6067 91.9573 23.9507 92.9693 22.264C93.9813 20.5773 94.9473 18.998 95.8673 17.526C96.818 16.054 97.5846 14.904 98.1673 14.076C98.9953 12.9107 99.854 11.7453 100.743 10.58C101.663 9.384 102.599 8.24933 103.549 7.176C104.5 6.072 105.481 5.04467 106.493 4.094C107.505 3.11267 108.533 2.26934 109.575 1.564C110.25 1.104 110.986 0.736002 111.783 0.460002C112.611 0.153334 113.378 0 114.083 0C114.727 0 115.264 0.107334 115.693 0.322001C116.123 0.536669 116.46 0.797336 116.705 1.104C116.981 1.38 117.165 1.67134 117.257 1.978C117.38 2.254 117.441 2.45334 117.441 2.576C117.441 2.76 117.38 2.86733 117.257 2.898C117.135 2.92867 117.073 2.88267 117.073 2.76C117.073 2.60667 117.058 2.49933 117.027 2.438C117.027 2.37667 116.935 2.26934 116.751 2.116C115.923 1.59467 114.804 1.334 113.393 1.334C111.891 1.334 110.465 1.76334 109.115 2.622C107.766 3.45 106.493 4.508 105.297 5.796C104.101 7.05334 102.982 8.44867 101.939 9.982C100.927 11.4847 100.007 12.8953 99.1793 14.214C98.6886 15.0113 98.1213 15.9467 97.4773 17.02C96.864 18.0933 96.266 19.1207 95.6833 20.102C95.1313 21.0833 94.656 21.9267 94.2573 22.632C93.8893 23.3373 93.69 23.736 93.6593 23.828C93.4446 24.2573 93.506 24.3033 93.8433 23.966C94.1193 23.69 94.4413 23.414 94.8093 23.138C95.1773 22.8313 95.5453 22.5707 95.9133 22.356C96.2813 22.1107 96.6493 21.9113 97.0173 21.758C97.3853 21.6047 97.7226 21.528 98.0293 21.528C98.5506 21.528 98.8113 21.7427 98.8113 22.172C98.8113 22.4787 98.704 22.8313 98.4893 23.23C98.2746 23.598 98.06 23.92 97.8453 24.196C97.2626 24.932 96.5726 25.53 95.7753 25.99C95.0086 26.4193 94.1806 26.772 93.2913 27.048C93.1379 27.1093 93.0766 27.1707 93.1073 27.232C93.138 27.2627 93.184 27.3393 93.2453 27.462C94.3493 29.302 95.5453 31.2033 96.8333 33.166C98.1519 35.1593 99.578 36.9687 101.111 38.594C102.645 40.2193 104.301 41.5533 106.079 42.596C107.858 43.6693 109.79 44.206 111.875 44.206C112.979 44.206 114.145 44.022 115.371 43.654C116.629 43.286 117.733 42.6727 118.683 41.814C118.806 41.6913 118.898 41.6607 118.959 41.722C119.051 41.814 119.036 41.9213 118.913 42.044C117.779 43.0253 116.506 43.6847 115.095 44.022C113.685 44.39 112.335 44.574 111.047 44.574C109.269 44.574 107.567 44.1907 105.941 43.424C104.316 42.688 102.737 41.6453 101.203 40.296C99.7006 38.9467 98.2286 37.3367 96.7873 35.466C95.346 33.5953 93.9353 31.556 92.5553 29.348L91.7273 27.922ZM97.2013 23.046C97.2013 22.8927 97.14 22.77 97.0173 22.678C96.9253 22.5553 96.818 22.494 96.6953 22.494C96.4193 22.494 96.0053 22.6933 95.4533 23.092C94.932 23.46 94.3953 23.8893 93.8433 24.38C93.322 24.8707 92.862 25.3613 92.4633 25.852C92.0646 26.312 91.8653 26.6493 91.8653 26.864C91.8653 26.956 91.9113 27.002 92.0033 27.002C92.402 27.002 92.8926 26.8793 93.4753 26.634C94.0886 26.358 94.6713 26.036 95.2233 25.668C95.7753 25.2693 96.2353 24.84 96.6033 24.38C97.002 23.92 97.2013 23.4753 97.2013 23.046Z" transform="translate(0.500732 0.490234)" fill="#00073D"/>
<path d="M112.83 26.22C111.266 28.0907 109.87 29.4707 108.644 30.36C107.448 31.2493 106.374 31.694 105.424 31.694C104.994 31.694 104.611 31.5867 104.274 31.372C103.967 31.1267 103.814 30.6053 103.814 29.808C103.814 29.624 103.844 29.2713 103.906 28.75C103.998 28.198 104.151 27.6767 104.366 27.186C103.967 27.7687 103.522 28.336 103.032 28.888C102.572 29.44 102.096 29.9307 101.606 30.36C101.146 30.7893 100.701 31.142 100.272 31.418C99.8425 31.6633 99.4898 31.786 99.2138 31.786C98.6311 31.786 98.3398 31.4487 98.3398 30.774C98.3398 30.1913 98.6465 29.3173 99.2598 28.152C99.6891 27.2933 100.272 26.3887 101.008 25.438C101.774 24.4567 102.587 23.598 103.446 22.862C103.967 22.4327 104.458 22.08 104.918 21.804C105.408 21.528 105.868 21.39 106.298 21.39C106.819 21.39 107.294 21.5587 107.724 21.896C107.877 21.7733 108.046 21.6507 108.23 21.528C108.414 21.3747 108.567 21.252 108.69 21.16C108.751 21.16 108.782 21.1907 108.782 21.252C108.782 21.3133 108.72 21.4513 108.598 21.666C107.708 23.138 106.926 24.5027 106.252 25.76C105.608 27.0173 105.286 28.29 105.286 29.578C105.286 30.5287 105.623 31.004 106.298 31.004C106.942 31.004 107.816 30.6053 108.92 29.808C110.054 28.98 111.281 27.692 112.6 25.944C112.63 25.8827 112.692 25.852 112.784 25.852C112.906 25.852 112.922 25.9747 112.83 26.22ZM106.666 22.954C106.482 22.7393 106.267 22.586 106.022 22.494C105.776 22.402 105.546 22.356 105.332 22.356C104.81 22.356 104.243 22.6473 103.63 23.23C103.016 23.8127 102.449 24.5333 101.928 25.392C101.406 26.22 100.977 27.094 100.64 28.014C100.302 28.9033 100.134 29.67 100.134 30.314C100.134 30.5593 100.241 30.682 100.456 30.682C100.701 30.682 101.207 30.314 101.974 29.578C102.74 28.842 103.568 27.8607 104.458 26.634C104.887 26.0207 105.286 25.4227 105.654 24.84C106.022 24.2573 106.359 23.6287 106.666 22.954Z" transform="translate(0.500732 0.490234)" fill="#00073D"/>
<path d="M121.164 31.096C120.643 31.2493 120.29 31.3567 120.106 31.418C119.922 31.4487 119.646 31.464 119.278 31.464C118.082 31.464 117.546 31.0347 117.668 30.176C117.73 29.808 117.898 29.4247 118.174 29.026C118.481 28.6273 118.742 28.2747 118.956 27.968C119.232 27.5387 119.37 27.232 119.37 27.048C119.37 26.864 119.294 26.7567 119.14 26.726C119.018 26.6647 118.849 26.68 118.634 26.772C118.42 26.864 118.236 26.9713 118.082 27.094C117.776 27.278 117.362 27.6 116.84 28.06C116.35 28.52 115.798 28.9953 115.184 29.486C114.602 29.9767 114.004 30.406 113.39 30.774C112.777 31.142 112.21 31.326 111.688 31.326H111.55C111.213 31.2953 110.922 31.1727 110.676 30.958C110.431 30.7433 110.308 30.4367 110.308 30.038V29.992C110.37 29.3787 110.768 28.9953 111.504 28.842C111.995 28.8727 112.164 29.348 112.01 30.268C112.01 30.5747 112.118 30.728 112.332 30.728C112.578 30.728 112.9 30.5747 113.298 30.268C113.636 30.0227 114.004 29.7467 114.402 29.44C114.832 29.1027 115.276 28.7347 115.736 28.336C116.227 27.9373 116.564 27.646 116.748 27.462C116.932 27.2473 117.178 27.0173 117.484 26.772C117.239 26.8027 116.948 26.7873 116.61 26.726C116.273 26.634 115.936 26.4807 115.598 26.266C115.292 26.0513 115.016 25.7907 114.77 25.484C114.525 25.1467 114.356 24.748 114.264 24.288C114.142 23.6747 114.218 23.138 114.494 22.678C114.77 22.1873 115.138 21.7887 115.598 21.482C116.058 21.1753 116.549 20.9453 117.07 20.792C117.592 20.6387 118.021 20.562 118.358 20.562C119.278 20.562 119.892 20.792 120.198 21.252C120.505 21.712 120.612 22.264 120.52 22.908C120.428 23.5213 120.214 24.15 119.876 24.794C119.539 25.4073 119.186 25.8827 118.818 26.22C119.892 25.852 120.566 25.9287 120.842 26.45C121.118 26.9407 120.888 27.83 120.152 29.118C120.091 29.3327 120.03 29.486 119.968 29.578C119.907 29.67 119.861 29.762 119.83 29.854C119.738 30.4367 120.014 30.728 120.658 30.728C121.762 30.4213 122.759 29.946 123.648 29.302C124.538 28.658 125.488 27.876 126.5 26.956C126.562 26.8947 126.638 26.864 126.73 26.864C126.853 26.864 126.914 26.91 126.914 27.002C126.914 27.094 126.868 27.186 126.776 27.278C125.703 28.2287 124.722 29.026 123.832 29.67C122.943 30.314 122.054 30.7893 121.164 31.096ZM119.232 22.724C119.079 22.1107 118.818 21.712 118.45 21.528C118.082 21.344 117.776 21.252 117.53 21.252C116.702 21.252 116.074 21.482 115.644 21.942C115.215 22.402 115.077 22.9847 115.23 23.69C115.384 24.3647 115.644 24.932 116.012 25.392C116.411 25.8213 117.086 26.0973 118.036 26.22C118.527 25.6987 118.88 25.116 119.094 24.472C119.309 23.7973 119.355 23.2147 119.232 22.724Z" transform="translate(0.500732 0.490234)" fill="#00073D"/>
<path d="M142.354 31.74C142.324 31.74 142.262 31.7553 142.17 31.786C142.109 31.8473 142.002 31.8013 141.848 31.648C141.756 31.648 141.71 31.5713 141.71 31.418C141.71 31.326 141.756 31.2033 141.848 31.05C141.971 30.866 142.155 30.544 142.4 30.084C142.646 29.5933 142.983 28.9493 143.412 28.152C143.658 27.6 143.995 26.9407 144.424 26.174C144.854 25.3767 145.36 24.4873 145.942 23.506C145.544 23.8433 145.145 24.1653 144.746 24.472C144.378 24.7787 143.918 25.116 143.366 25.484L141.664 26.68C141.235 27.6 140.775 28.3513 140.284 28.934C139.824 29.486 139.318 29.946 138.766 30.314C138.214 30.682 137.616 30.9887 136.972 31.234C136.328 31.4793 135.623 31.74 134.856 32.016C134.55 32.0773 134.442 32.108 134.534 32.108C134.228 32.108 133.982 31.9853 133.798 31.74C133.614 31.4947 133.522 31.28 133.522 31.096C133.522 30.9733 133.568 30.82 133.66 30.636C133.722 30.4827 133.814 30.2987 133.936 30.084C134.059 29.8693 134.197 29.762 134.35 29.762C134.442 29.762 134.565 29.8847 134.718 30.13C134.872 30.4367 135.04 30.6973 135.224 30.912C135.439 31.096 135.7 31.188 136.006 31.188C136.405 31.188 136.804 31.0347 137.202 30.728C137.816 30.2987 138.383 29.6853 138.904 28.888C139.456 28.0907 139.962 27.14 140.422 26.036C140.76 25.024 140.928 24.288 140.928 23.828C140.928 22.8467 140.468 22.356 139.548 22.356C138.812 22.356 137.892 22.678 136.788 23.322C135.439 24.1807 134.841 24.4873 134.994 24.242C135.148 23.9967 135.914 23.46 137.294 22.632C138.429 21.988 139.426 21.666 140.284 21.666C141.787 21.666 142.538 22.402 142.538 23.874C142.538 24.0273 142.462 24.3493 142.308 24.84C142.186 25.3 142.078 25.668 141.986 25.944C142.232 25.7907 142.446 25.6373 142.63 25.484C142.845 25.3 143.075 25.1313 143.32 24.978C143.995 24.4567 144.516 24.0427 144.884 23.736C145.283 23.4293 145.59 23.184 145.804 23C146.05 22.7853 146.234 22.6013 146.356 22.448C146.51 22.2947 146.694 22.0953 146.908 21.85C146.97 21.7273 147.031 21.62 147.092 21.528L147.184 21.574L147.69 21.896C146.985 23.092 146.295 24.3187 145.62 25.576C144.976 26.8333 144.317 28.1213 143.642 29.44L143.366 29.946C143.857 29.5167 144.363 29.0873 144.884 28.658C145.406 28.198 145.927 27.784 146.448 27.416L147.184 26.864C147.215 26.8027 147.246 26.726 147.276 26.634C147.307 26.542 147.338 26.4653 147.368 26.404C148.472 24.2573 150.328 22.632 152.934 21.528C153.456 21.3747 153.747 21.298 153.808 21.298C154.514 21.298 155.05 21.712 155.418 22.54C155.48 22.8467 155.51 22.954 155.51 22.862C155.51 22.9847 155.434 23.1227 155.28 23.276C155.188 23.3987 155.096 23.506 155.004 23.598C154.912 23.6593 154.836 23.7207 154.774 23.782C154.621 23.9047 154.483 24.0273 154.36 24.15C154.238 24.242 154.161 24.2727 154.13 24.242C154.038 24.242 153.992 24.1807 153.992 24.058C153.992 23.9967 153.992 23.9353 153.992 23.874C154.023 23.782 154.038 23.69 154.038 23.598C154.038 22.8007 153.548 22.402 152.566 22.402C151.432 22.402 150.358 23.414 149.346 25.438C149.101 25.9593 148.886 26.496 148.702 27.048C148.518 27.6 148.396 28.1673 148.334 28.75V29.256C148.334 30.544 148.902 31.188 150.036 31.188C151.232 31.188 152.735 30.4213 154.544 28.888C155.158 28.3667 155.771 27.7993 156.384 27.186C156.998 26.5727 157.596 25.898 158.178 25.162C158.209 25.07 158.286 25.024 158.408 25.024C158.5 25.024 158.546 25.0547 158.546 25.116C158.546 25.1773 158.5 25.2693 158.408 25.392C155.863 28.4893 153.502 30.4827 151.324 31.372C150.496 31.7707 149.668 31.97 148.84 31.97C147.215 31.97 146.402 31.234 146.402 29.762C146.402 29.6393 146.464 29.3633 146.586 28.934C146.709 28.474 146.847 27.9987 147 27.508C146.908 27.5693 146.816 27.6307 146.724 27.692C146.632 27.7533 146.556 27.8147 146.494 27.876C145.85 28.3973 145.314 28.8267 144.884 29.164C144.486 29.5013 144.133 29.808 143.826 30.084C143.55 30.36 143.305 30.6053 143.09 30.82C142.906 31.0347 142.692 31.2647 142.446 31.51L142.354 31.74Z" transform="translate(0.500732 0.490234)" fill="#00073D"/>
<path d="M158.181 26.404C158.611 25.6373 159.055 24.8707 159.515 24.104C160.006 23.3067 160.466 22.5707 160.895 21.896C161.049 21.7733 161.294 21.666 161.631 21.574C161.999 21.482 162.245 21.436 162.367 21.436C162.521 21.436 162.597 21.4973 162.597 21.62C162.015 22.5093 161.447 23.414 160.895 24.334C160.343 25.2233 159.853 26.0513 159.423 26.818C159.025 27.554 158.703 28.2133 158.457 28.796C158.212 29.348 158.089 29.7467 158.089 29.992C158.089 30.2987 158.181 30.452 158.365 30.452C158.549 30.452 158.81 30.3293 159.147 30.084C159.515 29.808 159.914 29.4553 160.343 29.026C160.803 28.5967 161.263 28.1213 161.723 27.6C162.183 27.048 162.628 26.496 163.057 25.944C163.211 25.7293 163.395 25.4533 163.609 25.116C163.824 24.748 164.023 24.4107 164.207 24.104C164.422 23.7667 164.606 23.4907 164.759 23.276C164.943 23.0307 165.081 22.908 165.173 22.908C165.327 22.908 165.495 22.9693 165.679 23.092C165.863 23.184 165.955 23.2913 165.955 23.414C165.955 23.5367 165.894 23.69 165.771 23.874C165.649 24.058 165.495 24.2573 165.311 24.472C165.127 24.6867 164.928 24.9167 164.713 25.162C164.529 25.3767 164.376 25.5913 164.253 25.806C164.131 26.0207 163.947 26.3733 163.701 26.864C163.487 27.3547 163.272 27.8913 163.057 28.474C162.843 29.0567 162.659 29.624 162.505 30.176C162.352 30.728 162.275 31.188 162.275 31.556C162.275 31.9547 162.352 32.246 162.505 32.43C162.689 32.6447 163.027 32.752 163.517 32.752C164.131 32.752 164.759 32.5833 165.403 32.246C166.078 31.9393 166.722 31.6173 167.335 31.28C167.427 31.3107 167.489 31.372 167.519 31.464C167.55 31.5253 167.489 31.5867 167.335 31.648C166.415 32.1693 165.465 32.5987 164.483 32.936C163.533 33.304 162.674 33.488 161.907 33.488C160.957 33.488 160.481 33.1353 160.481 32.43C160.481 31.97 160.681 31.234 161.079 30.222C161.478 29.21 161.953 28.1673 162.505 27.094C162.352 27.3087 162.045 27.6613 161.585 28.152C161.156 28.6427 160.665 29.1487 160.113 29.67C159.561 30.1607 159.009 30.6053 158.457 31.004C157.905 31.4027 157.445 31.602 157.077 31.602C156.771 31.602 156.571 31.5253 156.479 31.372C156.387 31.188 156.341 30.9733 156.341 30.728C156.341 30.544 156.403 30.268 156.525 29.9C156.679 29.532 156.847 29.1333 157.031 28.704C157.215 28.2747 157.415 27.8607 157.629 27.462C157.844 27.0327 158.028 26.68 158.181 26.404Z" transform="translate(0.500732 0.490234)" fill="#00073D"/>
<path d="M195.077 2.576C195.077 4.048 193.528 6.348 190.431 9.476C187.333 12.5733 182.549 16.4373 176.079 21.068C175.803 21.3133 175.665 21.4667 175.665 21.528C176.339 21.9267 177.137 22.2333 178.057 22.448C179.007 22.632 179.973 22.724 180.955 22.724C181.445 22.724 181.982 22.6933 182.565 22.632C183.147 22.54 183.653 22.4173 184.083 22.264C184.236 22.2333 184.313 22.264 184.313 22.356C184.343 22.4173 184.282 22.4787 184.129 22.54C183.73 22.6933 183.178 22.8313 182.473 22.954C181.798 23.0767 181.169 23.138 180.587 23.138C180.004 23.138 179.36 23.1227 178.655 23.092C177.949 23.0307 177.29 22.9233 176.677 22.77C176.615 22.77 176.585 22.816 176.585 22.908C176.585 23 176.585 23.0767 176.585 23.138C176.585 23.8127 176.447 24.5027 176.171 25.208C175.895 25.9133 175.542 26.6033 175.113 27.278C174.714 27.922 174.254 28.52 173.733 29.072C173.211 29.624 172.705 30.084 172.215 30.452C171.663 30.8813 171.111 31.2187 170.559 31.464C170.037 31.6787 169.623 31.786 169.317 31.786C168.887 31.786 168.596 31.6633 168.443 31.418C168.32 31.142 168.259 30.82 168.259 30.452C168.259 30.0533 168.305 29.6393 168.397 29.21C168.519 28.7807 168.703 28.3053 168.949 27.784C169.225 27.232 169.547 26.6033 169.915 25.898C170.313 25.162 170.789 24.288 171.341 23.276C173.61 19.1053 175.787 15.5787 177.873 12.696C179.958 9.78267 181.89 7.42134 183.669 5.612C185.478 3.772 187.119 2.45333 188.591 1.656C190.063 0.828 191.335 0.414 192.409 0.414C193.267 0.414 193.927 0.613334 194.387 1.012C194.847 1.38 195.077 1.90134 195.077 2.576ZM193.651 3.68C193.651 2.17733 192.761 1.426 190.983 1.426C190.063 1.426 188.974 1.80933 187.717 2.576C186.459 3.34267 185.079 4.56933 183.577 6.256C182.074 7.912 180.464 10.0587 178.747 12.696C177.029 15.3027 175.251 18.446 173.411 22.126C173.319 22.31 173.319 22.3867 173.411 22.356C173.533 22.2947 173.625 22.2333 173.687 22.172C174.852 21.3747 176.155 20.47 177.597 19.458C179.069 18.446 180.541 17.3727 182.013 16.238C183.485 15.1033 184.911 13.9533 186.291 12.788C187.701 11.6227 188.943 10.488 190.017 9.384C191.121 8.24934 191.995 7.20667 192.639 6.256C193.313 5.27467 193.651 4.416 193.651 3.68ZM175.665 23.506C175.665 22.9847 175.496 22.678 175.159 22.586C174.821 22.4633 174.515 22.402 174.239 22.402C174.055 22.402 173.825 22.4787 173.549 22.632C173.303 22.7853 173.089 22.9693 172.905 23.184C172.659 23.552 172.368 24.0273 172.031 24.61C171.724 25.1927 171.417 25.806 171.111 26.45C170.835 27.0633 170.589 27.6613 170.375 28.244C170.191 28.8267 170.099 29.2713 170.099 29.578C170.099 30.0687 170.206 30.3753 170.421 30.498C170.635 30.59 170.804 30.636 170.927 30.636C171.172 30.636 171.555 30.4673 172.077 30.13C172.537 29.762 172.981 29.3173 173.411 28.796C173.871 28.2747 174.254 27.7227 174.561 27.14C174.898 26.5573 175.159 25.9593 175.343 25.346C175.557 24.7327 175.665 24.1193 175.665 23.506Z" transform="translate(0.500732 0.490234)" fill="#00073D"/>
<path d="M194.47 23.414C193.979 23.5673 193.443 23.7053 192.86 23.828C192.277 23.92 191.756 23.966 191.296 23.966C190.805 23.966 190.269 23.9507 189.686 23.92C189.103 23.8587 188.536 23.7667 187.984 23.644C187.8 24.932 187.417 26.0973 186.834 27.14C186.282 28.152 185.515 29.1487 184.534 30.13C183.307 31.2647 182.203 31.832 181.222 31.832C180.609 31.832 180.179 31.648 179.934 31.28C179.689 30.8813 179.566 30.406 179.566 29.854C179.566 29.4247 179.643 28.9187 179.796 28.336C179.949 27.7227 180.149 27.2167 180.394 26.818C180.731 26.2047 181.283 25.5607 182.05 24.886C182.817 24.2113 183.89 23.4293 185.27 22.54C185.699 22.264 186.037 22.0493 186.282 21.896C186.527 21.7427 186.711 21.62 186.834 21.528C186.957 21.436 187.033 21.39 187.064 21.39C187.125 21.3593 187.171 21.344 187.202 21.344C187.263 21.344 187.325 21.39 187.386 21.482C187.447 21.5433 187.509 21.6047 187.57 21.666C187.662 22.0647 187.861 22.3867 188.168 22.632C188.475 22.8773 188.827 23.0767 189.226 23.23C189.625 23.3527 190.023 23.4447 190.422 23.506C190.851 23.5367 191.235 23.552 191.572 23.552C192.001 23.552 192.477 23.5213 192.998 23.46C193.55 23.3987 194.041 23.3067 194.47 23.184C194.593 23.184 194.654 23.2147 194.654 23.276C194.685 23.3067 194.623 23.3527 194.47 23.414ZM186.512 24.15C186.512 23.874 186.481 23.5673 186.42 23.23C186.389 22.8927 186.221 22.724 185.914 22.724C185.669 22.724 185.408 22.816 185.132 23C183.905 23.7053 182.97 24.6713 182.326 25.898C181.682 27.094 181.36 28.382 181.36 29.762C181.36 30.1607 181.421 30.498 181.544 30.774C181.697 31.0193 181.897 31.142 182.142 31.142C182.725 31.142 183.277 30.8967 183.798 30.406C184.319 29.8847 184.779 29.256 185.178 28.52C185.577 27.784 185.899 27.0173 186.144 26.22C186.389 25.4227 186.512 24.7327 186.512 24.15Z" transform="translate(0.500732 0.490234)" fill="#00073D"/>
<path d="M204.238 30.222C203.87 30.6513 203.426 31.05 202.904 31.418C202.414 31.7553 201.877 32.0467 201.294 32.292C200.742 32.568 200.175 32.7827 199.592 32.936C199.04 33.0893 198.519 33.166 198.028 33.166C197.2 33.166 196.572 33.028 196.142 32.752C195.744 32.5067 195.544 31.9547 195.544 31.096C195.544 30.728 195.636 30.2833 195.82 29.762C196.004 29.21 196.25 28.5967 196.556 27.922C196.863 27.2473 197.2 26.542 197.568 25.806C197.936 25.0393 198.304 24.2727 198.672 23.506C198.795 23.1687 198.795 22.9693 198.672 22.908C198.58 22.816 198.427 22.8467 198.212 23C197.66 23.368 197.078 23.8433 196.464 24.426C195.851 25.0087 195.238 25.6527 194.624 26.358C194.042 27.0327 193.474 27.7687 192.922 28.566C192.401 29.3327 191.91 30.0993 191.45 30.866C191.297 31.1113 191.052 31.326 190.714 31.51C190.408 31.694 190.147 31.786 189.932 31.786C189.779 31.786 189.702 31.7093 189.702 31.556C189.856 31.2493 190.101 30.774 190.438 30.13C190.806 29.4553 191.174 28.7653 191.542 28.06C191.757 27.6613 191.987 27.2167 192.232 26.726C192.478 26.2353 192.723 25.7447 192.968 25.254C193.214 24.7327 193.428 24.2573 193.612 23.828C193.827 23.368 193.98 23 194.072 22.724C194.164 22.4787 194.318 22.2793 194.532 22.126C194.778 21.9727 195.13 21.7733 195.59 21.528C195.774 21.436 195.912 21.39 196.004 21.39C196.096 21.39 196.142 21.4513 196.142 21.574C196.142 21.666 196.081 21.8193 195.958 22.034C195.866 22.2487 195.713 22.5707 195.498 23C195.284 23.4293 194.992 23.9967 194.624 24.702C194.287 25.4073 193.873 26.2967 193.382 27.37C193.934 26.6953 194.532 26.0053 195.176 25.3C195.851 24.5947 196.51 23.9507 197.154 23.368C197.798 22.7853 198.381 22.31 198.902 21.942C199.454 21.574 199.884 21.39 200.19 21.39C200.282 21.39 200.42 21.482 200.604 21.666C200.788 21.85 200.88 22.0187 200.88 22.172C200.88 22.356 200.696 22.7393 200.328 23.322C199.96 23.9047 199.546 24.5947 199.086 25.392C198.657 26.1893 198.258 27.048 197.89 27.968C197.522 28.888 197.338 29.7773 197.338 30.636C197.338 31.28 197.461 31.7707 197.706 32.108C197.952 32.4453 198.427 32.614 199.132 32.614C199.531 32.614 199.96 32.5373 200.42 32.384C200.88 32.2307 201.325 32.016 201.754 31.74C202.184 31.4947 202.598 31.2187 202.996 30.912C203.395 30.6053 203.732 30.2987 204.008 29.992C204.131 29.8387 204.208 29.8233 204.238 29.946C204.3 30.0687 204.3 30.1607 204.238 30.222Z" transform="translate(0.500732 0.490234)" fill="#00073D"/>
<path d="M204.765 26.404C205.195 25.6373 205.639 24.8707 206.099 24.104C206.59 23.3067 207.05 22.5707 207.479 21.896C207.633 21.7733 207.878 21.666 208.215 21.574C208.583 21.482 208.829 21.436 208.951 21.436C209.105 21.436 209.181 21.4973 209.181 21.62C208.599 22.5093 208.031 23.414 207.479 24.334C206.927 25.2233 206.437 26.0513 206.007 26.818C205.609 27.554 205.287 28.2133 205.041 28.796C204.796 29.348 204.673 29.7467 204.673 29.992C204.673 30.2987 204.765 30.452 204.949 30.452C205.133 30.452 205.394 30.3293 205.731 30.084C206.099 29.808 206.498 29.4553 206.927 29.026C207.387 28.5967 207.847 28.1213 208.307 27.6C208.767 27.048 209.212 26.496 209.641 25.944C209.795 25.7293 209.979 25.4533 210.193 25.116C210.408 24.748 210.607 24.4107 210.791 24.104C211.006 23.7667 211.19 23.4907 211.343 23.276C211.527 23.0307 211.665 22.908 211.757 22.908C211.911 22.908 212.079 22.9693 212.263 23.092C212.447 23.184 212.539 23.2913 212.539 23.414C212.539 23.5367 212.478 23.69 212.355 23.874C212.233 24.058 212.079 24.2573 211.895 24.472C211.711 24.6867 211.512 24.9167 211.297 25.162C211.113 25.3767 210.96 25.5913 210.837 25.806C210.715 26.0207 210.531 26.3733 210.285 26.864C210.071 27.3547 209.856 27.8913 209.641 28.474C209.427 29.0567 209.243 29.624 209.089 30.176C208.936 30.728 208.859 31.188 208.859 31.556C208.859 31.9547 208.936 32.246 209.089 32.43C209.273 32.6447 209.611 32.752 210.101 32.752C210.715 32.752 211.343 32.5833 211.987 32.246C212.662 31.9393 213.306 31.6173 213.919 31.28C214.011 31.3107 214.073 31.372 214.103 31.464C214.134 31.5253 214.073 31.5867 213.919 31.648C212.999 32.1693 212.049 32.5987 211.067 32.936C210.117 33.304 209.258 33.488 208.491 33.488C207.541 33.488 207.065 33.1353 207.065 32.43C207.065 31.97 207.265 31.234 207.663 30.222C208.062 29.21 208.537 28.1673 209.089 27.094C208.936 27.3087 208.629 27.6613 208.169 28.152C207.74 28.6427 207.249 29.1487 206.697 29.67C206.145 30.1607 205.593 30.6053 205.041 31.004C204.489 31.4027 204.029 31.602 203.661 31.602C203.355 31.602 203.155 31.5253 203.063 31.372C202.971 31.188 202.925 30.9733 202.925 30.728C202.925 30.544 202.987 30.268 203.109 29.9C203.263 29.532 203.431 29.1333 203.615 28.704C203.799 28.2747 203.999 27.8607 204.213 27.462C204.428 27.0327 204.612 26.68 204.765 26.404Z" transform="translate(0.500732 0.490234)" fill="#00073D"/>
<path d="M226.113 26.45C225.867 26.6647 225.515 26.956 225.055 27.324C224.625 27.692 224.135 28.0907 223.583 28.52C223.031 28.9493 222.463 29.3787 221.881 29.808C221.329 30.2067 220.807 30.544 220.317 30.82C219.734 31.1573 219.182 31.4027 218.661 31.556C218.17 31.7093 217.71 31.786 217.281 31.786C215.778 31.786 215.027 31.05 215.027 29.578C215.027 29.2407 215.103 28.8113 215.257 28.29C215.441 27.738 215.655 27.232 215.901 26.772C216.361 25.8827 216.821 25.162 217.281 24.61C217.741 24.0273 218.231 23.552 218.753 23.184C219.305 22.7853 219.903 22.4633 220.547 22.218C221.191 21.942 221.911 21.6813 222.709 21.436C222.893 21.3747 223.031 21.344 223.123 21.344C223.307 21.344 223.506 21.5127 223.721 21.85C223.966 22.1567 224.089 22.402 224.089 22.586C224.089 22.77 223.981 23.0153 223.767 23.322C223.583 23.6287 223.414 23.828 223.261 23.92C223.077 23.4293 222.847 23.0307 222.571 22.724C222.325 22.4173 221.988 22.264 221.559 22.264C221.129 22.264 220.639 22.5093 220.087 23C219.535 23.46 219.013 24.0427 218.523 24.748C218.032 25.4533 217.618 26.2353 217.281 27.094C216.943 27.922 216.775 28.7193 216.775 29.486C216.775 29.9767 216.867 30.3753 217.051 30.682C217.265 30.958 217.587 31.096 218.017 31.096C218.446 31.096 218.86 31.0193 219.259 30.866C219.688 30.7127 220.194 30.4673 220.777 30.13C221.083 29.946 221.467 29.6853 221.927 29.348C222.387 29.0107 222.862 28.658 223.353 28.29C223.874 27.8913 224.365 27.508 224.825 27.14C225.315 26.7413 225.699 26.4193 225.975 26.174C226.128 26.0207 226.22 26.0053 226.251 26.128C226.281 26.22 226.235 26.3273 226.113 26.45Z" transform="translate(0.500732 0.490234)" fill="#00073D"/>
<path d="M228.631 30.636C228.57 30.6667 228.509 30.7127 228.447 30.774C228.846 30.774 229.352 30.636 229.965 30.36C230.609 30.0533 231.284 29.6393 231.989 29.118C232.725 28.5967 233.477 27.968 234.243 27.232C235.041 26.4653 235.792 25.6373 236.497 24.748C236.559 24.7173 236.635 24.702 236.727 24.702C236.819 24.6713 236.835 24.7787 236.773 25.024C235.792 26.22 234.841 27.232 233.921 28.06C233.032 28.8573 232.189 29.5013 231.391 29.992C230.594 30.4827 229.873 30.8353 229.229 31.05C228.585 31.234 228.049 31.3107 227.619 31.28C227.313 31.4333 227.021 31.556 226.745 31.648C226.469 31.7707 226.209 31.832 225.963 31.832H225.457C224.66 31.832 224.261 31.464 224.261 30.728C224.261 30.4827 224.338 30.1453 224.491 29.716C224.645 29.256 224.844 28.796 225.089 28.336C225.427 27.6307 225.764 26.956 226.101 26.312C226.469 25.6373 226.853 25.0087 227.251 24.426C227.527 23.9967 227.803 23.5673 228.079 23.138C228.355 22.7087 228.631 22.2793 228.907 21.85C228.969 21.7887 229.03 21.7427 229.091 21.712H228.999C229.061 21.5587 229.137 21.4207 229.229 21.298C229.321 21.1753 229.413 21.0373 229.505 20.884C229.567 20.8533 229.674 20.838 229.827 20.838C229.981 20.8073 230.134 20.8073 230.287 20.838C230.471 20.8687 230.625 20.9147 230.747 20.976C230.87 21.0067 230.931 21.0527 230.931 21.114C230.931 21.1447 230.87 21.252 230.747 21.436C230.655 21.62 230.533 21.8193 230.379 22.034C230.257 22.2487 230.134 22.448 230.011 22.632C229.889 22.816 229.812 22.9233 229.781 22.954C229.352 23.4753 228.923 24.0427 228.493 24.656C228.095 25.2693 227.727 25.8673 227.389 26.45C227.665 26.2967 227.957 26.128 228.263 25.944C228.57 25.76 228.923 25.5607 229.321 25.346C230.027 24.9473 230.456 24.7173 230.609 24.656C230.763 24.564 230.87 24.518 230.931 24.518C231.023 24.518 231.115 24.61 231.207 24.794C231.33 24.9473 231.422 25.1313 231.483 25.346C231.545 25.53 231.591 25.714 231.621 25.898C231.652 26.0513 231.637 26.128 231.575 26.128C231.299 27.508 230.701 28.6733 229.781 29.624L229.551 29.854L228.631 30.636ZM228.723 30.13L228.769 30.176C229.168 29.6853 229.536 29.0873 229.873 28.382C230.18 27.6767 230.333 27.048 230.333 26.496C230.333 26.2813 230.318 26.0667 230.287 25.852C230.257 25.6067 230.119 25.484 229.873 25.484C229.628 25.484 229.398 25.5453 229.183 25.668C228.171 26.1893 227.389 26.864 226.837 27.692C226.316 28.4893 226.055 29.3633 226.055 30.314C226.147 30.682 226.408 30.866 226.837 30.866C227.389 30.866 228.003 30.6667 228.677 30.268L228.723 30.13ZM227.205 31.188C227.205 31.4027 227.313 31.4333 227.527 31.28C227.466 31.2493 227.405 31.234 227.343 31.234C227.313 31.234 227.267 31.2187 227.205 31.188Z" transform="translate(0.500732 0.490234)" fill="#00073D"/>
</svg>
