<svg width="215" height="50" viewBox="0 0 215 50" fill="none" xmlns="http://www.w3.org/2000/svg">
<path d="M17.2518 7.98799C17.6505 8.04932 18.0645 8.17199 18.4938 8.35599C18.9538 8.53999 19.1992 8.70866 19.2298 8.86199C18.9845 8.80066 18.6778 8.75466 18.3098 8.72399C17.9418 8.69333 17.6812 8.67799 17.5278 8.67799C16.2092 8.67799 14.9212 8.95399 13.6638 9.50599C12.4372 10.058 11.2565 10.794 10.1218 11.714C9.01783 12.6033 7.9905 13.646 7.03983 14.842C6.11983 16.0073 5.3225 17.2187 4.64783 18.476C4.00383 19.7333 3.4825 20.9907 3.08383 22.248C2.71583 23.4747 2.53183 24.6093 2.53183 25.652C2.53183 27.4307 3.00716 28.8413 3.95783 29.884C4.9085 30.9267 6.48783 31.448 8.69583 31.448C10.1678 31.448 11.6552 31.172 13.1578 30.62C14.6605 30.0373 16.1172 29.2553 17.5278 28.274C18.9692 27.2927 20.3032 26.158 21.5298 24.87C22.7872 23.5513 23.8758 22.1407 24.7958 20.638C25.7158 19.1353 26.4365 17.5867 26.9578 15.992C27.5098 14.3973 27.7858 12.8333 27.7858 11.3C27.7858 10.472 27.6632 9.70533 27.4178 8.99999C27.1725 8.29466 26.8045 7.68133 26.3138 7.15999C25.8232 6.60799 25.1945 6.17866 24.4278 5.87199C23.6918 5.56533 22.8332 5.41199 21.8518 5.41199C20.7785 5.41199 19.7665 5.53466 18.8158 5.77999C17.8652 5.99466 17.0065 6.25533 16.2398 6.56199C16.0865 6.53133 16.0865 6.39333 16.2398 6.14799C17.0065 5.84132 18.0032 5.53466 19.2298 5.22799C20.4565 4.92133 21.7138 4.76799 23.0018 4.76799C25.3018 4.76799 27.0498 5.25866 28.2458 6.23999C29.4418 7.22133 30.0398 8.76999 30.0398 10.886C30.0398 12.2047 29.7178 13.646 29.0738 15.21C28.4605 16.774 27.6018 18.3533 26.4978 19.948C25.3938 21.5427 24.0905 23.0913 22.5878 24.594C21.1158 26.0967 19.5212 27.4307 17.8038 28.596C16.0865 29.7307 14.2925 30.6507 12.4218 31.356C10.5818 32.0613 8.74183 32.414 6.90183 32.414C4.60183 32.414 2.86916 31.8773 1.70383 30.804C0.569164 29.7307 0.00183105 28.2587 0.00183105 26.388C0.00183105 24.456 0.492498 22.4933 1.47383 20.5C2.48583 18.5067 3.78916 16.6513 5.38383 14.934C7.00916 13.2167 8.84916 11.7447 10.9038 10.518C12.9892 9.26066 15.1052 8.41733 17.2518 7.98799Z" fill="#00073D"/>
<path d="M37.5881 26.94C37.3428 27.1547 36.9901 27.446 36.5301 27.814C36.1008 28.182 35.6101 28.5807 35.0581 29.01C34.5061 29.4393 33.9388 29.8687 33.3561 30.298C32.8041 30.6967 32.2828 31.034 31.7921 31.31C31.2095 31.6473 30.6575 31.8927 30.1361 32.046C29.6455 32.1993 29.1855 32.276 28.7561 32.276C27.2535 32.276 26.5021 31.54 26.5021 30.068C26.5021 29.7307 26.5788 29.3013 26.7321 28.78C26.9161 28.228 27.1308 27.722 27.3761 27.262C27.8361 26.3727 28.2961 25.652 28.7561 25.1C29.2161 24.5173 29.7068 24.042 30.2281 23.674C30.7801 23.2753 31.3781 22.9533 32.0221 22.708C32.6661 22.432 33.3868 22.1713 34.1841 21.926C34.3681 21.8647 34.5061 21.834 34.5981 21.834C34.7821 21.834 34.9815 22.0027 35.1961 22.34C35.4415 22.6467 35.5641 22.892 35.5641 23.076C35.5641 23.26 35.4568 23.5053 35.2421 23.812C35.0581 24.1187 34.8895 24.318 34.7361 24.41C34.5521 23.9193 34.3221 23.5207 34.0461 23.214C33.8008 22.9073 33.4635 22.754 33.0341 22.754C32.6048 22.754 32.1141 22.9993 31.5621 23.49C31.0101 23.95 30.4888 24.5327 29.9981 25.238C29.5075 25.9433 29.0935 26.7253 28.7561 27.584C28.4188 28.412 28.2501 29.2093 28.2501 29.976C28.2501 30.4667 28.3421 30.8653 28.5261 31.172C28.7408 31.448 29.0628 31.586 29.4921 31.586C29.9215 31.586 30.3355 31.5093 30.7341 31.356C31.1635 31.2027 31.6695 30.9573 32.2521 30.62C32.5588 30.436 32.9421 30.1753 33.4021 29.838C33.8621 29.5007 34.3375 29.148 34.8281 28.78C35.3495 28.3813 35.8401 27.998 36.3001 27.63C36.7908 27.2313 37.1741 26.9093 37.4501 26.664C37.6035 26.5107 37.6955 26.4953 37.7261 26.618C37.7568 26.71 37.7108 26.8173 37.5881 26.94Z" fill="#00073D"/>
<path d="M42.4526 27.814C41.594 27.7527 40.8733 27.7067 40.2906 27.676C39.7386 27.6147 39.3093 27.584 39.0026 27.584C38.512 28.3813 38.0366 29.194 37.5766 30.022C37.1166 30.85 36.5953 31.6473 36.0126 32.414C35.7673 32.782 35.568 32.7513 35.4146 32.322C35.292 32.0767 35.2153 31.816 35.1846 31.54C35.154 31.264 35.2153 31.0033 35.3686 30.758C35.6753 30.1753 36.2733 29.2093 37.1626 27.86C37.5613 27.2773 37.8833 26.756 38.1286 26.296C38.374 25.8053 38.5886 25.3607 38.7726 24.962C38.9873 24.5327 39.202 24.1033 39.4166 23.674C39.6313 23.2447 39.9073 22.7693 40.2446 22.248C40.4593 21.9413 40.7353 21.926 41.0726 22.202C41.2566 22.3553 41.3486 22.4933 41.3486 22.616C41.3486 22.7693 41.3026 22.9073 41.2106 23.03C40.9653 23.4593 40.7046 23.9653 40.4286 24.548C40.1526 25.1307 39.7846 25.9433 39.3246 26.986C39.57 27.1087 39.9533 27.216 40.4746 27.308C41.0266 27.3693 41.732 27.4153 42.5906 27.446C42.7133 27.262 42.9126 26.9093 43.1886 26.388C43.4646 25.836 43.756 25.2687 44.0626 24.686C44.4 24.0727 44.7373 23.5053 45.0746 22.984C45.4426 22.432 45.78 22.064 46.0866 21.88C46.3626 21.7573 46.608 21.8033 46.8226 22.018C46.9453 22.2633 46.8993 22.5393 46.6846 22.846C45.8873 24.042 45.136 25.284 44.4306 26.572C43.7253 27.8293 43.204 28.9333 42.8666 29.884C42.56 30.712 42.5906 31.31 42.9586 31.678C43.3573 32.0153 44.0473 31.9387 45.0286 31.448C46.01 30.9267 47.022 30.2827 48.0646 29.516C49.1073 28.7187 49.9966 27.9213 50.7326 27.124C50.8553 27.0013 50.9626 26.986 51.0546 27.078C51.1466 27.1393 51.116 27.2467 50.9626 27.4C50.1653 28.1973 49.2453 28.9947 48.2026 29.792C47.1906 30.5587 46.2093 31.1873 45.2586 31.678C43.2346 32.7207 41.8546 32.9967 41.1186 32.506C40.4133 32.046 40.6433 30.8347 41.8086 28.872C41.9313 28.6573 42.0386 28.4733 42.1306 28.32C42.2533 28.136 42.3606 27.9673 42.4526 27.814Z" fill="#00073D"/>
<path d="M62.8615 23.904C62.3709 24.0573 61.8342 24.1953 61.2515 24.318C60.6689 24.41 60.1476 24.456 59.6875 24.456C59.1969 24.456 58.6602 24.4407 58.0775 24.41C57.4949 24.3487 56.9275 24.2567 56.3755 24.134C56.1915 25.422 55.8082 26.5873 55.2255 27.63C54.6735 28.642 53.9069 29.6387 52.9255 30.62C51.6989 31.7547 50.5949 32.322 49.6135 32.322C49.0002 32.322 48.5709 32.138 48.3256 31.77C48.0802 31.3713 47.9576 30.896 47.9576 30.344C47.9576 29.9147 48.0342 29.4087 48.1875 28.826C48.3409 28.2127 48.5402 27.7067 48.7855 27.308C49.1229 26.6947 49.6749 26.0507 50.4416 25.376C51.2082 24.7013 52.2815 23.9193 53.6615 23.03C54.0909 22.754 54.4282 22.5393 54.6735 22.386C54.9189 22.2327 55.1029 22.11 55.2255 22.018C55.3482 21.926 55.4249 21.88 55.4556 21.88C55.5169 21.8493 55.5629 21.834 55.5935 21.834C55.6549 21.834 55.7162 21.88 55.7775 21.972C55.8389 22.0333 55.9002 22.0947 55.9615 22.156C56.0535 22.5547 56.2529 22.8767 56.5596 23.122C56.8662 23.3673 57.2189 23.5667 57.6175 23.72C58.0162 23.8427 58.4149 23.9347 58.8135 23.996C59.2429 24.0267 59.6262 24.042 59.9636 24.042C60.3929 24.042 60.8682 24.0113 61.3895 23.95C61.9415 23.8887 62.4322 23.7967 62.8615 23.674C62.9842 23.674 63.0456 23.7047 63.0456 23.766C63.0762 23.7967 63.0149 23.8427 62.8615 23.904ZM54.9035 24.64C54.9035 24.364 54.8729 24.0573 54.8116 23.72C54.7809 23.3827 54.6122 23.214 54.3055 23.214C54.0602 23.214 53.7995 23.306 53.5235 23.49C52.2969 24.1953 51.3615 25.1613 50.7175 26.388C50.0735 27.584 49.7515 28.872 49.7515 30.252C49.7515 30.6507 49.8129 30.988 49.9356 31.264C50.0889 31.5093 50.2882 31.632 50.5336 31.632C51.1162 31.632 51.6682 31.3867 52.1895 30.896C52.7109 30.3747 53.1709 29.746 53.5695 29.01C53.9682 28.274 54.2902 27.5073 54.5355 26.71C54.7809 25.9127 54.9035 25.2227 54.9035 24.64Z" fill="#00073D"/>
<path d="M86.1537 3.06599C86.1537 4.53799 84.6051 6.83799 81.5077 9.96599C78.4104 13.0633 73.6264 16.9273 67.1557 21.558C66.8797 21.8033 66.7417 21.9567 66.7417 22.018C67.4164 22.4167 68.2137 22.7233 69.1337 22.938C70.0844 23.122 71.0504 23.214 72.0317 23.214C72.5224 23.214 73.0591 23.1833 73.6417 23.122C74.2244 23.03 74.7304 22.9073 75.1597 22.754C75.3131 22.7233 75.3897 22.754 75.3897 22.846C75.4204 22.9073 75.3591 22.9687 75.2057 23.03C74.8071 23.1833 74.2551 23.3213 73.5497 23.444C72.8751 23.5667 72.2464 23.628 71.6637 23.628C71.0811 23.628 70.4371 23.6127 69.7317 23.582C69.0264 23.5207 68.3671 23.4133 67.7537 23.26C67.6924 23.26 67.6617 23.306 67.6617 23.398C67.6617 23.49 67.6617 23.5667 67.6617 23.628C67.6617 24.3027 67.5237 24.9927 67.2477 25.698C66.9717 26.4033 66.6191 27.0933 66.1897 27.768C65.7911 28.412 65.3311 29.01 64.8097 29.562C64.2884 30.114 63.7824 30.574 63.2917 30.942C62.7397 31.3713 62.1877 31.7087 61.6357 31.954C61.1144 32.1687 60.7004 32.276 60.3937 32.276C59.9644 32.276 59.6731 32.1533 59.5197 31.908C59.3971 31.632 59.3357 31.31 59.3357 30.942C59.3357 30.5433 59.3817 30.1293 59.4737 29.7C59.5964 29.2707 59.7804 28.7953 60.0257 28.274C60.3017 27.722 60.6237 27.0933 60.9917 26.388C61.3904 25.652 61.8657 24.778 62.4177 23.766C64.6871 19.5953 66.8644 16.0687 68.9497 13.186C71.0351 10.2727 72.9671 7.91133 74.7457 6.10199C76.5551 4.26199 78.1957 2.94332 79.6677 2.14599C81.1397 1.31799 82.4124 0.90399 83.4857 0.90399C84.3444 0.90399 85.0037 1.10332 85.4637 1.50199C85.9237 1.86999 86.1537 2.39133 86.1537 3.06599ZM84.7277 4.16999C84.7277 2.66732 83.8384 1.91599 82.0597 1.91599C81.1397 1.91599 80.0511 2.29933 78.7937 3.06599C77.5364 3.83266 76.1564 5.05932 74.6537 6.74599C73.1511 8.40199 71.5411 10.5487 69.8237 13.186C68.1064 15.7927 66.3277 18.936 64.4877 22.616C64.3957 22.8 64.3957 22.8767 64.4877 22.846C64.6104 22.7847 64.7024 22.7233 64.7637 22.662C65.9291 21.8647 67.2324 20.96 68.6737 19.948C70.1457 18.936 71.6177 17.8627 73.0897 16.728C74.5617 15.5933 75.9877 14.4433 77.3677 13.278C78.7784 12.1127 80.0204 10.978 81.0937 9.87399C82.1977 8.73933 83.0717 7.69666 83.7157 6.74599C84.3904 5.76466 84.7277 4.90599 84.7277 4.16999ZM66.7417 23.996C66.7417 23.4747 66.5731 23.168 66.2357 23.076C65.8984 22.9533 65.5917 22.892 65.3157 22.892C65.1317 22.892 64.9017 22.9687 64.6257 23.122C64.3804 23.2753 64.1657 23.4593 63.9817 23.674C63.7364 24.042 63.4451 24.5173 63.1077 25.1C62.8011 25.6827 62.4944 26.296 62.1877 26.94C61.9117 27.5533 61.6664 28.1513 61.4517 28.734C61.2677 29.3167 61.1757 29.7613 61.1757 30.068C61.1757 30.5587 61.2831 30.8653 61.4977 30.988C61.7124 31.08 61.8811 31.126 62.0037 31.126C62.2491 31.126 62.6324 30.9573 63.1537 30.62C63.6137 30.252 64.0584 29.8073 64.4877 29.286C64.9477 28.7647 65.3311 28.2127 65.6377 27.63C65.9751 27.0473 66.2357 26.4493 66.4197 25.836C66.6344 25.2227 66.7417 24.6093 66.7417 23.996Z" fill="#00073D"/>
<path d="M89.1811 25.606C88.1078 26.894 87.0651 27.9673 86.0531 28.826C85.0411 29.6847 84.1058 30.3747 83.2471 30.896C82.3884 31.4173 81.6371 31.7853 80.9931 32C80.3491 32.2147 79.8431 32.322 79.4751 32.322C78.6778 32.322 78.2791 31.954 78.2791 31.218C78.2791 30.9727 78.3558 30.6353 78.5091 30.206C78.6624 29.746 78.8618 29.286 79.1071 28.826C79.2604 28.458 79.4904 28.0287 79.7971 27.538L79.9351 27.308L79.8431 27.354C79.3218 27.8753 78.7391 28.412 78.0951 28.964C77.4818 29.516 76.8531 30.0067 76.2091 30.436C75.9944 30.5587 75.7951 30.666 75.6111 30.758C75.4578 30.85 75.3044 30.9267 75.1511 30.988C75.0591 31.08 74.9978 31.126 74.9671 31.126C74.4764 31.4633 73.9858 31.7547 73.4951 32C73.0351 32.2147 72.6364 32.322 72.2991 32.322H71.7931C70.9958 32.322 70.5971 31.954 70.5971 31.218C70.5971 30.9727 70.6738 30.6353 70.8271 30.206C70.9804 29.746 71.1798 29.286 71.4251 28.826C72.0998 27.354 72.8204 26.0353 73.5871 24.87C74.3538 23.7047 75.1051 22.5393 75.8411 21.374C75.9024 21.3433 76.0098 21.328 76.1631 21.328C76.3164 21.2973 76.4698 21.2973 76.6231 21.328C76.8071 21.3587 76.9604 21.4047 77.0831 21.466C77.2058 21.4967 77.2671 21.5427 77.2671 21.604C77.2671 21.6347 77.2058 21.742 77.0831 21.926C76.9911 22.11 76.8684 22.3093 76.7151 22.524C76.5924 22.7387 76.4698 22.938 76.3471 23.122C76.2244 23.306 76.1478 23.4133 76.1171 23.444C75.6878 23.9653 75.2584 24.5327 74.8291 25.146C74.4304 25.7593 74.0624 26.3573 73.7251 26.94C74.0011 26.7867 74.2924 26.618 74.5991 26.434C74.9058 26.25 75.2584 26.0507 75.6571 25.836C76.3624 25.4373 76.7918 25.2073 76.9451 25.146C77.0984 25.054 77.2058 25.008 77.2671 25.008C77.3591 25.008 77.4511 25.1 77.5431 25.284C77.6658 25.4373 77.7578 25.6213 77.8191 25.836C77.8804 26.02 77.9264 26.204 77.9571 26.388C77.9878 26.5413 77.9724 26.618 77.9111 26.618C77.6658 27.814 77.1598 28.872 76.3931 29.792L76.9911 29.424C77.4204 29.0867 77.8958 28.6727 78.4171 28.182C78.9691 27.6607 79.5211 27.1087 80.0731 26.526C80.2264 26.3727 80.3644 26.2347 80.4871 26.112C80.6404 25.9587 80.7784 25.8053 80.9011 25.652C80.9931 25.4987 81.0851 25.3607 81.1771 25.238C81.2691 25.0847 81.3458 24.9467 81.4071 24.824C81.5604 24.6093 81.6831 24.4253 81.7751 24.272C81.8978 24.088 82.0051 23.9347 82.0971 23.812C82.1584 23.72 82.2351 23.582 82.3271 23.398C82.4498 23.214 82.5724 23.03 82.6951 22.846C82.8484 22.6313 82.9864 22.4473 83.1091 22.294C83.2624 22.1407 83.3851 22.064 83.4771 22.064C83.6611 22.064 83.7838 22.202 83.8451 22.478C83.9371 22.7233 83.9831 22.9227 83.9831 23.076C83.9831 23.1987 83.9218 23.3213 83.7991 23.444C83.3084 24.0573 82.8331 24.7167 82.3731 25.422C81.9438 26.0967 81.5451 26.7713 81.1771 27.446C80.8398 28.09 80.5638 28.688 80.3491 29.24C80.1344 29.7613 80.0271 30.16 80.0271 30.436C80.0271 31.0493 80.3031 31.356 80.8551 31.356C81.2538 31.356 81.7598 31.218 82.3731 30.942C83.0171 30.6353 83.6918 30.2213 84.3971 29.7C85.1331 29.1787 85.8844 28.55 86.6511 27.814C87.4484 27.0473 88.1998 26.2193 88.9051 25.33C88.9664 25.2993 89.0431 25.284 89.1351 25.284C89.2271 25.2533 89.2424 25.3607 89.1811 25.606ZM76.6691 26.986C76.6691 26.7713 76.6538 26.5567 76.6231 26.342C76.5924 26.0967 76.4544 25.974 76.2091 25.974C75.9638 25.974 75.7338 26.0353 75.5191 26.158C74.5071 26.6793 73.7251 27.354 73.1731 28.182C72.6518 28.9793 72.3911 29.8533 72.3911 30.804C72.4831 31.172 72.7438 31.356 73.1731 31.356C73.5411 31.356 74.0164 31.2333 74.5991 30.988C74.5684 30.9573 74.5838 30.9113 74.6451 30.85C74.7064 30.758 74.8291 30.62 75.0131 30.436L75.5651 29.884C75.6878 29.7613 75.7798 29.6387 75.8411 29.516V29.608L76.2091 28.872C76.5158 28.1667 76.6691 27.538 76.6691 26.986Z" fill="#00073D"/>
<path d="M97.8043 28.412C97.6816 28.2893 97.5896 28.1667 97.5283 28.044C97.4976 27.8907 97.4056 27.9367 97.2523 28.182C96.8843 28.7647 96.547 29.3167 96.2403 29.838C95.9336 30.3287 95.6423 30.7887 95.3663 31.218C95.213 31.4633 94.9676 31.6933 94.6303 31.908C94.3236 32.092 94.017 32.2453 93.7103 32.368C93.5263 32.368 93.4343 32.3067 93.4343 32.184C93.4343 32.0613 93.4803 31.9233 93.5723 31.77C94.247 30.666 95.075 29.3167 96.0563 27.722C97.0376 26.0967 98.0343 24.4407 99.0463 22.754C100.058 21.0673 101.024 19.488 101.944 18.016C102.895 16.544 103.662 15.394 104.244 14.566C105.072 13.4007 105.931 12.2353 106.82 11.07C107.74 9.87399 108.676 8.73932 109.626 7.66599C110.577 6.56199 111.558 5.53466 112.57 4.58399C113.582 3.60266 114.61 2.75933 115.652 2.05399C116.327 1.59399 117.063 1.22599 117.86 0.949993C118.688 0.643324 119.455 0.48999 120.16 0.48999C120.804 0.48999 121.341 0.597324 121.77 0.811992C122.2 1.02666 122.537 1.28733 122.782 1.59399C123.058 1.86999 123.242 2.16133 123.334 2.46799C123.457 2.74399 123.518 2.94333 123.518 3.06599C123.518 3.24999 123.457 3.35733 123.334 3.38799C123.212 3.41866 123.15 3.37266 123.15 3.24999C123.15 3.09666 123.135 2.98932 123.104 2.92799C123.104 2.86666 123.012 2.75933 122.828 2.60599C122 2.08466 120.881 1.82399 119.47 1.82399C117.968 1.82399 116.542 2.25333 115.192 3.11199C113.843 3.93999 112.57 4.99799 111.374 6.28599C110.178 7.54333 109.059 8.93866 108.016 10.472C107.004 11.9747 106.084 13.3853 105.256 14.704C104.766 15.5013 104.198 16.4367 103.554 17.51C102.941 18.5833 102.343 19.6107 101.76 20.592C101.208 21.5733 100.733 22.4167 100.334 23.122C99.9663 23.8273 99.767 24.226 99.7363 24.318C99.5216 24.7473 99.583 24.7933 99.9203 24.456C100.196 24.18 100.518 23.904 100.886 23.628C101.254 23.3213 101.622 23.0607 101.99 22.846C102.358 22.6007 102.726 22.4013 103.094 22.248C103.462 22.0947 103.8 22.018 104.106 22.018C104.628 22.018 104.888 22.2327 104.888 22.662C104.888 22.9687 104.781 23.3213 104.566 23.72C104.352 24.088 104.137 24.41 103.922 24.686C103.34 25.422 102.65 26.02 101.852 26.48C101.086 26.9093 100.258 27.262 99.3683 27.538C99.215 27.5993 99.1536 27.6607 99.1843 27.722C99.215 27.7527 99.261 27.8293 99.3223 27.952C100.426 29.792 101.622 31.6933 102.91 33.656C104.229 35.6493 105.655 37.4587 107.188 39.084C108.722 40.7093 110.378 42.0433 112.156 43.086C113.935 44.1593 115.867 44.696 117.952 44.696C119.056 44.696 120.222 44.512 121.448 44.144C122.706 43.776 123.81 43.1627 124.76 42.304C124.883 42.1813 124.975 42.1507 125.036 42.212C125.128 42.304 125.113 42.4113 124.99 42.534C123.856 43.5153 122.583 44.1747 121.172 44.512C119.762 44.88 118.412 45.064 117.124 45.064C115.346 45.064 113.644 44.6807 112.018 43.914C110.393 43.178 108.814 42.1353 107.28 40.786C105.778 39.4367 104.306 37.8267 102.864 35.956C101.423 34.0853 100.012 32.046 98.6323 29.838L97.8043 28.412ZM103.278 23.536C103.278 23.3827 103.217 23.26 103.094 23.168C103.002 23.0453 102.895 22.984 102.772 22.984C102.496 22.984 102.082 23.1833 101.53 23.582C101.009 23.95 100.472 24.3793 99.9203 24.87C99.399 25.3607 98.939 25.8513 98.5403 26.342C98.1416 26.802 97.9423 27.1393 97.9423 27.354C97.9423 27.446 97.9883 27.492 98.0803 27.492C98.479 27.492 98.9696 27.3693 99.5523 27.124C100.166 26.848 100.748 26.526 101.3 26.158C101.852 25.7593 102.312 25.33 102.68 24.87C103.079 24.41 103.278 23.9653 103.278 23.536Z" fill="#00073D"/>
<path d="M119.643 23.904C119.152 24.0573 118.615 24.1953 118.033 24.318C117.45 24.41 116.929 24.456 116.469 24.456C115.978 24.456 115.441 24.4407 114.859 24.41C114.276 24.3487 113.709 24.2567 113.157 24.134C112.973 25.422 112.589 26.5873 112.007 27.63C111.455 28.642 110.688 29.6387 109.707 30.62C108.48 31.7547 107.376 32.322 106.395 32.322C105.781 32.322 105.352 32.138 105.107 31.77C104.861 31.3713 104.739 30.896 104.739 30.344C104.739 29.9147 104.815 29.4087 104.969 28.826C105.122 28.2127 105.321 27.7067 105.567 27.308C105.904 26.6947 106.456 26.0507 107.223 25.376C107.989 24.7013 109.063 23.9193 110.443 23.03C110.872 22.754 111.209 22.5393 111.455 22.386C111.7 22.2327 111.884 22.11 112.007 22.018C112.129 21.926 112.206 21.88 112.237 21.88C112.298 21.8493 112.344 21.834 112.375 21.834C112.436 21.834 112.497 21.88 112.559 21.972C112.62 22.0333 112.681 22.0947 112.743 22.156C112.835 22.5547 113.034 22.8767 113.341 23.122C113.647 23.3673 114 23.5667 114.399 23.72C114.797 23.8427 115.196 23.9347 115.595 23.996C116.024 24.0267 116.407 24.042 116.745 24.042C117.174 24.042 117.649 24.0113 118.171 23.95C118.723 23.8887 119.213 23.7967 119.643 23.674C119.765 23.674 119.827 23.7047 119.827 23.766C119.857 23.7967 119.796 23.8427 119.643 23.904ZM111.685 24.64C111.685 24.364 111.654 24.0573 111.593 23.72C111.562 23.3827 111.393 23.214 111.087 23.214C110.841 23.214 110.581 23.306 110.305 23.49C109.078 24.1953 108.143 25.1613 107.499 26.388C106.855 27.584 106.533 28.872 106.533 30.252C106.533 30.6507 106.594 30.988 106.717 31.264C106.87 31.5093 107.069 31.632 107.315 31.632C107.897 31.632 108.449 31.3867 108.971 30.896C109.492 30.3747 109.952 29.746 110.351 29.01C110.749 28.274 111.071 27.5073 111.317 26.71C111.562 25.9127 111.685 25.2227 111.685 24.64Z" fill="#00073D"/>
<path d="M124.259 26.48C124.014 26.9093 123.768 27.3387 123.523 27.768C123.278 28.1667 123.063 28.5653 122.879 28.964C122.756 29.24 122.695 29.516 122.695 29.792C122.695 30.0373 122.787 30.16 122.971 30.16C123.155 30.16 123.416 30.0373 123.753 29.792C124.366 29.3627 124.918 28.8873 125.409 28.366C125.93 27.8447 126.452 27.308 126.973 26.756C127.372 26.296 127.709 25.8667 127.985 25.468C128.261 25.0387 128.568 24.594 128.905 24.134C129.12 23.8273 129.334 23.5207 129.549 23.214C129.764 22.8767 129.978 22.6007 130.193 22.386C130.285 22.294 130.362 22.202 130.423 22.11C130.515 22.018 130.638 21.972 130.791 21.972H131.159C131.374 21.972 131.512 22.0487 131.573 22.202C131.573 22.3247 131.496 22.4627 131.343 22.616C130.73 23.536 130.116 24.4407 129.503 25.33C128.92 26.2193 128.445 27.0167 128.077 27.722C127.525 28.8567 127.08 30.0067 126.743 31.172C126.712 31.3253 126.682 31.4633 126.651 31.586C126.651 31.678 126.651 31.7547 126.651 31.816C126.651 32.3373 126.912 32.598 127.433 32.598C127.494 32.598 127.678 32.5673 127.985 32.506C129.089 32.1993 130.086 31.724 130.975 31.08C131.864 30.436 132.815 29.654 133.827 28.734C133.888 28.6727 133.965 28.642 134.057 28.642C134.18 28.642 134.241 28.688 134.241 28.78C134.241 28.872 134.195 28.964 134.103 29.056C133.03 30.0067 132.048 30.804 131.159 31.448C130.27 32.092 129.38 32.5673 128.491 32.874C127.663 33.15 126.973 33.288 126.421 33.288C125.47 33.288 124.995 32.8893 124.995 32.092C124.995 31.7547 125.072 31.4173 125.225 31.08C125.378 30.712 125.532 30.39 125.685 30.114C125.93 29.6847 126.145 29.2707 126.329 28.872C126.544 28.4733 126.712 28.1513 126.835 27.906C126.835 27.8447 126.835 27.814 126.835 27.814C126.866 27.7833 126.881 27.7527 126.881 27.722C126.881 27.6607 126.85 27.63 126.789 27.63C126.697 27.63 126.605 27.6913 126.513 27.814C125.716 28.642 124.903 29.378 124.075 30.022C123.768 30.2673 123.477 30.436 123.201 30.528C122.925 30.62 122.664 30.666 122.419 30.666H122.327C122.02 30.6353 121.76 30.5433 121.545 30.39C121.361 30.206 121.269 29.9453 121.269 29.608V29.562C121.3 29.3167 121.315 29.194 121.315 29.194C121.346 29.1633 121.453 29.01 121.637 28.734C122.036 28.0287 122.404 27.354 122.741 26.71C123.109 26.066 123.385 25.5447 123.569 25.146C123.753 24.7167 123.83 24.4407 123.799 24.318C123.799 24.1953 123.646 24.2873 123.339 24.594C123.032 24.9007 122.557 25.468 121.913 26.296C121.3 27.124 120.472 28.274 119.429 29.746C119.03 30.2367 118.662 30.6507 118.325 30.988C117.988 31.3253 117.696 31.6013 117.451 31.816C116.47 32.6133 115.688 33.012 115.105 33.012C114.614 33.012 114.369 32.736 114.369 32.184C114.369 32.0307 114.384 31.8467 114.415 31.632C114.446 31.3867 114.538 31.1413 114.691 30.896C114.906 30.5893 115.105 30.4207 115.289 30.39C115.473 30.3593 115.626 30.39 115.749 30.482C115.902 30.574 116.025 30.712 116.117 30.896C116.209 31.08 116.255 31.2333 116.255 31.356C116.255 31.632 116.347 31.77 116.531 31.77C116.991 31.77 117.788 31.0187 118.923 29.516C119.138 29.24 119.429 28.8413 119.797 28.32C120.196 27.7987 120.594 27.262 120.993 26.71C121.422 26.158 121.806 25.652 122.143 25.192C122.48 24.7013 122.71 24.3487 122.833 24.134C123.14 23.766 123.37 23.4287 123.523 23.122C123.707 22.7847 123.891 22.5087 124.075 22.294C124.259 22.0487 124.504 21.8647 124.811 21.742C125.118 21.5887 125.547 21.512 126.099 21.512H126.467C126.682 21.512 126.82 21.5887 126.881 21.742C126.881 21.8647 126.804 22.0027 126.651 22.156C126.038 23.076 125.578 23.858 125.271 24.502C124.964 25.1153 124.627 25.7747 124.259 26.48Z" fill="#00073D"/>
<path d="M147.694 30.712C147.326 31.1413 146.882 31.54 146.36 31.908C145.87 32.2453 145.333 32.5367 144.75 32.782C144.198 33.058 143.631 33.2727 143.048 33.426C142.496 33.5793 141.975 33.656 141.484 33.656C140.656 33.656 140.028 33.518 139.598 33.242C139.2 32.9967 139 32.4447 139 31.586C139 31.218 139.092 30.7733 139.276 30.252C139.46 29.7 139.706 29.0867 140.012 28.412C140.319 27.7373 140.656 27.032 141.024 26.296C141.392 25.5293 141.76 24.7627 142.128 23.996C142.251 23.6587 142.251 23.4593 142.128 23.398C142.036 23.306 141.883 23.3367 141.668 23.49C141.116 23.858 140.534 24.3333 139.92 24.916C139.307 25.4987 138.694 26.1427 138.08 26.848C137.498 27.5227 136.93 28.2587 136.378 29.056C135.857 29.8227 135.366 30.5893 134.906 31.356C134.753 31.6013 134.508 31.816 134.17 32C133.864 32.184 133.603 32.276 133.388 32.276C133.235 32.276 133.158 32.1993 133.158 32.046C133.312 31.7393 133.557 31.264 133.894 30.62C134.262 29.9453 134.63 29.2553 134.998 28.55C135.213 28.1513 135.443 27.7067 135.688 27.216C135.934 26.7253 136.179 26.2347 136.424 25.744C136.67 25.2227 136.884 24.7473 137.068 24.318C137.283 23.858 137.436 23.49 137.528 23.214C137.62 22.9687 137.774 22.7693 137.988 22.616C138.234 22.4627 138.586 22.2633 139.046 22.018C139.23 21.926 139.368 21.88 139.46 21.88C139.552 21.88 139.598 21.9413 139.598 22.064C139.598 22.156 139.537 22.3093 139.414 22.524C139.322 22.7387 139.169 23.0607 138.954 23.49C138.74 23.9193 138.448 24.4867 138.08 25.192C137.743 25.8973 137.329 26.7867 136.838 27.86C137.39 27.1853 137.988 26.4953 138.632 25.79C139.307 25.0847 139.966 24.4407 140.61 23.858C141.254 23.2753 141.837 22.8 142.358 22.432C142.91 22.064 143.34 21.88 143.646 21.88C143.738 21.88 143.876 21.972 144.06 22.156C144.244 22.34 144.336 22.5087 144.336 22.662C144.336 22.846 144.152 23.2293 143.784 23.812C143.416 24.3947 143.002 25.0847 142.542 25.882C142.113 26.6793 141.714 27.538 141.346 28.458C140.978 29.378 140.794 30.2673 140.794 31.126C140.794 31.77 140.917 32.2607 141.162 32.598C141.408 32.9353 141.883 33.104 142.588 33.104C142.987 33.104 143.416 33.0273 143.876 32.874C144.336 32.7207 144.781 32.506 145.21 32.23C145.64 31.9847 146.054 31.7087 146.452 31.402C146.851 31.0953 147.188 30.7887 147.464 30.482C147.587 30.3287 147.664 30.3133 147.694 30.436C147.756 30.5587 147.756 30.6507 147.694 30.712Z" fill="#00073D"/>
<path d="M161.285 23.904C160.795 24.0573 160.258 24.1953 159.675 24.318C159.093 24.41 158.571 24.456 158.111 24.456C157.621 24.456 157.084 24.4407 156.501 24.41C155.919 24.3487 155.351 24.2567 154.799 24.134C154.615 25.422 154.232 26.5873 153.649 27.63C153.097 28.642 152.331 29.6387 151.349 30.62C150.123 31.7547 149.019 32.322 148.037 32.322C147.424 32.322 146.995 32.138 146.749 31.77C146.504 31.3713 146.381 30.896 146.381 30.344C146.381 29.9147 146.458 29.4087 146.611 28.826C146.765 28.2127 146.964 27.7067 147.209 27.308C147.547 26.6947 148.099 26.0507 148.865 25.376C149.632 24.7013 150.705 23.9193 152.085 23.03C152.515 22.754 152.852 22.5393 153.097 22.386C153.343 22.2327 153.527 22.11 153.649 22.018C153.772 21.926 153.849 21.88 153.879 21.88C153.941 21.8493 153.987 21.834 154.017 21.834C154.079 21.834 154.14 21.88 154.201 21.972C154.263 22.0333 154.324 22.0947 154.385 22.156C154.477 22.5547 154.677 22.8767 154.983 23.122C155.29 23.3673 155.643 23.5667 156.041 23.72C156.44 23.8427 156.839 23.9347 157.237 23.996C157.667 24.0267 158.05 24.042 158.387 24.042C158.817 24.042 159.292 24.0113 159.813 23.95C160.365 23.8887 160.856 23.7967 161.285 23.674C161.408 23.674 161.469 23.7047 161.469 23.766C161.5 23.7967 161.439 23.8427 161.285 23.904ZM153.327 24.64C153.327 24.364 153.297 24.0573 153.235 23.72C153.205 23.3827 153.036 23.214 152.729 23.214C152.484 23.214 152.223 23.306 151.947 23.49C150.721 24.1953 149.785 25.1613 149.141 26.388C148.497 27.584 148.175 28.872 148.175 30.252C148.175 30.6507 148.237 30.988 148.359 31.264C148.513 31.5093 148.712 31.632 148.957 31.632C149.54 31.632 150.092 31.3867 150.613 30.896C151.135 30.3747 151.595 29.746 151.993 29.01C152.392 28.274 152.714 27.5073 152.959 26.71C153.205 25.9127 153.327 25.2227 153.327 24.64Z" fill="#00073D"/>
<path d="M170.778 28.596C170.778 28.78 170.686 28.8873 170.502 28.918C169.98 29.2247 169.382 29.5773 168.708 29.976C168.064 30.344 167.343 30.7427 166.546 31.172C166.546 31.5093 166.484 31.9847 166.362 32.598C165.687 35.2047 164.322 37.8267 162.268 40.464C161.286 41.7827 160.244 42.9633 159.14 44.006C158.036 45.0793 156.901 46.0147 155.736 46.812C153.374 48.4373 151.32 49.25 149.572 49.25C148.652 49.25 147.931 49.0353 147.41 48.606C146.858 48.2073 146.582 47.686 146.582 47.042C146.582 45.386 147.87 43.4233 150.446 41.154C152.684 39.2833 156.686 36.554 162.452 32.966C162.513 32.9353 162.774 32.782 163.234 32.506C163.724 32.23 164.445 31.8313 165.396 31.31C165.58 31.0033 165.672 30.5127 165.672 29.838C165.672 29.0713 165.135 28.688 164.062 28.688C163.51 28.688 163.019 28.8873 162.59 29.286C161.915 29.8687 161.378 30.16 160.98 30.16C160.704 30.16 160.566 30.0527 160.566 29.838C160.566 29.562 161.072 29.2553 162.084 28.918L162.682 28.688C164.828 26.7253 166.73 24.732 168.386 22.708C165.932 24.088 164 24.778 162.59 24.778C161.578 24.778 161.072 24.502 161.072 23.95C161.072 23.4593 161.363 22.7847 161.946 21.926L162.222 21.558C162.344 21.374 162.467 21.282 162.59 21.282C162.651 21.282 162.682 21.3127 162.682 21.374C162.682 21.2207 162.605 21.3433 162.452 21.742C162.36 21.9873 162.314 22.1713 162.314 22.294C162.314 22.662 162.528 22.9993 162.958 23.306C163.387 23.6127 163.878 23.766 164.43 23.766C165.258 23.766 166.791 23.1833 169.03 22.018C169.03 22.018 169.06 21.926 169.122 21.742C169.306 21.374 169.566 21.19 169.904 21.19C170.149 21.19 170.272 21.282 170.272 21.466C170.272 21.5887 169.888 22.0333 169.122 22.8C168.355 23.5973 167.496 24.4713 166.546 25.422C165.595 26.3727 164.552 27.4 163.418 28.504H164.2C165.764 28.504 166.546 29.1173 166.546 30.344V30.712C166.914 30.4973 167.358 30.2367 167.88 29.93C168.432 29.5927 169.06 29.2093 169.766 28.78C170.256 28.5347 170.548 28.412 170.64 28.412C170.732 28.412 170.778 28.4733 170.778 28.596ZM165.258 31.816C164.951 31.9693 164.583 32.1533 164.154 32.368C163.755 32.6133 163.295 32.9047 162.774 33.242C152.286 39.5593 147.042 44.1287 147.042 46.95C147.042 48.238 147.839 48.882 149.434 48.882C151.488 48.882 153.696 47.8393 156.058 45.754C157.99 44.0367 159.615 42.0587 160.934 39.82C161.7 38.5013 162.436 37.1827 163.142 35.864C163.847 34.5453 164.552 33.196 165.258 31.816Z" fill="#00073D"/>
<path d="M172.21 26.894C172.639 26.1273 173.084 25.3607 173.544 24.594C174.034 23.7967 174.494 23.0607 174.924 22.386C175.077 22.2633 175.322 22.156 175.66 22.064C176.028 21.972 176.273 21.926 176.396 21.926C176.549 21.926 176.626 21.9873 176.626 22.11C176.043 22.9993 175.476 23.904 174.924 24.824C174.372 25.7133 173.881 26.5413 173.452 27.308C173.053 28.044 172.731 28.7033 172.486 29.286C172.24 29.838 172.118 30.2367 172.118 30.482C172.118 30.7887 172.21 30.942 172.394 30.942C172.578 30.942 172.838 30.8193 173.176 30.574C173.544 30.298 173.942 29.9453 174.372 29.516C174.832 29.0867 175.292 28.6113 175.752 28.09C176.212 27.538 176.656 26.986 177.086 26.434C177.239 26.2193 177.423 25.9433 177.638 25.606C177.852 25.238 178.052 24.9007 178.236 24.594C178.45 24.2567 178.634 23.9807 178.788 23.766C178.972 23.5207 179.11 23.398 179.202 23.398C179.355 23.398 179.524 23.4593 179.708 23.582C179.892 23.674 179.984 23.7813 179.984 23.904C179.984 24.0267 179.922 24.18 179.8 24.364C179.677 24.548 179.524 24.7473 179.34 24.962C179.156 25.1767 178.956 25.4067 178.742 25.652C178.558 25.8667 178.404 26.0813 178.282 26.296C178.159 26.5107 177.975 26.8633 177.73 27.354C177.515 27.8447 177.3 28.3813 177.086 28.964C176.871 29.5467 176.687 30.114 176.534 30.666C176.38 31.218 176.304 31.678 176.304 32.046C176.304 32.4447 176.38 32.736 176.534 32.92C176.718 33.1347 177.055 33.242 177.546 33.242C178.159 33.242 178.788 33.0733 179.432 32.736C180.106 32.4293 180.75 32.1073 181.364 31.77C181.456 31.8007 181.517 31.862 181.548 31.954C181.578 32.0153 181.517 32.0767 181.364 32.138C180.444 32.6593 179.493 33.0887 178.512 33.426C177.561 33.794 176.702 33.978 175.936 33.978C174.985 33.978 174.51 33.6253 174.51 32.92C174.51 32.46 174.709 31.724 175.108 30.712C175.506 29.7 175.982 28.6573 176.534 27.584C176.38 27.7987 176.074 28.1513 175.614 28.642C175.184 29.1327 174.694 29.6387 174.142 30.16C173.59 30.6507 173.038 31.0953 172.486 31.494C171.934 31.8927 171.474 32.092 171.106 32.092C170.799 32.092 170.6 32.0153 170.508 31.862C170.416 31.678 170.37 31.4633 170.37 31.218C170.37 31.034 170.431 30.758 170.554 30.39C170.707 30.022 170.876 29.6233 171.06 29.194C171.244 28.7647 171.443 28.3507 171.658 27.952C171.872 27.5227 172.056 27.17 172.21 26.894Z" fill="#00073D"/>
<path d="M187.439 33.61C187.623 33.518 187.868 33.4107 188.175 33.288C188.482 33.196 188.788 33.0887 189.095 32.966C189.432 32.8433 189.739 32.7053 190.015 32.552C190.322 32.3987 190.536 32.2453 190.659 32.092C190.904 31.724 190.95 31.3253 190.797 30.896C190.398 31.2333 189.969 31.5093 189.509 31.724C189.08 31.908 188.65 32.0307 188.221 32.092C187.792 32.1227 187.516 32.092 187.393 32C187.27 31.8773 187.224 31.6167 187.255 31.218C187.286 30.758 187.439 30.114 187.715 29.286C187.991 28.4273 188.451 27.4613 189.095 26.388C188.911 26.6027 188.512 27.0167 187.899 27.63C187.286 28.2433 186.611 28.8873 185.875 29.562C185.139 30.206 184.418 30.7887 183.713 31.31C183.008 31.8313 182.471 32.092 182.103 32.092C181.582 32.092 181.352 31.8007 181.413 31.218C181.413 31.034 181.49 30.758 181.643 30.39C181.796 30.022 181.98 29.6233 182.195 29.194C182.44 28.7647 182.686 28.3507 182.931 27.952C183.176 27.5227 183.391 27.17 183.575 26.894C184.035 26.1273 184.526 25.3607 185.047 24.594C185.599 23.7967 186.12 23.0607 186.611 22.386C186.764 22.2633 187.01 22.156 187.347 22.064C187.715 21.972 187.96 21.926 188.083 21.926C188.236 21.926 188.313 21.9873 188.313 22.11C187.669 22.9993 187.04 23.8887 186.427 24.778C185.844 25.6673 185.308 26.4953 184.817 27.262C184.357 28.0287 183.974 28.7033 183.667 29.286C183.391 29.8687 183.238 30.2673 183.207 30.482C183.207 30.7887 183.284 30.942 183.437 30.942C183.621 30.942 183.974 30.7273 184.495 30.298C185.047 29.8687 185.645 29.332 186.289 28.688C186.964 28.044 187.623 27.3693 188.267 26.664C188.942 25.9587 189.509 25.33 189.969 24.778C190.153 24.5633 190.368 24.2873 190.613 23.95C190.858 23.582 191.088 23.2447 191.303 22.938C191.518 22.6007 191.717 22.3247 191.901 22.11C192.085 21.8647 192.223 21.742 192.315 21.742C192.468 21.742 192.622 21.8033 192.775 21.926C192.959 22.018 193.051 22.1253 193.051 22.248C193.02 22.4933 192.775 22.846 192.315 23.306C191.855 23.766 191.472 24.2107 191.165 24.64C191.012 24.8547 190.797 25.2073 190.521 25.698C190.276 26.158 190.015 26.6793 189.739 27.262C189.463 27.814 189.218 28.366 189.003 28.918C188.788 29.47 188.666 29.9147 188.635 30.252C188.604 30.6813 188.635 30.988 188.727 31.172C188.85 31.356 189.003 31.448 189.187 31.448C189.371 31.448 189.586 31.3713 189.831 31.218C190.107 31.0647 190.383 30.8807 190.659 30.666L190.797 30.528C191.226 30.16 191.61 29.792 191.947 29.424C192.315 29.0253 192.545 28.7493 192.637 28.596C192.882 28.2893 193.066 28.136 193.189 28.136C193.312 28.1053 193.189 28.3507 192.821 28.872C192.76 28.9333 192.545 29.1633 192.177 29.562C191.84 29.9607 191.41 30.3747 190.889 30.804C191.104 31.264 191.196 31.6933 191.165 32.092C191.134 32.5213 191.058 32.828 190.935 33.012C190.69 33.288 190.306 33.5333 189.785 33.748C189.264 33.9627 188.681 34.162 188.037 34.346C187.945 34.3767 187.822 34.4227 187.669 34.484C187.516 34.5453 187.347 34.6067 187.163 34.668C186.979 34.7293 186.81 34.7907 186.657 34.852C186.504 34.9133 186.396 34.9593 186.335 34.99C185.998 35.1433 185.63 35.358 185.231 35.634C184.832 35.91 184.556 36.1707 184.403 36.416C183.882 37.06 183.652 37.7653 183.713 38.532C183.805 39.2987 184.311 40.1113 185.231 40.97C185.599 41.2767 185.89 41.4453 186.105 41.476C186.35 41.5373 186.55 41.5373 186.703 41.476C186.764 41.568 186.764 41.6447 186.703 41.706C186.642 41.7673 186.642 41.844 186.703 41.936C186.795 42.028 186.81 42.1047 186.749 42.166C186.81 42.2273 186.78 42.258 186.657 42.258C186.504 42.35 186.274 42.3807 185.967 42.35C185.66 42.35 185.369 42.2273 185.093 41.982C184.94 41.8287 184.725 41.5067 184.449 41.016C184.204 40.5253 183.989 39.9733 183.805 39.36C183.621 38.7467 183.529 38.1027 183.529 37.428C183.529 36.784 183.713 36.2013 184.081 35.68C184.388 35.2813 184.863 34.898 185.507 34.53C186.182 34.1927 186.826 33.886 187.439 33.61Z" fill="#00073D"/>
<path d="M194.042 26.894C194.471 26.1273 194.916 25.3607 195.376 24.594C195.866 23.7967 196.326 23.0607 196.756 22.386C196.909 22.2633 197.154 22.156 197.492 22.064C197.86 21.972 198.105 21.926 198.228 21.926C198.381 21.926 198.458 21.9873 198.458 22.11C197.875 22.9993 197.308 23.904 196.756 24.824C196.204 25.7133 195.713 26.5413 195.284 27.308C194.885 28.044 194.563 28.7033 194.318 29.286C194.072 29.838 193.95 30.2367 193.95 30.482C193.95 30.7887 194.042 30.942 194.226 30.942C194.41 30.942 194.67 30.8193 195.008 30.574C195.376 30.298 195.774 29.9453 196.204 29.516C196.664 29.0867 197.124 28.6113 197.584 28.09C198.044 27.538 198.488 26.986 198.918 26.434C199.071 26.2193 199.255 25.9433 199.47 25.606C199.684 25.238 199.884 24.9007 200.068 24.594C200.282 24.2567 200.466 23.9807 200.62 23.766C200.804 23.5207 200.942 23.398 201.034 23.398C201.187 23.398 201.356 23.4593 201.54 23.582C201.724 23.674 201.816 23.7813 201.816 23.904C201.816 24.0267 201.754 24.18 201.632 24.364C201.509 24.548 201.356 24.7473 201.172 24.962C200.988 25.1767 200.788 25.4067 200.574 25.652C200.39 25.8667 200.236 26.0813 200.114 26.296C199.991 26.5107 199.807 26.8633 199.562 27.354C199.347 27.8447 199.132 28.3813 198.918 28.964C198.703 29.5467 198.519 30.114 198.366 30.666C198.212 31.218 198.136 31.678 198.136 32.046C198.136 32.4447 198.212 32.736 198.366 32.92C198.55 33.1347 198.887 33.242 199.378 33.242C199.991 33.242 200.62 33.0733 201.264 32.736C201.938 32.4293 202.582 32.1073 203.196 31.77C203.288 31.8007 203.349 31.862 203.38 31.954C203.41 32.0153 203.349 32.0767 203.196 32.138C202.276 32.6593 201.325 33.0887 200.344 33.426C199.393 33.794 198.534 33.978 197.768 33.978C196.817 33.978 196.342 33.6253 196.342 32.92C196.342 32.46 196.541 31.724 196.94 30.712C197.338 29.7 197.814 28.6573 198.366 27.584C198.212 27.7987 197.906 28.1513 197.446 28.642C197.016 29.1327 196.526 29.6387 195.974 30.16C195.422 30.6507 194.87 31.0953 194.318 31.494C193.766 31.8927 193.306 32.092 192.938 32.092C192.631 32.092 192.432 32.0153 192.34 31.862C192.248 31.678 192.202 31.4633 192.202 31.218C192.202 31.034 192.263 30.758 192.386 30.39C192.539 30.022 192.708 29.6233 192.892 29.194C193.076 28.7647 193.275 28.3507 193.49 27.952C193.704 27.5227 193.888 27.17 194.042 26.894Z" fill="#00073D"/>
<path d="M205.407 26.894C205.836 26.1273 206.281 25.3607 206.741 24.594C207.232 23.7967 207.692 23.0607 208.121 22.386C208.274 22.2633 208.52 22.156 208.857 22.064C209.225 21.972 209.47 21.926 209.593 21.926C209.746 21.926 209.823 21.9873 209.823 22.11C209.24 22.9993 208.673 23.904 208.121 24.824C207.569 25.7133 207.078 26.5413 206.649 27.308C206.25 28.044 205.928 28.7033 205.683 29.286C205.438 29.838 205.315 30.2367 205.315 30.482C205.315 30.7887 205.407 30.942 205.591 30.942C205.775 30.942 206.036 30.8193 206.373 30.574C206.741 30.298 207.14 29.9453 207.569 29.516C208.029 29.0867 208.489 28.6113 208.949 28.09C209.409 27.538 209.854 26.986 210.283 26.434C210.436 26.2193 210.62 25.9433 210.835 25.606C211.05 25.238 211.249 24.9007 211.433 24.594C211.648 24.2567 211.832 23.9807 211.985 23.766C212.169 23.5207 212.307 23.398 212.399 23.398C212.552 23.398 212.721 23.4593 212.905 23.582C213.089 23.674 213.181 23.7813 213.181 23.904C213.181 24.0267 213.12 24.18 212.997 24.364C212.874 24.548 212.721 24.7473 212.537 24.962C212.353 25.1767 212.154 25.4067 211.939 25.652C211.755 25.8667 211.602 26.0813 211.479 26.296C211.356 26.5107 211.172 26.8633 210.927 27.354C210.712 27.8447 210.498 28.3813 210.283 28.964C210.068 29.5467 209.884 30.114 209.731 30.666C209.578 31.218 209.501 31.678 209.501 32.046C209.501 32.4447 209.578 32.736 209.731 32.92C209.915 33.1347 210.252 33.242 210.743 33.242C211.356 33.242 211.985 33.0733 212.629 32.736C213.304 32.4293 213.948 32.1073 214.561 31.77C214.653 31.8007 214.714 31.862 214.745 31.954C214.776 32.0153 214.714 32.0767 214.561 32.138C213.641 32.6593 212.69 33.0887 211.709 33.426C210.758 33.794 209.9 33.978 209.133 33.978C208.182 33.978 207.707 33.6253 207.707 32.92C207.707 32.46 207.906 31.724 208.305 30.712C208.704 29.7 209.179 28.6573 209.731 27.584C209.578 27.7987 209.271 28.1513 208.811 28.642C208.382 29.1327 207.891 29.6387 207.339 30.16C206.787 30.6507 206.235 31.0953 205.683 31.494C205.131 31.8927 204.671 32.092 204.303 32.092C203.996 32.092 203.797 32.0153 203.705 31.862C203.613 31.678 203.567 31.4633 203.567 31.218C203.567 31.034 203.628 30.758 203.751 30.39C203.904 30.022 204.073 29.6233 204.257 29.194C204.441 28.7647 204.64 28.3507 204.855 27.952C205.07 27.5227 205.254 27.17 205.407 26.894Z" fill="#00073D"/>
</svg>
