<svg width="40" height="26" viewBox="0 0 40 26" fill="none" xmlns="http://www.w3.org/2000/svg">
<path d="M3.93872 13.093C3.13794 12.0075 0.600895 7.8361 1.08324 4.66456C1.28809 2.45415 2.94934 1.37251 4.47826 1.53267C5.82764 1.67386 7.07374 2.78241 7.12562 4.93497C7.21108 7.78495 5.37482 10.8522 3.93872 13.093ZM0.0538619 4.57981C-0.510516 8.28938 3.54154 13.5886 3.7581 13.8688C3.77435 13.8929 3.79544 13.9148 3.82216 13.9313C3.92201 13.9943 4.05373 13.9649 4.11716 13.866C4.19982 13.7368 4.28232 13.608 4.36451 13.4793C6.37889 10.3333 8.29953 7.33369 8.22703 4.92269V4.92098C8.16265 2.79765 7.32311 1.34265 6.20202 0.59175C5.13732 -0.121521 3.79013 -0.192273 2.65075 0.391934C1.42199 1.02155 0.38402 2.40781 0.0538619 4.57981Z" transform="translate(23.9197 26) rotate(-180)" fill="#ABA5B2"/>
<path d="M38.2952 2.95431C35.1236 1.11274 31.3517 2.77953 27.867 5.18214C24.5609 3.25707 21.4917 0.941697 20.4257 0.121132C20.3102 0.0326537 20.1602 0.0222346 20.0366 0.079147C19.9038 -0.0234819 19.7135 -0.0289238 19.5745 0.0782145C18.5087 0.898468 15.4388 3.21384 12.1329 5.13875C8.64816 2.7363 4.87611 1.06998 1.70515 2.91155C-1.65142 4.95386 0.529992 7.9979 3.25188 8.57076C5.33673 9.31792 8.80472 7.89838 12.091 6.03054C14.7429 7.91129 19.8673 12.6583 20.037 12.4521C20.2257 12.5851 25.3598 7.88128 27.9087 6.07361C31.195 7.94114 34.663 9.36084 36.7477 8.61352C39.4697 8.04113 41.6514 4.9974 38.2952 2.95431ZM3.82141 7.63917C2.25859 6.94906 0.705618 5.06753 2.78375 3.58486C5.52002 2.48331 8.20237 3.55516 11.4033 5.55518C8.37659 7.24482 5.59345 8.27469 3.82141 7.63917ZM23.1749 8.8208C22.0182 9.77229 20.9696 10.6348 20.1009 11.2343C20.0987 11.2355 20.0968 11.2368 20.0946 11.2382C20.0735 11.2503 20.0545 11.2646 20.0368 11.2798C19.9979 11.2506 19.9543 11.2225 19.9052 11.1954C19.9031 11.1935 19.9012 11.1926 19.8988 11.1915C19.0302 10.5915 17.9815 9.72922 16.8249 8.77804C15.5858 7.75843 14.2258 6.63993 12.8069 5.61536C15.979 3.73958 18.8759 1.56385 19.9716 0.722755C21.0224 1.53088 23.9659 3.75031 27.1925 5.65796C25.774 6.68254 24.414 7.80151 23.1749 8.8208ZM38.1617 5.66978C37.9338 6.52859 37.0572 7.29396 36.1783 7.68239C34.4066 8.31776 31.623 7.28758 28.5967 5.59825C29.8967 4.78562 31.1115 4.12661 32.2791 3.7035C33.9855 3.08586 35.5908 2.97375 37.2164 3.62809C38.1252 4.27682 38.3397 5.00129 38.1617 5.66978Z" transform="translate(40 12.4585) rotate(-180)" fill="#ABA5B2"/>
</svg>
