<svg width="60" height="60" viewBox="0 0 60 60" fill="none" xmlns="http://www.w3.org/2000/svg">
<circle cx="20" cy="20" r="20" transform="scale(1.5)" fill="white"/>
<path d="M0.223506 7.989H1.7425V14.7581C1.7425 14.8917 1.84254 15 1.96601 15H4.54152C4.66498 15 4.76502 14.8917 4.76502 14.7581V8.02089H6.51124C6.62478 8.02089 6.7203 7.92866 6.73327 7.80658L6.99848 5.31455C7.00577 5.24598 6.9857 5.17732 6.94332 5.12589C6.9009 5.0744 6.84019 5.04494 6.77649 5.04494H4.76511V3.48281C4.76511 3.0119 4.99935 2.77311 5.46138 2.77311C5.52723 2.77311 6.77649 2.77311 6.77649 2.77311C6.89996 2.77311 7 2.66477 7 2.53118V0.243726C7 0.110081 6.89996 0.00179032 6.77649 0.00179032H4.96408C4.95129 0.0011129 4.92291 0 4.88107 0C4.5666 0 3.47351 0.0668226 2.61006 0.926661C1.65337 1.8795 1.78635 3.02037 1.81814 3.21818V5.04489H0.223506C0.100041 5.04489 0 5.15318 0 5.28682V7.74702C0 7.88066 0.100041 7.989 0.223506 7.989Z" transform="translate(25.5 19.5) scale(1.5)" fill="#47276A"/>
</svg>
