<svg width="70" height="71" viewBox="0 0 70 71" fill="none" xmlns="http://www.w3.org/2000/svg">
<path fill-rule="evenodd" clip-rule="evenodd" d="M35 65.0866C51.6941 65.0866 65.2273 51.5826 65.2273 34.9245C65.2273 18.2665 51.6941 4.76243 35 4.76243C18.3059 4.76243 4.77273 18.2665 4.77273 34.9245C4.77273 51.5826 18.3059 65.0866 35 65.0866ZM35 69.849C54.33 69.849 70 54.2128 70 34.9245C70 15.6362 54.33 0 35 0C15.67 0 0 15.6362 0 34.9245C0 54.2128 15.67 69.849 35 69.849Z" transform="translate(0 0.626953)" fill="#E0C675"/>
<path d="M0.507969 16.9098H3.96023V31.2375C3.96023 31.5203 4.1876 31.7496 4.4682 31.7496H10.3216C10.6022 31.7496 10.8296 31.5203 10.8296 31.2375V16.9773H14.7983C15.0563 16.9773 15.2734 16.7821 15.3029 16.5237L15.9056 11.249C15.9222 11.1038 15.8766 10.9585 15.7803 10.8496C15.6839 10.7407 15.5459 10.6783 15.4011 10.6783H10.8298V7.37184C10.8298 6.37511 11.3622 5.86967 12.4122 5.86967C12.5619 5.86967 15.4011 5.86967 15.4011 5.86967C15.6817 5.86967 15.9091 5.64036 15.9091 5.35758V0.515879C15.9091 0.233001 15.6817 0.00378946 15.4011 0.00378946H11.282C11.2529 0.00235561 11.1884 0 11.0933 0C10.3786 0 7.89435 0.141439 5.93196 1.96141C3.75765 3.97822 4.05989 6.39303 4.13213 6.81171V10.6782H0.507969C0.227367 10.6782 0 10.9074 0 11.1903V16.3976C0 16.6805 0.227367 16.9098 0.507969 16.9098Z" transform="translate(27.0454 19.6765)" fill="#E0C675"/>
</svg>
