<svg width="116" height="56" viewBox="0 0 116 56" fill="none" xmlns="http://www.w3.org/2000/svg">
<path d="M21.39 21.942C22.4327 19.826 23.3987 17.756 24.288 15.732C25.1773 13.708 26.0667 11.5767 26.956 9.338C25.8827 8.72467 24.7327 8.21867 23.506 7.82C22.31 7.39067 21.114 7.176 19.918 7.176C18.906 7.176 17.9553 7.29867 17.066 7.544C16.2073 7.78934 15.456 8.20334 14.812 8.786C14.168 9.338 13.662 10.074 13.294 10.994C12.926 11.8833 12.742 12.972 12.742 14.26C12.742 15.272 12.9107 15.9927 13.248 16.422C13.616 16.8513 13.9687 17.1733 14.306 17.388C14.306 17.572 14.1527 17.664 13.846 17.664C13.6313 17.664 13.34 17.7253 12.972 17.848C12.604 17.9707 12.2973 18.032 12.052 18.032C11.776 18.032 11.4693 17.8173 11.132 17.388C10.7947 16.9587 10.626 16.284 10.626 15.364C10.626 14.8733 10.8713 14.0913 11.362 13.018C11.8833 11.914 12.604 10.7947 13.524 9.66C14.444 8.52534 15.548 7.52867 16.836 6.67C18.1547 5.81134 19.596 5.382 21.16 5.382C22.6013 5.382 23.9967 5.68867 25.346 6.302C26.726 6.91534 28.0447 7.59 29.302 8.326C30.5593 9.062 31.7553 9.73667 32.89 10.35C34.0553 10.9633 35.1593 11.27 36.202 11.27C36.9993 11.27 37.6587 11.0707 38.18 10.672C38.7013 10.2427 38.962 9.66 38.962 8.924C38.962 8.464 38.87 8.11134 38.686 7.866C38.5327 7.59 38.3487 7.36 38.134 7.176C37.9193 6.992 37.72 6.83867 37.536 6.716C37.3827 6.56267 37.306 6.394 37.306 6.21C37.306 6.05667 37.4593 5.91867 37.766 5.796C38.0727 5.67334 38.3947 5.612 38.732 5.612C39.1613 5.612 39.468 5.796 39.652 6.164C39.836 6.532 39.928 6.91534 39.928 7.314C39.928 8.20334 39.7287 9.00067 39.33 9.706C38.962 10.3807 38.502 10.9633 37.95 11.454C37.4287 11.914 36.8767 12.2667 36.294 12.512C35.7113 12.7573 35.2207 12.88 34.822 12.88C33.9327 12.88 32.844 12.558 31.556 11.914C30.268 11.27 28.888 10.5187 27.416 9.66C26.5267 11.7147 25.6067 13.7847 24.656 15.87C23.736 17.9553 22.7853 19.964 21.804 21.896L21.482 22.724C20.562 24.472 19.6113 26.0667 18.63 27.508C17.6793 28.9187 16.6213 30.1147 15.456 31.096C14.3213 32.0773 13.0487 32.8287 11.638 33.35C10.258 33.902 8.67867 34.178 6.9 34.178C4.75333 34.178 3.06667 33.6413 1.84 32.568C0.613333 31.4947 0 29.992 0 28.06C0 26.956 0.138 25.99 0.414 25.162C0.69 24.3033 1.08867 23.414 1.61 22.494C1.67133 22.4327 1.748 22.4327 1.84 22.494C1.932 22.5247 1.96267 22.6167 1.932 22.77C1.59467 23.3527 1.31867 23.9967 1.104 24.702C0.889333 25.3767 0.782 26.0667 0.782 26.772C0.782 27.5387 0.981333 28.2593 1.38 28.934C1.80933 29.6087 2.37667 30.2067 3.082 30.728C3.818 31.2187 4.646 31.602 5.566 31.878C6.51667 32.1847 7.498 32.338 8.51 32.338C9.982 32.338 11.3467 32.0773 12.604 31.556C13.8613 31.0347 15.0113 30.3293 16.054 29.44C17.0967 28.5507 18.0167 27.5387 18.814 26.404C19.642 25.2387 20.3627 24.0273 20.976 22.77L21.39 21.942Z" transform="translate(0.852783 0.490234)" fill="#00073D"/>
<path d="M42.3599 26.082C41.5319 26.7567 40.5352 27.3853 39.3699 27.968C38.2352 28.5507 37.0239 29.0873 35.7359 29.578C34.4786 30.0687 33.1906 30.5287 31.8719 30.958C30.5532 31.3873 29.3112 31.786 28.1459 32.154C25.9379 36.0487 24.1286 39.238 22.7179 41.722C21.3072 44.206 20.2032 46.2147 19.4059 47.748C18.6086 49.2813 18.0566 50.4313 17.7499 51.198C17.4432 51.9953 17.2899 52.6393 17.2899 53.13C17.2899 53.5593 17.4126 53.8507 17.6579 54.004C17.8726 54.188 18.2099 54.28 18.6699 54.28C18.9459 54.28 19.2832 54.2493 19.6819 54.188C20.0499 54.1267 20.4486 54.05 20.8779 53.958C21.2766 53.8967 21.6599 53.8047 22.0279 53.682C22.3959 53.59 22.7026 53.498 22.9479 53.406C23.1012 53.3447 23.1932 53.3907 23.2239 53.544C23.2546 53.6973 23.1932 53.7893 23.0399 53.82C22.7946 53.8813 22.3806 53.9887 21.7979 54.142C21.1846 54.2953 20.5406 54.4487 19.8659 54.602C19.1606 54.7553 18.4859 54.8933 17.8419 55.016C17.1672 55.1387 16.6459 55.2 16.2779 55.2C15.9406 55.2 15.6646 55.1233 15.4499 54.97C15.2352 54.8473 15.1279 54.5867 15.1279 54.188C15.1279 53.5747 15.3886 52.7773 15.9099 51.796C16.4006 50.8453 17.1519 49.542 18.1639 47.886C19.1452 46.2607 20.3872 44.206 21.8899 41.722C23.3926 39.238 25.1406 36.1713 27.1339 32.522C26.5819 32.6753 26.0299 32.844 25.4779 33.028C24.9259 33.2427 24.5426 33.35 24.3279 33.35C24.0826 33.35 23.9599 33.2427 23.9599 33.028C23.9599 32.7213 24.0672 32.4913 24.2819 32.338C24.4966 32.1847 24.7419 32.0773 25.0179 32.016C25.3859 31.9547 25.8152 31.878 26.3059 31.786C26.7966 31.694 27.2566 31.602 27.6859 31.51C28.8206 29.486 29.8632 27.4773 30.8139 25.484C31.7952 23.4907 32.8686 21.574 34.0339 19.734C34.1566 19.5807 34.2946 19.4887 34.4479 19.458C34.6012 19.3967 34.7852 19.366 34.9999 19.366C35.3679 19.366 35.5519 19.4733 35.5519 19.688C35.5519 19.8107 35.4292 20.102 35.1839 20.562C34.9386 21.022 34.6166 21.5893 34.2179 22.264C33.8192 22.908 33.3592 23.644 32.8379 24.472C32.3472 25.2693 31.8412 26.082 31.3199 26.91C30.8292 27.7073 30.3539 28.4893 29.8939 29.256C29.4339 29.992 29.0506 30.636 28.7439 31.188L29.4799 31.004C30.0626 30.8507 30.7526 30.544 31.5499 30.084C32.3779 29.624 33.1446 29.0567 33.8499 28.382C34.5859 27.6767 35.1992 26.8947 35.6899 26.036C36.2112 25.1773 36.4719 24.288 36.4719 23.368C36.4719 22.8773 36.4106 22.5553 36.2879 22.402C36.1652 22.218 36.1039 22.0647 36.1039 21.942C36.1039 21.8193 36.1959 21.758 36.3799 21.758C36.4106 21.758 36.5332 21.8193 36.7479 21.942C36.9932 22.0647 37.2386 22.218 37.4839 22.402C37.7292 22.5553 37.9439 22.7087 38.1279 22.862C38.3426 22.9847 38.4499 23.0613 38.4499 23.092C38.4499 23.8893 38.1892 24.656 37.6679 25.392C37.1466 26.128 36.5026 26.8333 35.7359 27.508C34.9692 28.152 34.1566 28.75 33.2979 29.302C32.4699 29.8233 31.7186 30.268 31.0439 30.636C33.0986 30.084 35.1226 29.4093 37.1159 28.612C39.1092 27.8147 40.7959 26.864 42.1759 25.76C42.2986 25.6373 42.3906 25.622 42.4519 25.714C42.5439 25.806 42.5132 25.9287 42.3599 26.082Z" transform="translate(0.852783 0.490234)" fill="#00073D"/>
<path d="M54.2171 26.22C52.6531 28.0907 51.2578 29.4707 50.0311 30.36C48.8351 31.2493 47.7618 31.694 46.8111 31.694C46.3818 31.694 45.9984 31.5867 45.6611 31.372C45.3544 31.1267 45.2011 30.6053 45.2011 29.808C45.2011 29.624 45.2318 29.2713 45.2931 28.75C45.3851 28.198 45.5384 27.6767 45.7531 27.186C45.3544 27.7687 44.9098 28.336 44.4191 28.888C43.9591 29.44 43.4838 29.9307 42.9931 30.36C42.5331 30.7893 42.0884 31.142 41.6591 31.418C41.2298 31.6633 40.8771 31.786 40.6011 31.786C40.0184 31.786 39.7271 31.4487 39.7271 30.774C39.7271 30.1913 40.0338 29.3173 40.6471 28.152C41.0764 27.2933 41.6591 26.3887 42.3951 25.438C43.1618 24.4567 43.9744 23.598 44.8331 22.862C45.3544 22.4327 45.8451 22.08 46.3051 21.804C46.7958 21.528 47.2558 21.39 47.6851 21.39C48.2064 21.39 48.6818 21.5587 49.1111 21.896C49.2644 21.7733 49.4331 21.6507 49.6171 21.528C49.8011 21.3747 49.9544 21.252 50.0771 21.16C50.1384 21.16 50.1691 21.1907 50.1691 21.252C50.1691 21.3133 50.1078 21.4513 49.9851 21.666C49.0958 23.138 48.3138 24.5027 47.6391 25.76C46.9951 27.0173 46.6731 28.29 46.6731 29.578C46.6731 30.5287 47.0104 31.004 47.6851 31.004C48.3291 31.004 49.2031 30.6053 50.3071 29.808C51.4418 28.98 52.6684 27.692 53.9871 25.944C54.0178 25.8827 54.0791 25.852 54.1711 25.852C54.2938 25.852 54.3091 25.9747 54.2171 26.22ZM48.0531 22.954C47.8691 22.7393 47.6544 22.586 47.4091 22.494C47.1638 22.402 46.9338 22.356 46.7191 22.356C46.1978 22.356 45.6304 22.6473 45.0171 23.23C44.4038 23.8127 43.8364 24.5333 43.3151 25.392C42.7938 26.22 42.3644 27.094 42.0271 28.014C41.6898 28.9033 41.5211 29.67 41.5211 30.314C41.5211 30.5593 41.6284 30.682 41.8431 30.682C42.0884 30.682 42.5944 30.314 43.3611 29.578C44.1278 28.842 44.9558 27.8607 45.8451 26.634C46.2744 26.0207 46.6731 25.4227 47.0411 24.84C47.4091 24.2573 47.7464 23.6287 48.0531 22.954Z" transform="translate(0.852783 0.490234)" fill="#00073D"/>
<path d="M59.8377 29.21C59.5004 29.8847 59.1017 30.636 58.6417 31.464C58.2124 32.292 57.7064 33.1967 57.1237 34.178C55.9277 36.202 54.7624 37.9807 53.6277 39.514C52.4931 41.078 51.3277 42.55 50.1317 43.93C49.1504 45.034 48.1384 45.8927 47.0957 46.506C46.0224 47.1193 44.9951 47.426 44.0137 47.426H43.7837C43.0171 47.3647 42.3271 47.104 41.7137 46.644C41.0697 46.2147 40.5331 45.5247 40.1037 44.574C39.7664 43.8073 39.5364 43.056 39.4137 42.32C39.2911 41.584 39.2297 40.9707 39.2297 40.48V40.066C39.2604 39.7593 39.3217 39.514 39.4137 39.33C39.4751 39.146 39.6131 38.8853 39.8277 38.548C40.0731 38.1493 40.2877 37.812 40.4717 37.536C40.6557 37.26 40.9931 36.8767 41.4837 36.386C41.5451 36.3247 41.5911 36.294 41.6217 36.294C41.7137 36.294 41.7597 36.34 41.7597 36.432C41.7597 36.4933 41.7291 36.5547 41.6677 36.616C41.6371 36.6467 41.6064 36.6773 41.5757 36.708C41.5144 36.7387 41.4531 36.7847 41.3917 36.846C41.1464 37.122 40.9777 37.444 40.8857 37.812C40.7631 38.18 40.6864 38.548 40.6557 38.916V39.56C40.6557 40.9093 40.9624 42.32 41.5757 43.792C42.3424 45.6627 43.4157 46.6287 44.7957 46.69H44.9337C46.0071 46.7513 47.2184 46.0767 48.5677 44.666C49.2117 43.9607 49.8251 43.2247 50.4077 42.458C50.9904 41.6913 51.5424 40.8787 52.0637 40.02C52.5851 39.1307 53.1064 38.2107 53.6277 37.26C54.1797 36.34 54.7317 35.374 55.2837 34.362C55.8357 33.35 56.3417 32.3993 56.8017 31.51C57.2617 30.6513 57.6911 29.8693 58.0897 29.164C58.7337 27.9373 59.1477 27.1553 59.3317 26.818C59.0864 27.1553 58.8257 27.508 58.5497 27.876C58.2737 28.244 57.9671 28.6273 57.6297 29.026C56.9551 29.8847 56.1271 30.544 55.1457 31.004C54.5937 31.2493 54.1337 31.372 53.7657 31.372C52.8764 31.372 52.4317 30.774 52.4317 29.578C52.4011 28.75 52.5544 27.9833 52.8917 27.278C53.5664 25.714 54.3177 24.5333 55.1457 23.736C56.0044 22.7547 57.0624 22.0033 58.3197 21.482C59.0557 21.2367 59.6077 21.114 59.9757 21.114C61.0797 20.9913 61.2484 21.9573 60.4817 24.012C60.3591 24.3187 60.2517 24.7787 60.1597 25.392C60.4051 24.932 60.6504 24.472 60.8957 24.012C61.1411 23.5213 61.4017 23.0307 61.6777 22.54L61.9537 22.08C62.4444 21.252 62.9197 20.47 63.3797 19.734C63.8397 18.9673 64.2997 18.2313 64.7597 17.526C66.0477 15.686 67.3664 14.0453 68.7157 12.604C70.0651 11.132 71.5677 9.90534 73.2237 8.924C73.6837 8.648 74.1591 8.418 74.6497 8.234C75.1711 8.01934 75.6771 7.89667 76.1677 7.866H76.4437C76.9957 7.866 77.4864 8.004 77.9157 8.28C78.2224 8.49467 78.3757 8.77067 78.3757 9.108C78.3757 9.69067 78.1151 10.2427 77.5937 10.764C77.5324 10.856 77.4404 10.9787 77.3177 11.132C77.1951 11.2547 77.1031 11.3773 77.0417 11.5C76.9804 11.592 76.9191 11.638 76.8577 11.638C76.7657 11.638 76.7197 11.5767 76.7197 11.454C76.7197 11.3927 76.7351 11.3467 76.7657 11.316C77.0417 11.0093 77.1797 10.718 77.1797 10.442C77.1797 10.3193 77.1184 10.1813 76.9957 10.028C76.4744 9.476 75.8304 9.2 75.0637 9.2H74.9717C74.0211 9.2 73.0704 9.53734 72.1197 10.212C71.1997 10.8867 70.3717 11.684 69.6357 12.604C68.8997 13.524 68.1637 14.582 67.4277 15.778C67.0904 16.2993 66.7684 16.8207 66.4617 17.342C66.1857 17.8633 65.8944 18.3847 65.5877 18.906L63.8397 22.034L63.6097 22.448C62.9964 23.552 62.2604 24.702 61.4017 25.898H61.4937C61.6777 25.6833 61.9231 25.4073 62.2297 25.07C62.5364 24.702 62.8891 24.3493 63.2877 24.012C63.6864 23.644 64.1157 23.2913 64.5757 22.954C65.0664 22.6167 65.5571 22.3253 66.0477 22.08C66.5997 21.8347 67.0597 21.712 67.4277 21.712C67.5811 21.712 67.6884 21.7273 67.7497 21.758C67.9644 20.8073 68.3017 20.3013 68.7617 20.24C68.9457 20.1787 69.2831 20.0867 69.7737 19.964C69.9271 19.964 70.0037 20.0407 70.0037 20.194C70.0037 20.2553 69.9731 20.3167 69.9117 20.378C69.6971 20.5007 69.5284 21.0373 69.4057 21.988C69.3751 22.2027 69.3444 22.4173 69.3137 22.632C69.3137 22.816 69.3137 23.0153 69.3137 23.23C69.3137 25.1927 70.0344 26.174 71.4757 26.174C72.8557 26.174 74.1437 25.346 75.3397 23.69C75.3704 23.598 75.4317 23.552 75.5237 23.552C75.5851 23.552 75.6157 23.598 75.6157 23.69C75.6157 24.3033 75.0177 24.9473 73.8217 25.622C72.6871 26.2967 71.7824 26.634 71.1077 26.634C69.9424 26.634 69.0531 26.1893 68.4397 25.3C68.0717 26.5573 67.2744 27.9067 66.0477 29.348C65.1891 30.3293 64.1311 31.0807 62.8737 31.602C62.1377 31.8473 61.6011 31.97 61.2637 31.97L60.4817 31.694C60.1444 31.234 59.9911 30.7587 60.0217 30.268L60.1597 29.44L60.6197 27.416C60.5584 27.5693 60.4664 27.7993 60.3437 28.106C60.2211 28.4127 60.0524 28.7807 59.8377 29.21ZM61.0337 29.532C60.7577 30.1147 60.6964 30.6973 60.8497 31.28C61.0031 31.5253 61.1257 31.6327 61.2177 31.602C61.3404 31.602 61.4171 31.602 61.4477 31.602C62.7664 31.5713 64.1771 30.268 65.6797 27.692C66.7224 25.9133 67.2284 24.4413 67.1977 23.276C67.1977 22.6933 66.9831 22.402 66.5537 22.402C65.6644 22.402 64.5757 23.368 63.2877 25.3C62.7971 26.0667 62.3524 26.8027 61.9537 27.508C61.5857 28.1827 61.2791 28.8573 61.0337 29.532ZM60.1137 23.598C60.2977 23.1993 60.3897 22.6627 60.3897 21.988C60.2364 21.6813 60.0984 21.528 59.9757 21.528C59.8531 21.4973 59.7764 21.482 59.7457 21.482C58.4271 21.5127 57.0164 22.816 55.5137 25.392C54.4404 27.2013 53.9344 28.6733 53.9957 29.808C53.9957 30.3907 54.2104 30.682 54.6397 30.682C55.5291 30.682 56.6177 29.716 57.9057 27.784C58.8871 26.2507 59.6231 24.8553 60.1137 23.598Z" transform="translate(0.852783 0.490234)" fill="#00073D"/>
<path d="M74.6821 26.404C75.1114 25.6373 75.5561 24.8707 76.0161 24.104C76.5067 23.3067 76.9667 22.5707 77.3961 21.896C77.5494 21.7733 77.7947 21.666 78.1321 21.574C78.5001 21.482 78.7454 21.436 78.8681 21.436C79.0214 21.436 79.0981 21.4973 79.0981 21.62C78.5154 22.5093 77.9481 23.414 77.3961 24.334C76.8441 25.2233 76.3534 26.0513 75.9241 26.818C75.5254 27.554 75.2034 28.2133 74.9581 28.796C74.7127 29.348 74.5901 29.7467 74.5901 29.992C74.5901 30.2987 74.6821 30.452 74.8661 30.452C75.0501 30.452 75.3107 30.3293 75.6481 30.084C76.0161 29.808 76.4147 29.4553 76.8441 29.026C77.3041 28.5967 77.7641 28.1213 78.2241 27.6C78.6841 27.048 79.1287 26.496 79.5581 25.944C79.7114 25.7293 79.8954 25.4533 80.1101 25.116C80.3247 24.748 80.5241 24.4107 80.7081 24.104C80.9227 23.7667 81.1067 23.4907 81.2601 23.276C81.4441 23.0307 81.5821 22.908 81.6741 22.908C81.8274 22.908 81.9961 22.9693 82.1801 23.092C82.3641 23.184 82.4561 23.2913 82.4561 23.414C82.4561 23.5367 82.3947 23.69 82.2721 23.874C82.1494 24.058 81.9961 24.2573 81.8121 24.472C81.6281 24.6867 81.4287 24.9167 81.2141 25.162C81.0301 25.3767 80.8767 25.5913 80.7541 25.806C80.6314 26.0207 80.4474 26.3733 80.2021 26.864C79.9874 27.3547 79.7727 27.8913 79.5581 28.474C79.3434 29.0567 79.1594 29.624 79.0061 30.176C78.8527 30.728 78.7761 31.188 78.7761 31.556C78.7761 31.9547 78.8527 32.246 79.0061 32.43C79.1901 32.6447 79.5274 32.752 80.0181 32.752C80.6314 32.752 81.2601 32.5833 81.9041 32.246C82.5787 31.9393 83.2227 31.6173 83.8361 31.28C83.9281 31.3107 83.9894 31.372 84.0201 31.464C84.0507 31.5253 83.9894 31.5867 83.8361 31.648C82.9161 32.1693 81.9654 32.5987 80.9841 32.936C80.0334 33.304 79.1747 33.488 78.4081 33.488C77.4574 33.488 76.9821 33.1353 76.9821 32.43C76.9821 31.97 77.1814 31.234 77.5801 30.222C77.9787 29.21 78.4541 28.1673 79.0061 27.094C78.8527 27.3087 78.5461 27.6613 78.0861 28.152C77.6567 28.6427 77.1661 29.1487 76.6141 29.67C76.0621 30.1607 75.5101 30.6053 74.9581 31.004C74.4061 31.4027 73.9461 31.602 73.5781 31.602C73.2714 31.602 73.0721 31.5253 72.9801 31.372C72.8881 31.188 72.8421 30.9733 72.8421 30.728C72.8421 30.544 72.9034 30.268 73.0261 29.9C73.1794 29.532 73.3481 29.1333 73.5321 28.704C73.7161 28.2747 73.9154 27.8607 74.1301 27.462C74.3447 27.0327 74.5287 26.68 74.6821 26.404Z" transform="translate(0.852783 0.490234)" fill="#00073D"/>
<path d="M87.3353 27.922C87.2126 27.7993 87.1206 27.6767 87.0593 27.554C87.0286 27.4007 86.9366 27.4467 86.7833 27.692C86.4153 28.2747 86.078 28.8267 85.7713 29.348C85.4646 29.8387 85.1733 30.2987 84.8973 30.728C84.744 30.9733 84.4986 31.2033 84.1613 31.418C83.8546 31.602 83.548 31.7553 83.2413 31.878C83.0573 31.878 82.9653 31.8167 82.9653 31.694C82.9653 31.5713 83.0113 31.4333 83.1033 31.28C83.778 30.176 84.606 28.8267 85.5873 27.232C86.5686 25.6067 87.5653 23.9507 88.5773 22.264C89.5893 20.5773 90.5553 18.998 91.4753 17.526C92.426 16.054 93.1926 14.904 93.7753 14.076C94.6033 12.9107 95.462 11.7453 96.3513 10.58C97.2713 9.384 98.2066 8.24933 99.1573 7.176C100.108 6.072 101.089 5.04467 102.101 4.094C103.113 3.11267 104.141 2.26934 105.183 1.564C105.858 1.104 106.594 0.736002 107.391 0.460002C108.219 0.153334 108.986 0 109.691 0C110.335 0 110.872 0.107334 111.301 0.322001C111.731 0.536669 112.068 0.797336 112.313 1.104C112.589 1.38 112.773 1.67134 112.865 1.978C112.988 2.254 113.049 2.45334 113.049 2.576C113.049 2.76 112.988 2.86733 112.865 2.898C112.743 2.92867 112.681 2.88267 112.681 2.76C112.681 2.60667 112.666 2.49933 112.635 2.438C112.635 2.37667 112.543 2.26934 112.359 2.116C111.531 1.59467 110.412 1.334 109.001 1.334C107.499 1.334 106.073 1.76334 104.723 2.622C103.374 3.45 102.101 4.508 100.905 5.796C99.7093 7.05334 98.59 8.44867 97.5473 9.982C96.5353 11.4847 95.6153 12.8953 94.7873 14.214C94.2966 15.0113 93.7293 15.9467 93.0853 17.02C92.472 18.0933 91.874 19.1207 91.2913 20.102C90.7393 21.0833 90.264 21.9267 89.8653 22.632C89.4973 23.3373 89.298 23.736 89.2673 23.828C89.0526 24.2573 89.114 24.3033 89.4513 23.966C89.7273 23.69 90.0493 23.414 90.4173 23.138C90.7853 22.8313 91.1533 22.5707 91.5213 22.356C91.8893 22.1107 92.2573 21.9113 92.6253 21.758C92.9933 21.6047 93.3306 21.528 93.6373 21.528C94.1586 21.528 94.4193 21.7427 94.4193 22.172C94.4193 22.4787 94.312 22.8313 94.0973 23.23C93.8826 23.598 93.668 23.92 93.4533 24.196C92.8706 24.932 92.1806 25.53 91.3833 25.99C90.6166 26.4193 89.7886 26.772 88.8993 27.048C88.746 27.1093 88.6846 27.1707 88.7153 27.232C88.746 27.2627 88.792 27.3393 88.8533 27.462C89.9573 29.302 91.1533 31.2033 92.4413 33.166C93.76 35.1593 95.186 36.9687 96.7193 38.594C98.2526 40.2193 99.9086 41.5533 101.687 42.596C103.466 43.6693 105.398 44.206 107.483 44.206C108.587 44.206 109.753 44.022 110.979 43.654C112.237 43.286 113.341 42.6727 114.291 41.814C114.414 41.6913 114.506 41.6607 114.567 41.722C114.659 41.814 114.644 41.9213 114.521 42.044C113.387 43.0253 112.114 43.6847 110.703 44.022C109.293 44.39 107.943 44.574 106.655 44.574C104.877 44.574 103.175 44.1907 101.549 43.424C99.924 42.688 98.3447 41.6453 96.8113 40.296C95.3087 38.9467 93.8366 37.3367 92.3953 35.466C90.954 33.5953 89.5433 31.556 88.1633 29.348L87.3353 27.922ZM92.8093 23.046C92.8093 22.8927 92.748 22.77 92.6253 22.678C92.5333 22.5553 92.426 22.494 92.3033 22.494C92.0273 22.494 91.6133 22.6933 91.0613 23.092C90.54 23.46 90.0033 23.8893 89.4513 24.38C88.93 24.8707 88.47 25.3613 88.0713 25.852C87.6726 26.312 87.4733 26.6493 87.4733 26.864C87.4733 26.956 87.5193 27.002 87.6113 27.002C88.01 27.002 88.5006 26.8793 89.0833 26.634C89.6966 26.358 90.2793 26.036 90.8313 25.668C91.3833 25.2693 91.8433 24.84 92.2113 24.38C92.61 23.92 92.8093 23.4753 92.8093 23.046Z" transform="translate(0.852783 0.490234)" fill="#00073D"/>
<path d="M108.438 26.22C106.874 28.0907 105.478 29.4707 104.252 30.36C103.056 31.2493 101.982 31.694 101.032 31.694C100.602 31.694 100.219 31.5867 99.8818 31.372C99.5751 31.1267 99.4218 30.6053 99.4218 29.808C99.4218 29.624 99.4525 29.2713 99.5138 28.75C99.6058 28.198 99.7591 27.6767 99.9738 27.186C99.5751 27.7687 99.1305 28.336 98.6398 28.888C98.1798 29.44 97.7045 29.9307 97.2138 30.36C96.7538 30.7893 96.3091 31.142 95.8798 31.418C95.4505 31.6633 95.0978 31.786 94.8218 31.786C94.2391 31.786 93.9478 31.4487 93.9478 30.774C93.9478 30.1913 94.2545 29.3173 94.8678 28.152C95.2971 27.2933 95.8798 26.3887 96.6158 25.438C97.3825 24.4567 98.1951 23.598 99.0538 22.862C99.5751 22.4327 100.066 22.08 100.526 21.804C101.016 21.528 101.476 21.39 101.906 21.39C102.427 21.39 102.902 21.5587 103.332 21.896C103.485 21.7733 103.654 21.6507 103.838 21.528C104.022 21.3747 104.175 21.252 104.298 21.16C104.359 21.16 104.39 21.1907 104.39 21.252C104.39 21.3133 104.328 21.4513 104.206 21.666C103.316 23.138 102.534 24.5027 101.86 25.76C101.216 27.0173 100.894 28.29 100.894 29.578C100.894 30.5287 101.231 31.004 101.906 31.004C102.55 31.004 103.424 30.6053 104.528 29.808C105.662 28.98 106.889 27.692 108.208 25.944C108.238 25.8827 108.3 25.852 108.392 25.852C108.514 25.852 108.53 25.9747 108.438 26.22ZM102.274 22.954C102.09 22.7393 101.875 22.586 101.63 22.494C101.384 22.402 101.154 22.356 100.94 22.356C100.418 22.356 99.8511 22.6473 99.2378 23.23C98.6245 23.8127 98.0571 24.5333 97.5358 25.392C97.0145 26.22 96.5851 27.094 96.2478 28.014C95.9105 28.9033 95.7418 29.67 95.7418 30.314C95.7418 30.5593 95.8491 30.682 96.0638 30.682C96.3091 30.682 96.8151 30.314 97.5818 29.578C98.3485 28.842 99.1765 27.8607 100.066 26.634C100.495 26.0207 100.894 25.4227 101.262 24.84C101.63 24.2573 101.967 23.6287 102.274 22.954Z" transform="translate(0.852783 0.490234)" fill="#00073D"/>
</svg>
