<svg width="88" height="26" viewBox="0 0 88 26" fill="none" xmlns="http://www.w3.org/2000/svg">
<path d="M41.92 0.448C42.112 0.319999 42.4747 0.191999 43.008 0.0639992C43.4347 -0.0426674 43.648 0.0426661 43.648 0.32C43.648 0.383999 43.6053 0.458665 43.52 0.543999C42.9227 1.07733 41.856 2.816 40.32 5.76C40.0213 6.25067 39.7653 6.69867 39.552 7.104C39.36 7.488 39.168 7.88267 38.976 8.288C38.784 8.672 38.5707 9.09867 38.336 9.568C38.1013 10.0373 37.824 10.592 37.504 11.232C36.352 13.4933 35.3173 15.7227 34.4 17.92C33.3973 20.3733 32.896 21.9307 32.896 22.592C32.896 23.168 33.1627 23.456 33.696 23.456C34.72 23.456 36.0853 22.7733 37.792 21.408C39.4133 20.128 40.5013 18.976 41.056 17.952C41.376 17.8667 41.5787 17.9733 41.664 18.272C41.3227 18.848 40.864 19.4453 40.288 20.064C39.712 20.6827 38.9973 21.3227 38.144 21.984C36.3307 23.4133 34.848 24.128 33.696 24.128C31.776 24.128 30.816 23.1147 30.816 21.088C30.816 20.1067 31.168 18.8587 31.872 17.344C32.32 16.3413 33.1413 14.8267 34.336 12.8C35.744 10.4747 37.216 8.04267 38.752 5.504L39.936 3.232C38.9333 4.32 37.6533 5.71733 36.096 7.424C34.5387 9.13067 32.6933 11.1787 30.56 13.568C28.2987 16.1707 25.5147 18.4213 22.208 20.32C17.8133 22.8587 13.408 24.128 8.992 24.128C6.368 24.128 4.23467 23.5627 2.592 22.432C0.864 21.2587 0 19.616 0 17.504C0 14.56 1.73867 12.0533 5.216 9.984C8.544 8 12.352 7.008 16.64 7.008C18.5387 7.008 20.3093 7.22133 21.952 7.648C23.1893 8.01067 24.0213 8.37333 24.448 8.736C24.4693 8.8 24.3947 8.864 24.224 8.928C24.0533 8.992 23.872 9.00267 23.68 8.96C22.1653 8.14933 19.9467 7.744 17.024 7.744C13.3333 7.744 9.81333 8.864 6.464 11.104C3.09333 13.3227 1.408 15.6587 1.408 18.112C1.408 21.6533 3.968 23.424 9.088 23.424C12.672 23.424 16.4053 22.432 20.288 20.448C23.8933 18.6347 26.9973 16.2773 29.6 13.376C33.12 9.472 35.904 6.45333 37.952 4.32C40 2.16533 41.3227 0.874666 41.92 0.448Z" transform="translate(0.552368 0.936035)" fill="white"/>
<path d="M76.812 10.4C77.132 10.3573 77.4307 10.3147 77.708 10.272C78.0067 10.2293 78.3053 10.208 78.604 10.208C80.0547 10.208 81.1853 10.6027 81.996 11.392C82.828 12.16 83.244 13.2267 83.244 14.592C83.244 15.6373 82.9667 16.704 82.412 17.792C81.8787 18.88 81.1853 19.872 80.332 20.768C79.4787 21.664 78.5187 22.4 77.452 22.976C76.4067 23.552 75.3613 23.84 74.316 23.84C71.9907 23.84 70.828 22.816 70.828 20.768C70.828 20.192 70.9987 19.68 71.34 19.232C71.7027 18.784 72.1293 18.56 72.62 18.56C73.5587 18.56 74.028 19.0933 74.028 20.16C74.028 20.608 73.9107 20.9707 73.676 21.248C73.4413 21.5253 73.1853 21.7387 72.908 21.888C72.6307 22.016 72.3747 22.112 72.14 22.176C71.9053 22.24 71.788 22.2827 71.788 22.304C71.788 22.4747 71.9907 22.656 72.396 22.848C72.8013 23.0187 73.228 23.104 73.676 23.104C74.4653 23.104 75.2973 22.848 76.172 22.336C77.0467 21.824 77.8467 21.1733 78.572 20.384C79.2973 19.5733 79.8947 18.6773 80.364 17.696C80.8333 16.6933 81.068 15.712 81.068 14.752C81.068 13.6 80.716 12.6827 80.012 12C79.3293 11.3173 78.508 10.976 77.548 10.976C76.972 10.976 76.3853 11.104 75.788 11.36C75.2333 11.5947 74.7213 11.8613 74.252 12.16C74.124 12.48 73.996 12.7573 73.868 12.992C73.5693 13.632 73.3667 14.0587 73.26 14.272L72.62 15.488C71.852 16.9387 70.9133 18.176 69.804 19.2C68.6947 20.2027 67.244 21.1307 65.452 21.984C62.4013 23.456 59.212 24.192 55.884 24.192C54.0707 24.192 52.428 24.0213 50.956 23.68C49.5053 23.3173 48.2573 22.816 47.212 22.176C46.188 21.536 45.3987 20.768 44.844 19.872C44.2893 18.9547 44.012 17.9413 44.012 16.832C44.012 15.68 44.364 14.5707 45.068 13.504C45.7933 12.416 46.7533 11.456 47.948 10.624C49.164 9.77067 50.5507 9.09867 52.108 8.608C53.6867 8.096 55.34 7.84 57.068 7.84C58.028 7.84 58.9667 7.91467 59.884 8.064V8.032C60.2467 6.96533 60.8973 5.952 61.836 4.992C62.796 4.01067 63.948 3.15733 65.292 2.432C66.636 1.68533 68.1187 1.09867 69.74 0.671999C71.3613 0.224 73.0147 0 74.7 0C76.044 0 77.964 0.416 80.46 1.248C81.74 1.67467 82.732 1.984 83.436 2.176C84.1613 2.368 84.5987 2.464 84.748 2.464C85.3667 2.464 85.8893 2.12267 86.316 1.44C86.38 1.39733 86.4547 1.376 86.54 1.376C86.732 1.376 86.828 1.48267 86.828 1.696C86.828 2.016 86.7 2.32533 86.444 2.624C86.188 2.92267 85.8573 3.18933 85.452 3.424C85.068 3.65867 84.6413 3.85067 84.172 4C83.7027 4.14933 83.2653 4.224 82.86 4.224C82.1347 4.224 80.4387 3.73333 77.772 2.752C75.148 1.77067 72.9827 1.28 71.276 1.28C70.2093 1.28 69.1213 1.48267 68.012 1.888C66.924 2.29333 65.9 2.82667 64.94 3.488C63.98 4.128 63.1373 4.864 62.412 5.696C61.6867 6.50667 61.1747 7.33867 60.876 8.192L60.844 8.224C61.4413 8.352 62.028 8.512 62.604 8.704C64.3533 9.25867 65.8893 9.984 67.212 10.88L67.276 11.072C67.276 11.2427 67.148 11.328 66.892 11.328C66.8707 11.328 66.7747 11.3067 66.604 11.264C65.004 10.1973 63.0413 9.39733 60.716 8.864C60.6307 9.26933 60.588 9.55733 60.588 9.728C60.588 10.3467 60.7267 10.9653 61.004 11.584V11.648C61.004 11.776 60.9293 11.84 60.78 11.84C60.6093 11.84 60.46 11.744 60.332 11.552C60.204 11.36 60.0973 11.136 60.012 10.88C59.9267 10.624 59.8627 10.368 59.82 10.112C59.7773 9.83467 59.756 9.62133 59.756 9.472V9.184C59.756 9.07733 59.7667 8.97067 59.788 8.864V8.736C59.404 8.69333 59.0947 8.66133 58.86 8.64C58.5613 8.61867 58.2627 8.608 57.964 8.608C56.428 8.608 54.924 8.85333 53.452 9.344C51.98 9.81333 50.668 10.4533 49.516 11.264C48.364 12.0533 47.436 12.96 46.732 13.984C46.0493 15.008 45.708 16.0747 45.708 17.184C45.708 18.1867 45.9427 19.0827 46.412 19.872C46.9027 20.64 47.596 21.3013 48.492 21.856C49.388 22.3893 50.476 22.8053 51.756 23.104C53.036 23.3813 54.4867 23.52 56.108 23.52C59.0947 23.4987 61.7507 22.8373 64.076 21.536C66.4227 20.2347 68.396 18.2293 69.996 15.52L70.7 14.336C71.0627 13.6533 71.4467 12.928 71.852 12.16C72.2787 11.392 72.6947 10.6667 73.1 9.984C73.5053 9.28 73.8893 8.64 74.252 8.064C74.636 7.488 74.9773 7.05067 75.276 6.752C75.5533 6.45333 75.916 6.13333 76.364 5.792C76.812 5.45067 77.2707 5.14133 77.74 4.864C78.2093 4.56533 78.6467 4.33067 79.052 4.16C79.4787 3.968 79.8093 3.872 80.044 3.872C80.236 3.872 80.332 3.936 80.332 4.064C80.332 4.256 80.1933 4.39467 79.916 4.48C79.5107 4.65067 79.116 4.87467 78.732 5.152C78.3693 5.408 77.996 5.76 77.612 6.208C77.228 6.656 76.8333 7.22133 76.428 7.904C76.0227 8.56533 75.5853 9.38667 75.116 10.368C75.0093 10.6027 74.9027 10.8267 74.796 11.04C75.052 10.9333 75.308 10.8267 75.564 10.72C76.0547 10.528 76.4707 10.4213 76.812 10.4Z" transform="translate(0.552368 0.936035)" fill="white"/>
</svg>
