<svg width="16" height="21" viewBox="0 0 16 21" fill="none" xmlns="http://www.w3.org/2000/svg">
<path fill-rule="evenodd" clip-rule="evenodd" d="M14 6.6499C14 8.34326 13.334 9.88867 12.2373 11.0625L9.99634 14.2559L7 19L4.00366 14.2559L1.7627 11.0625C0.666016 9.88867 0 8.34326 0 6.6499C0 2.97754 3.13403 0 7 0C10.866 0 14 2.97754 14 6.6499ZM6.99976 10.9995C9.20898 10.9995 10.9998 9.2085 10.9998 6.99951C10.9998 4.79053 9.20898 2.99951 6.99976 2.99951C4.79053 2.99951 2.99976 4.79053 2.99976 6.99951C2.99976 9.2085 4.79053 10.9995 6.99976 10.9995Z" transform="translate(1 1)" fill="#746983"/>
</svg>
