<svg width="61" height="65" viewBox="0 0 61 65" fill="none" xmlns="http://www.w3.org/2000/svg">
<rect width="60.0758" height="65" fill="black" fill-opacity="0"/>
<rect width="60.0758" height="65" fill="black" fill-opacity="0"/>
<path d="M2.28286 38.6304H4.80612V62.6876C4.80612 64.0264 5.76729 65 7.08898 65H52.9869C54.3086 65 55.2698 64.0264 55.2698 62.6876V38.6304H57.7929C59.1146 38.6304 60.0758 37.6973 60.0758 36.318V19.5226C60.0758 18.1838 59.1146 17.1291 57.7929 17.1291H46.4987C51.7853 14.2893 54.4687 11.6928 54.8692 8.69072C55.1095 6.86519 54.5489 4.22812 50.6639 1.83455C46.5387 -0.68056 43.1344 -0.153173 40.9717 0.739264C37.4472 2.19974 34.3233 5.76977 31.7601 11.3683C31.3596 12.2202 31.0392 13.0316 30.7188 13.8024C30.3984 13.0316 30.078 12.2202 29.6775 11.3683C27.0742 5.76977 23.9903 2.19974 20.4659 0.739264C18.3032 -0.153173 14.8989 -0.68056 10.7737 1.83469C6.84873 4.22826 6.32808 6.90571 6.56833 8.73138C6.92872 11.6928 9.6121 14.2893 14.8989 17.1291H2.28286C0.961169 17.1291 0 18.1838 0 19.5226V36.3181C0 37.6974 0.961307 38.6304 2.28286 38.6304ZM9.6121 38.6304H27.6349V60.1318H9.6121V38.6304ZM50.4636 60.1318H32.441V38.6304H50.4638V60.1318H50.4636ZM55.2698 33.7622H52.9869H32.441V21.9974H33.7627H55.2698V33.7622ZM36.1256 13.3967C38.128 9.01526 40.451 6.17547 42.814 5.20186C43.4148 4.9585 44.0156 4.83682 44.6564 4.83682C45.7778 4.83682 46.9392 5.20187 48.1808 5.97276C49.4223 6.74351 50.1833 7.55492 50.1433 8.04179C49.8629 10.2325 42.854 14.1271 34.7639 16.683C35.1244 15.7091 35.5649 14.5731 36.1256 13.3967ZM11.2943 8.04165C11.2142 7.55478 11.9752 6.74351 13.2568 5.97262C14.4984 5.20186 15.6598 4.83668 16.7812 4.83668C17.422 4.83668 18.0228 4.95836 18.6236 5.20173C22.3482 6.74337 25.1518 12.4635 26.7137 16.6827C18.5834 14.1269 11.5746 10.2324 11.2943 8.04165ZM4.80612 21.9972H27.6349V33.7622H7.08898H4.80612V21.9972Z" fill="#ABA5B2"/>
</svg>
