<svg width="38" height="36" viewBox="0 0 38 36" fill="none" xmlns="http://www.w3.org/2000/svg">
<path d="M10.5719 0.50125C3.2555 2.55051 -1.83738 10.7821 0.62894 16.7867C2.58576 21.5507 8.44775 24.8114 15.7703 22.6545C23.1842 20.4707 24.8587 13.2369 23.9361 11.7856C22.0147 8.76284 20.436 13.9726 19.6473 11.671C18.9608 9.66771 22.1711 4.90028 19.4122 2.04526C16.7323 -0.728292 12.5756 -0.060043 10.5719 0.50125ZM1.61665 13.5643C1.34196 12.7628 1.77528 11.9292 2.58463 11.7025C3.39392 11.4758 4.27269 11.9419 4.54743 12.7434C4.82212 13.5449 4.38874 14.3785 3.57945 14.6053C2.77016 14.832 1.89128 14.3659 1.61665 13.5643ZM4.64507 17.8388C4.37033 17.0372 4.8037 16.2036 5.61299 15.9769C6.42228 15.7502 7.30105 16.2163 7.57579 17.0178C7.85054 17.8193 7.41717 18.6531 6.60788 18.8797C5.79853 19.1064 4.91982 18.6404 4.64507 17.8388ZM11.5239 20.8266C10.7146 21.0534 9.83589 20.5872 9.56114 19.7857C9.28639 18.9841 9.71977 18.1505 10.5291 17.9237C11.3383 17.6971 12.2171 18.1631 12.4919 18.9647C12.7666 19.7663 12.3333 20.5999 11.5239 20.8266ZM17.8389 18.4705C18.1136 19.272 17.6803 20.1056 16.8709 20.3323C16.0616 20.559 15.1829 20.0929 14.9083 19.2914C14.6334 18.4899 15.0668 17.6561 15.8762 17.4295C16.6853 17.2027 17.5641 17.6688 17.8389 18.4705ZM16.0172 5.26004C16.4799 6.61049 15.7498 8.01481 14.3866 8.39668C13.0231 8.77854 11.5427 7.99343 11.08 6.64298C10.6172 5.29259 11.3473 3.88827 12.7106 3.50635C14.0739 3.12442 15.5544 3.90965 16.0172 5.26004Z" transform="scale(1.5)" fill="white"/>
</svg>
