<svg width="25" height="25" viewBox="0 0 25 25" fill="none" xmlns="http://www.w3.org/2000/svg">
<path d="M14.0909 12.5571L24.6591 1.94064C25.1136 1.48405 25.1136 0.799032 24.6591 0.342442C24.2046 -0.114147 23.5227 -0.114147 23.0682 0.342442L12.5 10.9589L1.93181 0.342442C1.4773 -0.114147 0.795396 -0.114147 0.340884 0.342442C-0.113628 0.799032 -0.113628 1.48405 0.340884 1.94064L10.9089 12.5571L0.340884 23.1735C-0.113628 23.6301 -0.113628 24.3151 0.340884 24.7717C0.56814 25 1.02265 25 1.24991 25C1.47716 25 1.93168 25 1.93168 24.7717L12.4999 14.1552L23.0681 24.7717C23.2953 25 23.7498 25 23.9771 25C24.2043 25 24.6589 25 24.6589 24.7717C25.1134 24.3151 25.1134 23.6301 24.6589 23.1735L14.0909 12.5571Z" fill="white"/>
</svg>
