<svg width="60" height="60" viewBox="0 0 60 60" fill="none" xmlns="http://www.w3.org/2000/svg">
<circle cx="20" cy="20" r="20" transform="scale(1.5)" fill="white"/>
<mask id="path-2-outside-1" maskUnits="userSpaceOnUse" x="-1" y="-1" width="20" height="20" fill="black">
<rect fill="white" x="-1" y="-1" width="20" height="20"/>
<path d="M12.2294 16.5098H12.2301L12.2398 16.5094C12.2819 16.5078 12.3243 16.5061 12.3676 16.5044L12.2294 16.5098Z"/>
<path fill-rule="evenodd" clip-rule="evenodd" d="M5.22869 0.0667631L5.23266 0.0665941L5.23662 0.0663687C6.19713 0.00011268 6.48993 0 9 0C11.5101 0 11.8029 0.00011268 12.7634 0.0663687H12.7639C13.7546 0.132399 14.3959 0.263503 14.9322 0.484356L14.9364 0.48599C15.5099 0.708984 16.0176 1.02624 16.4957 1.50434C17.0063 2.01501 17.2905 2.48888 17.514 3.06355C17.7389 3.64177 17.9007 4.28512 17.9333 5.2287L17.9334 5.23265L17.9337 5.23659C17.9999 6.19713 18 6.52329 18 9C18 11.038 17.9773 11.62 17.9506 12.3058L17.9502 12.3156C17.9447 12.457 17.9391 12.6031 17.9334 12.7676C17.8672 13.7562 17.7362 14.3965 17.5157 14.9322L17.514 14.9364C17.291 15.5099 16.9737 16.0176 16.4957 16.4957C15.985 17.0063 15.5111 17.2905 14.9364 17.514C14.3582 17.7389 13.7149 17.9007 12.7713 17.9332L12.7673 17.9334L12.7634 17.9336C11.8029 17.9999 11.4767 18 9 18C6.96194 18 6.38 17.9774 5.69419 17.9506C5.54973 17.945 5.40068 17.9392 5.23244 17.9333C4.24381 17.8673 3.60347 17.7362 3.06782 17.5156L3.06358 17.514C2.49007 17.291 1.98237 16.9738 1.50431 16.4957C0.993657 15.9851 0.709477 15.5111 0.485976 14.9364C0.261122 14.3582 0.0992854 13.7149 0.066749 12.7713L0.0666222 12.7674L0.0663405 12.7634C9.85953e-05 11.8029 0 11.5101 0 9C0 6.96195 0.0226628 6.38001 0.0493821 5.69419L0.0497624 5.68444C0.0552697 5.54303 0.060946 5.39688 0.0666222 5.23242C0.132751 4.24382 0.26377 3.60346 0.484328 3.06783L0.485976 3.06355C0.709013 2.49007 1.02625 1.98238 1.50431 1.50434C2.01498 0.993671 2.48888 0.709491 3.06358 0.48599C3.6418 0.261137 4.28513 0.0992713 5.22869 0.0667631ZM14.5009 1.59398L14.4927 1.59082L14.4844 1.58834C14.4552 1.57955 14.4248 1.57026 14.393 1.56051C14.0596 1.45825 13.5758 1.3098 12.7246 1.27791C11.7496 1.21069 11.4378 1.21069 9.01042 1.21069H8.98958C6.56225 1.21069 6.25036 1.21069 5.2754 1.27791C4.35316 1.31239 3.85927 1.45003 3.49765 1.59454C3.03175 1.77393 2.70407 1.99298 2.34852 2.34854C1.99261 2.70444 1.77346 3.0324 1.59398 3.49912L1.59083 3.50723L1.58833 3.51562C1.57993 3.54363 1.57102 3.5727 1.56172 3.60301L1.5605 3.60701C1.45822 3.94037 1.3098 4.42422 1.27789 5.27541C1.21071 6.25038 1.21071 6.56222 1.21071 8.98958V9C1.21071 10.9992 1.23314 11.5679 1.2596 12.2384C1.26551 12.3882 1.27163 12.5432 1.27772 12.7203L1.27775 12.7209C1.31199 13.6455 1.44984 14.1402 1.59454 14.5023C1.77393 14.9683 1.99298 15.296 2.34852 15.6515C2.70444 16.0074 3.03242 16.2265 3.4991 16.406L3.50726 16.4092L3.51562 16.4117C3.54484 16.4204 3.57523 16.4297 3.60699 16.4395C3.94036 16.5417 4.42421 16.6902 5.27541 16.7221C6.25033 16.7893 6.56223 16.7893 8.98935 16.7893H9C10.9992 16.7893 11.5679 16.7669 12.2384 16.7404C12.3883 16.7345 12.5432 16.7284 12.7203 16.7223H12.7209C13.6454 16.688 14.1402 16.5502 14.5022 16.4055C14.9682 16.2261 15.2959 16.007 15.6515 15.6515C16.0074 15.2956 16.2265 14.9676 16.406 14.5009L16.4092 14.4928L16.4117 14.4844C16.4201 14.4564 16.429 14.4273 16.4383 14.397L16.4395 14.393C16.5418 14.0596 16.6902 13.5758 16.7221 12.7246C16.7893 11.7497 16.7893 11.4378 16.7893 9.01065V9C16.7893 7.00083 16.7669 6.43207 16.7404 5.76157C16.7345 5.6117 16.7284 5.45677 16.7223 5.27969L16.7222 5.27907C16.688 4.35459 16.5502 3.85986 16.4055 3.49777C16.2261 3.03178 16.007 2.7041 15.6515 2.34854C15.2956 1.99264 14.9676 1.77348 14.5009 1.59398Z"/>
<path fill-rule="evenodd" clip-rule="evenodd" d="M4.51504 8.96648C4.51504 6.4852 6.51875 4.48152 8.99999 4.48152C11.4812 4.48152 13.4849 6.4852 13.4849 8.96648C13.4849 11.4477 11.4812 13.4514 8.99999 13.4514C6.51875 13.4514 4.51504 11.4477 4.51504 8.96648ZM5.6923 8.96648C5.6923 10.7996 7.16686 12.2742 8.99999 12.2742C10.8331 12.2742 12.3077 10.7996 12.3077 8.96648C12.3077 7.13334 10.8331 5.6588 8.99999 5.6588C7.16686 5.6588 5.6923 7.13334 5.6923 8.96648Z"/>
<path d="M13.9164 5.15383C14.5259 5.15383 15.0201 4.6597 15.0201 4.05016C15.0201 3.44061 14.5259 2.94648 13.9164 2.94648C13.3069 2.94648 12.8127 3.44061 12.8127 4.05016C12.8127 4.6597 13.3069 5.15383 13.9164 5.15383Z"/>
</mask>
<path d="M12.2294 16.5098H12.2301L12.2398 16.5094C12.2819 16.5078 12.3243 16.5061 12.3676 16.5044L12.2294 16.5098Z" transform="translate(16.5 16.5) scale(1.5)" fill="#47276A"/>
<path fill-rule="evenodd" clip-rule="evenodd" d="M5.22869 0.0667631L5.23266 0.0665941L5.23662 0.0663687C6.19713 0.00011268 6.48993 0 9 0C11.5101 0 11.8029 0.00011268 12.7634 0.0663687H12.7639C13.7546 0.132399 14.3959 0.263503 14.9322 0.484356L14.9364 0.48599C15.5099 0.708984 16.0176 1.02624 16.4957 1.50434C17.0063 2.01501 17.2905 2.48888 17.514 3.06355C17.7389 3.64177 17.9007 4.28512 17.9333 5.2287L17.9334 5.23265L17.9337 5.23659C17.9999 6.19713 18 6.52329 18 9C18 11.038 17.9773 11.62 17.9506 12.3058L17.9502 12.3156C17.9447 12.457 17.9391 12.6031 17.9334 12.7676C17.8672 13.7562 17.7362 14.3965 17.5157 14.9322L17.514 14.9364C17.291 15.5099 16.9737 16.0176 16.4957 16.4957C15.985 17.0063 15.5111 17.2905 14.9364 17.514C14.3582 17.7389 13.7149 17.9007 12.7713 17.9332L12.7673 17.9334L12.7634 17.9336C11.8029 17.9999 11.4767 18 9 18C6.96194 18 6.38 17.9774 5.69419 17.9506C5.54973 17.945 5.40068 17.9392 5.23244 17.9333C4.24381 17.8673 3.60347 17.7362 3.06782 17.5156L3.06358 17.514C2.49007 17.291 1.98237 16.9738 1.50431 16.4957C0.993657 15.9851 0.709477 15.5111 0.485976 14.9364C0.261122 14.3582 0.0992854 13.7149 0.066749 12.7713L0.0666222 12.7674L0.0663405 12.7634C9.85953e-05 11.8029 0 11.5101 0 9C0 6.96195 0.0226628 6.38001 0.0493821 5.69419L0.0497624 5.68444C0.0552697 5.54303 0.060946 5.39688 0.0666222 5.23242C0.132751 4.24382 0.26377 3.60346 0.484328 3.06783L0.485976 3.06355C0.709013 2.49007 1.02625 1.98238 1.50431 1.50434C2.01498 0.993671 2.48888 0.709491 3.06358 0.48599C3.6418 0.261137 4.28513 0.0992713 5.22869 0.0667631ZM14.5009 1.59398L14.4927 1.59082L14.4844 1.58834C14.4552 1.57955 14.4248 1.57026 14.393 1.56051C14.0596 1.45825 13.5758 1.3098 12.7246 1.27791C11.7496 1.21069 11.4378 1.21069 9.01042 1.21069H8.98958C6.56225 1.21069 6.25036 1.21069 5.2754 1.27791C4.35316 1.31239 3.85927 1.45003 3.49765 1.59454C3.03175 1.77393 2.70407 1.99298 2.34852 2.34854C1.99261 2.70444 1.77346 3.0324 1.59398 3.49912L1.59083 3.50723L1.58833 3.51562C1.57993 3.54363 1.57102 3.5727 1.56172 3.60301L1.5605 3.60701C1.45822 3.94037 1.3098 4.42422 1.27789 5.27541C1.21071 6.25038 1.21071 6.56222 1.21071 8.98958V9C1.21071 10.9992 1.23314 11.5679 1.2596 12.2384C1.26551 12.3882 1.27163 12.5432 1.27772 12.7203L1.27775 12.7209C1.31199 13.6455 1.44984 14.1402 1.59454 14.5023C1.77393 14.9683 1.99298 15.296 2.34852 15.6515C2.70444 16.0074 3.03242 16.2265 3.4991 16.406L3.50726 16.4092L3.51562 16.4117C3.54484 16.4204 3.57523 16.4297 3.60699 16.4395C3.94036 16.5417 4.42421 16.6902 5.27541 16.7221C6.25033 16.7893 6.56223 16.7893 8.98935 16.7893H9C10.9992 16.7893 11.5679 16.7669 12.2384 16.7404C12.3883 16.7345 12.5432 16.7284 12.7203 16.7223H12.7209C13.6454 16.688 14.1402 16.5502 14.5022 16.4055C14.9682 16.2261 15.2959 16.007 15.6515 15.6515C16.0074 15.2956 16.2265 14.9676 16.406 14.5009L16.4092 14.4928L16.4117 14.4844C16.4201 14.4564 16.429 14.4273 16.4383 14.397L16.4395 14.393C16.5418 14.0596 16.6902 13.5758 16.7221 12.7246C16.7893 11.7497 16.7893 11.4378 16.7893 9.01065V9C16.7893 7.00083 16.7669 6.43207 16.7404 5.76157C16.7345 5.6117 16.7284 5.45677 16.7223 5.27969L16.7222 5.27907C16.688 4.35459 16.5502 3.85986 16.4055 3.49777C16.2261 3.03178 16.007 2.7041 15.6515 2.34854C15.2956 1.99264 14.9676 1.77348 14.5009 1.59398Z" transform="translate(16.5 16.5) scale(1.5)" fill="#47276A"/>
<path fill-rule="evenodd" clip-rule="evenodd" d="M4.51504 8.96648C4.51504 6.4852 6.51875 4.48152 8.99999 4.48152C11.4812 4.48152 13.4849 6.4852 13.4849 8.96648C13.4849 11.4477 11.4812 13.4514 8.99999 13.4514C6.51875 13.4514 4.51504 11.4477 4.51504 8.96648ZM5.6923 8.96648C5.6923 10.7996 7.16686 12.2742 8.99999 12.2742C10.8331 12.2742 12.3077 10.7996 12.3077 8.96648C12.3077 7.13334 10.8331 5.6588 8.99999 5.6588C7.16686 5.6588 5.6923 7.13334 5.6923 8.96648Z" transform="translate(16.5 16.5) scale(1.5)" fill="#47276A"/>
<path d="M13.9164 5.15383C14.5259 5.15383 15.0201 4.6597 15.0201 4.05016C15.0201 3.44061 14.5259 2.94648 13.9164 2.94648C13.3069 2.94648 12.8127 3.44061 12.8127 4.05016C12.8127 4.6597 13.3069 5.15383 13.9164 5.15383Z" transform="translate(16.5 16.5) scale(1.5)" fill="#47276A"/>
<path d="M12.2294 16.5098H12.2301L12.2398 16.5094C12.2819 16.5078 12.3243 16.5061 12.3676 16.5044L12.2294 16.5098Z" transform="translate(16.5 16.5) scale(1.5)" stroke="#47276A" stroke-width="0.5" mask="url(#path-2-outside-1)"/>
<path fill-rule="evenodd" clip-rule="evenodd" d="M5.22869 0.0667631L5.23266 0.0665941L5.23662 0.0663687C6.19713 0.00011268 6.48993 0 9 0C11.5101 0 11.8029 0.00011268 12.7634 0.0663687H12.7639C13.7546 0.132399 14.3959 0.263503 14.9322 0.484356L14.9364 0.48599C15.5099 0.708984 16.0176 1.02624 16.4957 1.50434C17.0063 2.01501 17.2905 2.48888 17.514 3.06355C17.7389 3.64177 17.9007 4.28512 17.9333 5.2287L17.9334 5.23265L17.9337 5.23659C17.9999 6.19713 18 6.52329 18 9C18 11.038 17.9773 11.62 17.9506 12.3058L17.9502 12.3156C17.9447 12.457 17.9391 12.6031 17.9334 12.7676C17.8672 13.7562 17.7362 14.3965 17.5157 14.9322L17.514 14.9364C17.291 15.5099 16.9737 16.0176 16.4957 16.4957C15.985 17.0063 15.5111 17.2905 14.9364 17.514C14.3582 17.7389 13.7149 17.9007 12.7713 17.9332L12.7673 17.9334L12.7634 17.9336C11.8029 17.9999 11.4767 18 9 18C6.96194 18 6.38 17.9774 5.69419 17.9506C5.54973 17.945 5.40068 17.9392 5.23244 17.9333C4.24381 17.8673 3.60347 17.7362 3.06782 17.5156L3.06358 17.514C2.49007 17.291 1.98237 16.9738 1.50431 16.4957C0.993657 15.9851 0.709477 15.5111 0.485976 14.9364C0.261122 14.3582 0.0992854 13.7149 0.066749 12.7713L0.0666222 12.7674L0.0663405 12.7634C9.85953e-05 11.8029 0 11.5101 0 9C0 6.96195 0.0226628 6.38001 0.0493821 5.69419L0.0497624 5.68444C0.0552697 5.54303 0.060946 5.39688 0.0666222 5.23242C0.132751 4.24382 0.26377 3.60346 0.484328 3.06783L0.485976 3.06355C0.709013 2.49007 1.02625 1.98238 1.50431 1.50434C2.01498 0.993671 2.48888 0.709491 3.06358 0.48599C3.6418 0.261137 4.28513 0.0992713 5.22869 0.0667631ZM14.5009 1.59398L14.4927 1.59082L14.4844 1.58834C14.4552 1.57955 14.4248 1.57026 14.393 1.56051C14.0596 1.45825 13.5758 1.3098 12.7246 1.27791C11.7496 1.21069 11.4378 1.21069 9.01042 1.21069H8.98958C6.56225 1.21069 6.25036 1.21069 5.2754 1.27791C4.35316 1.31239 3.85927 1.45003 3.49765 1.59454C3.03175 1.77393 2.70407 1.99298 2.34852 2.34854C1.99261 2.70444 1.77346 3.0324 1.59398 3.49912L1.59083 3.50723L1.58833 3.51562C1.57993 3.54363 1.57102 3.5727 1.56172 3.60301L1.5605 3.60701C1.45822 3.94037 1.3098 4.42422 1.27789 5.27541C1.21071 6.25038 1.21071 6.56222 1.21071 8.98958V9C1.21071 10.9992 1.23314 11.5679 1.2596 12.2384C1.26551 12.3882 1.27163 12.5432 1.27772 12.7203L1.27775 12.7209C1.31199 13.6455 1.44984 14.1402 1.59454 14.5023C1.77393 14.9683 1.99298 15.296 2.34852 15.6515C2.70444 16.0074 3.03242 16.2265 3.4991 16.406L3.50726 16.4092L3.51562 16.4117C3.54484 16.4204 3.57523 16.4297 3.60699 16.4395C3.94036 16.5417 4.42421 16.6902 5.27541 16.7221C6.25033 16.7893 6.56223 16.7893 8.98935 16.7893H9C10.9992 16.7893 11.5679 16.7669 12.2384 16.7404C12.3883 16.7345 12.5432 16.7284 12.7203 16.7223H12.7209C13.6454 16.688 14.1402 16.5502 14.5022 16.4055C14.9682 16.2261 15.2959 16.007 15.6515 15.6515C16.0074 15.2956 16.2265 14.9676 16.406 14.5009L16.4092 14.4928L16.4117 14.4844C16.4201 14.4564 16.429 14.4273 16.4383 14.397L16.4395 14.393C16.5418 14.0596 16.6902 13.5758 16.7221 12.7246C16.7893 11.7497 16.7893 11.4378 16.7893 9.01065V9C16.7893 7.00083 16.7669 6.43207 16.7404 5.76157C16.7345 5.6117 16.7284 5.45677 16.7223 5.27969L16.7222 5.27907C16.688 4.35459 16.5502 3.85986 16.4055 3.49777C16.2261 3.03178 16.007 2.7041 15.6515 2.34854C15.2956 1.99264 14.9676 1.77348 14.5009 1.59398Z" transform="translate(16.5 16.5) scale(1.5)" stroke="#47276A" stroke-width="0.5" mask="url(#path-2-outside-1)"/>
<path fill-rule="evenodd" clip-rule="evenodd" d="M4.51504 8.96648C4.51504 6.4852 6.51875 4.48152 8.99999 4.48152C11.4812 4.48152 13.4849 6.4852 13.4849 8.96648C13.4849 11.4477 11.4812 13.4514 8.99999 13.4514C6.51875 13.4514 4.51504 11.4477 4.51504 8.96648ZM5.6923 8.96648C5.6923 10.7996 7.16686 12.2742 8.99999 12.2742C10.8331 12.2742 12.3077 10.7996 12.3077 8.96648C12.3077 7.13334 10.8331 5.6588 8.99999 5.6588C7.16686 5.6588 5.6923 7.13334 5.6923 8.96648Z" transform="translate(16.5 16.5) scale(1.5)" stroke="#47276A" stroke-width="0.5" mask="url(#path-2-outside-1)"/>
<path d="M13.9164 5.15383C14.5259 5.15383 15.0201 4.6597 15.0201 4.05016C15.0201 3.44061 14.5259 2.94648 13.9164 2.94648C13.3069 2.94648 12.8127 3.44061 12.8127 4.05016C12.8127 4.6597 13.3069 5.15383 13.9164 5.15383Z" transform="translate(16.5 16.5) scale(1.5)" stroke="#47276A" stroke-width="0.5" mask="url(#path-2-outside-1)"/>
</svg>
