<svg width="70" height="71" viewBox="0 0 70 71" fill="none" xmlns="http://www.w3.org/2000/svg">
<path d="M47.5589 64.0663H47.5616L47.5993 64.0648C47.7628 64.0584 47.9277 64.0519 48.0961 64.0453L47.5589 64.0663Z" transform="translate(0 0.620361)" fill="#E0C675"/>
<path fill-rule="evenodd" clip-rule="evenodd" d="M20.3338 0.259074L20.3492 0.258418L20.3646 0.257544C24.1 0.000437256 25.2386 0 35 0C44.7614 0 45.9 0.000437256 49.6354 0.257544H49.6375C53.4902 0.513776 55.9839 1.02252 58.0696 1.87955L58.0861 1.88589C60.3164 2.75122 62.2908 3.98231 64.1499 5.83759C66.1358 7.81923 67.2409 9.65811 68.11 11.8881C68.9845 14.1319 69.6139 16.6284 69.7404 20.29L69.7409 20.3053L69.742 20.3206C69.9996 24.048 70 25.3136 70 34.9245C70 42.8332 69.9119 45.0914 69.808 47.7527L69.8065 47.7906C69.7851 48.3393 69.763 48.9064 69.7409 49.5446C69.4837 53.3809 68.9742 55.8658 68.1165 57.9443L68.11 57.9609C67.2427 60.1863 66.009 62.1564 64.1499 64.0114C62.164 65.9931 60.321 67.0958 58.0861 67.9631C55.8374 68.8357 53.3356 69.4638 49.6662 69.59L49.6508 69.5906L49.6354 69.5915C45.9001 69.8486 44.6316 69.849 35 69.849C27.0742 69.849 24.8111 69.7611 22.1441 69.6575C21.5823 69.6356 21.0027 69.6131 20.3484 69.5904C16.5037 69.3339 14.0135 68.8254 11.9304 67.9695L11.9139 67.9631C9.68359 67.0976 7.70922 65.8667 5.85009 64.0114C3.86422 62.03 2.75908 60.1909 1.88991 57.9609C1.01548 55.7171 0.38611 53.2206 0.259579 49.559L0.259086 49.5437L0.257991 49.5284C0.000383426 45.801 0 44.6648 0 34.9245C0 27.0159 0.0881332 24.7577 0.192042 22.0963L0.193521 22.0585C0.214938 21.5097 0.237012 20.9426 0.259086 20.3044C0.516256 16.4682 1.02577 13.9832 1.8835 11.9047L1.88991 11.8881C2.75727 9.6627 3.99097 7.69265 5.85009 5.83759C7.83602 3.85594 9.67899 2.75318 11.9139 1.88589C14.1626 1.01334 16.6644 0.385223 20.3338 0.259074ZM56.3924 6.18542L56.3607 6.17318L56.3281 6.16356C56.2145 6.12946 56.0963 6.09338 55.9728 6.05556C54.6764 5.65875 52.7947 5.08266 49.4846 4.95892C45.693 4.6981 44.4802 4.6981 35.0405 4.6981H34.9595C25.5198 4.6981 24.307 4.6981 20.5154 4.95892C16.929 5.09272 15.0083 5.62683 13.602 6.18761C11.7901 6.88372 10.5158 7.73375 9.13315 9.11351C7.74904 10.4946 6.89679 11.7672 6.19879 13.5783L6.18658 13.6098L6.17683 13.6424C6.14418 13.751 6.10951 13.8639 6.07336 13.9815L6.06859 13.997C5.67087 15.2906 5.09365 17.1682 4.96958 20.4712C4.70831 24.2546 4.70831 25.4647 4.70831 34.8841V34.9245C4.70831 42.6823 4.79556 44.8894 4.89843 47.4913C4.92144 48.0726 4.94521 48.674 4.96893 49.3612L4.96904 49.3636C5.10219 52.9515 5.63828 54.8713 6.20098 56.2764C6.8986 58.0844 7.75046 59.356 9.13315 60.7355C10.5173 62.1166 11.7928 62.9671 13.6076 63.6636L13.6393 63.6758L13.6719 63.6855C13.7855 63.7196 13.9037 63.7556 14.0272 63.7935C15.3236 64.1903 17.2053 64.7664 20.5155 64.8901C24.3069 65.1509 25.5198 65.1509 34.9586 65.1509H35C42.7747 65.1509 44.9864 65.0639 47.594 64.9612C48.1767 64.9382 48.7792 64.9146 49.4679 64.8908H49.4702C53.0656 64.7578 54.9895 64.2231 56.3976 63.6616C58.2097 62.9655 59.484 62.1153 60.8668 60.7355C62.251 59.3544 63.1032 58.0818 63.8012 56.2707L63.8134 56.2392L63.8232 56.2066C63.8558 56.098 63.8905 55.9852 63.9266 55.8675L63.9314 55.852C64.3291 54.5584 64.9064 52.6808 65.0304 49.3778C65.2917 45.5947 65.2917 44.3843 65.2917 34.9658V34.9245C65.2917 27.1667 65.2044 24.9597 65.1016 22.3578C65.0786 21.7762 65.0548 21.175 65.0311 20.4879L65.031 20.4854C64.8978 16.898 64.3618 14.9782 63.7992 13.5731C63.1016 11.7648 62.2496 10.4933 60.8668 9.11351C59.4827 7.73244 58.2072 6.88197 56.3924 6.18542Z" transform="translate(0 0.620361)" fill="#E0C675"/>
<path fill-rule="evenodd" clip-rule="evenodd" d="M17.5585 34.7944C17.5585 25.1658 25.3507 17.3905 34.9999 17.3905C44.6492 17.3905 52.4414 25.1658 52.4414 34.7944C52.4414 44.4228 44.6492 52.1983 34.9999 52.1983C25.3507 52.1983 17.5585 44.4228 17.5585 34.7944ZM22.1367 34.7944C22.1367 41.9079 27.8711 47.6299 34.9999 47.6299C42.1288 47.6299 47.8632 41.9079 47.8632 34.7944C47.8632 27.6809 42.1288 21.959 34.9999 21.959C27.8711 21.959 22.1367 27.6809 22.1367 34.7944Z" transform="translate(0 0.620361)" fill="#E0C675"/>
<path d="M54.1193 19.9995C56.4898 19.9995 58.4114 18.082 58.4114 15.7166C58.4114 13.3513 56.4898 11.4338 54.1193 11.4338C51.7489 11.4338 49.8272 13.3513 49.8272 15.7166C49.8272 18.082 51.7489 19.9995 54.1193 19.9995Z" transform="translate(0 0.620361)" fill="#E0C675"/>
</svg>
