<svg width="267" height="58" viewBox="0 0 267 58" fill="none" xmlns="http://www.w3.org/2000/svg">
<path d="M41.7639 2.79005C41.7639 2.88205 41.7025 3.00472 41.5799 3.15805C41.4572 3.31139 41.3039 3.46472 41.1199 3.61805C40.9359 3.74072 40.7365 3.86339 40.5219 3.98605C40.3379 4.07805 40.1845 4.12406 40.0619 4.12406C39.7552 3.97072 39.4179 3.84806 39.0499 3.75605C38.6819 3.63339 38.3292 3.57205 37.9919 3.57205C37.3785 3.57205 36.8265 3.74072 36.3359 4.07805C35.8759 4.41539 35.4772 4.75272 35.1399 5.09005C34.2812 6.01005 33.4072 7.11405 32.5179 8.40205C31.6285 9.65939 30.7699 11.0087 29.9419 12.4501C29.1139 13.8914 28.3319 15.3941 27.5959 16.9581C26.8905 18.5221 26.2619 20.0707 25.7099 21.6041C25.1579 23.1067 24.7285 24.5481 24.4219 25.9281C24.1152 27.3081 23.9619 28.5347 23.9619 29.6081C23.9619 30.5281 24.1152 31.2947 24.4219 31.9081C24.7285 32.5214 25.2652 32.8281 26.0319 32.8281C27.5959 32.8281 29.2365 32.1994 30.9539 30.9421C32.6712 29.6541 34.4192 27.9061 36.1979 25.6981C36.2592 25.5447 36.3359 25.4987 36.4279 25.5601C36.5505 25.6214 36.5965 25.7287 36.5659 25.8821C35.6459 27.0167 34.6799 28.0747 33.6679 29.0561C32.6559 30.0067 31.6285 30.8501 30.5859 31.5861C29.5739 32.2914 28.5619 32.8434 27.5499 33.2421C26.5379 33.6407 25.5565 33.8401 24.6059 33.8401C23.3485 33.8401 22.5052 33.5181 22.0759 32.8741C21.6772 32.2607 21.4779 31.4787 21.4779 30.5281C21.4779 29.9761 21.5392 29.3014 21.6619 28.5041C21.7845 27.7067 21.9839 26.7867 22.2599 25.7441C22.4132 25.2227 22.3519 24.9314 22.0759 24.8701C21.7999 24.8087 21.4165 24.9774 20.9259 25.3761C19.8525 26.2961 18.7179 27.1701 17.5219 27.9981C16.3565 28.7954 15.1452 29.5007 13.8879 30.1141C12.6305 30.6967 11.3272 31.1567 9.97787 31.4941C8.62854 31.8314 7.24854 32.0001 5.83787 32.0001C4.12054 32.0001 2.92454 31.6321 2.24987 30.8961C1.60587 30.1601 1.28387 29.0714 1.28387 27.6301C1.28387 26.6487 1.54454 25.5754 2.06587 24.4101C2.61787 23.2447 3.32321 22.0641 4.18187 20.8681C5.04054 19.6721 6.00654 18.4761 7.07987 17.2801C8.18387 16.0841 9.28787 14.9647 10.3919 13.9221C11.5265 12.8794 12.5999 11.9441 13.6119 11.1161C14.6545 10.2574 15.5592 9.56739 16.3259 9.04605C15.4365 9.38339 14.4859 9.69005 13.4739 9.96605C12.4925 10.2421 11.4959 10.4874 10.4839 10.7021C9.47187 10.9167 8.49054 11.0854 7.53987 11.2081C6.58921 11.3001 5.69987 11.3461 4.87187 11.3461C4.38121 11.3461 3.89054 11.3154 3.39987 11.2541C2.93987 11.1621 2.51054 11.0087 2.11187 10.7941C1.74387 10.5794 1.43721 10.2881 1.19187 9.92005C0.977206 9.55205 0.869873 9.07672 0.869873 8.49405C0.869873 7.69672 1.11521 6.86872 1.60587 6.01006C2.09654 5.15139 2.60254 4.49205 3.12387 4.03205C3.27721 3.97072 3.35387 4.03205 3.35387 4.21605C2.64854 4.98272 2.29587 5.79539 2.29587 6.65406C2.29587 7.39006 2.46454 7.97272 2.80187 8.40205C3.16987 8.83139 3.61454 9.16872 4.13587 9.41405C4.68787 9.62872 5.27054 9.78205 5.88387 9.87405C6.52787 9.93539 7.12587 9.96605 7.67787 9.96605C9.64054 9.96605 11.4345 9.81272 13.0599 9.50605C14.6852 9.16872 15.9119 8.84672 16.7399 8.54005C16.8932 8.41739 17.1232 8.23339 17.4299 7.98805C17.7365 7.74272 18.0432 7.49739 18.3499 7.25205C18.6872 7.00672 18.9939 6.79205 19.2699 6.60805C19.5765 6.42405 19.8065 6.33205 19.9599 6.33205C19.9905 6.45472 20.0059 6.57739 20.0059 6.70006C20.0059 6.82272 20.0059 6.93005 20.0059 7.02205C19.9445 7.20606 19.7605 7.39006 19.4539 7.57405C19.1472 7.72739 18.5492 8.01872 17.6599 8.44805C15.4825 9.98139 13.5199 11.5607 11.7719 13.1861C10.0545 14.7807 8.58254 16.3601 7.35587 17.9241C6.12921 19.4881 5.17854 21.0061 4.50387 22.4781C3.85987 23.9194 3.53787 25.2841 3.53787 26.5721C3.53787 28.1667 3.96721 29.2707 4.82587 29.8841C5.71521 30.4974 6.86521 30.8041 8.27587 30.8041C9.59454 30.8041 10.9745 30.5587 12.4159 30.0681C13.8572 29.5467 15.2679 28.8721 16.6479 28.0441C18.0279 27.2161 19.3159 26.2654 20.5119 25.1921C21.7079 24.0881 22.7505 22.9381 23.6399 21.7421C24.2532 20.6381 24.9739 19.3807 25.8019 17.9701C26.6299 16.5287 27.4885 15.1027 28.3779 13.6921C29.2672 12.2814 30.1412 10.9474 30.9999 9.69005C31.8585 8.43272 32.6252 7.40539 33.2999 6.60805C34.1279 5.65739 34.8792 4.87539 35.5539 4.26205C36.2285 3.64872 36.8419 3.18872 37.3939 2.88205C37.9459 2.54472 38.4519 2.33005 38.9119 2.23805C39.3719 2.14605 39.8165 2.11539 40.2459 2.14605C40.6139 2.20739 40.9512 2.31472 41.2579 2.46805C41.5952 2.59072 41.7639 2.69805 41.7639 2.79005Z" fill="#00073D"/>
<path d="M39.5005 27.8141C38.6419 27.7527 37.9212 27.7067 37.3385 27.6761C36.7865 27.6147 36.3572 27.5841 36.0505 27.5841C35.5599 28.3814 35.0845 29.1941 34.6245 30.0221C34.1645 30.8501 33.6432 31.6474 33.0605 32.4141C32.8152 32.7821 32.6159 32.7514 32.4625 32.3221C32.3399 32.0767 32.2632 31.8161 32.2325 31.5401C32.2019 31.2641 32.2632 31.0034 32.4165 30.7581C32.7232 30.1754 33.3212 29.2094 34.2105 27.8601C34.6092 27.2774 34.9312 26.7561 35.1765 26.2961C35.4219 25.8054 35.6365 25.3607 35.8205 24.9621C36.0352 24.5327 36.2499 24.1034 36.4645 23.6741C36.6792 23.2447 36.9552 22.7694 37.2925 22.2481C37.5072 21.9414 37.7832 21.9261 38.1205 22.2021C38.3045 22.3554 38.3965 22.4934 38.3965 22.6161C38.3965 22.7694 38.3505 22.9074 38.2585 23.0301C38.0132 23.4594 37.7525 23.9654 37.4765 24.5481C37.2005 25.1307 36.8325 25.9434 36.3725 26.9861C36.6179 27.1087 37.0012 27.2161 37.5225 27.3081C38.0745 27.3694 38.7799 27.4154 39.6385 27.4461C39.7612 27.2621 39.9605 26.9094 40.2365 26.3881C40.5125 25.8361 40.8039 25.2687 41.1105 24.6861C41.4479 24.0727 41.7852 23.5054 42.1225 22.9841C42.4905 22.4321 42.8279 22.0641 43.1345 21.8801C43.4105 21.7574 43.6559 21.8034 43.8705 22.0181C43.9932 22.2634 43.9472 22.5394 43.7325 22.8461C42.9352 24.0421 42.1839 25.2841 41.4785 26.5721C40.7732 27.8294 40.2519 28.9334 39.9145 29.8841C39.6079 30.7121 39.6385 31.3101 40.0065 31.6781C40.4052 32.0154 41.0952 31.9387 42.0765 31.4481C43.0579 30.9267 44.0699 30.2827 45.1125 29.5161C46.1552 28.7187 47.0445 27.9214 47.7805 27.1241C47.9032 27.0014 48.0105 26.9861 48.1025 27.0781C48.1945 27.1394 48.1639 27.2467 48.0105 27.4001C47.2132 28.1974 46.2932 28.9947 45.2505 29.7921C44.2385 30.5587 43.2572 31.1874 42.3065 31.6781C40.2825 32.7207 38.9025 32.9967 38.1665 32.5061C37.4612 32.0461 37.6912 30.8347 38.8565 28.8721C38.9792 28.6574 39.0865 28.4734 39.1785 28.3201C39.3012 28.1361 39.4085 27.9674 39.5005 27.8141Z" fill="#00073D"/>
<path d="M53.1474 26.3881C53.1168 26.4187 53.1474 26.4034 53.2394 26.3421C53.3621 26.2501 53.4848 26.1581 53.6074 26.0661C53.7608 25.9434 53.8988 25.8207 54.0214 25.6981C54.1748 25.5754 54.2821 25.4834 54.3434 25.4221C54.6808 25.0234 55.0641 24.6247 55.4934 24.2261C55.9534 23.8274 56.4134 23.4747 56.8734 23.1681C57.3334 22.8614 57.7781 22.6161 58.2074 22.4321C58.6368 22.2481 59.0048 22.1561 59.3114 22.1561C59.7714 22.1561 60.0014 22.3554 60.0014 22.7541C60.0014 23.1221 59.8481 23.5207 59.5414 23.9501C59.1121 24.6554 58.6981 25.3761 58.2994 26.1121C57.9008 26.8174 57.5481 27.4921 57.2414 28.1361C56.9654 28.7494 56.7354 29.3014 56.5514 29.7921C56.3981 30.2827 56.3214 30.6661 56.3214 30.9421C56.3214 31.5554 56.6128 31.8621 57.1954 31.8621C57.6861 31.8621 58.2994 31.6474 59.0354 31.2181C59.7714 30.7581 60.5228 30.2061 61.2894 29.5621C62.0561 28.9181 62.7768 28.2281 63.4514 27.4921C64.1261 26.7561 64.6474 26.0814 65.0154 25.4681C65.1074 25.3147 65.1994 25.2687 65.2914 25.3301C65.4141 25.3607 65.4141 25.4681 65.2914 25.6521C64.8314 26.3574 64.2334 27.1241 63.4974 27.9521C62.7614 28.7494 61.9488 29.5161 61.0594 30.2521C60.2008 30.9574 59.2961 31.5401 58.3454 32.0001C57.4254 32.4907 56.5361 32.7361 55.6774 32.7361C55.2481 32.7361 54.9261 32.6134 54.7114 32.3681C54.5274 32.1534 54.4354 31.8774 54.4354 31.5401C54.4354 31.3254 54.4814 31.0647 54.5734 30.7581C54.6654 30.4207 54.7881 30.1141 54.9414 29.8381C55.1868 29.4087 55.4781 28.8874 55.8154 28.2741C56.1834 27.6607 56.5208 27.0474 56.8274 26.4341C57.1648 25.8207 57.4408 25.2687 57.6554 24.7781C57.9008 24.2567 58.0234 23.8887 58.0234 23.6741C58.0234 23.4287 57.9161 23.3061 57.7014 23.3061C57.5174 23.3061 57.2414 23.4287 56.8734 23.6741C56.5361 23.9194 56.1528 24.2261 55.7234 24.5941C55.3248 24.9314 54.9108 25.3147 54.4814 25.7441C54.0828 26.1427 53.7301 26.5107 53.4234 26.8481C53.1474 27.0627 52.8561 27.3541 52.5494 27.7221C52.2428 28.0594 52.0434 28.3047 51.9514 28.4581C51.4301 29.3474 51.0008 30.0681 50.6634 30.6201C50.3568 31.1414 50.0348 31.4021 49.6974 31.4021C49.2988 31.4021 49.0994 31.2487 49.0994 30.9421C49.0994 30.8501 49.1914 30.6814 49.3754 30.4361C49.7741 29.8534 50.1421 29.2707 50.4794 28.6881C50.8474 28.0747 51.1694 27.5074 51.4454 26.9861C51.7214 26.4647 51.9361 26.0201 52.0894 25.6521C52.2734 25.2841 52.3654 25.0541 52.3654 24.9621C52.3654 24.7781 52.2888 24.6861 52.1354 24.6861C51.9514 24.6861 51.6754 24.8087 51.3074 25.0541C50.9701 25.2687 50.5561 25.5907 50.0654 26.0201C49.6054 26.4187 49.1148 26.8941 48.5934 27.4461C48.0721 27.9981 47.5661 28.5961 47.0754 29.2401C46.4621 30.0374 46.0481 30.7121 45.8334 31.2641C45.6494 31.8161 45.4348 32.0921 45.1894 32.0921C45.0361 32.0921 44.9134 32.0001 44.8214 31.8161C44.7601 31.6014 44.7294 31.4327 44.7294 31.3101C44.7294 31.2487 44.7601 31.0954 44.8214 30.8501C44.8828 30.7274 45.1128 30.2981 45.5114 29.5621C45.9408 28.7954 46.4161 27.9521 46.9374 27.0321C47.4588 26.0814 47.9801 25.1614 48.5014 24.2721C49.0228 23.3827 49.4214 22.7541 49.6974 22.3861C49.8201 22.2021 49.9734 22.1101 50.1574 22.1101C50.3108 22.1101 50.4488 22.2327 50.5714 22.4781C50.7248 22.6927 50.8014 22.8614 50.8014 22.9841C50.8014 23.0147 50.7708 23.1221 50.7094 23.3061C50.2801 23.8887 49.8661 24.5021 49.4674 25.1461C49.0994 25.7901 48.7161 26.4647 48.3174 27.1701C48.2561 27.2621 48.2254 27.3081 48.2254 27.3081C48.2561 27.3081 48.3021 27.2774 48.3634 27.2161C48.8541 26.6947 49.3754 26.2041 49.9274 25.7441C50.4794 25.2534 51.0161 24.8241 51.5374 24.4561C52.0894 24.0881 52.5801 23.7967 53.0094 23.5821C53.4388 23.3367 53.7761 23.2141 54.0214 23.2141C54.2974 23.2141 54.4354 23.3521 54.4354 23.6281C54.4354 23.7814 54.3741 23.9807 54.2514 24.2261C54.1594 24.4407 54.0368 24.6861 53.8834 24.9621C53.7608 25.2381 53.6228 25.4987 53.4694 25.7441C53.3161 25.9894 53.2088 26.2041 53.1474 26.3881ZM54.5734 21.3281C54.1441 21.2667 53.8068 21.1594 53.5614 21.0061C53.3774 20.8527 53.1628 20.6994 52.9174 20.5461C52.7028 20.3621 52.5034 20.1934 52.3194 20.0401C52.1048 19.8254 51.8748 19.6107 51.6294 19.3961C51.3841 19.1814 51.1848 18.9207 51.0314 18.6141C50.9394 18.4914 50.8934 18.2921 50.8934 18.0161C50.9548 17.8014 51.0468 17.6787 51.1694 17.6481C51.2308 17.5561 51.2768 17.5101 51.3074 17.5101C51.3688 17.4794 51.4301 17.4487 51.4914 17.4181C51.5528 17.3874 51.5988 17.4181 51.6294 17.5101C51.8748 17.7861 52.0741 18.0774 52.2274 18.3841C52.3808 18.6601 52.5341 18.9667 52.6874 19.3041C52.8714 19.6107 53.0554 19.8714 53.2394 20.0861C53.4541 20.3007 53.6534 20.4847 53.8374 20.6381C53.9908 20.7607 54.1441 20.8527 54.2974 20.9141C54.4814 20.9447 54.7114 20.9294 54.9874 20.8681C55.2021 20.8374 55.4014 20.7914 55.5854 20.7301C55.7694 20.6687 55.9841 20.5767 56.2294 20.4541C56.5668 20.3314 56.8888 20.1627 57.1954 19.9481C57.5021 19.7027 57.8088 19.4574 58.1154 19.2121C58.4528 18.9054 58.7594 18.6141 59.0354 18.3381C59.3421 18.0314 59.6334 17.7707 59.9094 17.5561C60.4001 17.0347 60.9368 16.5134 61.5194 15.9921C62.1021 15.4707 62.6694 15.0874 63.2214 14.8421C63.6814 14.5967 64.0341 14.4587 64.2794 14.4281C65.0461 14.3667 65.6441 14.5814 66.0734 15.0721C66.5028 15.5321 66.9321 16.0227 67.3614 16.5441C67.5148 16.6667 67.6374 16.8354 67.7294 17.0501C67.8214 17.2341 67.8828 17.4181 67.9134 17.6021L67.8674 17.7401C67.8061 17.8627 67.7601 17.9241 67.7294 17.9241C67.6374 17.9241 67.5914 17.8781 67.5914 17.7861C67.5608 17.6021 67.5148 17.4181 67.4534 17.2341C67.3921 17.0501 67.2848 16.8814 67.1314 16.7281C66.5488 15.8694 65.7974 15.5321 64.8774 15.7161C64.5401 15.7774 64.1261 15.9307 63.6354 16.1761C63.1448 16.4214 62.6234 16.8047 62.0714 17.3261C61.4581 17.8474 60.8448 18.3534 60.2314 18.8441C59.6181 19.3347 58.9894 19.7487 58.3454 20.0861C57.9468 20.3621 57.5328 20.5921 57.1034 20.7761C56.6741 20.9294 56.2601 21.0367 55.8614 21.0981C55.3401 21.3127 54.9108 21.3894 54.5734 21.3281Z" fill="#00073D"/>
<path d="M73.1693 20.8221C73.1693 21.1594 72.97 21.5427 72.5713 21.9721C71.4366 23.3521 70.2866 24.6861 69.1213 25.9741C67.9866 27.2314 66.9133 28.5194 65.9013 29.8381C63.356 33.1501 61.2553 36.0174 59.5993 38.4401C57.9433 40.8934 56.64 43.0247 55.6893 44.8341C54.708 46.6741 54.0333 48.2534 53.6653 49.5721C53.2666 50.9214 53.0673 52.1634 53.0673 53.2981C53.0673 54.0341 53.144 54.6781 53.2973 55.2301C53.4506 55.8127 53.834 56.3034 54.4473 56.7021C54.5393 56.7634 54.5853 56.8707 54.5853 57.0241C54.5853 57.1774 54.4626 57.1774 54.2173 57.0241C54.064 56.8707 53.8493 56.6714 53.5733 56.4261C53.2666 56.2114 52.9446 55.9814 52.6073 55.7361C52.27 55.5214 51.9633 55.1841 51.6873 54.7241C51.4113 54.2641 51.2733 53.7121 51.2733 53.0681C51.2733 52.0867 51.488 51.0287 51.9173 49.8941C52.3466 48.7901 53.0673 47.4254 54.0793 45.8001C55.0913 44.1747 56.4406 42.1814 58.1273 39.8201C59.7833 37.4894 61.8533 34.6067 64.3373 31.1721C63.0493 31.7241 62.3133 32.0001 62.1293 32.0001C61.976 32.0001 61.8993 31.9234 61.8993 31.7701C61.8993 31.4327 61.976 31.0341 62.1293 30.5741C62.2826 30.0834 62.528 29.3321 62.8653 28.3201C63.0186 27.8601 63.1873 27.3387 63.3713 26.7561C63.586 26.1427 63.77 25.5447 63.9233 24.9621C64.1073 24.3487 64.2606 23.7814 64.3833 23.2601C64.506 22.7387 64.5673 22.3247 64.5673 22.0181C64.7206 21.9567 64.9046 21.9261 65.1193 21.9261C65.334 21.8954 65.518 21.8801 65.6713 21.8801C66.1313 21.8801 66.3613 21.9874 66.3613 22.2021C66.3613 22.4781 66.2846 22.8154 66.1313 23.2141C65.9166 23.7354 65.6713 24.3487 65.3953 25.0541C65.1193 25.7594 64.8586 26.4801 64.6133 27.2161C64.368 27.9214 64.1533 28.5807 63.9693 29.1941C63.816 29.8074 63.7393 30.2981 63.7393 30.6661C63.7393 30.8807 63.816 30.9881 63.9693 30.9881C64.2146 30.9881 64.46 30.8961 64.7053 30.7121C65.5333 29.6387 66.3613 28.5654 67.1893 27.4921C68.048 26.4187 68.8146 25.4067 69.4893 24.4561C70.164 23.4747 70.716 22.6007 71.1453 21.8341C71.5746 21.0367 71.7893 20.3927 71.7893 19.9021C72.0346 19.9021 72.326 19.9941 72.6633 20.1781C73.0006 20.3621 73.1693 20.5767 73.1693 20.8221Z" fill="#00073D"/>
<path d="M72.3611 26.8941C72.7904 26.1274 73.2351 25.3607 73.6951 24.5941C74.1857 23.7967 74.6457 23.0607 75.0751 22.3861C75.2284 22.2634 75.4737 22.1561 75.8111 22.0641C76.1791 21.9721 76.4244 21.9261 76.5471 21.9261C76.7004 21.9261 76.7771 21.9874 76.7771 22.1101C76.1944 22.9994 75.6271 23.9041 75.0751 24.8241C74.5231 25.7134 74.0324 26.5414 73.6031 27.3081C73.2044 28.0441 72.8824 28.7034 72.6371 29.2861C72.3917 29.8381 72.2691 30.2367 72.2691 30.4821C72.2691 30.7887 72.3611 30.9421 72.5451 30.9421C72.7291 30.9421 72.9897 30.8194 73.3271 30.5741C73.6951 30.2981 74.0937 29.9454 74.5231 29.5161C74.9831 29.0867 75.4431 28.6114 75.9031 28.0901C76.3631 27.5381 76.8077 26.9861 77.2371 26.4341C77.3904 26.2194 77.5744 25.9434 77.7891 25.6061C78.0037 25.2381 78.2031 24.9007 78.3871 24.5941C78.6017 24.2567 78.7857 23.9807 78.9391 23.7661C79.1231 23.5207 79.2611 23.3981 79.3531 23.3981C79.5064 23.3981 79.6751 23.4594 79.8591 23.5821C80.0431 23.6741 80.1351 23.7814 80.1351 23.9041C80.1351 24.0267 80.0737 24.1801 79.9511 24.3641C79.8284 24.5481 79.6751 24.7474 79.4911 24.9621C79.3071 25.1767 79.1077 25.4067 78.8931 25.6521C78.7091 25.8667 78.5557 26.0814 78.4331 26.2961C78.3104 26.5107 78.1264 26.8634 77.8811 27.3541C77.6664 27.8447 77.4517 28.3814 77.2371 28.9641C77.0224 29.5467 76.8384 30.1141 76.6851 30.6661C76.5317 31.2181 76.4551 31.6781 76.4551 32.0461C76.4551 32.4447 76.5317 32.7361 76.6851 32.9201C76.8691 33.1347 77.2064 33.2421 77.6971 33.2421C78.3104 33.2421 78.9391 33.0734 79.5831 32.7361C80.2577 32.4294 80.9017 32.1074 81.5151 31.7701C81.6071 31.8007 81.6684 31.8621 81.6991 31.9541C81.7297 32.0154 81.6684 32.0767 81.5151 32.1381C80.5951 32.6594 79.6444 33.0887 78.6631 33.4261C77.7124 33.7941 76.8537 33.9781 76.0871 33.9781C75.1364 33.9781 74.6611 33.6254 74.6611 32.9201C74.6611 32.4601 74.8604 31.7241 75.2591 30.7121C75.6577 29.7001 76.1331 28.6574 76.6851 27.5841C76.5317 27.7987 76.2251 28.1514 75.7651 28.6421C75.3357 29.1327 74.8451 29.6387 74.2931 30.1601C73.7411 30.6507 73.1891 31.0954 72.6371 31.4941C72.0851 31.8927 71.6251 32.0921 71.2571 32.0921C70.9504 32.0921 70.7511 32.0154 70.6591 31.8621C70.5671 31.6781 70.5211 31.4634 70.5211 31.2181C70.5211 31.0341 70.5824 30.7581 70.7051 30.3901C70.8584 30.0221 71.0271 29.6234 71.2111 29.1941C71.3951 28.7647 71.5944 28.3507 71.8091 27.9521C72.0237 27.5227 72.2077 27.1701 72.3611 26.8941Z" fill="#00073D"/>
<path d="M90.0283 26.3881C89.9976 26.4187 90.0283 26.4034 90.1203 26.3421C90.243 26.2501 90.3656 26.1581 90.4883 26.0661C90.6416 25.9434 90.7796 25.8207 90.9023 25.6981C91.0556 25.5754 91.163 25.4834 91.2243 25.4221C91.5616 25.0234 91.945 24.6247 92.3743 24.2261C92.8343 23.8274 93.2943 23.4747 93.7543 23.1681C94.2143 22.8614 94.659 22.6161 95.0883 22.4321C95.5176 22.2481 95.8856 22.1561 96.1923 22.1561C96.6523 22.1561 96.8823 22.3554 96.8823 22.7541C96.8823 23.1221 96.729 23.5207 96.4223 23.9501C95.993 24.6554 95.579 25.3761 95.1803 26.1121C94.7816 26.8174 94.429 27.4921 94.1223 28.1361C93.8463 28.7494 93.6163 29.3014 93.4323 29.7921C93.279 30.2827 93.2023 30.6661 93.2023 30.9421C93.2023 31.5554 93.4936 31.8621 94.0763 31.8621C94.567 31.8621 95.1803 31.6474 95.9163 31.2181C96.6523 30.7581 97.4036 30.2061 98.1703 29.5621C98.937 28.9181 99.6576 28.2281 100.332 27.4921C101.007 26.7561 101.528 26.0814 101.896 25.4681C101.988 25.3147 102.08 25.2687 102.172 25.3301C102.295 25.3607 102.295 25.4681 102.172 25.6521C101.712 26.3574 101.114 27.1241 100.378 27.9521C99.6423 28.7494 98.8296 29.5161 97.9403 30.2521C97.0816 30.9574 96.177 31.5401 95.2263 32.0001C94.3063 32.4907 93.417 32.7361 92.5583 32.7361C92.129 32.7361 91.807 32.6134 91.5923 32.3681C91.4083 32.1534 91.3163 31.8774 91.3163 31.5401C91.3163 31.3254 91.3623 31.0647 91.4543 30.7581C91.5463 30.4207 91.669 30.1141 91.8223 29.8381C92.0676 29.4087 92.359 28.8874 92.6963 28.2741C93.0643 27.6607 93.4016 27.0474 93.7083 26.4341C94.0456 25.8207 94.3216 25.2687 94.5363 24.7781C94.7816 24.2567 94.9043 23.8887 94.9043 23.6741C94.9043 23.4287 94.797 23.3061 94.5823 23.3061C94.3983 23.3061 94.1223 23.4287 93.7543 23.6741C93.417 23.9194 93.0336 24.2261 92.6043 24.5941C92.2056 24.9314 91.7916 25.3147 91.3623 25.7441C90.9636 26.1427 90.611 26.5107 90.3043 26.8481C90.0283 27.0627 89.737 27.3541 89.4303 27.7221C89.1236 28.0594 88.9243 28.3047 88.8323 28.4581C88.311 29.3474 87.8816 30.0681 87.5443 30.6201C87.2376 31.1414 86.9156 31.4021 86.5783 31.4021C86.1796 31.4021 85.9803 31.2487 85.9803 30.9421C85.9803 30.8501 86.0723 30.6814 86.2563 30.4361C86.655 29.8534 87.023 29.2707 87.3603 28.6881C87.7283 28.0747 88.0503 27.5074 88.3263 26.9861C88.6023 26.4647 88.817 26.0201 88.9703 25.6521C89.1543 25.2841 89.2463 25.0541 89.2463 24.9621C89.2463 24.7781 89.1696 24.6861 89.0163 24.6861C88.8323 24.6861 88.5563 24.8087 88.1883 25.0541C87.851 25.2687 87.437 25.5907 86.9463 26.0201C86.4863 26.4187 85.9956 26.8941 85.4743 27.4461C84.953 27.9981 84.447 28.5961 83.9563 29.2401C83.343 30.0374 82.929 30.7121 82.7143 31.2641C82.5303 31.8161 82.3156 32.0921 82.0703 32.0921C81.917 32.0921 81.7943 32.0001 81.7023 31.8161C81.641 31.6014 81.6103 31.4327 81.6103 31.3101C81.6103 31.2487 81.641 31.0954 81.7023 30.8501C81.7636 30.7274 81.9936 30.2981 82.3923 29.5621C82.8216 28.7954 83.297 27.9521 83.8183 27.0321C84.3396 26.0814 84.861 25.1614 85.3823 24.2721C85.9036 23.3827 86.3023 22.7541 86.5783 22.3861C86.701 22.2021 86.8543 22.1101 87.0383 22.1101C87.1916 22.1101 87.3296 22.2327 87.4523 22.4781C87.6056 22.6927 87.6823 22.8614 87.6823 22.9841C87.6823 23.0147 87.6516 23.1221 87.5903 23.3061C87.161 23.8887 86.747 24.5021 86.3483 25.1461C85.9803 25.7901 85.597 26.4647 85.1983 27.1701C85.137 27.2621 85.1063 27.3081 85.1063 27.3081C85.137 27.3081 85.183 27.2774 85.2443 27.2161C85.735 26.6947 86.2563 26.2041 86.8083 25.7441C87.3603 25.2534 87.897 24.8241 88.4183 24.4561C88.9703 24.0881 89.461 23.7967 89.8903 23.5821C90.3196 23.3367 90.657 23.2141 90.9023 23.2141C91.1783 23.2141 91.3163 23.3521 91.3163 23.6281C91.3163 23.7814 91.255 23.9807 91.1323 24.2261C91.0403 24.4407 90.9176 24.6861 90.7643 24.9621C90.6416 25.2381 90.5036 25.4987 90.3503 25.7441C90.197 25.9894 90.0896 26.2041 90.0283 26.3881ZM91.4543 21.3281C91.025 21.2667 90.6876 21.1594 90.4423 21.0061C90.2583 20.8527 90.0436 20.6994 89.7983 20.5461C89.5836 20.3621 89.3843 20.1934 89.2003 20.0401C88.9856 19.8254 88.7556 19.6107 88.5103 19.3961C88.265 19.1814 88.0656 18.9207 87.9123 18.6141C87.8203 18.4914 87.7743 18.2921 87.7743 18.0161C87.8356 17.8014 87.9276 17.6787 88.0503 17.6481C88.1116 17.5561 88.1576 17.5101 88.1883 17.5101C88.2496 17.4794 88.311 17.4487 88.3723 17.4181C88.4336 17.3874 88.4796 17.4181 88.5103 17.5101C88.7556 17.7861 88.955 18.0774 89.1083 18.3841C89.2616 18.6601 89.415 18.9667 89.5683 19.3041C89.7523 19.6107 89.9363 19.8714 90.1203 20.0861C90.335 20.3007 90.5343 20.4847 90.7183 20.6381C90.8716 20.7607 91.025 20.8527 91.1783 20.9141C91.3623 20.9447 91.5923 20.9294 91.8683 20.8681C92.083 20.8374 92.2823 20.7914 92.4663 20.7301C92.6503 20.6687 92.865 20.5767 93.1103 20.4541C93.4476 20.3314 93.7696 20.1627 94.0763 19.9481C94.383 19.7027 94.6896 19.4574 94.9963 19.2121C95.3336 18.9054 95.6403 18.6141 95.9163 18.3381C96.223 18.0314 96.5143 17.7707 96.7903 17.5561C97.281 17.0347 97.8176 16.5134 98.4003 15.9921C98.983 15.4707 99.5503 15.0874 100.102 14.8421C100.562 14.5967 100.915 14.4587 101.16 14.4281C101.927 14.3667 102.525 14.5814 102.954 15.0721C103.384 15.5321 103.813 16.0227 104.242 16.5441C104.396 16.6667 104.518 16.8354 104.61 17.0501C104.702 17.2341 104.764 17.4181 104.794 17.6021L104.748 17.7401C104.687 17.8627 104.641 17.9241 104.61 17.9241C104.518 17.9241 104.472 17.8781 104.472 17.7861C104.442 17.6021 104.396 17.4181 104.334 17.2341C104.273 17.0501 104.166 16.8814 104.012 16.7281C103.43 15.8694 102.678 15.5321 101.758 15.7161C101.421 15.7774 101.007 15.9307 100.516 16.1761C100.026 16.4214 99.5043 16.8047 98.9523 17.3261C98.339 17.8474 97.7256 18.3534 97.1123 18.8441C96.499 19.3347 95.8703 19.7487 95.2263 20.0861C94.8276 20.3621 94.4136 20.5921 93.9843 20.7761C93.555 20.9294 93.141 21.0367 92.7423 21.0981C92.221 21.3127 91.7916 21.3894 91.4543 21.3281Z" fill="#00073D"/>
<path d="M100.482 26.8941C100.911 26.1274 101.356 25.3607 101.816 24.5941C102.307 23.7967 102.767 23.0607 103.196 22.3861C103.349 22.2634 103.595 22.1561 103.932 22.0641C104.3 21.9721 104.545 21.9261 104.668 21.9261C104.821 21.9261 104.898 21.9874 104.898 22.1101C104.315 22.9994 103.748 23.9041 103.196 24.8241C102.644 25.7134 102.153 26.5414 101.724 27.3081C101.325 28.0441 101.003 28.7034 100.758 29.2861C100.513 29.8381 100.39 30.2367 100.39 30.4821C100.39 30.7887 100.482 30.9421 100.666 30.9421C100.85 30.9421 101.111 30.8194 101.448 30.5741C101.816 30.2981 102.215 29.9454 102.644 29.5161C103.104 29.0867 103.564 28.6114 104.024 28.0901C104.484 27.5381 104.929 26.9861 105.358 26.4341C105.511 26.2194 105.695 25.9434 105.91 25.6061C106.125 25.2381 106.324 24.9007 106.508 24.5941C106.723 24.2567 106.907 23.9807 107.06 23.7661C107.244 23.5207 107.382 23.3981 107.474 23.3981C107.627 23.3981 107.796 23.4594 107.98 23.5821C108.164 23.6741 108.256 23.7814 108.256 23.9041C108.256 24.0267 108.195 24.1801 108.072 24.3641C107.949 24.5481 107.796 24.7474 107.612 24.9621C107.428 25.1767 107.229 25.4067 107.014 25.6521C106.83 25.8667 106.677 26.0814 106.554 26.2961C106.431 26.5107 106.247 26.8634 106.002 27.3541C105.787 27.8447 105.573 28.3814 105.358 28.9641C105.143 29.5467 104.959 30.1141 104.806 30.6661C104.653 31.2181 104.576 31.6781 104.576 32.0461C104.576 32.4447 104.653 32.7361 104.806 32.9201C104.99 33.1347 105.327 33.2421 105.818 33.2421C106.431 33.2421 107.06 33.0734 107.704 32.7361C108.379 32.4294 109.023 32.1074 109.636 31.7701C109.728 31.8007 109.789 31.8621 109.82 31.9541C109.851 32.0154 109.789 32.0767 109.636 32.1381C108.716 32.6594 107.765 33.0887 106.784 33.4261C105.833 33.7941 104.975 33.9781 104.208 33.9781C103.257 33.9781 102.782 33.6254 102.782 32.9201C102.782 32.4601 102.981 31.7241 103.38 30.7121C103.779 29.7001 104.254 28.6574 104.806 27.5841C104.653 27.7987 104.346 28.1514 103.886 28.6421C103.457 29.1327 102.966 29.6387 102.414 30.1601C101.862 30.6507 101.31 31.0954 100.758 31.4941C100.206 31.8927 99.7462 32.0921 99.3782 32.0921C99.0715 32.0921 98.8722 32.0154 98.7802 31.8621C98.6882 31.6781 98.6422 31.4634 98.6422 31.2181C98.6422 31.0341 98.7035 30.7581 98.8262 30.3901C98.9795 30.0221 99.1482 29.6234 99.3322 29.1941C99.5162 28.7647 99.7155 28.3507 99.9302 27.9521C100.145 27.5227 100.329 27.1701 100.482 26.8941Z" fill="#00073D"/>
<path d="M137.377 3.06606C137.377 4.53805 135.829 6.83805 132.731 9.96605C129.634 13.0634 124.85 16.9274 118.379 21.5581C118.103 21.8034 117.965 21.9567 117.965 22.0181C118.64 22.4167 119.437 22.7234 120.357 22.9381C121.308 23.1221 122.274 23.2141 123.255 23.2141C123.746 23.2141 124.283 23.1834 124.865 23.1221C125.448 23.0301 125.954 22.9074 126.383 22.7541C126.537 22.7234 126.613 22.7541 126.613 22.8461C126.644 22.9074 126.583 22.9687 126.429 23.0301C126.031 23.1834 125.479 23.3214 124.773 23.4441C124.099 23.5667 123.47 23.6281 122.887 23.6281C122.305 23.6281 121.661 23.6127 120.955 23.5821C120.25 23.5207 119.591 23.4134 118.977 23.2601C118.916 23.2601 118.885 23.3061 118.885 23.3981C118.885 23.4901 118.885 23.5667 118.885 23.6281C118.885 24.3027 118.747 24.9927 118.471 25.6981C118.195 26.4034 117.843 27.0934 117.413 27.7681C117.015 28.4121 116.555 29.0101 116.033 29.5621C115.512 30.1141 115.006 30.5741 114.515 30.9421C113.963 31.3714 113.411 31.7087 112.859 31.9541C112.338 32.1687 111.924 32.2761 111.617 32.2761C111.188 32.2761 110.897 32.1534 110.743 31.9081C110.621 31.6321 110.559 31.3101 110.559 30.9421C110.559 30.5434 110.605 30.1294 110.697 29.7001C110.82 29.2707 111.004 28.7954 111.249 28.2741C111.525 27.7221 111.847 27.0934 112.215 26.3881C112.614 25.6521 113.089 24.7781 113.641 23.7661C115.911 19.5954 118.088 16.0687 120.173 13.1861C122.259 10.2727 124.191 7.91139 125.969 6.10205C127.779 4.26205 129.419 2.94339 130.891 2.14605C132.363 1.31805 133.636 0.904053 134.709 0.904053C135.568 0.904053 136.227 1.10339 136.687 1.50205C137.147 1.87005 137.377 2.39139 137.377 3.06606ZM135.951 4.17005C135.951 2.66739 135.062 1.91605 133.283 1.91605C132.363 1.91605 131.275 2.29939 130.017 3.06606C128.76 3.83272 127.38 5.05939 125.877 6.74605C124.375 8.40205 122.765 10.5487 121.047 13.1861C119.33 15.7927 117.551 18.9361 115.711 22.6161C115.619 22.8001 115.619 22.8767 115.711 22.8461C115.834 22.7847 115.926 22.7234 115.987 22.6621C117.153 21.8647 118.456 20.9601 119.897 19.9481C121.369 18.9361 122.841 17.8627 124.313 16.7281C125.785 15.5934 127.211 14.4434 128.591 13.2781C130.002 12.1127 131.244 10.9781 132.317 9.87405C133.421 8.73939 134.295 7.69672 134.939 6.74605C135.614 5.76472 135.951 4.90605 135.951 4.17005ZM117.965 23.9961C117.965 23.4747 117.797 23.1681 117.459 23.0761C117.122 22.9534 116.815 22.8921 116.539 22.8921C116.355 22.8921 116.125 22.9687 115.849 23.1221C115.604 23.2754 115.389 23.4594 115.205 23.6741C114.96 24.0421 114.669 24.5174 114.331 25.1001C114.025 25.6827 113.718 26.2961 113.411 26.9401C113.135 27.5534 112.89 28.1514 112.675 28.7341C112.491 29.3167 112.399 29.7614 112.399 30.0681C112.399 30.5587 112.507 30.8654 112.721 30.9881C112.936 31.0801 113.105 31.1261 113.227 31.1261C113.473 31.1261 113.856 30.9574 114.377 30.6201C114.837 30.2521 115.282 29.8074 115.711 29.2861C116.171 28.7647 116.555 28.2127 116.861 27.6301C117.199 27.0474 117.459 26.4494 117.643 25.8361C117.858 25.2227 117.965 24.6094 117.965 23.9961Z" fill="#00073D"/>
<path d="M128.491 27.8141C127.632 27.7527 126.911 27.7067 126.329 27.6761C125.777 27.6147 125.347 27.5841 125.041 27.5841C124.55 28.3814 124.075 29.1941 123.615 30.0221C123.155 30.8501 122.633 31.6474 122.051 32.4141C121.805 32.7821 121.606 32.7514 121.453 32.3221C121.33 32.0767 121.253 31.8161 121.223 31.5401C121.192 31.2641 121.253 31.0034 121.407 30.7581C121.713 30.1754 122.311 29.2094 123.201 27.8601C123.599 27.2774 123.921 26.7561 124.167 26.2961C124.412 25.8054 124.627 25.3607 124.811 24.9621C125.025 24.5327 125.24 24.1034 125.455 23.6741C125.669 23.2447 125.945 22.7694 126.283 22.2481C126.497 21.9414 126.773 21.9261 127.111 22.2021C127.295 22.3554 127.387 22.4934 127.387 22.6161C127.387 22.7694 127.341 22.9074 127.249 23.0301C127.003 23.4594 126.743 23.9654 126.467 24.5481C126.191 25.1307 125.823 25.9434 125.363 26.9861C125.608 27.1087 125.991 27.2161 126.513 27.3081C127.065 27.3694 127.77 27.4154 128.629 27.4461C128.751 27.2621 128.951 26.9094 129.227 26.3881C129.503 25.8361 129.794 25.2687 130.101 24.6861C130.438 24.0727 130.775 23.5054 131.113 22.9841C131.481 22.4321 131.818 22.0641 132.125 21.8801C132.401 21.7574 132.646 21.8034 132.861 22.0181C132.983 22.2634 132.937 22.5394 132.723 22.8461C131.925 24.0421 131.174 25.2841 130.469 26.5721C129.763 27.8294 129.242 28.9334 128.905 29.8841C128.598 30.7121 128.629 31.3101 128.997 31.6781C129.395 32.0154 130.085 31.9387 131.067 31.4481C132.048 30.9267 133.06 30.2827 134.103 29.5161C135.145 28.7187 136.035 27.9214 136.771 27.1241C136.893 27.0014 137.001 26.9861 137.093 27.0781C137.185 27.1394 137.154 27.2467 137.001 27.4001C136.203 28.1974 135.283 28.9947 134.241 29.7921C133.229 30.5587 132.247 31.1874 131.297 31.6781C129.273 32.7207 127.893 32.9967 127.157 32.5061C126.451 32.0461 126.681 30.8347 127.847 28.8721C127.969 28.6574 128.077 28.4734 128.169 28.3201C128.291 28.1361 128.399 27.9674 128.491 27.8141Z" fill="#00073D"/>
<path d="M148.9 23.9041C148.409 24.0574 147.872 24.1954 147.29 24.3181C146.707 24.4101 146.186 24.4561 145.726 24.4561C145.235 24.4561 144.698 24.4407 144.116 24.4101C143.533 24.3487 142.966 24.2567 142.414 24.1341C142.23 25.4221 141.846 26.5874 141.264 27.6301C140.712 28.6421 139.945 29.6387 138.964 30.6201C137.737 31.7547 136.633 32.3221 135.652 32.3221C135.038 32.3221 134.609 32.1381 134.364 31.7701C134.118 31.3714 133.996 30.8961 133.996 30.3441C133.996 29.9147 134.072 29.4087 134.226 28.8261C134.379 28.2127 134.578 27.7067 134.824 27.3081C135.161 26.6947 135.713 26.0507 136.48 25.3761C137.246 24.7014 138.32 23.9194 139.7 23.0301C140.129 22.7541 140.466 22.5394 140.712 22.3861C140.957 22.2327 141.141 22.1101 141.264 22.0181C141.386 21.9261 141.463 21.8801 141.494 21.8801C141.555 21.8494 141.601 21.8341 141.632 21.8341C141.693 21.8341 141.754 21.8801 141.816 21.9721C141.877 22.0334 141.938 22.0947 142 22.1561C142.092 22.5547 142.291 22.8767 142.598 23.1221C142.904 23.3674 143.257 23.5667 143.656 23.7201C144.054 23.8427 144.453 23.9347 144.852 23.9961C145.281 24.0267 145.664 24.0421 146.002 24.0421C146.431 24.0421 146.906 24.0114 147.428 23.9501C147.98 23.8887 148.47 23.7967 148.9 23.6741C149.022 23.6741 149.084 23.7047 149.084 23.7661C149.114 23.7967 149.053 23.8427 148.9 23.9041ZM140.942 24.6401C140.942 24.3641 140.911 24.0574 140.85 23.7201C140.819 23.3827 140.65 23.2141 140.344 23.2141C140.098 23.2141 139.838 23.3061 139.562 23.4901C138.335 24.1954 137.4 25.1614 136.756 26.3881C136.112 27.5841 135.79 28.8721 135.79 30.2521C135.79 30.6507 135.851 30.9881 135.974 31.2641C136.127 31.5094 136.326 31.6321 136.572 31.6321C137.154 31.6321 137.706 31.3867 138.228 30.8961C138.749 30.3747 139.209 29.7461 139.608 29.0101C140.006 28.2741 140.328 27.5074 140.574 26.7101C140.819 25.9127 140.942 25.2227 140.942 24.6401Z" fill="#00073D"/>
<path d="M156.782 27.0781C156.843 27.0167 156.905 27.0321 156.966 27.1241C157.027 27.1854 157.027 27.2467 156.966 27.3081C156.138 28.1054 155.279 28.8107 154.39 29.4241C153.531 30.0374 152.688 30.5587 151.86 30.9881C151.063 31.4174 150.296 31.7394 149.56 31.9541C148.855 32.1687 148.257 32.2761 147.766 32.2761C146.846 32.3067 146.11 32.1687 145.558 31.8621C145.006 31.5247 144.73 31.0034 144.73 30.2981C144.73 30.1141 144.761 29.8687 144.822 29.5621C144.883 29.2554 144.96 28.9794 145.052 28.7341C145.328 27.9981 145.742 27.2314 146.294 26.4341C146.846 25.6061 147.444 24.8547 148.088 24.1801C148.763 23.5054 149.468 22.9534 150.204 22.5241C150.94 22.0947 151.63 21.8801 152.274 21.8801C152.642 21.8801 152.964 21.9414 153.24 22.0641C153.547 22.1561 153.7 22.4167 153.7 22.8461C153.7 23.3061 153.47 23.7814 153.01 24.2721C152.581 24.7321 152.029 25.1921 151.354 25.6521C150.679 26.0814 149.943 26.4954 149.146 26.8941C148.349 27.2621 147.613 27.5994 146.938 27.9061C146.631 28.5501 146.478 29.1941 146.478 29.8381C146.478 30.3901 146.723 30.8041 147.214 31.0801C147.705 31.3254 148.257 31.4481 148.87 31.4481C149.453 31.4481 150.097 31.3101 150.802 31.0341C151.507 30.7581 152.197 30.4054 152.872 29.9761C153.577 29.5467 154.267 29.0867 154.942 28.5961C155.617 28.0747 156.23 27.5687 156.782 27.0781ZM152.228 23.2601C152.228 23.0454 152.167 22.8614 152.044 22.7081C151.921 22.5241 151.737 22.4321 151.492 22.4321C151.155 22.4321 150.771 22.6007 150.342 22.9381C149.913 23.2447 149.483 23.6434 149.054 24.1341C148.655 24.6247 148.272 25.1767 147.904 25.7901C147.567 26.3727 147.306 26.9247 147.122 27.4461C147.643 27.2314 148.195 27.0014 148.778 26.7561C149.361 26.4801 149.867 26.1734 150.296 25.8361C150.879 25.4067 151.339 25.0081 151.676 24.6401C152.044 24.2414 152.228 23.7814 152.228 23.2601Z" fill="#00073D"/>
<path d="M178.039 26.5721C177.211 27.2467 176.214 27.8754 175.049 28.4581C173.914 29.0407 172.703 29.5774 171.415 30.0681C170.158 30.5587 168.87 31.0187 167.551 31.4481C166.232 31.8774 164.99 32.2761 163.825 32.6441C161.617 36.5387 159.808 39.7281 158.397 42.2121C156.986 44.6961 155.882 46.7047 155.085 48.2381C154.288 49.7714 153.736 50.9214 153.429 51.6881C153.122 52.4854 152.969 53.1294 152.969 53.6201C152.969 54.0494 153.092 54.3407 153.337 54.4941C153.552 54.6781 153.889 54.7701 154.349 54.7701C154.625 54.7701 154.962 54.7394 155.361 54.6781C155.729 54.6167 156.128 54.5401 156.557 54.4481C156.956 54.3867 157.339 54.2947 157.707 54.1721C158.075 54.0801 158.382 53.9881 158.627 53.8961C158.78 53.8347 158.872 53.8807 158.903 54.0341C158.934 54.1874 158.872 54.2794 158.719 54.3101C158.474 54.3714 158.06 54.4787 157.477 54.6321C156.864 54.7854 156.22 54.9387 155.545 55.0921C154.84 55.2454 154.165 55.3834 153.521 55.5061C152.846 55.6287 152.325 55.6901 151.957 55.6901C151.62 55.6901 151.344 55.6134 151.129 55.4601C150.914 55.3374 150.807 55.0767 150.807 54.6781C150.807 54.0647 151.068 53.2674 151.589 52.2861C152.08 51.3354 152.831 50.0321 153.843 48.3761C154.824 46.7507 156.066 44.6961 157.569 42.2121C159.072 39.7281 160.82 36.6614 162.813 33.0121C162.261 33.1654 161.709 33.3341 161.157 33.5181C160.605 33.7327 160.222 33.8401 160.007 33.8401C159.762 33.8401 159.639 33.7327 159.639 33.5181C159.639 33.2114 159.746 32.9814 159.961 32.8281C160.176 32.6747 160.421 32.5674 160.697 32.5061C161.065 32.4447 161.494 32.3681 161.985 32.2761C162.476 32.1841 162.936 32.0921 163.365 32.0001C164.5 29.9761 165.542 27.9674 166.493 25.9741C167.474 23.9807 168.548 22.0641 169.713 20.2241C169.836 20.0707 169.974 19.9787 170.127 19.9481C170.28 19.8867 170.464 19.8561 170.679 19.8561C171.047 19.8561 171.231 19.9634 171.231 20.1781C171.231 20.3007 171.108 20.5921 170.863 21.0521C170.618 21.5121 170.296 22.0794 169.897 22.7541C169.498 23.3981 169.038 24.1341 168.517 24.9621C168.026 25.7594 167.52 26.5721 166.999 27.4001C166.508 28.1974 166.033 28.9794 165.573 29.7461C165.113 30.4821 164.73 31.1261 164.423 31.6781L165.159 31.4941C165.742 31.3407 166.432 31.0341 167.229 30.5741C168.057 30.1141 168.824 29.5467 169.529 28.8721C170.265 28.1667 170.878 27.3847 171.369 26.5261C171.89 25.6674 172.151 24.7781 172.151 23.8581C172.151 23.3674 172.09 23.0454 171.967 22.8921C171.844 22.7081 171.783 22.5547 171.783 22.4321C171.783 22.3094 171.875 22.2481 172.059 22.2481C172.09 22.2481 172.212 22.3094 172.427 22.4321C172.672 22.5547 172.918 22.7081 173.163 22.8921C173.408 23.0454 173.623 23.1987 173.807 23.3521C174.022 23.4747 174.129 23.5514 174.129 23.5821C174.129 24.3794 173.868 25.1461 173.347 25.8821C172.826 26.6181 172.182 27.3234 171.415 27.9981C170.648 28.6421 169.836 29.2401 168.977 29.7921C168.149 30.3134 167.398 30.7581 166.723 31.1261C168.778 30.5741 170.802 29.8994 172.795 29.1021C174.788 28.3047 176.475 27.3541 177.855 26.2501C177.978 26.1274 178.07 26.1121 178.131 26.2041C178.223 26.2961 178.192 26.4187 178.039 26.5721Z" fill="#00073D"/>
<path d="M177.568 26.8941C177.997 26.1274 178.442 25.3607 178.902 24.5941C179.393 23.7967 179.853 23.0607 180.282 22.3861C180.435 22.2634 180.681 22.1561 181.018 22.0641C181.386 21.9721 181.631 21.9261 181.754 21.9261C181.907 21.9261 181.984 21.9874 181.984 22.1101C181.401 22.9994 180.834 23.9041 180.282 24.8241C179.73 25.7134 179.239 26.5414 178.81 27.3081C178.411 28.0441 178.089 28.7034 177.844 29.2861C177.599 29.8381 177.476 30.2367 177.476 30.4821C177.476 30.7887 177.568 30.9421 177.752 30.9421C177.936 30.9421 178.197 30.8194 178.534 30.5741C178.902 30.2981 179.301 29.9454 179.73 29.5161C180.19 29.0867 180.65 28.6114 181.11 28.0901C181.57 27.5381 182.015 26.9861 182.444 26.4341C182.597 26.2194 182.781 25.9434 182.996 25.6061C183.211 25.2381 183.41 24.9007 183.594 24.5941C183.809 24.2567 183.993 23.9807 184.146 23.7661C184.33 23.5207 184.468 23.3981 184.56 23.3981C184.713 23.3981 184.882 23.4594 185.066 23.5821C185.25 23.6741 185.342 23.7814 185.342 23.9041C185.342 24.0267 185.281 24.1801 185.158 24.3641C185.035 24.5481 184.882 24.7474 184.698 24.9621C184.514 25.1767 184.315 25.4067 184.1 25.6521C183.916 25.8667 183.763 26.0814 183.64 26.2961C183.517 26.5107 183.333 26.8634 183.088 27.3541C182.873 27.8447 182.659 28.3814 182.444 28.9641C182.229 29.5467 182.045 30.1141 181.892 30.6661C181.739 31.2181 181.662 31.6781 181.662 32.0461C181.662 32.4447 181.739 32.7361 181.892 32.9201C182.076 33.1347 182.413 33.2421 182.904 33.2421C183.517 33.2421 184.146 33.0734 184.79 32.7361C185.465 32.4294 186.109 32.1074 186.722 31.7701C186.814 31.8007 186.875 31.8621 186.906 31.9541C186.937 32.0154 186.875 32.0767 186.722 32.1381C185.802 32.6594 184.851 33.0887 183.87 33.4261C182.919 33.7941 182.061 33.9781 181.294 33.9781C180.343 33.9781 179.868 33.6254 179.868 32.9201C179.868 32.4601 180.067 31.7241 180.466 30.7121C180.865 29.7001 181.34 28.6574 181.892 27.5841C181.739 27.7987 181.432 28.1514 180.972 28.6421C180.543 29.1327 180.052 29.6387 179.5 30.1601C178.948 30.6507 178.396 31.0954 177.844 31.4941C177.292 31.8927 176.832 32.0921 176.464 32.0921C176.157 32.0921 175.958 32.0154 175.866 31.8621C175.774 31.6781 175.728 31.4634 175.728 31.2181C175.728 31.0341 175.789 30.7581 175.912 30.3901C176.065 30.0221 176.234 29.6234 176.418 29.1941C176.602 28.7647 176.801 28.3507 177.016 27.9521C177.231 27.5227 177.415 27.1701 177.568 26.8941Z" fill="#00073D"/>
<path d="M198.915 26.9401C198.67 27.1547 198.317 27.4461 197.857 27.8141C197.428 28.1821 196.937 28.5807 196.385 29.0101C195.833 29.4394 195.266 29.8687 194.683 30.2981C194.131 30.6967 193.61 31.0341 193.119 31.3101C192.537 31.6474 191.985 31.8927 191.463 32.0461C190.973 32.1994 190.513 32.2761 190.083 32.2761C188.581 32.2761 187.829 31.5401 187.829 30.0681C187.829 29.7307 187.906 29.3014 188.059 28.7801C188.243 28.2281 188.458 27.7221 188.703 27.2621C189.163 26.3727 189.623 25.6521 190.083 25.1001C190.543 24.5174 191.034 24.0421 191.555 23.6741C192.107 23.2754 192.705 22.9534 193.349 22.7081C193.993 22.4321 194.714 22.1714 195.511 21.9261C195.695 21.8647 195.833 21.8341 195.925 21.8341C196.109 21.8341 196.309 22.0027 196.523 22.3401C196.769 22.6467 196.891 22.8921 196.891 23.0761C196.891 23.2601 196.784 23.5054 196.569 23.8121C196.385 24.1187 196.217 24.3181 196.063 24.4101C195.879 23.9194 195.649 23.5207 195.373 23.2141C195.128 22.9074 194.791 22.7541 194.361 22.7541C193.932 22.7541 193.441 22.9994 192.889 23.4901C192.337 23.9501 191.816 24.5327 191.325 25.2381C190.835 25.9434 190.421 26.7254 190.083 27.5841C189.746 28.4121 189.577 29.2094 189.577 29.9761C189.577 30.4667 189.669 30.8654 189.853 31.1721C190.068 31.4481 190.39 31.5861 190.819 31.5861C191.249 31.5861 191.663 31.5094 192.061 31.3561C192.491 31.2027 192.997 30.9574 193.579 30.6201C193.886 30.4361 194.269 30.1754 194.729 29.8381C195.189 29.5007 195.665 29.1481 196.155 28.7801C196.677 28.3814 197.167 27.9981 197.627 27.6301C198.118 27.2314 198.501 26.9094 198.777 26.6641C198.931 26.5107 199.023 26.4954 199.053 26.6181C199.084 26.7101 199.038 26.8174 198.915 26.9401Z" fill="#00073D"/>
<path d="M212.06 23.9041C211.569 24.0574 211.032 24.1954 210.45 24.3181C209.867 24.4101 209.346 24.4561 208.886 24.4561C208.395 24.4561 207.858 24.4407 207.276 24.4101C206.693 24.3487 206.126 24.2567 205.574 24.1341C205.39 25.4221 205.006 26.5874 204.424 27.6301C203.872 28.6421 203.105 29.6387 202.124 30.6201C200.897 31.7547 199.793 32.3221 198.812 32.3221C198.198 32.3221 197.769 32.1381 197.524 31.7701C197.278 31.3714 197.156 30.8961 197.156 30.3441C197.156 29.9147 197.232 29.4087 197.386 28.8261C197.539 28.2127 197.738 27.7067 197.984 27.3081C198.321 26.6947 198.873 26.0507 199.64 25.3761C200.406 24.7014 201.48 23.9194 202.86 23.0301C203.289 22.7541 203.626 22.5394 203.872 22.3861C204.117 22.2327 204.301 22.1101 204.424 22.0181C204.546 21.9261 204.623 21.8801 204.654 21.8801C204.715 21.8494 204.761 21.8341 204.792 21.8341C204.853 21.8341 204.914 21.8801 204.976 21.9721C205.037 22.0334 205.098 22.0947 205.16 22.1561C205.252 22.5547 205.451 22.8767 205.758 23.1221C206.064 23.3674 206.417 23.5667 206.816 23.7201C207.214 23.8427 207.613 23.9347 208.012 23.9961C208.441 24.0267 208.824 24.0421 209.162 24.0421C209.591 24.0421 210.066 24.0114 210.588 23.9501C211.14 23.8887 211.63 23.7967 212.06 23.6741C212.182 23.6741 212.244 23.7047 212.244 23.7661C212.274 23.7967 212.213 23.8427 212.06 23.9041ZM204.102 24.6401C204.102 24.3641 204.071 24.0574 204.01 23.7201C203.979 23.3827 203.81 23.2141 203.504 23.2141C203.258 23.2141 202.998 23.3061 202.722 23.4901C201.495 24.1954 200.56 25.1614 199.916 26.3881C199.272 27.5841 198.95 28.8721 198.95 30.2521C198.95 30.6507 199.011 30.9881 199.134 31.2641C199.287 31.5094 199.486 31.6321 199.732 31.6321C200.314 31.6321 200.866 31.3867 201.388 30.8961C201.909 30.3747 202.369 29.7461 202.768 29.0101C203.166 28.2741 203.488 27.5074 203.734 26.7101C203.979 25.9127 204.102 25.2227 204.102 24.6401Z" fill="#00073D"/>
<path d="M235.352 3.06606C235.352 4.53805 233.803 6.83805 230.706 9.96605C227.609 13.0634 222.825 16.9274 216.354 21.5581C216.078 21.8034 215.94 21.9567 215.94 22.0181C216.615 22.4167 217.412 22.7234 218.332 22.9381C219.283 23.1221 220.249 23.2141 221.23 23.2141C221.721 23.2141 222.257 23.1834 222.84 23.1221C223.423 23.0301 223.929 22.9074 224.358 22.7541C224.511 22.7234 224.588 22.7541 224.588 22.8461C224.619 22.9074 224.557 22.9687 224.404 23.0301C224.005 23.1834 223.453 23.3214 222.748 23.4441C222.073 23.5667 221.445 23.6281 220.862 23.6281C220.279 23.6281 219.635 23.6127 218.93 23.5821C218.225 23.5207 217.565 23.4134 216.952 23.2601C216.891 23.2601 216.86 23.3061 216.86 23.3981C216.86 23.4901 216.86 23.5667 216.86 23.6281C216.86 24.3027 216.722 24.9927 216.446 25.6981C216.17 26.4034 215.817 27.0934 215.388 27.7681C214.989 28.4121 214.529 29.0101 214.008 29.5621C213.487 30.1141 212.981 30.5741 212.49 30.9421C211.938 31.3714 211.386 31.7087 210.834 31.9541C210.313 32.1687 209.899 32.2761 209.592 32.2761C209.163 32.2761 208.871 32.1534 208.718 31.9081C208.595 31.6321 208.534 31.3101 208.534 30.9421C208.534 30.5434 208.58 30.1294 208.672 29.7001C208.795 29.2707 208.979 28.7954 209.224 28.2741C209.5 27.7221 209.822 27.0934 210.19 26.3881C210.589 25.6521 211.064 24.7781 211.616 23.7661C213.885 19.5954 216.063 16.0687 218.148 13.1861C220.233 10.2727 222.165 7.91139 223.944 6.10205C225.753 4.26205 227.394 2.94339 228.866 2.14605C230.338 1.31805 231.611 0.904053 232.684 0.904053C233.543 0.904053 234.202 1.10339 234.662 1.50205C235.122 1.87005 235.352 2.39139 235.352 3.06606ZM233.926 4.17005C233.926 2.66739 233.037 1.91605 231.258 1.91605C230.338 1.91605 229.249 2.29939 227.992 3.06606C226.735 3.83272 225.355 5.05939 223.852 6.74605C222.349 8.40205 220.739 10.5487 219.022 13.1861C217.305 15.7927 215.526 18.9361 213.686 22.6161C213.594 22.8001 213.594 22.8767 213.686 22.8461C213.809 22.7847 213.901 22.7234 213.962 22.6621C215.127 21.8647 216.431 20.9601 217.872 19.9481C219.344 18.9361 220.816 17.8627 222.288 16.7281C223.76 15.5934 225.186 14.4434 226.566 13.2781C227.977 12.1127 229.219 10.9781 230.292 9.87405C231.396 8.73939 232.27 7.69672 232.914 6.74605C233.589 5.76472 233.926 4.90605 233.926 4.17005ZM215.94 23.9961C215.94 23.4747 215.771 23.1681 215.434 23.0761C215.097 22.9534 214.79 22.8921 214.514 22.8921C214.33 22.8921 214.1 22.9687 213.824 23.1221C213.579 23.2754 213.364 23.4594 213.18 23.6741C212.935 24.0421 212.643 24.5174 212.306 25.1001C211.999 25.6827 211.693 26.2961 211.386 26.9401C211.11 27.5534 210.865 28.1514 210.65 28.7341C210.466 29.3167 210.374 29.7614 210.374 30.0681C210.374 30.5587 210.481 30.8654 210.696 30.9881C210.911 31.0801 211.079 31.1261 211.202 31.1261C211.447 31.1261 211.831 30.9574 212.352 30.6201C212.812 30.2521 213.257 29.8074 213.686 29.2861C214.146 28.7647 214.529 28.2127 214.836 27.6301C215.173 27.0474 215.434 26.4494 215.618 25.8361C215.833 25.2227 215.94 24.6094 215.94 23.9961Z" fill="#00073D"/>
<path d="M234.009 26.7101C232.445 28.5807 231.05 29.9607 229.823 30.8501C228.627 31.7394 227.554 32.1841 226.603 32.1841C226.174 32.1841 225.791 32.0767 225.453 31.8621C225.147 31.6167 224.993 31.0954 224.993 30.2981C224.993 30.1141 225.024 29.7614 225.085 29.2401C225.177 28.6881 225.331 28.1667 225.545 27.6761C225.147 28.2587 224.702 28.8261 224.211 29.3781C223.751 29.9301 223.276 30.4207 222.785 30.8501C222.325 31.2794 221.881 31.6321 221.451 31.9081C221.022 32.1534 220.669 32.2761 220.393 32.2761C219.811 32.2761 219.519 31.9387 219.519 31.2641C219.519 30.6814 219.826 29.8074 220.439 28.6421C220.869 27.7834 221.451 26.8787 222.187 25.9281C222.954 24.9467 223.767 24.0881 224.625 23.3521C225.147 22.9227 225.637 22.5701 226.097 22.2941C226.588 22.0181 227.048 21.8801 227.477 21.8801C227.999 21.8801 228.474 22.0487 228.903 22.3861C229.057 22.2634 229.225 22.1407 229.409 22.0181C229.593 21.8647 229.747 21.7421 229.869 21.6501C229.931 21.6501 229.961 21.6807 229.961 21.7421C229.961 21.8034 229.9 21.9414 229.777 22.1561C228.888 23.6281 228.106 24.9927 227.431 26.2501C226.787 27.5074 226.465 28.7801 226.465 30.0681C226.465 31.0187 226.803 31.4941 227.477 31.4941C228.121 31.4941 228.995 31.0954 230.099 30.2981C231.234 29.4701 232.461 28.1821 233.779 26.4341C233.81 26.3727 233.871 26.3421 233.963 26.3421C234.086 26.3421 234.101 26.4647 234.009 26.7101ZM227.845 23.4441C227.661 23.2294 227.447 23.0761 227.201 22.9841C226.956 22.8921 226.726 22.8461 226.511 22.8461C225.99 22.8461 225.423 23.1374 224.809 23.7201C224.196 24.3027 223.629 25.0234 223.107 25.8821C222.586 26.7101 222.157 27.5841 221.819 28.5041C221.482 29.3934 221.313 30.1601 221.313 30.8041C221.313 31.0494 221.421 31.1721 221.635 31.1721C221.881 31.1721 222.387 30.8041 223.153 30.0681C223.92 29.3321 224.748 28.3507 225.637 27.1241C226.067 26.5107 226.465 25.9127 226.833 25.3301C227.201 24.7474 227.539 24.1187 227.845 23.4441Z" fill="#00073D"/>
<path d="M237.606 27.8141C236.747 27.7527 236.027 27.7067 235.444 27.6761C234.892 27.6147 234.463 27.5841 234.156 27.5841C233.665 28.3814 233.19 29.1941 232.73 30.0221C232.27 30.8501 231.749 31.6474 231.166 32.4141C230.921 32.7821 230.721 32.7514 230.568 32.3221C230.445 32.0767 230.369 31.8161 230.338 31.5401C230.307 31.2641 230.369 31.0034 230.522 30.7581C230.829 30.1754 231.427 29.2094 232.316 27.8601C232.715 27.2774 233.037 26.7561 233.282 26.2961C233.527 25.8054 233.742 25.3607 233.926 24.9621C234.141 24.5327 234.355 24.1034 234.57 23.6741C234.785 23.2447 235.061 22.7694 235.398 22.2481C235.613 21.9414 235.889 21.9261 236.226 22.2021C236.41 22.3554 236.502 22.4934 236.502 22.6161C236.502 22.7694 236.456 22.9074 236.364 23.0301C236.119 23.4594 235.858 23.9654 235.582 24.5481C235.306 25.1307 234.938 25.9434 234.478 26.9861C234.723 27.1087 235.107 27.2161 235.628 27.3081C236.18 27.3694 236.885 27.4154 237.744 27.4461C237.867 27.2621 238.066 26.9094 238.342 26.3881C238.618 25.8361 238.909 25.2687 239.216 24.6861C239.553 24.0727 239.891 23.5054 240.228 22.9841C240.596 22.4321 240.933 22.0641 241.24 21.8801C241.516 21.7574 241.761 21.8034 241.976 22.0181C242.099 22.2634 242.053 22.5394 241.838 22.8461C241.041 24.0421 240.289 25.2841 239.584 26.5721C238.879 27.8294 238.357 28.9334 238.02 29.8841C237.713 30.7121 237.744 31.3101 238.112 31.6781C238.511 32.0154 239.201 31.9387 240.182 31.4481C241.163 30.9267 242.175 30.2827 243.218 29.5161C244.261 28.7187 245.15 27.9214 245.886 27.1241C246.009 27.0014 246.116 26.9861 246.208 27.0781C246.3 27.1394 246.269 27.2467 246.116 27.4001C245.319 28.1974 244.399 28.9947 243.356 29.7921C242.344 30.5587 241.363 31.1874 240.412 31.6781C238.388 32.7207 237.008 32.9967 236.272 32.5061C235.567 32.0461 235.797 30.8347 236.962 28.8721C237.085 28.6574 237.192 28.4734 237.284 28.3201C237.407 28.1361 237.514 27.9674 237.606 27.8141Z" fill="#00073D"/>
<path d="M244.951 26.8941C245.38 26.1274 245.825 25.3607 246.285 24.5941C246.776 23.7967 247.236 23.0607 247.665 22.3861C247.818 22.2634 248.064 22.1561 248.401 22.0641C248.769 21.9721 249.014 21.9261 249.137 21.9261C249.29 21.9261 249.367 21.9874 249.367 22.1101C248.784 22.9994 248.217 23.9041 247.665 24.8241C247.113 25.7134 246.622 26.5414 246.193 27.3081C245.794 28.0441 245.472 28.7034 245.227 29.2861C244.982 29.8381 244.859 30.2367 244.859 30.4821C244.859 30.7887 244.951 30.9421 245.135 30.9421C245.319 30.9421 245.58 30.8194 245.917 30.5741C246.285 30.2981 246.684 29.9454 247.113 29.5161C247.573 29.0867 248.033 28.6114 248.493 28.0901C248.953 27.5381 249.398 26.9861 249.827 26.4341C249.98 26.2194 250.164 25.9434 250.379 25.6061C250.594 25.2381 250.793 24.9007 250.977 24.5941C251.192 24.2567 251.376 23.9807 251.529 23.7661C251.713 23.5207 251.851 23.3981 251.943 23.3981C252.096 23.3981 252.265 23.4594 252.449 23.5821C252.633 23.6741 252.725 23.7814 252.725 23.9041C252.725 24.0267 252.664 24.1801 252.541 24.3641C252.418 24.5481 252.265 24.7474 252.081 24.9621C251.897 25.1767 251.698 25.4067 251.483 25.6521C251.299 25.8667 251.146 26.0814 251.023 26.2961C250.9 26.5107 250.716 26.8634 250.471 27.3541C250.256 27.8447 250.042 28.3814 249.827 28.9641C249.612 29.5467 249.428 30.1141 249.275 30.6661C249.122 31.2181 249.045 31.6781 249.045 32.0461C249.045 32.4447 249.122 32.7361 249.275 32.9201C249.459 33.1347 249.796 33.2421 250.287 33.2421C250.9 33.2421 251.529 33.0734 252.173 32.7361C252.848 32.4294 253.492 32.1074 254.105 31.7701C254.197 31.8007 254.258 31.8621 254.289 31.9541C254.32 32.0154 254.258 32.0767 254.105 32.1381C253.185 32.6594 252.234 33.0887 251.253 33.4261C250.302 33.7941 249.444 33.9781 248.677 33.9781C247.726 33.9781 247.251 33.6254 247.251 32.9201C247.251 32.4601 247.45 31.7241 247.849 30.7121C248.248 29.7001 248.723 28.6574 249.275 27.5841C249.122 27.7987 248.815 28.1514 248.355 28.6421C247.926 29.1327 247.435 29.6387 246.883 30.1601C246.331 30.6507 245.779 31.0954 245.227 31.4941C244.675 31.8927 244.215 32.0921 243.847 32.0921C243.54 32.0921 243.341 32.0154 243.249 31.8621C243.157 31.6781 243.111 31.4634 243.111 31.2181C243.111 31.0341 243.172 30.7581 243.295 30.3901C243.448 30.0221 243.617 29.6234 243.801 29.1941C243.985 28.7647 244.184 28.3507 244.399 27.9521C244.614 27.5227 244.798 27.1701 244.951 26.8941Z" fill="#00073D"/>
<path d="M266.436 27.0781C266.497 27.0167 266.559 27.0321 266.62 27.1241C266.681 27.1854 266.681 27.2467 266.62 27.3081C265.792 28.1054 264.933 28.8107 264.044 29.4241C263.185 30.0374 262.342 30.5587 261.514 30.9881C260.717 31.4174 259.95 31.7394 259.214 31.9541C258.509 32.1687 257.911 32.2761 257.42 32.2761C256.5 32.3067 255.764 32.1687 255.212 31.8621C254.66 31.5247 254.384 31.0034 254.384 30.2981C254.384 30.1141 254.415 29.8687 254.476 29.5621C254.537 29.2554 254.614 28.9794 254.706 28.7341C254.982 27.9981 255.396 27.2314 255.948 26.4341C256.5 25.6061 257.098 24.8547 257.742 24.1801C258.417 23.5054 259.122 22.9534 259.858 22.5241C260.594 22.0947 261.284 21.8801 261.928 21.8801C262.296 21.8801 262.618 21.9414 262.894 22.0641C263.201 22.1561 263.354 22.4167 263.354 22.8461C263.354 23.3061 263.124 23.7814 262.664 24.2721C262.235 24.7321 261.683 25.1921 261.008 25.6521C260.333 26.0814 259.597 26.4954 258.8 26.8941C258.003 27.2621 257.267 27.5994 256.592 27.9061C256.285 28.5501 256.132 29.1941 256.132 29.8381C256.132 30.3901 256.377 30.8041 256.868 31.0801C257.359 31.3254 257.911 31.4481 258.524 31.4481C259.107 31.4481 259.751 31.3101 260.456 31.0341C261.161 30.7581 261.851 30.4054 262.526 29.9761C263.231 29.5467 263.921 29.0867 264.596 28.5961C265.271 28.0747 265.884 27.5687 266.436 27.0781ZM261.882 23.2601C261.882 23.0454 261.821 22.8614 261.698 22.7081C261.575 22.5241 261.391 22.4321 261.146 22.4321C260.809 22.4321 260.425 22.6007 259.996 22.9381C259.567 23.2447 259.137 23.6434 258.708 24.1341C258.309 24.6247 257.926 25.1767 257.558 25.7901C257.221 26.3727 256.96 26.9247 256.776 27.4461C257.297 27.2314 257.849 27.0014 258.432 26.7561C259.015 26.4801 259.521 26.1734 259.95 25.8361C260.533 25.4067 260.993 25.0081 261.33 24.6401C261.698 24.2414 261.882 23.7814 261.882 23.2601Z" fill="#00073D"/>
</svg>
