<svg width="40" height="30" viewBox="0 0 40 30" fill="none" xmlns="http://www.w3.org/2000/svg">
<path d="M36.0599 28.6607H4.02655C1.78957 28.6607 0 26.875 0 24.6428V4.01787C0 1.78571 1.78957 -4.07844e-08 4.02655 -4.07844e-08H35.9704C38.2074 -4.07844e-08 39.9969 1.78571 39.9969 4.01787V24.6428C40.0863 26.875 38.2074 28.6607 36.0599 28.6607ZM4.02655 2.67861C3.31069 2.67861 2.6844 3.30364 2.6844 4.01787V24.6428C2.6844 25.3571 3.31078 25.9821 4.02655 25.9821H35.9704C36.6862 25.9821 37.3125 25.357 37.3125 24.6428V4.01787C37.3125 3.30355 36.6862 2.67861 35.9704 2.67861H4.02655V2.67861Z" transform="translate(0 0.829712)" fill="#E0C675"/>
<path d="M19.2407 18.4849C18.8828 18.4849 18.6144 18.3956 18.346 18.1278L0.450197 2.32423C-0.0866992 1.87778 -0.176182 0.984965 0.360714 0.449226C0.808128 -0.0865119 1.70287 -0.175802 2.23977 0.359937L19.2406 15.3599L36.2415 0.359937C36.7784 -0.0865119 37.6732 -0.0865119 38.1206 0.449226C38.568 0.984965 38.568 1.87778 38.0311 2.32423L20.1354 18.1278C19.867 18.3063 19.5092 18.4849 19.2407 18.4849Z" transform="translate(0.802467 1.63037)" fill="#E0C675"/>
<path d="M1.34494 14.6456C0.98701 14.6456 0.629079 14.467 0.360714 14.1992C-0.176182 13.6634 -0.0866992 12.7706 0.450197 12.3242L13.1562 0.359937C13.6931 -0.175802 14.5878 -0.0865121 15.0352 0.449226C15.5721 0.984965 15.4826 1.87778 14.9457 2.32423L2.32917 14.2885C2.0608 14.467 1.70287 14.6456 1.34494 14.6456Z" transform="translate(0.265648 13.5947)" fill="#E0C675"/>
<path d="M14.0153 14.6101C13.6574 14.6101 13.3889 14.5208 13.1205 14.253L0.414621 2.28873C-0.122275 1.75299 -0.122275 0.949466 0.325138 0.413727C0.862035 -0.122011 1.6673 -0.122011 2.20419 0.324437L14.9102 12.2887C15.447 12.8244 15.447 13.6279 14.9996 14.1637C14.7312 14.4315 14.3733 14.6101 14.0153 14.6101Z" transform="translate(24.3709 13.6302)" fill="#E0C675"/>
</svg>
