<svg width="128" height="34" viewBox="0 0 128 34" fill="none" xmlns="http://www.w3.org/2000/svg">
<path d="M35.42 14.168C33.9787 15.5173 32.476 16.8973 30.912 18.308C29.3787 19.688 27.7073 21.298 25.898 23.138C24.8553 24.1193 23.874 25.162 22.954 26.266C22.034 27.37 21.1447 28.4893 20.286 29.624C20.102 29.9613 19.8567 30.2833 19.55 30.59C19.274 30.8967 19.0133 31.2033 18.768 31.51C18.7067 31.5713 18.63 31.5867 18.538 31.556C18.2927 31.556 18.17 31.3107 18.17 30.82V30.774C18.2313 30.59 18.354 30.4213 18.538 30.268C19.7953 28.888 20.9453 27.4313 21.988 25.898C22.264 25.4687 22.724 24.656 23.368 23.46C24.0427 22.2333 24.886 20.608 25.898 18.584C26.6033 17.296 27.2167 16.1153 27.738 15.042C28.2593 13.938 28.7193 12.9413 29.118 12.052C26.3887 14.4133 23.7667 16.7287 21.252 18.998C18.768 21.2367 16.6213 23.23 14.812 24.978C16.192 23.414 17.6793 21.85 19.274 20.286C20.8687 18.6913 22.6473 17.066 24.61 15.41C25.5607 14.6127 26.358 13.938 27.002 13.386C27.646 12.8033 28.1673 12.2973 28.566 11.868C29.2713 11.2547 29.7927 10.718 30.13 10.258C30.498 9.76733 30.866 9.41467 31.234 9.2C31.4793 9.108 31.8167 8.93933 32.246 8.694H32.292C32.3533 8.694 32.3993 8.75533 32.43 8.878C32.3687 9.03133 32.292 9.23067 32.2 9.476C32.108 9.69067 31.9547 9.936 31.74 10.212C31.4947 10.488 31.3107 10.718 31.188 10.902C31.0653 11.086 30.958 11.224 30.866 11.316C29.394 14.1987 27.9833 16.8513 26.634 19.274C25.2847 21.6967 23.966 23.874 22.678 25.806C22.6473 25.8367 22.6167 25.852 22.586 25.852C22.586 25.8827 22.6013 25.898 22.632 25.898H22.678C24.886 23.3833 27.0633 21.16 29.21 19.228C31.3567 17.2653 33.442 15.4407 35.466 13.754L35.42 14.168ZM29.9 25.346C29.9307 25.1007 29.9613 24.794 29.992 24.426C30.0227 24.0273 30.0687 23.7053 30.13 23.46C30.314 22.448 30.6667 21.3747 31.188 20.24C31.7093 19.0747 32.3533 17.9247 33.12 16.79C33.8867 15.6247 34.7453 14.5207 35.696 13.478C36.6467 12.4047 37.6433 11.454 38.686 10.626C40.434 9.338 42.228 8.29533 44.068 7.498C45.9387 6.70067 47.7633 6.31733 49.542 6.348C50.1553 6.37867 50.646 6.578 51.014 6.946C51.4127 7.28333 51.5353 7.88133 51.382 8.74C51.3513 8.80133 51.152 9.07733 50.784 9.568C50.416 10.0587 50.048 10.6413 49.68 11.316C49.6187 11.2853 49.5573 11.27 49.496 11.27C49.4347 11.27 49.4347 11.2087 49.496 11.086C49.6493 10.81 49.7413 10.488 49.772 10.12C49.8333 9.72133 49.7873 9.35333 49.634 9.016C49.4807 8.648 49.2047 8.35667 48.806 8.142C48.4073 7.89667 47.8707 7.774 47.196 7.774C45.9693 7.74333 44.6047 8.004 43.102 8.556C41.63 9.108 40.1427 9.92067 38.64 10.994C38.0573 11.4847 37.4133 12.144 36.708 12.972C36.0333 13.8 35.374 14.766 34.73 15.87C34.1167 16.9433 33.5647 18.1393 33.074 19.458C32.5833 20.746 32.246 22.126 32.062 23.598C31.5407 28.198 33.3347 30.5747 37.444 30.728C39.1 30.728 40.6333 30.3447 42.044 29.578C43.4547 28.8113 44.6967 27.8913 45.77 26.818C45.9233 26.6647 46.046 26.634 46.138 26.726C46.2607 26.7873 46.2453 26.91 46.092 27.094C44.528 28.566 42.734 29.716 40.71 30.544C38.686 31.3413 36.7387 31.7247 34.868 31.694C33.7947 31.694 32.9207 31.4947 32.246 31.096C31.5713 30.728 31.0347 30.2527 30.636 29.67C30.268 29.0567 30.0227 28.382 29.9 27.646C29.808 26.8793 29.808 26.1127 29.9 25.346ZM20.424 13.248C20.5773 11.408 20.3473 10.0587 19.734 9.2C19.1207 8.34133 18.032 7.89667 16.468 7.866C14.5053 7.80467 12.742 8.21867 11.178 9.108C9.64467 9.99733 8.38733 11.132 7.406 12.512C7.34467 12.512 7.29867 12.42 7.268 12.236C7.268 12.0213 7.29867 11.7913 7.36 11.546C7.85067 11.0553 8.47933 10.534 9.246 9.982C10.0433 9.39933 10.9173 8.878 11.868 8.418C12.8493 7.92733 13.892 7.544 14.996 7.268C16.1 6.96133 17.2347 6.82333 18.4 6.854C19.964 6.854 21.0833 7.268 21.758 8.096C22.4633 8.89333 22.7853 9.982 22.724 11.362C22.724 11.6073 22.7087 11.914 22.678 12.282C22.678 12.6193 22.6473 12.9567 22.586 13.294C22.3713 14.3367 21.9727 15.4407 21.39 16.606C20.838 17.7407 20.1633 18.8907 19.366 20.056C18.5993 21.1907 17.7253 22.2947 16.744 23.368C15.7933 24.4107 14.812 25.3613 13.8 26.22C12.0213 27.508 10.2273 28.566 8.418 29.394C6.60867 30.222 4.922 30.6207 3.358 30.59C2.92867 30.59 2.49933 30.544 2.07 30.452C1.64067 30.3293 1.25733 30.1607 0.92 29.946C0.582667 29.7313 0.337333 29.4707 0.184 29.164C4.47035e-08 28.8573 -0.046 28.4893 0.046 28.06C0.107333 27.9067 0.322 27.6153 0.69 27.186C1.02733 26.726 1.36467 26.1433 1.702 25.438C1.794 25.4687 1.87067 25.4993 1.932 25.53C1.96267 25.53 1.94733 25.576 1.886 25.668C1.73267 25.9747 1.68667 26.3427 1.748 26.772C1.80933 27.2013 1.978 27.6153 2.254 28.014C2.49933 28.4127 2.852 28.75 3.312 29.026C3.772 29.302 4.33933 29.44 5.014 29.44C6.33267 29.4707 7.75867 29.1487 9.292 28.474C10.856 27.7993 12.3893 26.8947 13.892 25.76C15.548 24.2573 16.928 22.3867 18.032 20.148C19.1667 17.8787 19.964 15.5787 20.424 13.248Z" transform="translate(0.318115 0.903809)" fill="#00073D"/>
<path d="M48.1113 25.99C48.5407 25.2233 48.9853 24.4567 49.4453 23.69C49.936 22.8927 50.396 22.1567 50.8253 21.482C50.9787 21.3593 51.224 21.252 51.5613 21.16C51.9293 21.068 52.1747 21.022 52.2973 21.022C52.4507 21.022 52.5273 21.0833 52.5273 21.206C51.9447 22.0953 51.3773 23 50.8253 23.92C50.2733 24.8093 49.7827 25.6373 49.3533 26.404C48.9547 27.14 48.6327 27.7993 48.3873 28.382C48.142 28.934 48.0193 29.3327 48.0193 29.578C48.0193 29.8847 48.1113 30.038 48.2953 30.038C48.4793 30.038 48.74 29.9153 49.0773 29.67C49.4453 29.394 49.844 29.0413 50.2733 28.612C50.7333 28.1827 51.1933 27.7073 51.6533 27.186C52.1133 26.634 52.558 26.082 52.9873 25.53C53.1407 25.3153 53.3247 25.0393 53.5393 24.702C53.754 24.334 53.9533 23.9967 54.1373 23.69C54.352 23.3527 54.536 23.0767 54.6893 22.862C54.8733 22.6167 55.0113 22.494 55.1033 22.494C55.2567 22.494 55.4253 22.5553 55.6093 22.678C55.7933 22.77 55.8853 22.8773 55.8853 23C55.8853 23.1227 55.824 23.276 55.7013 23.46C55.5787 23.644 55.4253 23.8433 55.2413 24.058C55.0573 24.2727 54.858 24.5027 54.6433 24.748C54.4593 24.9627 54.306 25.1773 54.1833 25.392C54.0607 25.6067 53.8767 25.9593 53.6313 26.45C53.4167 26.9407 53.202 27.4773 52.9873 28.06C52.7727 28.6427 52.5887 29.21 52.4353 29.762C52.282 30.314 52.2053 30.774 52.2053 31.142C52.2053 31.5407 52.282 31.832 52.4353 32.016C52.6193 32.2307 52.9567 32.338 53.4473 32.338C54.0607 32.338 54.6893 32.1693 55.3333 31.832C56.008 31.5253 56.652 31.2033 57.2653 30.866C57.3573 30.8967 57.4187 30.958 57.4493 31.05C57.48 31.1113 57.4187 31.1727 57.2653 31.234C56.3453 31.7553 55.3947 32.1847 54.4133 32.522C53.4627 32.89 52.604 33.074 51.8373 33.074C50.8867 33.074 50.4113 32.7213 50.4113 32.016C50.4113 31.556 50.6107 30.82 51.0093 29.808C51.408 28.796 51.8833 27.7533 52.4353 26.68C52.282 26.8947 51.9753 27.2473 51.5153 27.738C51.086 28.2287 50.5953 28.7347 50.0433 29.256C49.4913 29.7467 48.9393 30.1913 48.3873 30.59C47.8353 30.9887 47.3753 31.188 47.0073 31.188C46.7007 31.188 46.5013 31.1113 46.4093 30.958C46.3173 30.774 46.2713 30.5593 46.2713 30.314C46.2713 30.13 46.3327 29.854 46.4553 29.486C46.6087 29.118 46.7773 28.7193 46.9613 28.29C47.1453 27.8607 47.3447 27.4467 47.5593 27.048C47.774 26.6187 47.958 26.266 48.1113 25.99Z" transform="translate(0.318115 0.903809)" fill="#00073D"/>
<path d="M85.0066 2.162C85.0066 3.634 83.4579 5.934 80.3606 9.062C77.2632 12.1593 72.4792 16.0233 66.0086 20.654C65.7326 20.8993 65.5946 21.0527 65.5946 21.114C66.2692 21.5127 67.0666 21.8193 67.9866 22.034C68.9372 22.218 69.9032 22.31 70.8846 22.31C71.3752 22.31 71.9119 22.2793 72.4946 22.218C73.0772 22.126 73.5832 22.0033 74.0126 21.85C74.1659 21.8193 74.2426 21.85 74.2426 21.942C74.2732 22.0033 74.2119 22.0647 74.0586 22.126C73.6599 22.2793 73.1079 22.4173 72.4026 22.54C71.7279 22.6627 71.0992 22.724 70.5166 22.724C69.9339 22.724 69.2899 22.7087 68.5846 22.678C67.8792 22.6167 67.2199 22.5093 66.6066 22.356C66.5452 22.356 66.5146 22.402 66.5146 22.494C66.5146 22.586 66.5146 22.6627 66.5146 22.724C66.5146 23.3987 66.3766 24.0887 66.1006 24.794C65.8246 25.4993 65.4719 26.1893 65.0426 26.864C64.6439 27.508 64.1839 28.106 63.6626 28.658C63.1412 29.21 62.6352 29.67 62.1446 30.038C61.5926 30.4673 61.0406 30.8047 60.4886 31.05C59.9672 31.2647 59.5532 31.372 59.2466 31.372C58.8172 31.372 58.5259 31.2493 58.3726 31.004C58.2499 30.728 58.1886 30.406 58.1886 30.038C58.1886 29.6393 58.2346 29.2253 58.3266 28.796C58.4492 28.3667 58.6332 27.8913 58.8786 27.37C59.1546 26.818 59.4766 26.1893 59.8446 25.484C60.2432 24.748 60.7186 23.874 61.2706 22.862C63.5399 18.6913 65.7172 15.1647 67.8026 12.282C69.8879 9.36867 71.8199 7.00733 73.5986 5.198C75.4079 3.358 77.0486 2.03933 78.5206 1.242C79.9926 0.414 81.2652 0 82.3386 0C83.1972 0 83.8566 0.199334 84.3166 0.598001C84.7766 0.965999 85.0066 1.48733 85.0066 2.162ZM83.5806 3.266C83.5806 1.76333 82.6912 1.012 80.9126 1.012C79.9926 1.012 78.9039 1.39533 77.6466 2.162C76.3892 2.92867 75.0092 4.15533 73.5066 5.842C72.0039 7.498 70.3939 9.64467 68.6766 12.282C66.9592 14.8887 65.1806 18.032 63.3406 21.712C63.2486 21.896 63.2486 21.9727 63.3406 21.942C63.4632 21.8807 63.5552 21.8193 63.6166 21.758C64.7819 20.9607 66.0852 20.056 67.5266 19.044C68.9986 18.032 70.4706 16.9587 71.9426 15.824C73.4146 14.6893 74.8406 13.5393 76.2206 12.374C77.6312 11.2087 78.8732 10.074 79.9466 8.97C81.0506 7.83533 81.9246 6.79267 82.5686 5.842C83.2432 4.86067 83.5806 4.002 83.5806 3.266ZM65.5946 23.092C65.5946 22.5707 65.4259 22.264 65.0886 22.172C64.7512 22.0493 64.4446 21.988 64.1686 21.988C63.9846 21.988 63.7546 22.0647 63.4786 22.218C63.2332 22.3713 63.0186 22.5553 62.8346 22.77C62.5892 23.138 62.2979 23.6133 61.9606 24.196C61.6539 24.7787 61.3472 25.392 61.0406 26.036C60.7646 26.6493 60.5192 27.2473 60.3046 27.83C60.1206 28.4127 60.0286 28.8573 60.0286 29.164C60.0286 29.6547 60.1359 29.9613 60.3506 30.084C60.5652 30.176 60.7339 30.222 60.8566 30.222C61.1019 30.222 61.4852 30.0533 62.0066 29.716C62.4666 29.348 62.9112 28.9033 63.3406 28.382C63.8006 27.8607 64.1839 27.3087 64.4906 26.726C64.8279 26.1433 65.0886 25.5453 65.2726 24.932C65.4872 24.3187 65.5946 23.7053 65.5946 23.092Z" transform="translate(0.318115 0.903809)" fill="#00073D"/>
<path d="M84.3999 23C83.9093 23.1533 83.3726 23.2913 82.7899 23.414C82.2073 23.506 81.6859 23.552 81.2259 23.552C80.7353 23.552 80.1986 23.5367 79.6159 23.506C79.0333 23.4447 78.4659 23.3527 77.9139 23.23C77.7299 24.518 77.3466 25.6833 76.7639 26.726C76.2119 27.738 75.4453 28.7347 74.4639 29.716C73.2373 30.8507 72.1333 31.418 71.1519 31.418C70.5386 31.418 70.1093 31.234 69.8639 30.866C69.6186 30.4673 69.4959 29.992 69.4959 29.44C69.4959 29.0107 69.5726 28.5047 69.7259 27.922C69.8793 27.3087 70.0786 26.8027 70.3239 26.404C70.6613 25.7907 71.2133 25.1467 71.9799 24.472C72.7466 23.7973 73.8199 23.0153 75.1999 22.126C75.6293 21.85 75.9666 21.6353 76.2119 21.482C76.4573 21.3287 76.6413 21.206 76.7639 21.114C76.8866 21.022 76.9633 20.976 76.9939 20.976C77.0553 20.9453 77.1013 20.93 77.1319 20.93C77.1933 20.93 77.2546 20.976 77.3159 21.068C77.3773 21.1293 77.4386 21.1907 77.4999 21.252C77.5919 21.6507 77.7913 21.9727 78.0979 22.218C78.4046 22.4633 78.7573 22.6627 79.1559 22.816C79.5546 22.9387 79.9533 23.0307 80.3519 23.092C80.7813 23.1227 81.1646 23.138 81.5019 23.138C81.9313 23.138 82.4066 23.1073 82.9279 23.046C83.4799 22.9847 83.9706 22.8927 84.3999 22.77C84.5226 22.77 84.5839 22.8007 84.5839 22.862C84.6146 22.8927 84.5533 22.9387 84.3999 23ZM76.4419 23.736C76.4419 23.46 76.4113 23.1533 76.3499 22.816C76.3193 22.4787 76.1506 22.31 75.8439 22.31C75.5986 22.31 75.3379 22.402 75.0619 22.586C73.8353 23.2913 72.8999 24.2573 72.2559 25.484C71.6119 26.68 71.2899 27.968 71.2899 29.348C71.2899 29.7467 71.3513 30.084 71.4739 30.36C71.6273 30.6053 71.8266 30.728 72.0719 30.728C72.6546 30.728 73.2066 30.4827 73.7279 29.992C74.2493 29.4707 74.7093 28.842 75.1079 28.106C75.5066 27.37 75.8286 26.6033 76.0739 25.806C76.3193 25.0087 76.4419 24.3187 76.4419 23.736Z" transform="translate(0.318115 0.903809)" fill="#00073D"/>
<path d="M94.1681 29.808C93.8001 30.2373 93.3554 30.636 92.8341 31.004C92.3434 31.3413 91.8068 31.6327 91.2241 31.878C90.6721 32.154 90.1048 32.3687 89.5221 32.522C88.9701 32.6753 88.4488 32.752 87.9581 32.752C87.1301 32.752 86.5014 32.614 86.0721 32.338C85.6734 32.0927 85.4741 31.5407 85.4741 30.682C85.4741 30.314 85.5661 29.8693 85.7501 29.348C85.9341 28.796 86.1794 28.1827 86.4861 27.508C86.7928 26.8333 87.1301 26.128 87.4981 25.392C87.8661 24.6253 88.2341 23.8587 88.6021 23.092C88.7248 22.7547 88.7248 22.5553 88.6021 22.494C88.5101 22.402 88.3568 22.4327 88.1421 22.586C87.5901 22.954 87.0074 23.4293 86.3941 24.012C85.7808 24.5947 85.1674 25.2387 84.5541 25.944C83.9714 26.6187 83.4041 27.3547 82.8521 28.152C82.3308 28.9187 81.8401 29.6853 81.3801 30.452C81.2268 30.6973 80.9814 30.912 80.6441 31.096C80.3374 31.28 80.0768 31.372 79.8621 31.372C79.7088 31.372 79.6321 31.2953 79.6321 31.142C79.7854 30.8353 80.0308 30.36 80.3681 29.716C80.7361 29.0413 81.1041 28.3513 81.4721 27.646C81.6868 27.2473 81.9168 26.8027 82.1621 26.312C82.4074 25.8213 82.6528 25.3307 82.8981 24.84C83.1434 24.3187 83.3581 23.8433 83.5421 23.414C83.7568 22.954 83.9101 22.586 84.0021 22.31C84.0941 22.0647 84.2474 21.8653 84.4621 21.712C84.7074 21.5587 85.0601 21.3593 85.5201 21.114C85.7041 21.022 85.8421 20.976 85.9341 20.976C86.0261 20.976 86.0721 21.0373 86.0721 21.16C86.0721 21.252 86.0108 21.4053 85.8881 21.62C85.7961 21.8347 85.6428 22.1567 85.4281 22.586C85.2134 23.0153 84.9221 23.5827 84.5541 24.288C84.2168 24.9933 83.8028 25.8827 83.3121 26.956C83.8641 26.2813 84.4621 25.5913 85.1061 24.886C85.7808 24.1807 86.4401 23.5367 87.0841 22.954C87.7281 22.3713 88.3108 21.896 88.8321 21.528C89.3841 21.16 89.8134 20.976 90.1201 20.976C90.2121 20.976 90.3501 21.068 90.5341 21.252C90.7181 21.436 90.8101 21.6047 90.8101 21.758C90.8101 21.942 90.6261 22.3253 90.2581 22.908C89.8901 23.4907 89.4761 24.1807 89.0161 24.978C88.5868 25.7753 88.1881 26.634 87.8201 27.554C87.4521 28.474 87.2681 29.3633 87.2681 30.222C87.2681 30.866 87.3908 31.3567 87.6361 31.694C87.8814 32.0313 88.3568 32.2 89.0621 32.2C89.4608 32.2 89.8901 32.1233 90.3501 31.97C90.8101 31.8167 91.2548 31.602 91.6841 31.326C92.1134 31.0807 92.5274 30.8047 92.9261 30.498C93.3248 30.1913 93.6621 29.8847 93.9381 29.578C94.0608 29.4247 94.1374 29.4093 94.1681 29.532C94.2294 29.6547 94.2294 29.7467 94.1681 29.808Z" transform="translate(0.318115 0.903809)" fill="#00073D"/>
<path d="M94.6953 25.99C95.1246 25.2233 95.5693 24.4567 96.0293 23.69C96.52 22.8927 96.98 22.1567 97.4093 21.482C97.5626 21.3593 97.808 21.252 98.1453 21.16C98.5133 21.068 98.7586 21.022 98.8813 21.022C99.0346 21.022 99.1113 21.0833 99.1113 21.206C98.5286 22.0953 97.9613 23 97.4093 23.92C96.8573 24.8093 96.3666 25.6373 95.9373 26.404C95.5386 27.14 95.2166 27.7993 94.9713 28.382C94.726 28.934 94.6033 29.3327 94.6033 29.578C94.6033 29.8847 94.6953 30.038 94.8793 30.038C95.0633 30.038 95.324 29.9153 95.6613 29.67C96.0293 29.394 96.428 29.0413 96.8573 28.612C97.3173 28.1827 97.7773 27.7073 98.2373 27.186C98.6973 26.634 99.142 26.082 99.5713 25.53C99.7246 25.3153 99.9086 25.0393 100.123 24.702C100.338 24.334 100.537 23.9967 100.721 23.69C100.936 23.3527 101.12 23.0767 101.273 22.862C101.457 22.6167 101.595 22.494 101.687 22.494C101.841 22.494 102.009 22.5553 102.193 22.678C102.377 22.77 102.469 22.8773 102.469 23C102.469 23.1227 102.408 23.276 102.285 23.46C102.163 23.644 102.009 23.8433 101.825 24.058C101.641 24.2727 101.442 24.5027 101.227 24.748C101.043 24.9627 100.89 25.1773 100.767 25.392C100.645 25.6067 100.461 25.9593 100.215 26.45C100.001 26.9407 99.786 27.4773 99.5713 28.06C99.3566 28.6427 99.1726 29.21 99.0193 29.762C98.866 30.314 98.7893 30.774 98.7893 31.142C98.7893 31.5407 98.866 31.832 99.0193 32.016C99.2033 32.2307 99.5406 32.338 100.031 32.338C100.645 32.338 101.273 32.1693 101.917 31.832C102.592 31.5253 103.236 31.2033 103.849 30.866C103.941 30.8967 104.003 30.958 104.033 31.05C104.064 31.1113 104.003 31.1727 103.849 31.234C102.929 31.7553 101.979 32.1847 100.997 32.522C100.047 32.89 99.188 33.074 98.4213 33.074C97.4706 33.074 96.9953 32.7213 96.9953 32.016C96.9953 31.556 97.1946 30.82 97.5933 29.808C97.992 28.796 98.4673 27.7533 99.0193 26.68C98.866 26.8947 98.5593 27.2473 98.0993 27.738C97.67 28.2287 97.1793 28.7347 96.6273 29.256C96.0753 29.7467 95.5233 30.1913 94.9713 30.59C94.4193 30.9887 93.9593 31.188 93.5913 31.188C93.2847 31.188 93.0853 31.1113 92.9933 30.958C92.9013 30.774 92.8553 30.5593 92.8553 30.314C92.8553 30.13 92.9166 29.854 93.0393 29.486C93.1926 29.118 93.3613 28.7193 93.5453 28.29C93.7293 27.8607 93.9286 27.4467 94.1433 27.048C94.358 26.6187 94.542 26.266 94.6953 25.99Z" transform="translate(0.318115 0.903809)" fill="#00073D"/>
<path d="M116.043 26.036C115.797 26.2507 115.445 26.542 114.985 26.91C114.555 27.278 114.065 27.6767 113.513 28.106C112.961 28.5353 112.393 28.9647 111.811 29.394C111.259 29.7927 110.737 30.13 110.247 30.406C109.664 30.7433 109.112 30.9887 108.591 31.142C108.1 31.2953 107.64 31.372 107.211 31.372C105.708 31.372 104.957 30.636 104.957 29.164C104.957 28.8267 105.033 28.3973 105.187 27.876C105.371 27.324 105.585 26.818 105.831 26.358C106.291 25.4687 106.751 24.748 107.211 24.196C107.671 23.6133 108.161 23.138 108.683 22.77C109.235 22.3713 109.833 22.0493 110.477 21.804C111.121 21.528 111.841 21.2673 112.639 21.022C112.823 20.9607 112.961 20.93 113.053 20.93C113.237 20.93 113.436 21.0987 113.651 21.436C113.896 21.7427 114.019 21.988 114.019 22.172C114.019 22.356 113.911 22.6013 113.697 22.908C113.513 23.2147 113.344 23.414 113.191 23.506C113.007 23.0153 112.777 22.6167 112.501 22.31C112.255 22.0033 111.918 21.85 111.489 21.85C111.059 21.85 110.569 22.0953 110.017 22.586C109.465 23.046 108.943 23.6287 108.453 24.334C107.962 25.0393 107.548 25.8213 107.211 26.68C106.873 27.508 106.705 28.3053 106.705 29.072C106.705 29.5627 106.797 29.9613 106.981 30.268C107.195 30.544 107.517 30.682 107.947 30.682C108.376 30.682 108.79 30.6053 109.189 30.452C109.618 30.2987 110.124 30.0533 110.707 29.716C111.013 29.532 111.397 29.2713 111.857 28.934C112.317 28.5967 112.792 28.244 113.283 27.876C113.804 27.4773 114.295 27.094 114.755 26.726C115.245 26.3273 115.629 26.0053 115.905 25.76C116.058 25.6067 116.15 25.5913 116.181 25.714C116.211 25.806 116.165 25.9133 116.043 26.036Z" transform="translate(0.318115 0.903809)" fill="#00073D"/>
<path d="M118.561 30.222C118.5 30.2527 118.438 30.2987 118.377 30.36C118.776 30.36 119.282 30.222 119.895 29.946C120.539 29.6393 121.214 29.2253 121.919 28.704C122.655 28.1827 123.406 27.554 124.173 26.818C124.97 26.0513 125.722 25.2233 126.427 24.334C126.488 24.3033 126.565 24.288 126.657 24.288C126.749 24.2573 126.764 24.3647 126.703 24.61C125.722 25.806 124.771 26.818 123.851 27.646C122.962 28.4433 122.118 29.0873 121.321 29.578C120.524 30.0687 119.803 30.4213 119.159 30.636C118.515 30.82 117.978 30.8967 117.549 30.866C117.242 31.0193 116.951 31.142 116.675 31.234C116.399 31.3567 116.138 31.418 115.893 31.418H115.387C114.59 31.418 114.191 31.05 114.191 30.314C114.191 30.0687 114.268 29.7313 114.421 29.302C114.574 28.842 114.774 28.382 115.019 27.922C115.356 27.2167 115.694 26.542 116.031 25.898C116.399 25.2233 116.782 24.5947 117.181 24.012C117.457 23.5827 117.733 23.1533 118.009 22.724C118.285 22.2947 118.561 21.8653 118.837 21.436C118.898 21.3747 118.96 21.3287 119.021 21.298H118.929C118.99 21.1447 119.067 21.0067 119.159 20.884C119.251 20.7613 119.343 20.6233 119.435 20.47C119.496 20.4393 119.604 20.424 119.757 20.424C119.91 20.3933 120.064 20.3933 120.217 20.424C120.401 20.4547 120.554 20.5007 120.677 20.562C120.8 20.5927 120.861 20.6387 120.861 20.7C120.861 20.7307 120.8 20.838 120.677 21.022C120.585 21.206 120.462 21.4053 120.309 21.62C120.186 21.8347 120.064 22.034 119.941 22.218C119.818 22.402 119.742 22.5093 119.711 22.54C119.282 23.0613 118.852 23.6287 118.423 24.242C118.024 24.8553 117.656 25.4533 117.319 26.036C117.595 25.8827 117.886 25.714 118.193 25.53C118.5 25.346 118.852 25.1467 119.251 24.932C119.956 24.5333 120.386 24.3033 120.539 24.242C120.692 24.15 120.8 24.104 120.861 24.104C120.953 24.104 121.045 24.196 121.137 24.38C121.26 24.5333 121.352 24.7173 121.413 24.932C121.474 25.116 121.52 25.3 121.551 25.484C121.582 25.6373 121.566 25.714 121.505 25.714C121.229 27.094 120.631 28.2593 119.711 29.21L119.481 29.44L118.561 30.222ZM118.653 29.716L118.699 29.762C119.098 29.2713 119.466 28.6733 119.803 27.968C120.11 27.2627 120.263 26.634 120.263 26.082C120.263 25.8673 120.248 25.6527 120.217 25.438C120.186 25.1927 120.048 25.07 119.803 25.07C119.558 25.07 119.328 25.1313 119.113 25.254C118.101 25.7753 117.319 26.45 116.767 27.278C116.246 28.0753 115.985 28.9493 115.985 29.9C116.077 30.268 116.338 30.452 116.767 30.452C117.319 30.452 117.932 30.2527 118.607 29.854L118.653 29.716ZM117.135 30.774C117.135 30.9887 117.242 31.0193 117.457 30.866C117.396 30.8353 117.334 30.82 117.273 30.82C117.242 30.82 117.196 30.8047 117.135 30.774Z" transform="translate(0.318115 0.903809)" fill="#00073D"/>
</svg>
