<svg width="127" height="49" viewBox="0 0 127 49" fill="none" xmlns="http://www.w3.org/2000/svg">
<path d="M35.42 14.1684C33.9787 15.5177 32.476 16.8977 30.912 18.3084C29.3787 19.6884 27.7073 21.2984 25.898 23.1384C24.8553 24.1197 23.874 25.1624 22.954 26.2664C22.034 27.3704 21.1447 28.4897 20.286 29.6244C20.102 29.9617 19.8567 30.2837 19.55 30.5904C19.274 30.8971 19.0133 31.2037 18.768 31.5104C18.7067 31.5717 18.63 31.5871 18.538 31.5564C18.2927 31.5564 18.17 31.3111 18.17 30.8204V30.7744C18.2313 30.5904 18.354 30.4217 18.538 30.2684C19.7953 28.8884 20.9453 27.4317 21.988 25.8984C22.264 25.4691 22.724 24.6564 23.368 23.4604C24.0427 22.2337 24.886 20.6084 25.898 18.5844C26.6033 17.2964 27.2167 16.1157 27.738 15.0424C28.2593 13.9384 28.7193 12.9417 29.118 12.0524C26.3887 14.4137 23.7667 16.7291 21.252 18.9984C18.768 21.2371 16.6213 23.2304 14.812 24.9784C16.192 23.4144 17.6793 21.8504 19.274 20.2864C20.8687 18.6917 22.6473 17.0664 24.61 15.4104C25.5607 14.6131 26.358 13.9384 27.002 13.3864C27.646 12.8037 28.1673 12.2977 28.566 11.8684C29.2713 11.2551 29.7927 10.7184 30.13 10.2584C30.498 9.76771 30.866 9.41505 31.234 9.20038C31.4793 9.10838 31.8167 8.93971 32.246 8.69438H32.292C32.3533 8.69438 32.3993 8.75571 32.43 8.87838C32.3687 9.03171 32.292 9.23105 32.2 9.47638C32.108 9.69105 31.9547 9.93638 31.74 10.2124C31.4947 10.4884 31.3107 10.7184 31.188 10.9024C31.0653 11.0864 30.958 11.2244 30.866 11.3164C29.394 14.1991 27.9833 16.8517 26.634 19.2744C25.2847 21.6971 23.966 23.8744 22.678 25.8064C22.6473 25.8371 22.6167 25.8524 22.586 25.8524C22.586 25.8831 22.6013 25.8984 22.632 25.8984H22.678C24.886 23.3837 27.0633 21.1604 29.21 19.2284C31.3567 17.2657 33.442 15.4411 35.466 13.7544L35.42 14.1684ZM29.9 25.3464C29.9307 25.1011 29.9613 24.7944 29.992 24.4264C30.0227 24.0277 30.0687 23.7057 30.13 23.4604C30.314 22.4484 30.6667 21.3751 31.188 20.2404C31.7093 19.0751 32.3533 17.9251 33.12 16.7904C33.8867 15.6251 34.7453 14.5211 35.696 13.4784C36.6467 12.4051 37.6433 11.4544 38.686 10.6264C40.434 9.33838 42.228 8.29571 44.068 7.49838C45.9387 6.70105 47.7633 6.31771 49.542 6.34838C50.1553 6.37905 50.646 6.57838 51.014 6.94638C51.4127 7.28371 51.5353 7.88171 51.382 8.74038C51.3513 8.80171 51.152 9.07771 50.784 9.56838C50.416 10.0591 50.048 10.6417 49.68 11.3164C49.6187 11.2857 49.5573 11.2704 49.496 11.2704C49.4347 11.2704 49.4347 11.2091 49.496 11.0864C49.6493 10.8104 49.7413 10.4884 49.772 10.1204C49.8333 9.72171 49.7873 9.35371 49.634 9.01638C49.4807 8.64838 49.2047 8.35705 48.806 8.14238C48.4073 7.89705 47.8707 7.77438 47.196 7.77438C45.9693 7.74371 44.6047 8.00438 43.102 8.55638C41.63 9.10838 40.1427 9.92105 38.64 10.9944C38.0573 11.4851 37.4133 12.1444 36.708 12.9724C36.0333 13.8004 35.374 14.7664 34.73 15.8704C34.1167 16.9437 33.5647 18.1397 33.074 19.4584C32.5833 20.7464 32.246 22.1264 32.062 23.5984C31.5407 28.1984 33.3347 30.5751 37.444 30.7284C39.1 30.7284 40.6333 30.3451 42.044 29.5784C43.4547 28.8117 44.6967 27.8917 45.77 26.8184C45.9233 26.6651 46.046 26.6344 46.138 26.7264C46.2607 26.7877 46.2453 26.9104 46.092 27.0944C44.528 28.5664 42.734 29.7164 40.71 30.5444C38.686 31.3417 36.7387 31.7251 34.868 31.6944C33.7947 31.6944 32.9207 31.4951 32.246 31.0964C31.5713 30.7284 31.0347 30.2531 30.636 29.6704C30.268 29.0571 30.0227 28.3824 29.9 27.6464C29.808 26.8797 29.808 26.1131 29.9 25.3464ZM20.424 13.2484C20.5773 11.4084 20.3473 10.0591 19.734 9.20038C19.1207 8.34171 18.032 7.89705 16.468 7.86638C14.5053 7.80505 12.742 8.21905 11.178 9.10838C9.64467 9.99771 8.38733 11.1324 7.406 12.5124C7.34467 12.5124 7.29867 12.4204 7.268 12.2364C7.268 12.0217 7.29867 11.7917 7.36 11.5464C7.85067 11.0557 8.47933 10.5344 9.246 9.98238C10.0433 9.39971 10.9173 8.87838 11.868 8.41838C12.8493 7.92771 13.892 7.54438 14.996 7.26838C16.1 6.96171 17.2347 6.82371 18.4 6.85438C19.964 6.85438 21.0833 7.26838 21.758 8.09638C22.4633 8.89371 22.7853 9.98238 22.724 11.3624C22.724 11.6077 22.7087 11.9144 22.678 12.2824C22.678 12.6197 22.6473 12.9571 22.586 13.2944C22.3713 14.3371 21.9727 15.4411 21.39 16.6064C20.838 17.7411 20.1633 18.8911 19.366 20.0564C18.5993 21.1911 17.7253 22.2951 16.744 23.3684C15.7933 24.4111 14.812 25.3617 13.8 26.2204C12.0213 27.5084 10.2273 28.5664 8.418 29.3944C6.60867 30.2224 4.922 30.6211 3.358 30.5904C2.92867 30.5904 2.49933 30.5444 2.07 30.4524C1.64067 30.3297 1.25733 30.1611 0.92 29.9464C0.582667 29.7317 0.337333 29.4711 0.184 29.1644C2.98023e-08 28.8577 -0.046 28.4897 0.046 28.0604C0.107333 27.9071 0.322 27.6157 0.69 27.1864C1.02733 26.7264 1.36467 26.1437 1.702 25.4384C1.794 25.4691 1.87067 25.4997 1.932 25.5304C1.96267 25.5304 1.94733 25.5764 1.886 25.6684C1.73267 25.9751 1.68667 26.3431 1.748 26.7724C1.80933 27.2017 1.978 27.6157 2.254 28.0144C2.49933 28.4131 2.852 28.7504 3.312 29.0264C3.772 29.3024 4.33933 29.4404 5.014 29.4404C6.33267 29.4711 7.75867 29.1491 9.292 28.4744C10.856 27.7997 12.3893 26.8951 13.892 25.7604C15.548 24.2577 16.928 22.3871 18.032 20.1484C19.1667 17.8791 19.964 15.5791 20.424 13.2484Z" fill="#00073D"/>
<path d="M48.1115 25.9905C48.5409 25.2238 48.9855 24.4572 49.4455 23.6905C49.9362 22.8932 50.3962 22.1572 50.8255 21.4825C50.9789 21.3598 51.2242 21.2525 51.5615 21.1605C51.9295 21.0685 52.1749 21.0225 52.2975 21.0225C52.4509 21.0225 52.5275 21.0838 52.5275 21.2065C51.9449 22.0958 51.3775 23.0005 50.8255 23.9205C50.2735 24.8098 49.7829 25.6378 49.3535 26.4045C48.9549 27.1405 48.6329 27.7998 48.3875 28.3825C48.1422 28.9345 48.0195 29.3332 48.0195 29.5785C48.0195 29.8852 48.1115 30.0385 48.2955 30.0385C48.4795 30.0385 48.7402 29.9158 49.0775 29.6705C49.4455 29.3945 49.8442 29.0418 50.2735 28.6125C50.7335 28.1832 51.1935 27.7078 51.6535 27.1865C52.1135 26.6345 52.5582 26.0825 52.9875 25.5305C53.1409 25.3158 53.3249 25.0398 53.5395 24.7025C53.7542 24.3345 53.9535 23.9972 54.1375 23.6905C54.3522 23.3532 54.5362 23.0772 54.6895 22.8625C54.8735 22.6172 55.0115 22.4945 55.1035 22.4945C55.2569 22.4945 55.4255 22.5558 55.6095 22.6785C55.7935 22.7705 55.8855 22.8778 55.8855 23.0005C55.8855 23.1232 55.8242 23.2765 55.7015 23.4605C55.5789 23.6445 55.4255 23.8438 55.2415 24.0585C55.0575 24.2732 54.8582 24.5032 54.6435 24.7485C54.4595 24.9632 54.3062 25.1778 54.1835 25.3925C54.0609 25.6072 53.8769 25.9598 53.6315 26.4505C53.4169 26.9412 53.2022 27.4778 52.9875 28.0605C52.7729 28.6432 52.5889 29.2105 52.4355 29.7625C52.2822 30.3145 52.2055 30.7745 52.2055 31.1425C52.2055 31.5412 52.2822 31.8325 52.4355 32.0165C52.6195 32.2312 52.9569 32.3385 53.4475 32.3385C54.0609 32.3385 54.6895 32.1698 55.3335 31.8325C56.0082 31.5258 56.6522 31.2038 57.2655 30.8665C57.3575 30.8972 57.4189 30.9585 57.4495 31.0505C57.4802 31.1118 57.4189 31.1732 57.2655 31.2345C56.3455 31.7558 55.3949 32.1852 54.4135 32.5225C53.4629 32.8905 52.6042 33.0745 51.8375 33.0745C50.8869 33.0745 50.4115 32.7218 50.4115 32.0165C50.4115 31.5565 50.6109 30.8205 51.0095 29.8085C51.4082 28.7965 51.8835 27.7538 52.4355 26.6805C52.2822 26.8952 51.9755 27.2478 51.5155 27.7385C51.0862 28.2292 50.5955 28.7352 50.0435 29.2565C49.4915 29.7472 48.9395 30.1918 48.3875 30.5905C47.8355 30.9892 47.3755 31.1885 47.0075 31.1885C46.7009 31.1885 46.5015 31.1118 46.4095 30.9585C46.3175 30.7745 46.2715 30.5598 46.2715 30.3145C46.2715 30.1305 46.3329 29.8545 46.4555 29.4865C46.6089 29.1185 46.7775 28.7198 46.9615 28.2905C47.1455 27.8612 47.3449 27.4472 47.5595 27.0485C47.7742 26.6192 47.9582 26.2665 48.1115 25.9905Z" fill="#00073D"/>
<path d="M85.0065 2.162C85.0065 3.634 83.4578 5.934 80.3605 9.062C77.2631 12.1593 72.4791 16.0233 66.0085 20.654C65.7325 20.8993 65.5945 21.0527 65.5945 21.114C66.2691 21.5127 67.0665 21.8193 67.9865 22.034C68.9371 22.218 69.9031 22.31 70.8845 22.31C71.3751 22.31 71.9118 22.2793 72.4945 22.218C73.0771 22.126 73.5831 22.0033 74.0125 21.85C74.1658 21.8193 74.2425 21.85 74.2425 21.942C74.2731 22.0033 74.2118 22.0647 74.0585 22.126C73.6598 22.2793 73.1078 22.4173 72.4025 22.54C71.7278 22.6627 71.0991 22.724 70.5165 22.724C69.9338 22.724 69.2898 22.7087 68.5845 22.678C67.8791 22.6167 67.2198 22.5093 66.6065 22.356C66.5451 22.356 66.5145 22.402 66.5145 22.494C66.5145 22.586 66.5145 22.6627 66.5145 22.724C66.5145 23.3987 66.3765 24.0887 66.1005 24.794C65.8245 25.4993 65.4718 26.1893 65.0425 26.864C64.6438 27.508 64.1838 28.106 63.6625 28.658C63.1411 29.21 62.6351 29.67 62.1445 30.038C61.5925 30.4673 61.0405 30.8047 60.4885 31.05C59.9671 31.2647 59.5531 31.372 59.2465 31.372C58.8171 31.372 58.5258 31.2493 58.3725 31.004C58.2498 30.728 58.1885 30.406 58.1885 30.038C58.1885 29.6393 58.2345 29.2253 58.3265 28.796C58.4491 28.3667 58.6331 27.8913 58.8785 27.37C59.1545 26.818 59.4765 26.1893 59.8445 25.484C60.2431 24.748 60.7185 23.874 61.2705 22.862C63.5398 18.6913 65.7171 15.1647 67.8025 12.282C69.8878 9.36867 71.8198 7.00733 73.5985 5.198C75.4078 3.358 77.0485 2.03933 78.5205 1.242C79.9925 0.414 81.2651 0 82.3385 0C83.1971 0 83.8565 0.199334 84.3165 0.598001C84.7765 0.965999 85.0065 1.48733 85.0065 2.162ZM83.5805 3.266C83.5805 1.76333 82.6911 1.012 80.9125 1.012C79.9925 1.012 78.9038 1.39533 77.6465 2.162C76.3891 2.92867 75.0091 4.15533 73.5065 5.842C72.0038 7.498 70.3938 9.64467 68.6765 12.282C66.9591 14.8887 65.1805 18.032 63.3405 21.712C63.2485 21.896 63.2485 21.9727 63.3405 21.942C63.4631 21.8807 63.5551 21.8193 63.6165 21.758C64.7818 20.9607 66.0851 20.056 67.5265 19.044C68.9985 18.032 70.4705 16.9587 71.9425 15.824C73.4145 14.6893 74.8405 13.5393 76.2205 12.374C77.6311 11.2087 78.8731 10.074 79.9465 8.97C81.0505 7.83533 81.9245 6.79267 82.5685 5.842C83.2431 4.86067 83.5805 4.002 83.5805 3.266ZM65.5945 23.092C65.5945 22.5707 65.4258 22.264 65.0885 22.172C64.7511 22.0493 64.4445 21.988 64.1685 21.988C63.9845 21.988 63.7545 22.0647 63.4785 22.218C63.2331 22.3713 63.0185 22.5553 62.8345 22.77C62.5891 23.138 62.2978 23.6133 61.9605 24.196C61.6538 24.7787 61.3471 25.392 61.0405 26.036C60.7645 26.6493 60.5191 27.2473 60.3045 27.83C60.1205 28.4127 60.0285 28.8573 60.0285 29.164C60.0285 29.6547 60.1358 29.9613 60.3505 30.084C60.5651 30.176 60.7338 30.222 60.8565 30.222C61.1018 30.222 61.4851 30.0533 62.0065 29.716C62.4665 29.348 62.9111 28.9033 63.3405 28.382C63.8005 27.8607 64.1838 27.3087 64.4905 26.726C64.8278 26.1433 65.0885 25.5453 65.2725 24.932C65.4871 24.3187 65.5945 23.7053 65.5945 23.092Z" fill="#00073D"/>
<path d="M84.4001 22.9997C83.9095 23.153 83.3728 23.291 82.7901 23.4137C82.2075 23.5057 81.6861 23.5517 81.2261 23.5517C80.7355 23.5517 80.1988 23.5364 79.6161 23.5057C79.0335 23.4444 78.4661 23.3524 77.9141 23.2297C77.7301 24.5177 77.3468 25.683 76.7641 26.7257C76.2121 27.7377 75.4455 28.7344 74.4641 29.7157C73.2375 30.8504 72.1335 31.4177 71.1521 31.4177C70.5388 31.4177 70.1095 31.2337 69.8641 30.8657C69.6188 30.467 69.4961 29.9917 69.4961 29.4397C69.4961 29.0104 69.5728 28.5044 69.7261 27.9217C69.8795 27.3084 70.0788 26.8024 70.3241 26.4037C70.6615 25.7904 71.2135 25.1464 71.9801 24.4717C72.7468 23.797 73.8201 23.015 75.2001 22.1257C75.6295 21.8497 75.9668 21.635 76.2121 21.4817C76.4575 21.3284 76.6415 21.2057 76.7641 21.1137C76.8868 21.0217 76.9635 20.9757 76.9941 20.9757C77.0555 20.945 77.1015 20.9297 77.1321 20.9297C77.1935 20.9297 77.2548 20.9757 77.3161 21.0677C77.3775 21.129 77.4388 21.1904 77.5001 21.2517C77.5921 21.6504 77.7915 21.9724 78.0981 22.2177C78.4048 22.463 78.7575 22.6624 79.1561 22.8157C79.5548 22.9384 79.9535 23.0304 80.3521 23.0917C80.7815 23.1224 81.1648 23.1377 81.5021 23.1377C81.9315 23.1377 82.4068 23.107 82.9281 23.0457C83.4801 22.9844 83.9708 22.8924 84.4001 22.7697C84.5228 22.7697 84.5841 22.8004 84.5841 22.8617C84.6148 22.8924 84.5535 22.9384 84.4001 22.9997ZM76.4421 23.7357C76.4421 23.4597 76.4115 23.153 76.3501 22.8157C76.3195 22.4784 76.1508 22.3097 75.8441 22.3097C75.5988 22.3097 75.3381 22.4017 75.0621 22.5857C73.8355 23.291 72.9001 24.257 72.2561 25.4837C71.6121 26.6797 71.2901 27.9677 71.2901 29.3477C71.2901 29.7464 71.3515 30.0837 71.4741 30.3597C71.6275 30.605 71.8268 30.7277 72.0721 30.7277C72.6548 30.7277 73.2068 30.4824 73.7281 29.9917C74.2495 29.4704 74.7095 28.8417 75.1081 28.1057C75.5068 27.3697 75.8288 26.603 76.0741 25.8057C76.3195 25.0084 76.4421 24.3184 76.4421 23.7357Z" fill="#00073D"/>
<path d="M94.1683 29.8076C93.8003 30.2369 93.3556 30.6356 92.8343 31.0036C92.3436 31.3409 91.807 31.6323 91.2243 31.8776C90.6723 32.1536 90.105 32.3683 89.5223 32.5216C88.9703 32.6749 88.449 32.7516 87.9583 32.7516C87.1303 32.7516 86.5016 32.6136 86.0723 32.3376C85.6736 32.0923 85.4743 31.5403 85.4743 30.6816C85.4743 30.3136 85.5663 29.8689 85.7503 29.3476C85.9343 28.7956 86.1796 28.1823 86.4863 27.5076C86.793 26.8329 87.1303 26.1276 87.4983 25.3916C87.8663 24.6249 88.2343 23.8583 88.6023 23.0916C88.725 22.7543 88.725 22.5549 88.6023 22.4936C88.5103 22.4016 88.357 22.4323 88.1423 22.5856C87.5903 22.9536 87.0076 23.4289 86.3943 24.0116C85.781 24.5943 85.1676 25.2383 84.5543 25.9436C83.9716 26.6183 83.4043 27.3543 82.8523 28.1516C82.331 28.9183 81.8403 29.6849 81.3803 30.4516C81.227 30.6969 80.9816 30.9116 80.6443 31.0956C80.3376 31.2796 80.077 31.3716 79.8623 31.3716C79.709 31.3716 79.6323 31.2949 79.6323 31.1416C79.7856 30.8349 80.031 30.3596 80.3683 29.7156C80.7363 29.0409 81.1043 28.3509 81.4723 27.6456C81.687 27.2469 81.917 26.8023 82.1623 26.3116C82.4076 25.8209 82.653 25.3303 82.8983 24.8396C83.1436 24.3183 83.3583 23.8429 83.5423 23.4136C83.757 22.9536 83.9103 22.5856 84.0023 22.3096C84.0943 22.0643 84.2476 21.8649 84.4623 21.7116C84.7076 21.5583 85.0603 21.3589 85.5203 21.1136C85.7043 21.0216 85.8423 20.9756 85.9343 20.9756C86.0263 20.9756 86.0723 21.0369 86.0723 21.1596C86.0723 21.2516 86.011 21.4049 85.8883 21.6196C85.7963 21.8343 85.643 22.1563 85.4283 22.5856C85.2136 23.0149 84.9223 23.5823 84.5543 24.2876C84.217 24.9929 83.803 25.8823 83.3123 26.9556C83.8643 26.2809 84.4623 25.5909 85.1063 24.8856C85.781 24.1803 86.4403 23.5363 87.0843 22.9536C87.7283 22.3709 88.311 21.8956 88.8323 21.5276C89.3843 21.1596 89.8136 20.9756 90.1203 20.9756C90.2123 20.9756 90.3503 21.0676 90.5343 21.2516C90.7183 21.4356 90.8103 21.6043 90.8103 21.7576C90.8103 21.9416 90.6263 22.3249 90.2583 22.9076C89.8903 23.4903 89.4763 24.1803 89.0163 24.9776C88.587 25.7749 88.1883 26.6336 87.8203 27.5536C87.4523 28.4736 87.2683 29.3629 87.2683 30.2216C87.2683 30.8656 87.391 31.3563 87.6363 31.6936C87.8816 32.0309 88.357 32.1996 89.0623 32.1996C89.461 32.1996 89.8903 32.1229 90.3503 31.9696C90.8103 31.8163 91.255 31.6016 91.6843 31.3256C92.1136 31.0803 92.5276 30.8043 92.9263 30.4976C93.325 30.1909 93.6623 29.8843 93.9383 29.5776C94.061 29.4243 94.1376 29.4089 94.1683 29.5316C94.2296 29.6543 94.2296 29.7463 94.1683 29.8076Z" fill="#00073D"/>
<path d="M94.6955 25.9905C95.1248 25.2238 95.5695 24.4572 96.0295 23.6905C96.5202 22.8932 96.9802 22.1572 97.4095 21.4825C97.5628 21.3598 97.8082 21.2525 98.1455 21.1605C98.5135 21.0685 98.7588 21.0225 98.8815 21.0225C99.0348 21.0225 99.1115 21.0838 99.1115 21.2065C98.5288 22.0958 97.9615 23.0005 97.4095 23.9205C96.8575 24.8098 96.3668 25.6378 95.9375 26.4045C95.5388 27.1405 95.2168 27.7998 94.9715 28.3825C94.7262 28.9345 94.6035 29.3332 94.6035 29.5785C94.6035 29.8852 94.6955 30.0385 94.8795 30.0385C95.0635 30.0385 95.3242 29.9158 95.6615 29.6705C96.0295 29.3945 96.4282 29.0418 96.8575 28.6125C97.3175 28.1832 97.7775 27.7078 98.2375 27.1865C98.6975 26.6345 99.1422 26.0825 99.5715 25.5305C99.7248 25.3158 99.9088 25.0398 100.123 24.7025C100.338 24.3345 100.537 23.9972 100.721 23.6905C100.936 23.3532 101.12 23.0772 101.273 22.8625C101.457 22.6172 101.595 22.4945 101.687 22.4945C101.841 22.4945 102.009 22.5558 102.193 22.6785C102.377 22.7705 102.469 22.8778 102.469 23.0005C102.469 23.1232 102.408 23.2765 102.285 23.4605C102.163 23.6445 102.009 23.8438 101.825 24.0585C101.641 24.2732 101.442 24.5032 101.227 24.7485C101.043 24.9632 100.89 25.1778 100.767 25.3925C100.645 25.6072 100.461 25.9598 100.215 26.4505C100.001 26.9412 99.7862 27.4778 99.5715 28.0605C99.3568 28.6432 99.1728 29.2105 99.0195 29.7625C98.8662 30.3145 98.7895 30.7745 98.7895 31.1425C98.7895 31.5412 98.8662 31.8325 99.0195 32.0165C99.2035 32.2312 99.5408 32.3385 100.031 32.3385C100.645 32.3385 101.273 32.1698 101.917 31.8325C102.592 31.5258 103.236 31.2038 103.849 30.8665C103.941 30.8972 104.003 30.9585 104.033 31.0505C104.064 31.1118 104.003 31.1732 103.849 31.2345C102.929 31.7558 101.979 32.1852 100.997 32.5225C100.047 32.8905 99.1882 33.0745 98.4215 33.0745C97.4708 33.0745 96.9955 32.7218 96.9955 32.0165C96.9955 31.5565 97.1948 30.8205 97.5935 29.8085C97.9922 28.7965 98.4675 27.7538 99.0195 26.6805C98.8662 26.8952 98.5595 27.2478 98.0995 27.7385C97.6702 28.2292 97.1795 28.7352 96.6275 29.2565C96.0755 29.7472 95.5235 30.1918 94.9715 30.5905C94.4195 30.9892 93.9595 31.1885 93.5915 31.1885C93.2849 31.1885 93.0855 31.1118 92.9935 30.9585C92.9015 30.7745 92.8555 30.5598 92.8555 30.3145C92.8555 30.1305 92.9168 29.8545 93.0395 29.4865C93.1928 29.1185 93.3615 28.7198 93.5455 28.2905C93.7295 27.8612 93.9288 27.4472 94.1435 27.0485C94.3582 26.6192 94.5422 26.2665 94.6955 25.9905Z" fill="#00073D"/>
<path d="M116.043 26.0357C115.797 26.2504 115.445 26.5417 114.985 26.9097C114.555 27.2777 114.065 27.6764 113.513 28.1057C112.961 28.535 112.393 28.9644 111.811 29.3937C111.259 29.7924 110.737 30.1297 110.247 30.4057C109.664 30.743 109.112 30.9884 108.591 31.1417C108.1 31.295 107.64 31.3717 107.211 31.3717C105.708 31.3717 104.957 30.6357 104.957 29.1637C104.957 28.8264 105.033 28.397 105.187 27.8757C105.371 27.3237 105.585 26.8177 105.831 26.3577C106.291 25.4684 106.751 24.7477 107.211 24.1957C107.671 23.613 108.161 23.1377 108.683 22.7697C109.235 22.371 109.833 22.049 110.477 21.8037C111.121 21.5277 111.841 21.267 112.639 21.0217C112.823 20.9604 112.961 20.9297 113.053 20.9297C113.237 20.9297 113.436 21.0984 113.651 21.4357C113.896 21.7424 114.019 21.9877 114.019 22.1717C114.019 22.3557 113.911 22.601 113.697 22.9077C113.513 23.2144 113.344 23.4137 113.191 23.5057C113.007 23.015 112.777 22.6164 112.501 22.3097C112.255 22.003 111.918 21.8497 111.489 21.8497C111.059 21.8497 110.569 22.095 110.017 22.5857C109.465 23.0457 108.943 23.6284 108.453 24.3337C107.962 25.039 107.548 25.821 107.211 26.6797C106.873 27.5077 106.705 28.305 106.705 29.0717C106.705 29.5624 106.797 29.961 106.981 30.2677C107.195 30.5437 107.517 30.6817 107.947 30.6817C108.376 30.6817 108.79 30.605 109.189 30.4517C109.618 30.2984 110.124 30.053 110.707 29.7157C111.013 29.5317 111.397 29.271 111.857 28.9337C112.317 28.5964 112.792 28.2437 113.283 27.8757C113.804 27.477 114.295 27.0937 114.755 26.7257C115.245 26.327 115.629 26.005 115.905 25.7597C116.058 25.6064 116.15 25.591 116.181 25.7137C116.211 25.8057 116.165 25.913 116.043 26.0357Z" fill="#00073D"/>
<path d="M118.561 30.2224C118.5 30.2531 118.438 30.2991 118.377 30.3604C118.776 30.3604 119.282 30.2224 119.895 29.9464C120.539 29.6397 121.214 29.2257 121.919 28.7044C122.655 28.1831 123.406 27.5544 124.173 26.8184C124.97 26.0517 125.722 25.2237 126.427 24.3344C126.488 24.3037 126.565 24.2884 126.657 24.2884C126.749 24.2577 126.764 24.3651 126.703 24.6104C125.722 25.8064 124.771 26.8184 123.851 27.6464C122.962 28.4437 122.118 29.0877 121.321 29.5784C120.524 30.0691 119.803 30.4217 119.159 30.6364C118.515 30.8204 117.978 30.8971 117.549 30.8664C117.242 31.0197 116.951 31.1424 116.675 31.2344C116.399 31.3571 116.138 31.4184 115.893 31.4184H115.387C114.59 31.4184 114.191 31.0504 114.191 30.3144C114.191 30.0691 114.268 29.7317 114.421 29.3024C114.574 28.8424 114.774 28.3824 115.019 27.9224C115.356 27.2171 115.694 26.5424 116.031 25.8984C116.399 25.2237 116.782 24.5951 117.181 24.0124C117.457 23.5831 117.733 23.1537 118.009 22.7244C118.285 22.2951 118.561 21.8657 118.837 21.4364C118.898 21.3751 118.96 21.3291 119.021 21.2984H118.929C118.99 21.1451 119.067 21.0071 119.159 20.8844C119.251 20.7617 119.343 20.6237 119.435 20.4704C119.496 20.4397 119.604 20.4244 119.757 20.4244C119.91 20.3937 120.064 20.3937 120.217 20.4244C120.401 20.4551 120.554 20.5011 120.677 20.5624C120.8 20.5931 120.861 20.6391 120.861 20.7004C120.861 20.7311 120.8 20.8384 120.677 21.0224C120.585 21.2064 120.462 21.4057 120.309 21.6204C120.186 21.8351 120.064 22.0344 119.941 22.2184C119.818 22.4024 119.742 22.5097 119.711 22.5404C119.282 23.0617 118.852 23.6291 118.423 24.2424C118.024 24.8557 117.656 25.4537 117.319 26.0364C117.595 25.8831 117.886 25.7144 118.193 25.5304C118.5 25.3464 118.852 25.1471 119.251 24.9324C119.956 24.5337 120.386 24.3037 120.539 24.2424C120.692 24.1504 120.8 24.1044 120.861 24.1044C120.953 24.1044 121.045 24.1964 121.137 24.3804C121.26 24.5337 121.352 24.7177 121.413 24.9324C121.474 25.1164 121.52 25.3004 121.551 25.4844C121.582 25.6377 121.566 25.7144 121.505 25.7144C121.229 27.0944 120.631 28.2597 119.711 29.2104L119.481 29.4404L118.561 30.2224ZM118.653 29.7164L118.699 29.7624C119.098 29.2717 119.466 28.6737 119.803 27.9684C120.11 27.2631 120.263 26.6344 120.263 26.0824C120.263 25.8677 120.248 25.6531 120.217 25.4384C120.186 25.1931 120.048 25.0704 119.803 25.0704C119.558 25.0704 119.328 25.1317 119.113 25.2544C118.101 25.7757 117.319 26.4504 116.767 27.2784C116.246 28.0757 115.985 28.9497 115.985 29.9004C116.077 30.2684 116.338 30.4524 116.767 30.4524C117.319 30.4524 117.932 30.2531 118.607 29.8544L118.653 29.7164ZM117.135 30.7744C117.135 30.9891 117.242 31.0197 117.457 30.8664C117.396 30.8357 117.334 30.8204 117.273 30.8204C117.242 30.8204 117.196 30.8051 117.135 30.7744Z" fill="#00073D"/>
</svg>
