<svg width="40" height="37" viewBox="0 0 40 37" fill="none" xmlns="http://www.w3.org/2000/svg">
<path d="M34.6682 32.2872V23.9602C34.6682 20.1965 32.2863 17.0038 28.9642 15.8093V11.7639C28.9642 10.2903 27.7787 9.09561 26.3193 9.09561C24.8576 9.09561 23.6728 10.2903 23.6728 11.7639C23.6728 11.7639 23.9455 15.2997 20.4219 15.2997C16.8961 15.2997 16.5239 11.7639 16.5239 11.7639C16.5239 10.2903 15.3417 9.09561 13.8798 9.09561C12.419 9.09561 11.2349 10.2903 11.2349 11.7639V15.9555C8.12213 17.255 5.93194 20.348 5.93194 23.9595V32.3562C5.30327 32.7207 4.87359 33.3948 4.87359 34.1789C4.87359 35.3418 5.80922 36.2852 6.9597 36.2852H33.7649C34.9192 36.2852 35.8538 35.3418 35.8538 34.1789C35.8543 33.3434 35.3678 32.6278 34.6682 32.2872ZM20.2998 28.6385C17.7225 28.6385 15.6322 26.5294 15.6322 23.9281C15.6322 21.3257 17.7231 19.2171 20.2998 19.2171C22.8762 19.2171 24.9684 21.3256 24.9684 23.9281C24.9684 26.5299 22.8767 28.6385 20.2998 28.6385ZM22.7508 23.8982C22.7508 25.2951 21.6299 26.4255 20.2458 26.4255C18.8631 26.4255 17.7423 25.2951 17.7423 23.8982C17.7423 22.5013 18.8631 21.37 20.2458 21.37C21.6299 21.3699 22.7508 22.5013 22.7508 23.8982ZM39.9236 10.7911L39.9279 10.7928C39.9175 10.8416 39.9071 10.8869 39.8983 10.935C39.8819 11.0205 39.865 11.0992 39.8485 11.1764C39.8409 11.2079 39.8349 11.2413 39.8272 11.2754C39.727 11.6899 39.6317 11.9312 39.6317 11.9312C39.6317 11.9312 39.6251 11.9249 39.6169 11.9185C38.9075 13.7149 37.3429 14.8411 35.7563 14.2563L32.247 12.7812C30.3537 12.0838 29.1561 9.48649 29.5687 6.97916L29.6026 6.77567C25.3099 5.57009 16.7462 5.10118 10.3652 6.92358L10.443 7.40054C10.8561 9.90778 9.65548 12.5041 7.76437 13.2006L4.25687 14.3098C2.41072 14.9901 0.593019 13.79 0.120798 11.3952C-0.31852 9.98646 -0.573584 0.38599 18.6363 0.0138195C38.8864 -0.379589 40.4374 7.73276 39.9236 10.7911Z" fill="#E0C675"/>
</svg>
