<svg width="171" height="50" viewBox="0 0 171 50" fill="none" xmlns="http://www.w3.org/2000/svg">
<path d="M38.456 0.827998C38.456 0.950664 38.4407 1.08866 38.41 1.242C38.41 1.36466 38.3947 1.50266 38.364 1.656C38.088 1.34933 37.7967 1.196 37.49 1.196C36.57 1.196 35.926 1.45667 35.558 1.978C35.19 2.46867 34.822 3.266 34.454 4.37C33.8407 6.118 33.2887 7.89667 32.798 9.706C32.3073 11.4847 31.8933 13.1867 31.556 14.812C31.2187 16.4067 30.958 17.8633 30.774 19.182C30.59 20.5007 30.498 21.574 30.498 22.402C30.498 23.9047 30.8353 24.656 31.51 24.656C31.694 24.656 31.924 24.61 32.2 24.518C32.5067 24.3953 32.8133 24.2573 33.12 24.104C33.4573 23.9507 33.764 23.782 34.04 23.598C34.3467 23.414 34.592 23.2453 34.776 23.092C34.8373 23.0613 34.8833 23.092 34.914 23.184C34.9447 23.276 34.9293 23.3527 34.868 23.414C34.592 23.6593 34.224 23.9353 33.764 24.242C33.304 24.518 32.798 24.794 32.246 25.07C31.7247 25.3153 31.2033 25.53 30.682 25.714C30.1607 25.898 29.716 25.99 29.348 25.99C28.8573 25.99 28.5047 25.806 28.29 25.438C28.106 25.07 28.014 24.564 28.014 23.92C28.014 23.276 28.106 22.4327 28.29 21.39C28.5047 20.3167 28.7347 19.136 28.98 17.848C29.0413 17.6027 28.98 17.3573 28.796 17.112C28.612 16.836 28.3513 16.698 28.014 16.698C27.83 16.698 27.5387 16.7133 27.14 16.744C26.7413 16.744 26.2813 16.7593 25.76 16.79C25.2387 16.79 24.6713 16.8053 24.058 16.836C23.4753 16.836 22.8773 16.836 22.264 16.836C20.5467 18.308 18.952 19.642 17.48 20.838C16.0387 22.0033 14.6433 22.9847 13.294 23.782C11.9753 24.5793 10.6873 25.1927 9.43 25.622C8.20333 26.0513 6.97667 26.266 5.75 26.266C3.726 26.266 2.26933 25.7293 1.38 24.656C0.46 23.552 0 22.126 0 20.378C0 19.7953 0.092 19.182 0.276 18.538C0.429333 17.8633 0.659333 17.2193 0.966 16.606C1.27267 15.9927 1.64067 15.41 2.07 14.858C2.49933 14.306 2.97467 13.8307 3.496 13.432C3.64933 13.34 3.71067 13.3093 3.68 13.34C3.64933 13.3707 3.68 13.4013 3.772 13.432C3.036 14.1987 2.45333 15.0113 2.024 15.87C1.564 16.7287 1.334 17.7407 1.334 18.906C1.334 20.838 1.87067 22.2333 2.944 23.092C4.048 23.92 5.566 24.334 7.498 24.334C8.11133 24.334 8.84733 24.2727 9.706 24.15C10.5647 24.0273 11.5613 23.7207 12.696 23.23C13.8613 22.7087 15.18 21.9573 16.652 20.976C18.124 19.964 19.78 18.584 21.62 16.836C20.976 16.836 20.5313 16.8053 20.286 16.744C20.0407 16.6827 19.918 16.5907 19.918 16.468C19.9487 16.3453 20.056 16.2073 20.24 16.054C20.4547 15.87 20.608 15.7627 20.7 15.732C20.9147 15.8547 21.1293 15.9467 21.344 16.008C21.5893 16.0693 21.9113 16.1153 22.31 16.146C24.61 14.03 26.818 11.776 28.934 9.384C31.05 6.992 33.0433 4.6 34.914 2.208C34.3927 2.54533 33.7947 2.82133 33.12 3.036C32.4453 3.22 31.7707 3.312 31.096 3.312C30.268 3.312 29.4093 3.25067 28.52 3.128C27.6613 2.97467 26.7873 2.82133 25.898 2.668C25.0087 2.51467 24.15 2.37667 23.322 2.254C22.494 2.10067 21.712 2.024 20.976 2.024C19.32 2.024 17.9553 2.49933 16.882 3.45C15.8393 4.37 15.1647 6.04133 14.858 8.464C14.8273 8.58667 14.766 8.648 14.674 8.648C14.6127 8.61733 14.582 8.57133 14.582 8.51C14.582 7.406 14.7507 6.348 15.088 5.336C15.4253 4.324 15.916 3.43467 16.56 2.668C17.2347 1.87067 18.0627 1.242 19.044 0.781998C20.0253 0.321999 21.16 0.0919988 22.448 0.0919988C23.4293 0.0919988 24.38 0.214666 25.3 0.46C26.2507 0.674665 27.1707 0.904665 28.06 1.15C28.9493 1.426 29.8233 1.68667 30.682 1.932C31.5713 2.14667 32.4453 2.254 33.304 2.254C33.6413 2.254 34.0247 2.208 34.454 2.116C34.8833 2.024 35.2207 1.84 35.466 1.564C35.9873 0.950666 36.4167 0.536666 36.754 0.321999C37.0913 0.107333 37.4287 0 37.766 0C38.226 0 38.456 0.275999 38.456 0.827998ZM32.798 5.75C32.8287 5.658 32.8133 5.59667 32.752 5.566C32.7213 5.50467 32.6447 5.53533 32.522 5.658C31.8167 6.54733 31.05 7.46733 30.222 8.418C29.394 9.36867 28.5507 10.304 27.692 11.224C26.864 12.144 26.036 13.0487 25.208 13.938C24.38 14.7967 23.598 15.5633 22.862 16.238C23.1687 16.2687 23.4907 16.2993 23.828 16.33C24.196 16.33 24.4567 16.33 24.61 16.33C25.2233 16.33 25.9287 16.33 26.726 16.33C27.5233 16.33 28.382 16.2993 29.302 16.238C29.6393 14.766 30.0993 13.11 30.682 11.27C31.2953 9.43 32.0007 7.59 32.798 5.75Z" transform="translate(0.763184 0.240234)" fill="#00073D"/>
<path d="M50.057 20.332C49.229 21.0067 48.2323 21.6353 47.067 22.218C45.9323 22.8007 44.721 23.3373 43.433 23.828C42.1757 24.3187 40.8877 24.7787 39.569 25.208C38.2503 25.6373 37.0083 26.036 35.843 26.404C33.635 30.2987 31.8257 33.488 30.415 35.972C29.0043 38.456 27.9003 40.4647 27.103 41.998C26.3057 43.5313 25.7537 44.6813 25.447 45.448C25.1403 46.2453 24.987 46.8893 24.987 47.38C24.987 47.8093 25.1097 48.1007 25.355 48.254C25.5697 48.438 25.907 48.53 26.367 48.53C26.643 48.53 26.9803 48.4993 27.379 48.438C27.747 48.3767 28.1457 48.3 28.575 48.208C28.9737 48.1467 29.357 48.0547 29.725 47.932C30.093 47.84 30.3997 47.748 30.645 47.656C30.7983 47.5947 30.8903 47.6407 30.921 47.794C30.9517 47.9473 30.8903 48.0393 30.737 48.07C30.4917 48.1313 30.0777 48.2387 29.495 48.392C28.8817 48.5453 28.2377 48.6987 27.563 48.852C26.8577 49.0053 26.183 49.1433 25.539 49.266C24.8643 49.3887 24.343 49.45 23.975 49.45C23.6377 49.45 23.3617 49.3733 23.147 49.22C22.9323 49.0973 22.825 48.8367 22.825 48.438C22.825 47.8247 23.0857 47.0273 23.607 46.046C24.0977 45.0953 24.849 43.792 25.861 42.136C26.8423 40.5107 28.0843 38.456 29.587 35.972C31.0897 33.488 32.8377 30.4213 34.831 26.772C34.279 26.9253 33.727 27.094 33.175 27.278C32.623 27.4927 32.2397 27.6 32.025 27.6C31.7797 27.6 31.657 27.4927 31.657 27.278C31.657 26.9713 31.7643 26.7413 31.979 26.588C32.1937 26.4347 32.439 26.3273 32.715 26.266C33.083 26.2047 33.5123 26.128 34.003 26.036C34.4936 25.944 34.9537 25.852 35.383 25.76C36.5177 23.736 37.5603 21.7273 38.511 19.734C39.4923 17.7407 40.5657 15.824 41.731 13.984C41.8537 13.8307 41.9917 13.7387 42.145 13.708C42.2983 13.6467 42.4823 13.616 42.697 13.616C43.065 13.616 43.249 13.7233 43.249 13.938C43.249 14.0607 43.1263 14.352 42.881 14.812C42.6357 15.272 42.3137 15.8393 41.915 16.514C41.5163 17.158 41.0563 17.894 40.535 18.722C40.0443 19.5193 39.5383 20.332 39.017 21.16C38.5263 21.9573 38.051 22.7393 37.591 23.506C37.131 24.242 36.7476 24.886 36.441 25.438L37.177 25.254C37.7596 25.1007 38.4497 24.794 39.247 24.334C40.075 23.874 40.8417 23.3067 41.547 22.632C42.283 21.9267 42.8963 21.1447 43.387 20.286C43.9083 19.4273 44.169 18.538 44.169 17.618C44.169 17.1273 44.1077 16.8053 43.985 16.652C43.8623 16.468 43.801 16.3147 43.801 16.192C43.801 16.0693 43.893 16.008 44.077 16.008C44.1077 16.008 44.2303 16.0693 44.445 16.192C44.6903 16.3147 44.9357 16.468 45.181 16.652C45.4263 16.8053 45.641 16.9587 45.825 17.112C46.0397 17.2347 46.147 17.3113 46.147 17.342C46.147 18.1393 45.8863 18.906 45.365 19.642C44.8437 20.378 44.1997 21.0833 43.433 21.758C42.6663 22.402 41.8537 23 40.995 23.552C40.167 24.0733 39.4157 24.518 38.741 24.886C40.7957 24.334 42.8197 23.6593 44.813 22.862C46.8063 22.0647 48.493 21.114 49.873 20.01C49.9957 19.8873 50.0877 19.872 50.149 19.964C50.241 20.056 50.2103 20.1787 50.057 20.332Z" transform="translate(0.763184 0.240234)" fill="#00073D"/>
<path d="M55.8882 20.148C55.8575 20.1787 55.8882 20.1633 55.9802 20.102C56.1029 20.01 56.2255 19.918 56.3482 19.826C56.5015 19.7033 56.6395 19.5807 56.7622 19.458C56.9155 19.3353 57.0229 19.2433 57.0842 19.182C57.4215 18.7833 57.8049 18.3847 58.2342 17.986C58.6942 17.5873 59.1542 17.2347 59.6142 16.928C60.0742 16.6213 60.5189 16.376 60.9482 16.192C61.3775 16.008 61.7455 15.916 62.0522 15.916C62.5122 15.916 62.7422 16.1153 62.7422 16.514C62.7422 16.882 62.5889 17.2807 62.2822 17.71C61.8529 18.4153 61.4389 19.136 61.0402 19.872C60.6415 20.5773 60.2889 21.252 59.9822 21.896C59.7062 22.5093 59.4762 23.0613 59.2922 23.552C59.1389 24.0427 59.0622 24.426 59.0622 24.702C59.0622 25.3153 59.3535 25.622 59.9362 25.622C60.4269 25.622 61.0402 25.4073 61.7762 24.978C62.5122 24.518 63.2635 23.966 64.0302 23.322C64.7969 22.678 65.5175 21.988 66.1922 21.252C66.8669 20.516 67.3882 19.8413 67.7562 19.228C67.8482 19.0747 67.9402 19.0287 68.0322 19.09C68.1549 19.1207 68.1549 19.228 68.0322 19.412C67.5722 20.1173 66.9742 20.884 66.2382 21.712C65.5022 22.5093 64.6895 23.276 63.8002 24.012C62.9415 24.7173 62.0369 25.3 61.0862 25.76C60.1662 26.2507 59.2769 26.496 58.4182 26.496C57.9889 26.496 57.6669 26.3733 57.4522 26.128C57.2682 25.9133 57.1762 25.6373 57.1762 25.3C57.1762 25.0853 57.2222 24.8247 57.3142 24.518C57.4062 24.1807 57.5289 23.874 57.6822 23.598C57.9275 23.1687 58.2189 22.6473 58.5562 22.034C58.9242 21.4207 59.2615 20.8073 59.5682 20.194C59.9055 19.5807 60.1815 19.0287 60.3962 18.538C60.6415 18.0167 60.7642 17.6487 60.7642 17.434C60.7642 17.1887 60.6569 17.066 60.4422 17.066C60.2582 17.066 59.9822 17.1887 59.6142 17.434C59.2769 17.6793 58.8935 17.986 58.4642 18.354C58.0655 18.6913 57.6515 19.0747 57.2222 19.504C56.8235 19.9027 56.4709 20.2707 56.1642 20.608C55.8882 20.8227 55.5969 21.114 55.2902 21.482C54.9835 21.8193 54.7842 22.0647 54.6922 22.218C54.1709 23.1073 53.7415 23.828 53.4042 24.38C53.0975 24.9013 52.7755 25.162 52.4382 25.162C52.0395 25.162 51.8402 25.0087 51.8402 24.702C51.8402 24.61 51.9322 24.4413 52.1162 24.196C52.5149 23.6133 52.8829 23.0307 53.2202 22.448C53.5882 21.8347 53.9102 21.2673 54.1862 20.746C54.4622 20.2247 54.6769 19.78 54.8302 19.412C55.0142 19.044 55.1062 18.814 55.1062 18.722C55.1062 18.538 55.0295 18.446 54.8762 18.446C54.6922 18.446 54.4162 18.5687 54.0482 18.814C53.7109 19.0287 53.2969 19.3507 52.8062 19.78C52.3462 20.1787 51.8555 20.654 51.3342 21.206C50.8129 21.758 50.3069 22.356 49.8162 23C49.2029 23.7973 48.7889 24.472 48.5742 25.024C48.3902 25.576 48.1755 25.852 47.9302 25.852C47.7769 25.852 47.6542 25.76 47.5622 25.576C47.5009 25.3613 47.4702 25.1927 47.4702 25.07C47.4702 25.0087 47.5009 24.8553 47.5622 24.61C47.6235 24.4873 47.8535 24.058 48.2522 23.322C48.6815 22.5553 49.1569 21.712 49.6782 20.792C50.1995 19.8413 50.7209 18.9213 51.2422 18.032C51.7635 17.1427 52.1622 16.514 52.4382 16.146C52.5609 15.962 52.7142 15.87 52.8982 15.87C53.0515 15.87 53.1895 15.9927 53.3122 16.238C53.4655 16.4527 53.5422 16.6213 53.5422 16.744C53.5422 16.7747 53.5115 16.882 53.4502 17.066C53.0209 17.6487 52.6069 18.262 52.2082 18.906C51.8402 19.55 51.4569 20.2247 51.0582 20.93C50.9969 21.022 50.9662 21.068 50.9662 21.068C50.9969 21.068 51.0429 21.0373 51.1042 20.976C51.5949 20.4547 52.1162 19.964 52.6682 19.504C53.2202 19.0133 53.7569 18.584 54.2782 18.216C54.8302 17.848 55.3209 17.5567 55.7502 17.342C56.1795 17.0967 56.5169 16.974 56.7622 16.974C57.0382 16.974 57.1762 17.112 57.1762 17.388C57.1762 17.5413 57.1149 17.7407 56.9922 17.986C56.9002 18.2007 56.7775 18.446 56.6242 18.722C56.5015 18.998 56.3635 19.2587 56.2102 19.504C56.0569 19.7493 55.9495 19.964 55.8882 20.148ZM57.3142 15.088C56.8849 15.0267 56.5475 14.9193 56.3022 14.766C56.1182 14.6127 55.9035 14.4593 55.6582 14.306C55.4435 14.122 55.2442 13.9533 55.0602 13.8C54.8455 13.5853 54.6155 13.3707 54.3702 13.156C54.1249 12.9413 53.9255 12.6807 53.7722 12.374C53.6802 12.2513 53.6342 12.052 53.6342 11.776C53.6955 11.5613 53.7875 11.4387 53.9102 11.408C53.9715 11.316 54.0175 11.27 54.0482 11.27C54.1095 11.2393 54.1709 11.2087 54.2322 11.178C54.2935 11.1473 54.3395 11.178 54.3702 11.27C54.6155 11.546 54.8149 11.8373 54.9682 12.144C55.1215 12.42 55.2749 12.7267 55.4282 13.064C55.6122 13.3707 55.7962 13.6313 55.9802 13.846C56.1949 14.0607 56.3942 14.2447 56.5782 14.398C56.7315 14.5207 56.8849 14.6127 57.0382 14.674C57.2222 14.7047 57.4522 14.6893 57.7282 14.628C57.9429 14.5973 58.1422 14.5513 58.3262 14.49C58.5102 14.4287 58.7249 14.3367 58.9702 14.214C59.3075 14.0913 59.6295 13.9227 59.9362 13.708C60.2429 13.4627 60.5495 13.2173 60.8562 12.972C61.1935 12.6653 61.5002 12.374 61.7762 12.098C62.0829 11.7913 62.3742 11.5307 62.6502 11.316C63.1409 10.7947 63.6775 10.2733 64.2602 9.752C64.8429 9.23067 65.4102 8.84733 65.9622 8.602C66.4222 8.35667 66.7749 8.21867 67.0202 8.188C67.7869 8.12667 68.3849 8.34133 68.8142 8.832C69.2435 9.292 69.6729 9.78267 70.1022 10.304C70.2555 10.4267 70.3782 10.5953 70.4702 10.81C70.5622 10.994 70.6235 11.178 70.6542 11.362L70.6082 11.5C70.5469 11.6227 70.5009 11.684 70.4702 11.684C70.3782 11.684 70.3322 11.638 70.3322 11.546C70.3015 11.362 70.2555 11.178 70.1942 10.994C70.1329 10.81 70.0255 10.6413 69.8722 10.488C69.2895 9.62933 68.5382 9.292 67.6182 9.476C67.2809 9.53733 66.8669 9.69067 66.3762 9.936C65.8855 10.1813 65.3642 10.5647 64.8122 11.086C64.1989 11.6073 63.5855 12.1133 62.9722 12.604C62.3589 13.0947 61.7302 13.5087 61.0862 13.846C60.6875 14.122 60.2735 14.352 59.8442 14.536C59.4149 14.6893 59.0009 14.7967 58.6022 14.858C58.0809 15.0727 57.6515 15.1493 57.3142 15.088Z" transform="translate(0.763184 0.240234)" fill="#00073D"/>
<path d="M77.4741 19.504C77.4741 19.7493 77.2747 19.872 76.8761 19.872C76.5081 19.872 76.0481 19.872 75.4961 19.872C74.9441 19.872 74.3461 19.8873 73.7021 19.918C73.0581 19.918 72.3987 19.918 71.7241 19.918C71.0494 19.918 70.4207 19.918 69.8381 19.918C69.5314 19.918 69.3781 19.826 69.3781 19.642C69.3781 19.55 69.4241 19.458 69.5161 19.366C69.6081 19.274 69.7461 19.228 69.9301 19.228C70.2674 19.228 70.6814 19.2433 71.1721 19.274C71.6627 19.274 72.1687 19.274 72.6901 19.274C73.5794 19.274 74.4074 19.2587 75.1741 19.228C75.9407 19.1973 76.5387 19.182 76.9681 19.182C77.3054 19.182 77.4741 19.2893 77.4741 19.504Z" transform="translate(0.763184 0.240234)" fill="#00073D"/>
<path d="M87.1988 20.148C87.1681 20.1787 87.1987 20.1633 87.2907 20.102C87.4134 20.01 87.5361 19.918 87.6588 19.826C87.8121 19.7033 87.9501 19.5807 88.0728 19.458C88.2261 19.3353 88.3334 19.2433 88.3948 19.182C88.7321 18.7833 89.1154 18.3847 89.5448 17.986C90.0048 17.5873 90.4648 17.2347 90.9248 16.928C91.3848 16.6213 91.8294 16.376 92.2588 16.192C92.6881 16.008 93.0561 15.916 93.3628 15.916C93.8228 15.916 94.0527 16.1153 94.0527 16.514C94.0527 16.882 93.8994 17.2807 93.5928 17.71C93.1634 18.4153 92.7494 19.136 92.3508 19.872C91.9521 20.5773 91.5994 21.252 91.2927 21.896C91.0167 22.5093 90.7868 23.0613 90.6028 23.552C90.4494 24.0427 90.3727 24.426 90.3727 24.702C90.3727 25.3153 90.6641 25.622 91.2467 25.622C91.7374 25.622 92.3508 25.4073 93.0868 24.978C93.8228 24.518 94.5741 23.966 95.3408 23.322C96.1074 22.678 96.8281 21.988 97.5028 21.252C98.1774 20.516 98.6987 19.8413 99.0667 19.228C99.1588 19.0747 99.2508 19.0287 99.3428 19.09C99.4654 19.1207 99.4654 19.228 99.3428 19.412C98.8828 20.1173 98.2848 20.884 97.5488 21.712C96.8128 22.5093 96.0001 23.276 95.1107 24.012C94.2521 24.7173 93.3474 25.3 92.3968 25.76C91.4768 26.2507 90.5874 26.496 89.7288 26.496C89.2994 26.496 88.9774 26.3733 88.7627 26.128C88.5787 25.9133 88.4867 25.6373 88.4867 25.3C88.4867 25.0853 88.5327 24.8247 88.6247 24.518C88.7167 24.1807 88.8394 23.874 88.9928 23.598C89.2381 23.1687 89.5294 22.6473 89.8668 22.034C90.2348 21.4207 90.5721 20.8073 90.8788 20.194C91.2161 19.5807 91.4921 19.0287 91.7067 18.538C91.9521 18.0167 92.0748 17.6487 92.0748 17.434C92.0748 17.1887 91.9674 17.066 91.7527 17.066C91.5687 17.066 91.2928 17.1887 90.9248 17.434C90.5874 17.6793 90.2041 17.986 89.7747 18.354C89.3761 18.6913 88.9621 19.0747 88.5328 19.504C88.1341 19.9027 87.7814 20.2707 87.4747 20.608C87.1987 20.8227 86.9074 21.114 86.6008 21.482C86.2941 21.8193 86.0947 22.0647 86.0027 22.218C85.4814 23.1073 85.0521 23.828 84.7148 24.38C84.4081 24.9013 84.0861 25.162 83.7487 25.162C83.3501 25.162 83.1507 25.0087 83.1507 24.702C83.1507 24.61 83.2428 24.4413 83.4268 24.196C83.8254 23.6133 84.1934 23.0307 84.5308 22.448C84.8988 21.8347 85.2207 21.2673 85.4967 20.746C85.7727 20.2247 85.9874 19.78 86.1407 19.412C86.3247 19.044 86.4167 18.814 86.4167 18.722C86.4167 18.538 86.3401 18.446 86.1868 18.446C86.0028 18.446 85.7267 18.5687 85.3587 18.814C85.0214 19.0287 84.6074 19.3507 84.1168 19.78C83.6568 20.1787 83.1661 20.654 82.6448 21.206C82.1234 21.758 81.6174 22.356 81.1267 23C80.5134 23.7973 80.0994 24.472 79.8848 25.024C79.7008 25.576 79.4861 25.852 79.2408 25.852C79.0874 25.852 78.9647 25.76 78.8727 25.576C78.8114 25.3613 78.7807 25.1927 78.7807 25.07C78.7807 25.0087 78.8114 24.8553 78.8727 24.61C78.9341 24.4873 79.1641 24.058 79.5628 23.322C79.9921 22.5553 80.4674 21.712 80.9887 20.792C81.5101 19.8413 82.0314 18.9213 82.5527 18.032C83.0741 17.1427 83.4727 16.514 83.7487 16.146C83.8714 15.962 84.0247 15.87 84.2087 15.87C84.3621 15.87 84.5001 15.9927 84.6227 16.238C84.7761 16.4527 84.8528 16.6213 84.8528 16.744C84.8528 16.7747 84.8221 16.882 84.7607 17.066C84.3314 17.6487 83.9174 18.262 83.5188 18.906C83.1508 19.55 82.7674 20.2247 82.3688 20.93C82.3074 21.022 82.2767 21.068 82.2767 21.068C82.3074 21.068 82.3534 21.0373 82.4147 20.976C82.9054 20.4547 83.4268 19.964 83.9788 19.504C84.5308 19.0133 85.0674 18.584 85.5888 18.216C86.1408 17.848 86.6314 17.5567 87.0608 17.342C87.4901 17.0967 87.8274 16.974 88.0728 16.974C88.3488 16.974 88.4867 17.112 88.4867 17.388C88.4867 17.5413 88.4254 17.7407 88.3027 17.986C88.2107 18.2007 88.0881 18.446 87.9348 18.722C87.8121 18.998 87.6741 19.2587 87.5208 19.504C87.3674 19.7493 87.2601 19.964 87.1988 20.148ZM88.6247 15.088C88.1954 15.0267 87.8581 14.9193 87.6127 14.766C87.4287 14.6127 87.2141 14.4593 86.9688 14.306C86.7541 14.122 86.5548 13.9533 86.3708 13.8C86.1561 13.5853 85.9261 13.3707 85.6807 13.156C85.4354 12.9413 85.2361 12.6807 85.0827 12.374C84.9907 12.2513 84.9447 12.052 84.9447 11.776C85.0061 11.5613 85.0981 11.4387 85.2207 11.408C85.2821 11.316 85.3281 11.27 85.3587 11.27C85.4201 11.2393 85.4814 11.2087 85.5427 11.178C85.6041 11.1473 85.6501 11.178 85.6807 11.27C85.9261 11.546 86.1254 11.8373 86.2787 12.144C86.4321 12.42 86.5854 12.7267 86.7387 13.064C86.9227 13.3707 87.1067 13.6313 87.2907 13.846C87.5054 14.0607 87.7047 14.2447 87.8887 14.398C88.0421 14.5207 88.1954 14.6127 88.3487 14.674C88.5327 14.7047 88.7627 14.6893 89.0387 14.628C89.2534 14.5973 89.4527 14.5513 89.6367 14.49C89.8207 14.4287 90.0354 14.3367 90.2808 14.214C90.6181 14.0913 90.9401 13.9227 91.2467 13.708C91.5534 13.4627 91.8601 13.2173 92.1667 12.972C92.5041 12.6653 92.8108 12.374 93.0868 12.098C93.3934 11.7913 93.6848 11.5307 93.9608 11.316C94.4514 10.7947 94.9881 10.2733 95.5707 9.752C96.1534 9.23067 96.7208 8.84733 97.2728 8.602C97.7328 8.35667 98.0854 8.21867 98.3307 8.188C99.0974 8.12667 99.6954 8.34133 100.125 8.832C100.554 9.292 100.983 9.78267 101.413 10.304C101.566 10.4267 101.689 10.5953 101.781 10.81C101.873 10.994 101.934 11.178 101.965 11.362L101.919 11.5C101.857 11.6227 101.811 11.684 101.781 11.684C101.689 11.684 101.643 11.638 101.643 11.546C101.612 11.362 101.566 11.178 101.505 10.994C101.443 10.81 101.336 10.6413 101.183 10.488C100.6 9.62933 99.8487 9.292 98.9287 9.476C98.5914 9.53733 98.1774 9.69067 97.6868 9.936C97.1961 10.1813 96.6747 10.5647 96.1227 11.086C95.5094 11.6073 94.8961 12.1133 94.2828 12.604C93.6694 13.0947 93.0408 13.5087 92.3968 13.846C91.9981 14.122 91.5841 14.352 91.1548 14.536C90.7254 14.6893 90.3114 14.7967 89.9128 14.858C89.3914 15.0727 88.9621 15.1493 88.6247 15.088Z" transform="translate(0.763184 0.240234)" fill="#00073D"/>
<path d="M107.773 20.838C107.834 20.7767 107.895 20.792 107.957 20.884C108.018 20.9453 108.018 21.0067 107.957 21.068C107.129 21.8653 106.27 22.5707 105.381 23.184C104.522 23.7973 103.679 24.3187 102.851 24.748C102.053 25.1773 101.287 25.4993 100.551 25.714C99.8453 25.9287 99.2473 26.036 98.7566 26.036C97.8366 26.0667 97.1006 25.9287 96.5486 25.622C95.9966 25.2847 95.7206 24.7633 95.7206 24.058C95.7206 23.874 95.7513 23.6287 95.8126 23.322C95.8739 23.0153 95.9506 22.7393 96.0426 22.494C96.3186 21.758 96.7326 20.9913 97.2846 20.194C97.8366 19.366 98.4346 18.6147 99.0786 17.94C99.7533 17.2653 100.459 16.7133 101.195 16.284C101.931 15.8547 102.621 15.64 103.265 15.64C103.633 15.64 103.955 15.7013 104.231 15.824C104.537 15.916 104.691 16.1767 104.691 16.606C104.691 17.066 104.461 17.5413 104.001 18.032C103.571 18.492 103.019 18.952 102.345 19.412C101.67 19.8413 100.934 20.2553 100.137 20.654C99.3393 21.022 98.6033 21.3593 97.9286 21.666C97.6219 22.31 97.4686 22.954 97.4686 23.598C97.4686 24.15 97.7139 24.564 98.2046 24.84C98.6953 25.0853 99.2473 25.208 99.8606 25.208C100.443 25.208 101.087 25.07 101.793 24.794C102.498 24.518 103.188 24.1653 103.863 23.736C104.568 23.3067 105.258 22.8467 105.933 22.356C106.607 21.8347 107.221 21.3287 107.773 20.838ZM103.219 17.02C103.219 16.8053 103.157 16.6213 103.035 16.468C102.912 16.284 102.728 16.192 102.483 16.192C102.145 16.192 101.762 16.3607 101.333 16.698C100.903 17.0047 100.474 17.4033 100.045 17.894C99.6459 18.3847 99.2626 18.9367 98.8946 19.55C98.5573 20.1327 98.2966 20.6847 98.1126 21.206C98.6339 20.9913 99.1859 20.7613 99.7686 20.516C100.351 20.24 100.857 19.9333 101.287 19.596C101.869 19.1667 102.329 18.768 102.667 18.4C103.035 18.0013 103.219 17.5413 103.219 17.02Z" transform="translate(0.763184 0.240234)" fill="#00073D"/>
<path d="M119.821 20.332C118.993 21.0067 117.996 21.6353 116.831 22.218C115.696 22.8007 114.485 23.3373 113.197 23.828C111.939 24.3187 110.651 24.7787 109.333 25.208C108.014 25.6373 106.772 26.036 105.607 26.404C103.399 30.2987 101.589 33.488 100.179 35.972C98.768 38.456 97.664 40.4647 96.8667 41.998C96.0693 43.5313 95.5173 44.6813 95.2107 45.448C94.904 46.2453 94.7507 46.8893 94.7507 47.38C94.7507 47.8093 94.8733 48.1007 95.1187 48.254C95.3333 48.438 95.6707 48.53 96.1307 48.53C96.4067 48.53 96.744 48.4993 97.1427 48.438C97.5107 48.3767 97.9093 48.3 98.3387 48.208C98.7373 48.1467 99.1207 48.0547 99.4887 47.932C99.8567 47.84 100.163 47.748 100.409 47.656C100.562 47.5947 100.654 47.6407 100.685 47.794C100.715 47.9473 100.654 48.0393 100.501 48.07C100.255 48.1313 99.8413 48.2387 99.2587 48.392C98.6453 48.5453 98.0013 48.6987 97.3267 48.852C96.6213 49.0053 95.9467 49.1433 95.3027 49.266C94.628 49.3887 94.1067 49.45 93.7387 49.45C93.4013 49.45 93.1253 49.3733 92.9107 49.22C92.696 49.0973 92.5887 48.8367 92.5887 48.438C92.5887 47.8247 92.8493 47.0273 93.3707 46.046C93.8613 45.0953 94.6127 43.792 95.6247 42.136C96.606 40.5107 97.848 38.456 99.3507 35.972C100.853 33.488 102.601 30.4213 104.595 26.772C104.043 26.9253 103.491 27.094 102.939 27.278C102.387 27.4927 102.003 27.6 101.789 27.6C101.543 27.6 101.421 27.4927 101.421 27.278C101.421 26.9713 101.528 26.7413 101.743 26.588C101.957 26.4347 102.203 26.3273 102.479 26.266C102.847 26.2047 103.276 26.128 103.767 26.036C104.257 25.944 104.717 25.852 105.147 25.76C106.281 23.736 107.324 21.7273 108.275 19.734C109.256 17.7407 110.329 15.824 111.495 13.984C111.617 13.8307 111.755 13.7387 111.909 13.708C112.062 13.6467 112.246 13.616 112.461 13.616C112.829 13.616 113.013 13.7233 113.013 13.938C113.013 14.0607 112.89 14.352 112.645 14.812C112.399 15.272 112.077 15.8393 111.679 16.514C111.28 17.158 110.82 17.894 110.299 18.722C109.808 19.5193 109.302 20.332 108.781 21.16C108.29 21.9573 107.815 22.7393 107.355 23.506C106.895 24.242 106.511 24.886 106.205 25.438L106.941 25.254C107.523 25.1007 108.213 24.794 109.011 24.334C109.839 23.874 110.605 23.3067 111.311 22.632C112.047 21.9267 112.66 21.1447 113.151 20.286C113.672 19.4273 113.933 18.538 113.933 17.618C113.933 17.1273 113.871 16.8053 113.749 16.652C113.626 16.468 113.565 16.3147 113.565 16.192C113.565 16.0693 113.657 16.008 113.841 16.008C113.871 16.008 113.994 16.0693 114.209 16.192C114.454 16.3147 114.699 16.468 114.945 16.652C115.19 16.8053 115.405 16.9587 115.589 17.112C115.803 17.2347 115.911 17.3113 115.911 17.342C115.911 18.1393 115.65 18.906 115.129 19.642C114.607 20.378 113.963 21.0833 113.197 21.758C112.43 22.402 111.617 23 110.759 23.552C109.931 24.0733 109.179 24.518 108.505 24.886C110.559 24.334 112.583 23.6593 114.577 22.862C116.57 22.0647 118.257 21.114 119.637 20.01C119.759 19.8873 119.851 19.872 119.913 19.964C120.005 20.056 119.974 20.1787 119.821 20.332Z" transform="translate(0.763184 0.240234)" fill="#00073D"/>
<path d="M131.678 20.47C130.114 22.3407 128.719 23.7207 127.492 24.61C126.296 25.4993 125.223 25.944 124.272 25.944C123.843 25.944 123.459 25.8367 123.122 25.622C122.815 25.3767 122.662 24.8553 122.662 24.058C122.662 23.874 122.693 23.5213 122.754 23C122.846 22.448 122.999 21.9267 123.214 21.436C122.815 22.0187 122.371 22.586 121.88 23.138C121.42 23.69 120.945 24.1807 120.454 24.61C119.994 25.0393 119.549 25.392 119.12 25.668C118.691 25.9133 118.338 26.036 118.062 26.036C117.479 26.036 117.188 25.6987 117.188 25.024C117.188 24.4413 117.495 23.5673 118.108 22.402C118.537 21.5433 119.12 20.6387 119.856 19.688C120.623 18.7067 121.435 17.848 122.294 17.112C122.815 16.6827 123.306 16.33 123.766 16.054C124.257 15.778 124.717 15.64 125.146 15.64C125.667 15.64 126.143 15.8087 126.572 16.146C126.725 16.0233 126.894 15.9007 127.078 15.778C127.262 15.6247 127.415 15.502 127.538 15.41C127.599 15.41 127.63 15.4407 127.63 15.502C127.63 15.5633 127.569 15.7013 127.446 15.916C126.557 17.388 125.775 18.7527 125.1 20.01C124.456 21.2673 124.134 22.54 124.134 23.828C124.134 24.7787 124.471 25.254 125.146 25.254C125.79 25.254 126.664 24.8553 127.768 24.058C128.903 23.23 130.129 21.942 131.448 20.194C131.479 20.1327 131.54 20.102 131.632 20.102C131.755 20.102 131.77 20.2247 131.678 20.47ZM125.514 17.204C125.33 16.9893 125.115 16.836 124.87 16.744C124.625 16.652 124.395 16.606 124.18 16.606C123.659 16.606 123.091 16.8973 122.478 17.48C121.865 18.0627 121.297 18.7833 120.776 19.642C120.255 20.47 119.825 21.344 119.488 22.264C119.151 23.1533 118.982 23.92 118.982 24.564C118.982 24.8093 119.089 24.932 119.304 24.932C119.549 24.932 120.055 24.564 120.822 23.828C121.589 23.092 122.417 22.1107 123.306 20.884C123.735 20.2707 124.134 19.6727 124.502 19.09C124.87 18.5073 125.207 17.8787 125.514 17.204Z" transform="translate(0.763184 0.240234)" fill="#00073D"/>
<path d="M142.497 24.472C142.129 24.9013 141.684 25.3 141.163 25.668C140.672 26.0053 140.135 26.2967 139.553 26.542C139.001 26.818 138.433 27.0327 137.85 27.186C137.298 27.3393 136.777 27.416 136.286 27.416C135.458 27.416 134.83 27.278 134.4 27.002C134.002 26.7567 133.803 26.2047 133.803 25.346C133.803 24.978 133.895 24.5333 134.079 24.012C134.263 23.46 134.508 22.8467 134.814 22.172C135.121 21.4973 135.459 20.792 135.827 20.056C136.195 19.2893 136.562 18.5227 136.93 17.756C137.053 17.4187 137.053 17.2193 136.93 17.158C136.838 17.066 136.685 17.0967 136.471 17.25C135.919 17.618 135.336 18.0933 134.723 18.676C134.109 19.2587 133.496 19.9027 132.883 20.608C132.3 21.2827 131.732 22.0187 131.18 22.816C130.659 23.5827 130.168 24.3493 129.708 25.116C129.555 25.3613 129.31 25.576 128.973 25.76C128.666 25.944 128.405 26.036 128.191 26.036C128.037 26.036 127.961 25.9593 127.961 25.806C128.114 25.4993 128.359 25.024 128.697 24.38C129.065 23.7053 129.433 23.0153 129.801 22.31C130.015 21.9113 130.245 21.4667 130.49 20.976C130.736 20.4853 130.981 19.9947 131.227 19.504C131.472 18.9827 131.686 18.5073 131.87 18.078C132.085 17.618 132.239 17.25 132.331 16.974C132.423 16.7287 132.576 16.5293 132.79 16.376C133.036 16.2227 133.388 16.0233 133.848 15.778C134.032 15.686 134.17 15.64 134.262 15.64C134.354 15.64 134.4 15.7013 134.4 15.824C134.4 15.916 134.339 16.0693 134.217 16.284C134.125 16.4987 133.971 16.8207 133.757 17.25C133.542 17.6793 133.251 18.2467 132.883 18.952C132.545 19.6573 132.131 20.5467 131.641 21.62C132.193 20.9453 132.79 20.2553 133.434 19.55C134.109 18.8447 134.769 18.2007 135.413 17.618C136.057 17.0353 136.639 16.56 137.161 16.192C137.713 15.824 138.142 15.64 138.449 15.64C138.541 15.64 138.679 15.732 138.863 15.916C139.047 16.1 139.139 16.2687 139.139 16.422C139.139 16.606 138.955 16.9893 138.587 17.572C138.219 18.1547 137.804 18.8447 137.344 19.642C136.915 20.4393 136.516 21.298 136.148 22.218C135.78 23.138 135.596 24.0273 135.596 24.886C135.596 25.53 135.719 26.0207 135.964 26.358C136.21 26.6953 136.685 26.864 137.391 26.864C137.789 26.864 138.218 26.7873 138.678 26.634C139.138 26.4807 139.583 26.266 140.012 25.99C140.442 25.7447 140.856 25.4687 141.255 25.162C141.653 24.8553 141.99 24.5487 142.266 24.242C142.389 24.0887 142.466 24.0733 142.497 24.196C142.558 24.3187 142.558 24.4107 142.497 24.472Z" transform="translate(0.763184 0.240234)" fill="#00073D"/>
<path d="M143.024 20.654C143.453 19.8873 143.898 19.1207 144.358 18.354C144.848 17.5567 145.308 16.8207 145.738 16.146C145.891 16.0233 146.136 15.916 146.474 15.824C146.842 15.732 147.087 15.686 147.21 15.686C147.363 15.686 147.44 15.7473 147.44 15.87C146.857 16.7593 146.29 17.664 145.738 18.584C145.186 19.4733 144.695 20.3013 144.266 21.068C143.867 21.804 143.545 22.4633 143.3 23.046C143.054 23.598 142.932 23.9967 142.932 24.242C142.932 24.5487 143.024 24.702 143.208 24.702C143.392 24.702 143.652 24.5793 143.99 24.334C144.358 24.058 144.756 23.7053 145.186 23.276C145.646 22.8467 146.106 22.3713 146.566 21.85C147.026 21.298 147.47 20.746 147.9 20.194C148.053 19.9793 148.237 19.7033 148.452 19.366C148.666 18.998 148.866 18.6607 149.05 18.354C149.264 18.0167 149.448 17.7407 149.602 17.526C149.786 17.2807 149.924 17.158 150.016 17.158C150.169 17.158 150.338 17.2193 150.522 17.342C150.706 17.434 150.798 17.5413 150.798 17.664C150.798 17.7867 150.736 17.94 150.614 18.124C150.491 18.308 150.338 18.5073 150.154 18.722C149.97 18.9367 149.77 19.1667 149.556 19.412C149.372 19.6267 149.218 19.8413 149.096 20.056C148.973 20.2707 148.789 20.6233 148.544 21.114C148.329 21.6047 148.114 22.1413 147.9 22.724C147.685 23.3067 147.501 23.874 147.348 24.426C147.194 24.978 147.118 25.438 147.118 25.806C147.118 26.2047 147.194 26.496 147.348 26.68C147.532 26.8947 147.869 27.002 148.36 27.002C148.973 27.002 149.602 26.8333 150.246 26.496C150.92 26.1893 151.564 25.8673 152.178 25.53C152.27 25.5607 152.331 25.622 152.362 25.714C152.392 25.7753 152.331 25.8367 152.178 25.898C151.258 26.4193 150.307 26.8487 149.326 27.186C148.375 27.554 147.516 27.738 146.75 27.738C145.799 27.738 145.324 27.3853 145.324 26.68C145.324 26.22 145.523 25.484 145.922 24.472C146.32 23.46 146.796 22.4173 147.348 21.344C147.194 21.5587 146.888 21.9113 146.428 22.402C145.998 22.8927 145.508 23.3987 144.956 23.92C144.404 24.4107 143.852 24.8553 143.3 25.254C142.748 25.6527 142.288 25.852 141.92 25.852C141.613 25.852 141.414 25.7753 141.322 25.622C141.23 25.438 141.184 25.2233 141.184 24.978C141.184 24.794 141.245 24.518 141.368 24.15C141.521 23.782 141.69 23.3833 141.874 22.954C142.058 22.5247 142.257 22.1107 142.472 21.712C142.686 21.2827 142.87 20.93 143.024 20.654Z" transform="translate(0.763184 0.240234)" fill="#00073D"/>
<path d="M163.911 25.346C163.39 25.4993 163.037 25.6067 162.853 25.668C162.669 25.6987 162.393 25.714 162.025 25.714C160.829 25.714 160.292 25.2847 160.415 24.426C160.476 24.058 160.645 23.6747 160.921 23.276C161.228 22.8773 161.488 22.5247 161.703 22.218C161.979 21.7887 162.117 21.482 162.117 21.298C162.117 21.114 162.04 21.0067 161.887 20.976C161.764 20.9147 161.596 20.93 161.381 21.022C161.166 21.114 160.982 21.2213 160.829 21.344C160.522 21.528 160.108 21.85 159.587 22.31C159.096 22.77 158.544 23.2453 157.931 23.736C157.348 24.2267 156.75 24.656 156.137 25.024C155.524 25.392 154.956 25.576 154.435 25.576H154.297C153.96 25.5453 153.668 25.4227 153.423 25.208C153.178 24.9933 153.055 24.6867 153.055 24.288V24.242C153.116 23.6287 153.515 23.2453 154.251 23.092C154.742 23.1227 154.91 23.598 154.757 24.518C154.757 24.8247 154.864 24.978 155.079 24.978C155.324 24.978 155.646 24.8247 156.045 24.518C156.382 24.2727 156.75 23.9967 157.149 23.69C157.578 23.3527 158.023 22.9847 158.483 22.586C158.974 22.1873 159.311 21.896 159.495 21.712C159.679 21.4973 159.924 21.2673 160.231 21.022C159.986 21.0527 159.694 21.0373 159.357 20.976C159.02 20.884 158.682 20.7307 158.345 20.516C158.038 20.3013 157.762 20.0407 157.517 19.734C157.272 19.3967 157.103 18.998 157.011 18.538C156.888 17.9247 156.965 17.388 157.241 16.928C157.517 16.4373 157.885 16.0387 158.345 15.732C158.805 15.4253 159.296 15.1953 159.817 15.042C160.338 14.8887 160.768 14.812 161.105 14.812C162.025 14.812 162.638 15.042 162.945 15.502C163.252 15.962 163.359 16.514 163.267 17.158C163.175 17.7713 162.96 18.4 162.623 19.044C162.286 19.6573 161.933 20.1327 161.565 20.47C162.638 20.102 163.313 20.1787 163.589 20.7C163.865 21.1907 163.635 22.08 162.899 23.368C162.838 23.5827 162.776 23.736 162.715 23.828C162.654 23.92 162.608 24.012 162.577 24.104C162.485 24.6867 162.761 24.978 163.405 24.978C164.509 24.6713 165.506 24.196 166.395 23.552C167.284 22.908 168.235 22.126 169.247 21.206C169.308 21.1447 169.385 21.114 169.477 21.114C169.6 21.114 169.661 21.16 169.661 21.252C169.661 21.344 169.615 21.436 169.523 21.528C168.45 22.4787 167.468 23.276 166.579 23.92C165.69 24.564 164.8 25.0393 163.911 25.346ZM161.979 16.974C161.826 16.3607 161.565 15.962 161.197 15.778C160.829 15.594 160.522 15.502 160.277 15.502C159.449 15.502 158.82 15.732 158.391 16.192C157.962 16.652 157.824 17.2347 157.977 17.94C158.13 18.6147 158.391 19.182 158.759 19.642C159.158 20.0713 159.832 20.3473 160.783 20.47C161.274 19.9487 161.626 19.366 161.841 18.722C162.056 18.0473 162.102 17.4647 161.979 16.974Z" transform="translate(0.763184 0.240234)" fill="#00073D"/>
</svg>
