<svg width="70" height="71" viewBox="0 0 70 71" fill="none" xmlns="http://www.w3.org/2000/svg">
<path d="M37.9793 20.0713C37.9331 19.9697 37.89 19.8854 37.85 19.8178C37.1875 18.6006 35.9216 17.1066 34.0529 15.3353L34.0134 15.2947L33.9937 15.2748L33.9737 15.2544H33.9536C33.1056 14.4296 32.5685 13.875 32.3436 13.5911C31.9321 13.0502 31.8399 12.5028 32.0648 11.948C32.2237 11.5289 32.8206 10.6438 33.854 9.29147C34.3976 8.57479 34.8281 8.00039 35.146 7.56763C37.439 4.45766 38.4331 2.47034 38.1281 1.6049L38.0097 1.40266C37.9301 1.2809 37.7247 1.16952 37.3937 1.06794C37.062 0.966567 36.6381 0.949803 36.1211 1.01736L30.3959 1.05771C30.3031 1.02418 30.1707 1.0273 29.9981 1.06794C29.8258 1.10857 29.7396 1.12896 29.7396 1.12896L29.64 1.17975L29.5609 1.24077C29.4946 1.28112 29.4217 1.35208 29.3421 1.45352C29.2629 1.55461 29.1967 1.67324 29.1438 1.80842C28.5205 3.44446 27.8118 4.96557 27.0164 6.37166C26.526 7.21011 26.0757 7.93674 25.6644 8.55199C25.2536 9.16702 24.909 9.62016 24.6309 9.91063C24.3524 10.2014 24.101 10.4343 23.8753 10.6103C23.6499 10.7863 23.4779 10.8607 23.3587 10.8335C23.2393 10.8063 23.1269 10.7793 23.0204 10.7523C22.835 10.6305 22.6858 10.4649 22.5734 10.2554C22.4604 10.0458 22.3844 9.78205 22.3446 9.46431C22.3051 9.14635 22.2817 8.87286 22.275 8.64291C22.2688 8.41325 22.2717 8.0884 22.2851 7.66929C22.2989 7.24996 22.3051 6.96624 22.3051 6.81749C22.3051 6.30361 22.3149 5.7459 22.3346 5.14422C22.3547 4.54254 22.3709 4.06582 22.3845 3.71461C22.398 3.36305 22.4042 2.99111 22.4042 2.59899C22.4042 2.20686 22.3808 1.89935 22.3346 1.67615C22.2889 1.45324 22.2188 1.23686 22.1264 1.02709C22.0335 0.817532 21.8974 0.655427 21.7189 0.540348C21.54 0.425411 21.3176 0.3342 21.0529 0.266431C20.3505 0.104255 19.4559 0.0165248 18.369 0.00288577C15.904 -0.0241081 14.3202 0.138281 13.6177 0.489841C13.3394 0.638378 13.0876 0.841329 12.8624 1.09805C12.6238 1.39563 12.5905 1.55802 12.7628 1.58473C13.5581 1.70627 14.1211 1.99702 14.4524 2.4567L14.5719 2.70028C14.6647 2.87603 14.7575 3.18717 14.8503 3.63328C14.943 4.07939 15.0028 4.57288 15.0291 5.11346C15.0953 6.10066 15.0953 6.94571 15.0291 7.64869C14.9628 8.35195 14.9001 8.89942 14.8403 9.29155C14.7805 9.68367 14.6911 10.0014 14.5719 10.2447C14.4524 10.4881 14.373 10.6368 14.3332 10.6908C14.2934 10.7448 14.2603 10.7788 14.234 10.7922C14.0617 10.8595 13.8825 10.8938 13.6971 10.8938C13.5114 10.8938 13.2862 10.7991 13.0212 10.6097C12.7563 10.4203 12.4813 10.1602 12.1963 9.82887C11.9113 9.49748 11.5899 9.03439 11.232 8.43954C10.8743 7.84468 10.5031 7.14163 10.1188 6.33039L9.8008 5.74207C9.60201 5.36358 9.33045 4.81248 8.98586 4.08926C8.64105 3.36575 8.33629 2.6659 8.07135 1.98985C7.96544 1.70591 7.80634 1.48975 7.59432 1.341L7.49482 1.27998C7.42867 1.22599 7.32249 1.16867 7.17682 1.10757C7.03095 1.04655 6.87874 1.00279 6.71957 0.975872L1.27254 1.01622C0.715927 1.01622 0.338259 1.14487 0.139398 1.40181L0.0598115 1.52335C0.0200532 1.59105 0 1.69917 0 1.84799C0 1.99674 0.0397583 2.1793 0.119344 2.39547C0.91451 4.30209 1.77924 6.14086 2.71352 7.91209C3.6478 9.68331 4.45968 11.1101 5.14866 12.1911C5.83778 13.2729 6.5402 14.2939 7.25592 15.2536C7.97164 16.2137 8.4454 16.8289 8.67719 17.0992C8.90927 17.37 9.09156 17.5725 9.22406 17.7077L9.72114 18.1943C10.0392 18.5189 10.5063 18.9076 11.1226 19.3605C11.739 19.8136 12.4214 20.2597 13.1702 20.6995C13.9192 21.1386 14.7904 21.4969 15.7845 21.774C16.7785 22.0514 17.7459 22.1627 18.6869 22.109H20.9732C21.4368 22.0682 21.7881 21.9194 22.0269 21.6627L22.106 21.561C22.1591 21.4803 22.2089 21.355 22.2549 21.1863C22.3014 21.0173 22.3245 20.8311 22.3245 20.6285C22.3109 20.0473 22.3543 19.5234 22.4535 19.0569C22.5526 18.5907 22.6655 18.2391 22.7918 18.0023C22.918 17.7658 23.0605 17.5662 23.219 17.4043C23.3779 17.2422 23.4912 17.1439 23.5576 17.1101C23.6236 17.0761 23.6763 17.053 23.7161 17.0391C24.0341 16.931 24.4084 17.0357 24.8396 17.3538C25.2704 17.6715 25.6744 18.0638 26.0524 18.5301C26.4301 18.9968 26.884 19.5204 27.414 20.1017C27.9444 20.6832 28.4081 21.1155 28.8055 21.3999L29.203 21.6432C29.4684 21.8056 29.813 21.9544 30.2372 22.0896C30.6606 22.2247 31.0316 22.2585 31.3501 22.1909L36.4391 22.1099C36.9425 22.1099 37.3341 22.0249 37.612 21.8562C37.8903 21.6872 38.0557 21.501 38.109 21.2985C38.1622 21.0958 38.1651 20.8657 38.1191 20.6086C38.072 20.3521 38.0256 20.1727 37.9793 20.0713Z" transform="translate(15.9091 24.439)" fill="#E0C675"/>
<path fill-rule="evenodd" clip-rule="evenodd" d="M35 65.0866C51.6941 65.0866 65.2273 51.5826 65.2273 34.9245C65.2273 18.2665 51.6941 4.76243 35 4.76243C18.3059 4.76243 4.77273 18.2665 4.77273 34.9245C4.77273 51.5826 18.3059 65.0866 35 65.0866ZM35 69.849C54.33 69.849 70 54.2128 70 34.9245C70 15.6362 54.33 0 35 0C15.67 0 0 15.6362 0 34.9245C0 54.2128 15.67 69.849 35 69.849Z" transform="translate(0 0.626953)" fill="#E0C675"/>
</svg>
