<svg width="60" height="60" viewBox="0 0 60 60" fill="none" xmlns="http://www.w3.org/2000/svg">
<circle cx="20" cy="20" r="20" transform="scale(1.5)" fill="white"/>
<path d="M16.9098 9.0311C16.8893 8.98536 16.8701 8.94742 16.8522 8.91702C16.5573 8.36934 15.9937 7.6971 15.1617 6.9001L15.1441 6.88185L15.1353 6.8729L15.1264 6.86373H15.1175C14.7399 6.49261 14.5007 6.24307 14.4006 6.11532C14.2174 5.87195 14.1763 5.62561 14.2765 5.37602C14.3472 5.18743 14.613 4.78918 15.0731 4.1807C15.3151 3.85823 15.5068 3.59977 15.6484 3.40506C16.6693 2.00572 17.1119 1.11153 16.9761 0.722125L16.9234 0.631127C16.8879 0.576343 16.7965 0.526225 16.6491 0.480518C16.5014 0.434907 16.3127 0.427364 16.0825 0.45776L13.5334 0.475915C13.4921 0.460829 13.4331 0.462235 13.3563 0.480518C13.2796 0.4988 13.2412 0.507974 13.2412 0.507974L13.1968 0.530827L13.1616 0.558283C13.1321 0.576438 13.0997 0.608369 13.0642 0.654012C13.029 0.699496 12.9995 0.752873 12.9759 0.813699C12.6984 1.54984 12.3829 2.23426 12.0287 2.86693C11.8104 3.24419 11.6099 3.57114 11.4267 3.84797C11.2439 4.1247 11.0904 4.32859 10.9666 4.45929C10.8426 4.59011 10.7307 4.69492 10.6302 4.77409C10.5298 4.85329 10.4532 4.88676 10.4002 4.87452C10.347 4.86228 10.297 4.85013 10.2496 4.83798C10.167 4.7832 10.1006 4.70869 10.0505 4.6144C10.0002 4.52011 9.96639 4.40143 9.94868 4.25847C9.93108 4.1154 9.92066 3.99234 9.91768 3.88888C9.91492 3.78554 9.91619 3.63938 9.92218 3.4508C9.92832 3.26212 9.93108 3.13446 9.93108 3.06753C9.93108 2.83631 9.93545 2.58537 9.94422 2.31464C9.95315 2.04392 9.96037 1.82941 9.96642 1.67139C9.97243 1.51321 9.97522 1.34585 9.97522 1.16941C9.97522 0.992979 9.96481 0.854611 9.94422 0.754184C9.92388 0.653884 9.89266 0.556526 9.85153 0.462139C9.81014 0.367849 9.74956 0.294909 9.67007 0.24313C9.59043 0.191414 9.49141 0.150373 9.37357 0.119881C9.0608 0.0469094 8.66252 0.00743533 8.17856 0.00129845C7.08107 -0.0108474 6.37588 0.0622196 6.06313 0.220404C5.93922 0.287238 5.82709 0.378556 5.72683 0.49407C5.62059 0.627962 5.60577 0.70103 5.68246 0.713048C6.03656 0.767736 6.28724 0.89856 6.43478 1.10539L6.48795 1.21499C6.5293 1.29407 6.5706 1.43407 6.61192 1.63479C6.65319 1.83552 6.67982 2.05757 6.69153 2.3008C6.72099 2.74499 6.72099 3.12522 6.69153 3.44153C6.66199 3.75796 6.63409 4.0043 6.60746 4.18073C6.58083 4.35717 6.54102 4.50014 6.48795 4.60961C6.43478 4.71911 6.39941 4.78604 6.38167 4.81034C6.36397 4.83463 6.34922 4.84994 6.3375 4.85595C6.2608 4.88625 6.18103 4.90169 6.09848 4.90169C6.01579 4.90169 5.91553 4.85905 5.79754 4.77383C5.67958 4.68862 5.55716 4.57157 5.43027 4.4225C5.30338 4.27339 5.16027 4.06503 5.0009 3.79737C4.84164 3.52971 4.6764 3.21338 4.50527 2.84836L4.36369 2.58364C4.27518 2.41334 4.15427 2.16538 4.00085 1.83996C3.84733 1.51442 3.71163 1.19952 3.59367 0.895332C3.54652 0.767576 3.47568 0.670314 3.38128 0.603383L3.33698 0.575927C3.30753 0.551635 3.26025 0.525841 3.19539 0.498353C3.13045 0.470897 3.06268 0.451208 2.99181 0.439094L0.566585 0.457249C0.318758 0.457249 0.150606 0.515133 0.0620652 0.630743L0.0266304 0.685431C0.00892846 0.715892 0 0.76454 0 0.831502C0 0.898432 0.0177019 0.980577 0.0531367 1.07784C0.407175 1.93572 0.792183 2.76308 1.20816 3.56004C1.62414 4.35701 1.98562 4.99898 2.29238 5.48539C2.5992 5.97215 2.91195 6.43156 3.23061 6.86338C3.54928 7.29535 3.76021 7.57218 3.86342 7.6938C3.96674 7.81565 4.04791 7.90674 4.1069 7.96756L4.32822 8.18654C4.46984 8.33258 4.6778 8.50748 4.95219 8.71124C5.22665 8.91514 5.5305 9.11586 5.86389 9.31374C6.19734 9.51131 6.58526 9.67253 7.02787 9.79722C7.47042 9.92203 7.90115 9.97212 8.32014 9.94795H9.33805C9.54449 9.92957 9.70089 9.86264 9.80719 9.74713L9.84241 9.70139C9.8661 9.66508 9.88826 9.60867 9.90872 9.53276C9.92943 9.45672 9.93972 9.37294 9.93972 9.28181C9.93368 9.02026 9.95299 8.78454 9.99714 8.57467C10.0413 8.36486 10.0915 8.20668 10.1478 8.10015C10.204 7.99371 10.2674 7.90389 10.338 7.83108C10.4087 7.75811 10.4592 7.71391 10.4887 7.69869C10.5181 7.68338 10.5416 7.673 10.5593 7.66676C10.7009 7.61812 10.8676 7.66523 11.0595 7.80833C11.2513 7.9513 11.4312 8.12783 11.5995 8.33763C11.7677 8.54763 11.9698 8.78323 12.2058 9.04478C12.4419 9.30643 12.6484 9.50092 12.8253 9.62887L13.0023 9.73837C13.1205 9.81144 13.2739 9.87837 13.4627 9.9392C13.6513 9.99999 13.8164 10.0152 13.9583 9.98481L16.2241 9.94837C16.4482 9.94837 16.6226 9.91011 16.7463 9.8342C16.8702 9.75816 16.9438 9.67438 16.9676 9.58326C16.9913 9.49203 16.9926 9.38854 16.9721 9.27283C16.9511 9.15741 16.9304 9.07671 16.9098 9.0311Z" transform="translate(18 22.5) scale(1.5)" fill="#47276A"/>
</svg>
