<svg width="118" height="56" viewBox="0 0 118 56" fill="none" xmlns="http://www.w3.org/2000/svg">
<path d="M38.456 6.578C38.456 6.70067 38.4407 6.83867 38.41 6.992C38.41 7.11467 38.3947 7.25267 38.364 7.406C38.088 7.09933 37.7967 6.946 37.49 6.946C36.57 6.946 35.926 7.20667 35.558 7.728C35.19 8.21867 34.822 9.016 34.454 10.12C33.8407 11.868 33.2887 13.6467 32.798 15.456C32.3073 17.2347 31.8933 18.9367 31.556 20.562C31.2187 22.1567 30.958 23.6133 30.774 24.932C30.59 26.2507 30.498 27.324 30.498 28.152C30.498 29.6547 30.8353 30.406 31.51 30.406C31.694 30.406 31.924 30.36 32.2 30.268C32.5067 30.1453 32.8133 30.0073 33.12 29.854C33.4573 29.7007 33.764 29.532 34.04 29.348C34.3467 29.164 34.592 28.9953 34.776 28.842C34.8373 28.8113 34.8833 28.842 34.914 28.934C34.9447 29.026 34.9293 29.1027 34.868 29.164C34.592 29.4093 34.224 29.6853 33.764 29.992C33.304 30.268 32.798 30.544 32.246 30.82C31.7247 31.0653 31.2033 31.28 30.682 31.464C30.1607 31.648 29.716 31.74 29.348 31.74C28.8573 31.74 28.5047 31.556 28.29 31.188C28.106 30.82 28.014 30.314 28.014 29.67C28.014 29.026 28.106 28.1827 28.29 27.14C28.5047 26.0667 28.7347 24.886 28.98 23.598C29.0413 23.3527 28.98 23.1073 28.796 22.862C28.612 22.586 28.3513 22.448 28.014 22.448C27.83 22.448 27.5387 22.4633 27.14 22.494C26.7413 22.494 26.2813 22.5093 25.76 22.54C25.2387 22.54 24.6713 22.5553 24.058 22.586C23.4753 22.586 22.8773 22.586 22.264 22.586C20.5467 24.058 18.952 25.392 17.48 26.588C16.0387 27.7533 14.6433 28.7347 13.294 29.532C11.9753 30.3293 10.6873 30.9427 9.43 31.372C8.20333 31.8013 6.97667 32.016 5.75 32.016C3.726 32.016 2.26933 31.4793 1.38 30.406C0.46 29.302 0 27.876 0 26.128C0 25.5453 0.092 24.932 0.276 24.288C0.429333 23.6133 0.659333 22.9693 0.966 22.356C1.27267 21.7427 1.64067 21.16 2.07 20.608C2.49933 20.056 2.97467 19.5807 3.496 19.182C3.64933 19.09 3.71067 19.0593 3.68 19.09C3.64933 19.1207 3.68 19.1513 3.772 19.182C3.036 19.9487 2.45333 20.7613 2.024 21.62C1.564 22.4787 1.334 23.4907 1.334 24.656C1.334 26.588 1.87067 27.9833 2.944 28.842C4.048 29.67 5.566 30.084 7.498 30.084C8.11133 30.084 8.84733 30.0227 9.706 29.9C10.5647 29.7773 11.5613 29.4707 12.696 28.98C13.8613 28.4587 15.18 27.7073 16.652 26.726C18.124 25.714 19.78 24.334 21.62 22.586C20.976 22.586 20.5313 22.5553 20.286 22.494C20.0407 22.4327 19.918 22.3407 19.918 22.218C19.9487 22.0953 20.056 21.9573 20.24 21.804C20.4547 21.62 20.608 21.5127 20.7 21.482C20.9147 21.6047 21.1293 21.6967 21.344 21.758C21.5893 21.8193 21.9113 21.8653 22.31 21.896C24.61 19.78 26.818 17.526 28.934 15.134C31.05 12.742 33.0433 10.35 34.914 7.958C34.3927 8.29533 33.7947 8.57133 33.12 8.786C32.4453 8.97 31.7707 9.062 31.096 9.062C30.268 9.062 29.4093 9.00067 28.52 8.878C27.6613 8.72467 26.7873 8.57134 25.898 8.418C25.0087 8.26467 24.15 8.12667 23.322 8.004C22.494 7.85067 21.712 7.774 20.976 7.774C19.32 7.774 17.9553 8.24934 16.882 9.2C15.8393 10.12 15.1647 11.7913 14.858 14.214C14.8273 14.3367 14.766 14.398 14.674 14.398C14.6127 14.3673 14.582 14.3213 14.582 14.26C14.582 13.156 14.7507 12.098 15.088 11.086C15.4253 10.074 15.916 9.18467 16.56 8.418C17.2347 7.62067 18.0627 6.992 19.044 6.532C20.0253 6.072 21.16 5.842 22.448 5.842C23.4293 5.842 24.38 5.96467 25.3 6.21C26.2507 6.42467 27.1707 6.65467 28.06 6.9C28.9493 7.176 29.8233 7.43667 30.682 7.682C31.5713 7.89667 32.4453 8.004 33.304 8.004C33.6413 8.004 34.0247 7.958 34.454 7.866C34.8833 7.774 35.2207 7.59 35.466 7.314C35.9873 6.70067 36.4167 6.28667 36.754 6.072C37.0913 5.85734 37.4287 5.75 37.766 5.75C38.226 5.75 38.456 6.026 38.456 6.578ZM32.798 11.5C32.8287 11.408 32.8133 11.3467 32.752 11.316C32.7213 11.2547 32.6447 11.2853 32.522 11.408C31.8167 12.2973 31.05 13.2173 30.222 14.168C29.394 15.1187 28.5507 16.054 27.692 16.974C26.864 17.894 26.036 18.7987 25.208 19.688C24.38 20.5467 23.598 21.3133 22.862 21.988C23.1687 22.0187 23.4907 22.0493 23.828 22.08C24.196 22.08 24.4567 22.08 24.61 22.08C25.2233 22.08 25.9287 22.08 26.726 22.08C27.5233 22.08 28.382 22.0493 29.302 21.988C29.6393 20.516 30.0993 18.86 30.682 17.02C31.2953 15.18 32.0007 13.34 32.798 11.5Z" transform="translate(0.604004 0.490234)" fill="#00073D"/>
<path d="M38.925 27.922C38.8023 27.7993 38.7103 27.6767 38.649 27.554C38.6183 27.4007 38.5263 27.4467 38.373 27.692C38.005 28.2747 37.6677 28.8267 37.361 29.348C37.0543 29.8387 36.763 30.2987 36.487 30.728C36.3337 30.9733 36.0883 31.2033 35.751 31.418C35.4443 31.602 35.1377 31.7553 34.831 31.878C34.647 31.878 34.555 31.8167 34.555 31.694C34.555 31.5713 34.601 31.4333 34.693 31.28C35.3677 30.176 36.1956 28.8267 37.177 27.232C38.1583 25.6067 39.155 23.9507 40.167 22.264C41.179 20.5773 42.145 18.998 43.065 17.526C44.0157 16.054 44.7823 14.904 45.365 14.076C46.193 12.9107 47.0517 11.7453 47.941 10.58C48.861 9.384 49.7963 8.24933 50.747 7.176C51.6977 6.072 52.679 5.04467 53.691 4.094C54.703 3.11267 55.7303 2.26934 56.773 1.564C57.4477 1.104 58.1837 0.736002 58.981 0.460002C59.809 0.153334 60.5756 0 61.281 0C61.925 0 62.4617 0.107334 62.891 0.322001C63.3203 0.536669 63.6577 0.797336 63.903 1.104C64.179 1.38 64.363 1.67134 64.455 1.978C64.5777 2.254 64.639 2.45334 64.639 2.576C64.639 2.76 64.5777 2.86733 64.455 2.898C64.3323 2.92867 64.271 2.88267 64.271 2.76C64.271 2.60667 64.2557 2.49933 64.225 2.438C64.225 2.37667 64.133 2.26934 63.949 2.116C63.121 1.59467 62.0017 1.334 60.591 1.334C59.0883 1.334 57.6623 1.76334 56.313 2.622C54.9637 3.45 53.691 4.508 52.495 5.796C51.299 7.05334 50.1797 8.44867 49.137 9.982C48.125 11.4847 47.205 12.8953 46.377 14.214C45.8863 15.0113 45.319 15.9467 44.675 17.02C44.0617 18.0933 43.4637 19.1207 42.881 20.102C42.329 21.0833 41.8537 21.9267 41.455 22.632C41.087 23.3373 40.8876 23.736 40.857 23.828C40.6423 24.2573 40.7037 24.3033 41.041 23.966C41.317 23.69 41.639 23.414 42.007 23.138C42.375 22.8313 42.743 22.5707 43.111 22.356C43.479 22.1107 43.847 21.9113 44.215 21.758C44.583 21.6047 44.9203 21.528 45.227 21.528C45.7483 21.528 46.009 21.7427 46.009 22.172C46.009 22.4787 45.9017 22.8313 45.687 23.23C45.4723 23.598 45.2577 23.92 45.043 24.196C44.4603 24.932 43.7703 25.53 42.973 25.99C42.2063 26.4193 41.3783 26.772 40.489 27.048C40.3356 27.1093 40.2743 27.1707 40.305 27.232C40.3357 27.2627 40.3817 27.3393 40.443 27.462C41.547 29.302 42.743 31.2033 44.031 33.166C45.3497 35.1593 46.7757 36.9687 48.309 38.594C49.8423 40.2193 51.4983 41.5533 53.277 42.596C55.0557 43.6693 56.9877 44.206 59.073 44.206C60.177 44.206 61.3423 44.022 62.569 43.654C63.8263 43.286 64.9303 42.6727 65.881 41.814C66.0037 41.6913 66.0956 41.6607 66.157 41.722C66.249 41.814 66.2337 41.9213 66.111 42.044C64.9763 43.0253 63.7037 43.6847 62.293 44.022C60.8823 44.39 59.533 44.574 58.245 44.574C56.4663 44.574 54.7643 44.1907 53.139 43.424C51.5137 42.688 49.9343 41.6453 48.401 40.296C46.8983 38.9467 45.4263 37.3367 43.985 35.466C42.5437 33.5953 41.133 31.556 39.753 29.348L38.925 27.922ZM44.399 23.046C44.399 22.8927 44.3377 22.77 44.215 22.678C44.123 22.5553 44.0157 22.494 43.893 22.494C43.617 22.494 43.203 22.6933 42.651 23.092C42.1297 23.46 41.593 23.8893 41.041 24.38C40.5197 24.8707 40.0597 25.3613 39.661 25.852C39.2623 26.312 39.063 26.6493 39.063 26.864C39.063 26.956 39.109 27.002 39.201 27.002C39.5997 27.002 40.0903 26.8793 40.673 26.634C41.2863 26.358 41.869 26.036 42.421 25.668C42.973 25.2693 43.433 24.84 43.801 24.38C44.1997 23.92 44.399 23.4753 44.399 23.046Z" transform="translate(0.604004 0.490234)" fill="#00073D"/>
<path d="M73.2295 2.576C73.2295 4.048 71.6808 6.348 68.5835 9.476C65.4861 12.5733 60.7022 16.4373 54.2315 21.068C53.9555 21.3133 53.8175 21.4667 53.8175 21.528C54.4922 21.9267 55.2895 22.2333 56.2095 22.448C57.1602 22.632 58.1262 22.724 59.1075 22.724C59.5982 22.724 60.1348 22.6933 60.7175 22.632C61.3002 22.54 61.8062 22.4173 62.2355 22.264C62.3888 22.2333 62.4655 22.264 62.4655 22.356C62.4962 22.4173 62.4348 22.4787 62.2815 22.54C61.8828 22.6933 61.3308 22.8313 60.6255 22.954C59.9508 23.0767 59.3222 23.138 58.7395 23.138C58.1568 23.138 57.5128 23.1227 56.8075 23.092C56.1022 23.0307 55.4428 22.9233 54.8295 22.77C54.7682 22.77 54.7375 22.816 54.7375 22.908C54.7375 23 54.7375 23.0767 54.7375 23.138C54.7375 23.8127 54.5995 24.5027 54.3235 25.208C54.0475 25.9133 53.6948 26.6033 53.2655 27.278C52.8668 27.922 52.4068 28.52 51.8855 29.072C51.3642 29.624 50.8582 30.084 50.3675 30.452C49.8155 30.8813 49.2635 31.2187 48.7115 31.464C48.1901 31.6787 47.7762 31.786 47.4695 31.786C47.0402 31.786 46.7488 31.6633 46.5955 31.418C46.4728 31.142 46.4115 30.82 46.4115 30.452C46.4115 30.0533 46.4575 29.6393 46.5495 29.21C46.6722 28.7807 46.8562 28.3053 47.1015 27.784C47.3775 27.232 47.6995 26.6033 48.0675 25.898C48.4662 25.162 48.9415 24.288 49.4935 23.276C51.7628 19.1053 53.9402 15.5787 56.0255 12.696C58.1108 9.78267 60.0428 7.42134 61.8215 5.612C63.6308 3.772 65.2715 2.45333 66.7435 1.656C68.2155 0.828 69.4882 0.414 70.5615 0.414C71.4202 0.414 72.0795 0.613334 72.5395 1.012C72.9995 1.38 73.2295 1.90134 73.2295 2.576ZM71.8035 3.68C71.8035 2.17733 70.9142 1.426 69.1355 1.426C68.2155 1.426 67.1268 1.80933 65.8695 2.576C64.6122 3.34267 63.2322 4.56933 61.7295 6.256C60.2268 7.912 58.6168 10.0587 56.8995 12.696C55.1822 15.3027 53.4035 18.446 51.5635 22.126C51.4715 22.31 51.4715 22.3867 51.5635 22.356C51.6862 22.2947 51.7782 22.2333 51.8395 22.172C53.0048 21.3747 54.3082 20.47 55.7495 19.458C57.2215 18.446 58.6935 17.3727 60.1655 16.238C61.6375 15.1033 63.0635 13.9533 64.4435 12.788C65.8542 11.6227 67.0962 10.488 68.1695 9.384C69.2735 8.24934 70.1475 7.20667 70.7915 6.256C71.4662 5.27467 71.8035 4.416 71.8035 3.68ZM53.8175 23.506C53.8175 22.9847 53.6488 22.678 53.3115 22.586C52.9742 22.4633 52.6675 22.402 52.3915 22.402C52.2075 22.402 51.9775 22.4787 51.7015 22.632C51.4562 22.7853 51.2415 22.9693 51.0575 23.184C50.8122 23.552 50.5208 24.0273 50.1835 24.61C49.8768 25.1927 49.5702 25.806 49.2635 26.45C48.9875 27.0633 48.7422 27.6613 48.5275 28.244C48.3435 28.8267 48.2515 29.2713 48.2515 29.578C48.2515 30.0687 48.3588 30.3753 48.5735 30.498C48.7882 30.59 48.9568 30.636 49.0795 30.636C49.3248 30.636 49.7082 30.4673 50.2295 30.13C50.6895 29.762 51.1342 29.3173 51.5635 28.796C52.0235 28.2747 52.4068 27.7227 52.7135 27.14C53.0508 26.5573 53.3115 25.9593 53.4955 25.346C53.7102 24.7327 53.8175 24.1193 53.8175 23.506Z" transform="translate(0.604004 0.490234)" fill="#00073D"/>
<path d="M71.8869 26.22C70.3229 28.0907 68.9275 29.4707 67.7009 30.36C66.5049 31.2493 65.4315 31.694 64.4809 31.694C64.0515 31.694 63.6682 31.5867 63.3309 31.372C63.0242 31.1267 62.8709 30.6053 62.8709 29.808C62.8709 29.624 62.9015 29.2713 62.9629 28.75C63.0549 28.198 63.2082 27.6767 63.4229 27.186C63.0242 27.7687 62.5795 28.336 62.0889 28.888C61.6289 29.44 61.1535 29.9307 60.6629 30.36C60.2029 30.7893 59.7582 31.142 59.3289 31.418C58.8995 31.6633 58.5469 31.786 58.2709 31.786C57.6882 31.786 57.3969 31.4487 57.3969 30.774C57.3969 30.1913 57.7035 29.3173 58.3169 28.152C58.7462 27.2933 59.3289 26.3887 60.0649 25.438C60.8315 24.4567 61.6442 23.598 62.5029 22.862C63.0242 22.4327 63.5149 22.08 63.9749 21.804C64.4655 21.528 64.9255 21.39 65.3549 21.39C65.8762 21.39 66.3515 21.5587 66.7809 21.896C66.9342 21.7733 67.1029 21.6507 67.2869 21.528C67.4709 21.3747 67.6242 21.252 67.7469 21.16C67.8082 21.16 67.8389 21.1907 67.8389 21.252C67.8389 21.3133 67.7775 21.4513 67.6549 21.666C66.7655 23.138 65.9835 24.5027 65.3089 25.76C64.6649 27.0173 64.3429 28.29 64.3429 29.578C64.3429 30.5287 64.6802 31.004 65.3549 31.004C65.9989 31.004 66.8729 30.6053 67.9769 29.808C69.1115 28.98 70.3382 27.692 71.6569 25.944C71.6875 25.8827 71.7489 25.852 71.8409 25.852C71.9635 25.852 71.9789 25.9747 71.8869 26.22ZM65.7229 22.954C65.5389 22.7393 65.3242 22.586 65.0789 22.494C64.8335 22.402 64.6035 22.356 64.3889 22.356C63.8675 22.356 63.3002 22.6473 62.6869 23.23C62.0735 23.8127 61.5062 24.5333 60.9849 25.392C60.4635 26.22 60.0342 27.094 59.6969 28.014C59.3595 28.9033 59.1909 29.67 59.1909 30.314C59.1909 30.5593 59.2982 30.682 59.5129 30.682C59.7582 30.682 60.2642 30.314 61.0309 29.578C61.7975 28.842 62.6255 27.8607 63.5149 26.634C63.9442 26.0207 64.3429 25.4227 64.7109 24.84C65.0789 24.2573 65.4162 23.6287 65.7229 22.954Z" transform="translate(0.604004 0.490234)" fill="#00073D"/>
<path d="M83.1195 26.082C82.2915 26.7567 81.2948 27.3853 80.1295 27.968C78.9948 28.5507 77.7835 29.0873 76.4955 29.578C75.2382 30.0687 73.9502 30.5287 72.6315 30.958C71.3128 31.3873 70.0708 31.786 68.9055 32.154C66.6975 36.0487 64.8882 39.238 63.4775 41.722C62.0668 44.206 60.9628 46.2147 60.1655 47.748C59.3682 49.2813 58.8162 50.4313 58.5095 51.198C58.2028 51.9953 58.0495 52.6393 58.0495 53.13C58.0495 53.5593 58.1722 53.8507 58.4175 54.004C58.6322 54.188 58.9695 54.28 59.4295 54.28C59.7055 54.28 60.0428 54.2493 60.4415 54.188C60.8095 54.1267 61.2082 54.05 61.6375 53.958C62.0362 53.8967 62.4195 53.8047 62.7875 53.682C63.1555 53.59 63.4622 53.498 63.7075 53.406C63.8608 53.3447 63.9528 53.3907 63.9835 53.544C64.0142 53.6973 63.9528 53.7893 63.7995 53.82C63.5542 53.8813 63.1402 53.9887 62.5575 54.142C61.9442 54.2953 61.3002 54.4487 60.6255 54.602C59.9202 54.7553 59.2455 54.8933 58.6015 55.016C57.9268 55.1387 57.4055 55.2 57.0375 55.2C56.7001 55.2 56.4242 55.1233 56.2095 54.97C55.9948 54.8473 55.8875 54.5867 55.8875 54.188C55.8875 53.5747 56.1481 52.7773 56.6695 51.796C57.1601 50.8453 57.9115 49.542 58.9235 47.886C59.9048 46.2607 61.1468 44.206 62.6495 41.722C64.1521 39.238 65.9002 36.1713 67.8935 32.522C67.3415 32.6753 66.7895 32.844 66.2375 33.028C65.6855 33.2427 65.3022 33.35 65.0875 33.35C64.8422 33.35 64.7195 33.2427 64.7195 33.028C64.7195 32.7213 64.8268 32.4913 65.0415 32.338C65.2561 32.1847 65.5015 32.0773 65.7775 32.016C66.1455 31.9547 66.5748 31.878 67.0655 31.786C67.5561 31.694 68.0162 31.602 68.4455 31.51C69.5802 29.486 70.6228 27.4773 71.5735 25.484C72.5548 23.4907 73.6282 21.574 74.7935 19.734C74.9162 19.5807 75.0541 19.4887 75.2075 19.458C75.3608 19.3967 75.5448 19.366 75.7595 19.366C76.1275 19.366 76.3115 19.4733 76.3115 19.688C76.3115 19.8107 76.1888 20.102 75.9435 20.562C75.6981 21.022 75.3762 21.5893 74.9775 22.264C74.5788 22.908 74.1188 23.644 73.5975 24.472C73.1068 25.2693 72.6008 26.082 72.0795 26.91C71.5888 27.7073 71.1135 28.4893 70.6535 29.256C70.1935 29.992 69.8102 30.636 69.5035 31.188L70.2395 31.004C70.8222 30.8507 71.5122 30.544 72.3095 30.084C73.1375 29.624 73.9041 29.0567 74.6095 28.382C75.3455 27.6767 75.9588 26.8947 76.4495 26.036C76.9708 25.1773 77.2315 24.288 77.2315 23.368C77.2315 22.8773 77.1702 22.5553 77.0475 22.402C76.9248 22.218 76.8635 22.0647 76.8635 21.942C76.8635 21.8193 76.9555 21.758 77.1395 21.758C77.1702 21.758 77.2928 21.8193 77.5075 21.942C77.7528 22.0647 77.9982 22.218 78.2435 22.402C78.4888 22.5553 78.7035 22.7087 78.8875 22.862C79.1021 22.9847 79.2095 23.0613 79.2095 23.092C79.2095 23.8893 78.9488 24.656 78.4275 25.392C77.9061 26.128 77.2622 26.8333 76.4955 27.508C75.7288 28.152 74.9162 28.75 74.0575 29.302C73.2295 29.8233 72.4781 30.268 71.8035 30.636C73.8581 30.084 75.8822 29.4093 77.8755 28.612C79.8688 27.8147 81.5555 26.864 82.9355 25.76C83.0582 25.6373 83.1502 25.622 83.2115 25.714C83.3035 25.806 83.2728 25.9287 83.1195 26.082Z" transform="translate(0.604004 0.490234)" fill="#00073D"/>
<path d="M92.7687 26.588C92.83 26.5267 92.8914 26.542 92.9527 26.634C93.014 26.6953 93.014 26.7567 92.9527 26.818C92.1247 27.6153 91.266 28.3207 90.3767 28.934C89.518 29.5473 88.6747 30.0687 87.8467 30.498C87.0494 30.9273 86.2827 31.2493 85.5467 31.464C84.8414 31.6787 84.2434 31.786 83.7527 31.786C82.8327 31.8167 82.0967 31.6787 81.5447 31.372C80.9927 31.0347 80.7167 30.5133 80.7167 29.808C80.7167 29.624 80.7474 29.3787 80.8087 29.072C80.87 28.7653 80.9467 28.4893 81.0387 28.244C81.3147 27.508 81.7287 26.7413 82.2807 25.944C82.8327 25.116 83.4307 24.3647 84.0747 23.69C84.7494 23.0153 85.4547 22.4633 86.1907 22.034C86.9267 21.6047 87.6167 21.39 88.2607 21.39C88.6287 21.39 88.9507 21.4513 89.2267 21.574C89.5334 21.666 89.6867 21.9267 89.6867 22.356C89.6867 22.816 89.4567 23.2913 88.9967 23.782C88.5674 24.242 88.0154 24.702 87.3407 25.162C86.666 25.5913 85.93 26.0053 85.1327 26.404C84.3354 26.772 83.5994 27.1093 82.9247 27.416C82.618 28.06 82.4647 28.704 82.4647 29.348C82.4647 29.9 82.71 30.314 83.2007 30.59C83.6914 30.8353 84.2434 30.958 84.8567 30.958C85.4394 30.958 86.0834 30.82 86.7887 30.544C87.494 30.268 88.184 29.9153 88.8587 29.486C89.564 29.0567 90.254 28.5967 90.9287 28.106C91.6034 27.5847 92.2167 27.0787 92.7687 26.588ZM88.2147 22.77C88.2147 22.5553 88.1534 22.3713 88.0307 22.218C87.908 22.034 87.724 21.942 87.4787 21.942C87.1414 21.942 86.758 22.1107 86.3287 22.448C85.8994 22.7547 85.47 23.1533 85.0407 23.644C84.642 24.1347 84.2587 24.6867 83.8907 25.3C83.5534 25.8827 83.2927 26.4347 83.1087 26.956C83.63 26.7413 84.182 26.5113 84.7647 26.266C85.3474 25.99 85.8534 25.6833 86.2827 25.346C86.8654 24.9167 87.3254 24.518 87.6627 24.15C88.0307 23.7513 88.2147 23.2913 88.2147 22.77Z" transform="translate(0.604004 0.490234)" fill="#00073D"/>
<path d="M90.6028 30.406C90.8174 30.0993 91.0168 29.9307 91.2008 29.9C91.3848 29.8693 91.5381 29.9 91.6608 29.992C91.8141 30.084 91.9367 30.222 92.0287 30.406C92.1207 30.59 92.1667 30.7433 92.1667 30.866C92.1667 31.142 92.2587 31.28 92.4427 31.28C92.9027 31.28 93.7001 30.5287 94.8347 29.026C95.0494 28.75 95.3407 28.3513 95.7087 27.83C96.1074 27.3087 96.5061 26.772 96.9047 26.22C97.3341 25.668 97.7174 25.162 98.0547 24.702C98.3921 24.2113 98.6221 23.8587 98.7448 23.644C99.0514 23.276 99.2814 22.9387 99.4348 22.632C99.6188 22.2947 99.8027 22.0187 99.9867 21.804C100.171 21.5587 100.416 21.3747 100.723 21.252C101.029 21.0987 101.459 21.022 102.011 21.022H102.379C102.593 21.022 102.731 21.0987 102.793 21.252C102.793 21.3747 102.716 21.5127 102.563 21.666C101.949 22.586 101.336 23.4907 100.723 24.38C100.14 25.2693 99.6648 26.0667 99.2968 26.772C98.7448 27.9067 98.3001 29.0567 97.9628 30.222C97.9321 30.3753 97.9014 30.5133 97.8708 30.636C97.8708 30.728 97.8708 30.8047 97.8708 30.866C97.8708 31.3873 98.1314 31.648 98.6527 31.648C98.7141 31.648 98.8981 31.6173 99.2048 31.556C100.309 31.2493 101.305 30.774 102.195 30.13C103.084 29.486 104.035 28.704 105.047 27.784C105.108 27.7227 105.185 27.692 105.277 27.692C105.399 27.692 105.461 27.738 105.461 27.83C105.461 27.922 105.415 28.014 105.323 28.106C104.249 29.0567 103.268 29.854 102.379 30.498C101.489 31.142 100.6 31.6173 99.7108 31.924C98.8828 32.2 98.1927 32.338 97.6407 32.338C96.6901 32.338 96.2148 31.9393 96.2148 31.142C96.2148 30.8047 96.2914 30.4673 96.4447 30.13C96.5981 29.762 96.7514 29.44 96.9047 29.164C97.5181 28.0907 98.0701 27.0787 98.5608 26.128C99.0821 25.1773 99.3581 24.564 99.3887 24.288C99.4501 24.012 99.1741 24.2267 98.5608 24.932C97.9781 25.6067 96.9048 27.048 95.3408 29.256C94.9421 29.7467 94.5741 30.1607 94.2367 30.498C93.8994 30.8353 93.6081 31.1113 93.3627 31.326C92.3814 32.1233 91.5994 32.522 91.0167 32.522C90.5261 32.522 90.2807 32.246 90.2807 31.694C90.2807 31.5407 90.2961 31.3567 90.3268 31.142C90.3574 30.8967 90.4494 30.6513 90.6028 30.406Z" transform="translate(0.604004 0.490234)" fill="#00073D"/>
<path d="M108.311 30.636C108.25 30.6667 108.189 30.7127 108.127 30.774C108.526 30.774 109.032 30.636 109.645 30.36C110.289 30.0533 110.964 29.6393 111.669 29.118C112.405 28.5967 113.157 27.968 113.923 27.232C114.721 26.4653 115.472 25.6373 116.177 24.748C116.239 24.7173 116.315 24.702 116.407 24.702C116.499 24.6713 116.515 24.7787 116.453 25.024C115.472 26.22 114.521 27.232 113.601 28.06C112.712 28.8573 111.869 29.5013 111.071 29.992C110.274 30.4827 109.553 30.8353 108.909 31.05C108.265 31.234 107.729 31.3107 107.299 31.28C106.993 31.4333 106.701 31.556 106.425 31.648C106.149 31.7707 105.889 31.832 105.643 31.832H105.137C104.34 31.832 103.941 31.464 103.941 30.728C103.941 30.4827 104.018 30.1453 104.171 29.716C104.325 29.256 104.524 28.796 104.769 28.336C105.107 27.6307 105.444 26.956 105.781 26.312C106.149 25.6373 106.533 25.0087 106.931 24.426C107.207 23.9967 107.483 23.5673 107.759 23.138C108.035 22.7087 108.311 22.2793 108.587 21.85C108.649 21.7887 108.71 21.7427 108.771 21.712H108.679C108.741 21.5587 108.817 21.4207 108.909 21.298C109.001 21.1753 109.093 21.0373 109.185 20.884C109.247 20.8533 109.354 20.838 109.507 20.838C109.661 20.8073 109.814 20.8073 109.967 20.838C110.151 20.8687 110.305 20.9147 110.427 20.976C110.55 21.0067 110.611 21.0527 110.611 21.114C110.611 21.1447 110.55 21.252 110.427 21.436C110.335 21.62 110.213 21.8193 110.059 22.034C109.937 22.2487 109.814 22.448 109.691 22.632C109.569 22.816 109.492 22.9233 109.461 22.954C109.032 23.4753 108.603 24.0427 108.173 24.656C107.775 25.2693 107.407 25.8673 107.069 26.45C107.345 26.2967 107.637 26.128 107.943 25.944C108.25 25.76 108.603 25.5607 109.001 25.346C109.707 24.9473 110.136 24.7173 110.289 24.656C110.443 24.564 110.55 24.518 110.611 24.518C110.703 24.518 110.795 24.61 110.887 24.794C111.01 24.9473 111.102 25.1313 111.163 25.346C111.225 25.53 111.271 25.714 111.301 25.898C111.332 26.0513 111.317 26.128 111.255 26.128C110.979 27.508 110.381 28.6733 109.461 29.624L109.231 29.854L108.311 30.636ZM108.403 30.13L108.449 30.176C108.848 29.6853 109.216 29.0873 109.553 28.382C109.86 27.6767 110.013 27.048 110.013 26.496C110.013 26.2813 109.998 26.0667 109.967 25.852C109.937 25.6067 109.799 25.484 109.553 25.484C109.308 25.484 109.078 25.5453 108.863 25.668C107.851 26.1893 107.069 26.864 106.517 27.692C105.996 28.4893 105.735 29.3633 105.735 30.314C105.827 30.682 106.088 30.866 106.517 30.866C107.069 30.866 107.683 30.6667 108.357 30.268L108.403 30.13ZM106.885 31.188C106.885 31.4027 106.993 31.4333 107.207 31.28C107.146 31.2493 107.085 31.234 107.023 31.234C106.993 31.234 106.947 31.2187 106.885 31.188Z" transform="translate(0.604004 0.490234)" fill="#00073D"/>
</svg>
