<svg width="60" height="60" viewBox="0 0 60 60" fill="none" xmlns="http://www.w3.org/2000/svg">
<circle cx="30" cy="30" r="30" fill="white"/>
<g clip-path="url(#clip0)">
<path d="M46.3617 24.7966C46.1702 21.1629 43.3712 18.1617 40.1208 18.108L35.7423 18.0349C32.9993 17.9905 28.5135 17.9867 25.7715 18.0337L21.302 18.1091C18.0471 18.1628 15.2712 21.1695 15.1132 24.8116L15.1004 25.1052C14.9665 28.2016 14.9665 33.2379 15.1004 36.3333L15.1132 36.6324C15.2707 40.27 18.0452 43.2878 21.2975 43.3599L25.7769 43.4557C27.1428 43.485 28.9412 43.5 30.7411 43.5C32.5578 43.5 34.3769 43.485 35.7555 43.4557L40.1257 43.3599C43.3731 43.2901 46.1702 40.2784 46.3617 36.6474L46.3774 36.3421C46.5409 33.2424 46.5409 28.1978 46.3774 25.0969L46.3617 24.7966V24.7966ZM44.3929 36.212L44.3772 36.5161C44.2473 38.9711 42.2829 41.086 40.0873 41.1325L35.7172 41.2289C32.9949 41.2871 28.5401 41.2882 25.8158 41.2289L21.3364 41.1325C19.1088 41.0838 17.207 39.0171 17.0997 36.5249L17.0869 36.2258C16.955 33.1903 16.955 28.2493 17.0869 25.2126L17.0992 24.9191C17.207 22.4286 19.1058 20.3719 21.3325 20.3353L25.802 20.2605C27.1477 20.2378 28.9176 20.2262 30.6924 20.2262C32.5106 20.2262 34.3331 20.2384 35.7132 20.2611L40.0912 20.3337C42.3228 20.3702 44.2448 22.4314 44.3772 24.9274L44.3929 25.2276C44.5524 28.2559 44.5524 33.1837 44.3929 36.212Z" fill="#47276A"/>
<path d="M36.3245 29.7419L28.4579 25.6144C28.1493 25.4525 27.7786 25.4628 27.4809 25.643C27.1831 25.8231 27 26.1435 27 26.4905V34.7445C27 35.0915 27.1826 35.4124 27.4809 35.5925C27.6384 35.6865 27.8165 35.7343 27.9947 35.7343C28.1532 35.7343 28.3127 35.6964 28.4579 35.6206L36.3245 31.4931C36.6508 31.3223 36.8551 30.9852 36.8551 30.618C36.8551 30.2508 36.6513 29.9127 36.3245 29.7419V29.7419ZM28.9884 33.105V28.129L33.7297 30.617L28.9884 33.105V33.105Z" fill="#47276A"/>
</g>
<defs>
<clipPath id="clip0">
<rect width="31.5" height="31.5" fill="white" transform="translate(15 13.5)"/>
</clipPath>
</defs>
</svg>
