<svg width="70" height="57" viewBox="0 0 70 57" fill="none" xmlns="http://www.w3.org/2000/svg">
<path d="M69.6927 15.1925C69.2672 7.06997 63.047 0.361454 55.8239 0.241349L46.0939 0.0779081C39.9984 -0.0211472 30.03 -0.0298143 23.9367 0.0754319L14.0044 0.243825C6.77141 0.36393 0.602656 7.08483 0.251563 15.2259L0.223125 15.8822C-0.074375 22.8037 -0.074375 34.0613 0.223125 40.9803L0.251563 41.6489C0.601563 49.7801 6.76703 56.5258 13.9945 56.6867L23.9487 56.9009C26.9839 56.9666 30.9805 57 34.9803 57C39.0173 57 43.0598 56.9666 46.1234 56.9009L55.8348 56.6867C63.0514 56.5307 69.2672 49.7987 69.6927 41.6823L69.7277 41.0001C70.0908 34.0712 70.0908 22.795 69.7277 15.8636L69.6927 15.1925V15.1925ZM65.3177 40.7091L65.2827 41.3889C64.9939 46.8766 60.6288 51.604 55.7495 51.708L46.0381 51.9234C39.9886 52.0534 30.0891 52.0559 24.0352 51.9234L14.0809 51.708C9.13062 51.599 4.90437 46.9793 4.66594 41.4087L4.6375 40.7401C4.34437 33.9548 4.34437 22.9101 4.6375 16.1224L4.66484 15.4661C4.90437 9.89923 9.12406 5.30183 14.0722 5.22011L24.0045 5.05296C26.9948 5.00219 30.928 4.97619 34.872 4.97619C38.9123 4.97619 42.9625 5.00343 46.0294 5.0542L55.7583 5.2164C60.7173 5.29812 64.9884 9.90543 65.2827 15.4847L65.3177 16.1558C65.672 22.925 65.672 33.9399 65.3177 40.7091Z" fill="#E0C675"/>
<path d="M47.3874 26.2465L29.9059 17.0204C29.2202 16.6584 28.3966 16.6815 27.7349 17.0842C27.0731 17.4869 26.6663 18.2031 26.6663 18.9787V37.4288C26.6663 38.2044 27.072 38.9218 27.7349 39.3244C28.0849 39.5346 28.4808 39.6413 28.8767 39.6413C29.2289 39.6413 29.5833 39.5566 29.9059 39.3871L47.3874 30.161C48.1125 29.7792 48.5664 29.0256 48.5664 28.2049C48.5664 27.3841 48.1136 26.6283 47.3874 26.2465V26.2465ZM31.085 33.7641V22.6412L41.6211 28.2027L31.085 33.7641V33.7641Z" fill="#E0C675"/>
</svg>
